<svg width="20" height="24" viewBox="0 0 20 24" fill="none" xmlns="http://www.w3.org/2000/svg">
<path d="M1.46295 7.83789C1.05569 7.83789 0.710146 7.97991 0.426105 8.26395C0.142063 8.54799 0 8.88883 0 9.28665V15.3946C0 15.8024 0.142021 16.1476 0.426105 16.4317C0.710146 16.7157 1.05569 16.8578 1.46295 16.8578C1.8699 16.8578 2.21335 16.7158 2.49299 16.4317C2.77207 16.1477 2.912 15.8024 2.912 15.3946V9.28665C2.912 8.88879 2.76998 8.54799 2.4859 8.26395C2.20181 7.97991 1.86076 7.83789 1.46295 7.83789Z" fill="white"/>
<path d="M13.2247 2.35477L14.2333 0.494265C14.2995 0.371092 14.2759 0.276639 14.1624 0.210223C14.0392 0.152953 13.9445 0.181973 13.8784 0.295231L12.8557 2.1706C11.9558 1.77275 11.0041 1.57346 10.0005 1.57346C8.99661 1.57346 8.04478 1.77279 7.14526 2.1706L6.12256 0.295231C6.0561 0.181973 5.96144 0.15321 5.83852 0.210223C5.72475 0.276938 5.7012 0.371092 5.76766 0.494265L6.77625 2.35477C5.75356 2.87631 4.93904 3.60265 4.33301 4.53538C3.72697 5.46862 3.42383 6.48845 3.42383 7.59667H16.5628C16.5628 6.48871 16.2596 5.46884 15.6536 4.53538C15.0476 3.60265 14.2377 2.87631 13.2247 2.35477ZM7.39374 5.06089C7.28467 5.17022 7.1544 5.22463 7.00298 5.22463C6.85126 5.22463 6.72364 5.17022 6.61953 5.06089C6.51542 4.95208 6.46336 4.82233 6.46336 4.67039C6.46336 4.51897 6.51542 4.38896 6.61953 4.27989C6.72364 4.17107 6.85156 4.11667 7.00298 4.11667C7.1544 4.11667 7.28467 4.17107 7.39374 4.27989C7.50255 4.38921 7.55722 4.51897 7.55722 4.67039C7.55692 4.82207 7.5023 4.95208 7.39374 5.06089ZM13.3808 5.06089C13.2765 5.17022 13.1486 5.22463 12.9974 5.22463C12.8457 5.22463 12.7154 5.17022 12.6066 5.06089C12.4976 4.95208 12.4431 4.82233 12.4431 4.67039C12.4431 4.51897 12.4976 4.38896 12.6066 4.27989C12.7154 4.17107 12.8457 4.11667 12.9974 4.11667C13.1488 4.11667 13.2765 4.17107 13.3808 4.27989C13.485 4.38921 13.537 4.51897 13.537 4.67039C13.537 4.82207 13.485 4.95208 13.3808 5.06089Z" fill="white"/>
<path d="M3.47998 17.5678C3.47998 18.0038 3.6314 18.3729 3.93429 18.6758C4.23744 18.9787 4.60653 19.1301 5.04225 19.1301H6.09345L6.10785 22.3549C6.10785 22.7621 6.24988 23.1079 6.53392 23.392C6.81796 23.6761 7.15906 23.8181 7.55661 23.8181C7.96361 23.8181 8.30937 23.6761 8.59345 23.392C8.87754 23.1079 9.01956 22.7622 9.01956 22.3549V19.1304H10.9797V22.3549C10.9797 22.7621 11.1217 23.1079 11.4058 23.392C11.6899 23.6761 12.0353 23.8181 12.4426 23.8181C12.8496 23.8181 13.1954 23.6761 13.4795 23.392C13.7636 23.1079 13.9055 22.7622 13.9055 22.3549V19.1304H14.9709C15.397 19.1304 15.7613 18.9789 16.0648 18.6761C16.3676 18.3732 16.5191 18.0041 16.5191 17.5681V8.10742H3.47998V17.5678Z" fill="white"/>
<path d="M18.5372 7.83789C18.1393 7.83789 17.7985 7.97782 17.5144 8.2569C17.2304 8.5365 17.0884 8.87995 17.0884 9.28665V15.3946C17.0884 15.8024 17.2304 16.1476 17.5144 16.4317C17.7985 16.7158 18.1396 16.8578 18.5372 16.8578C18.9442 16.8578 19.2899 16.7158 19.574 16.4317C19.8581 16.1476 20.0001 15.8024 20.0001 15.3946V9.28665C20.0001 8.8799 19.8581 8.5365 19.574 8.2569C19.2899 7.97782 18.9442 7.83789 18.5372 7.83789Z" fill="white"/>
</svg>
