<svg width="17" height="20" viewBox="0 0 17 20" fill="none" xmlns="http://www.w3.org/2000/svg">
<path d="M15.7123 15.3068C15.4242 15.9706 15.0831 16.5816 14.688 17.1434C14.1493 17.9092 13.7083 18.4393 13.3684 18.7337C12.8415 19.2169 12.277 19.4644 11.6725 19.4784C11.2385 19.4784 10.7152 19.3553 10.106 19.1055C9.49478 18.8568 8.93309 18.7337 8.4195 18.7337C7.88086 18.7337 7.30317 18.8568 6.68526 19.1055C6.06641 19.3553 5.56788 19.4855 5.18671 19.4984C4.60703 19.523 4.02922 19.2685 3.45248 18.7337C3.08437 18.4135 2.62393 17.8647 2.07236 17.0871C1.48056 16.2567 0.994016 15.2939 0.612851 14.1961C0.204636 13.0104 0 11.8622 0 10.7507C0 9.47735 0.275906 8.37913 0.828542 7.45883C1.26287 6.71962 1.84067 6.1365 2.56384 5.70842C3.287 5.28035 4.06839 5.06221 4.90986 5.04825C5.3703 5.04825 5.97409 5.19028 6.72443 5.46941C7.47264 5.74947 7.95307 5.8915 8.1637 5.8915C8.32118 5.8915 8.85488 5.72543 9.75963 5.39435C10.6152 5.08731 11.3373 4.96018 11.9289 5.01025C13.5319 5.13926 14.7362 5.76941 15.5371 6.90468C14.1035 7.77092 13.3943 8.98418 13.4084 10.5406C13.4213 11.7529 13.8624 12.7618 14.7291 13.5628C15.1219 13.9346 15.5606 14.2219 16.0487 14.426C15.9428 14.7321 15.8311 15.0253 15.7123 15.3068ZM12.0359 0.880108C12.0359 1.83032 11.6878 2.71754 10.9939 3.53874C10.1566 4.51498 9.14372 5.0791 8.04539 4.99008C8.03139 4.87608 8.02328 4.75611 8.02328 4.63003C8.02328 3.71782 8.4215 2.74158 9.12867 1.94337C9.48172 1.53922 9.93075 1.20318 10.4753 0.935112C11.0186 0.671044 11.5326 0.525008 12.0159 0.5C12.03 0.627029 12.0359 0.754066 12.0359 0.880096V0.880108Z" fill="white"/>
</svg>
