<svg id="Layer_1" data-name="Layer 1" xmlns="http://www.w3.org/2000/svg" xmlns:xlink="http://www.w3.org/1999/xlink" viewBox="0 0 1794.21 711.03">
<defs>
<style>.cls-1{fill:url(#linear-gradient);}.cls-2{fill:#890F3C;}
</style>
<linearGradient id="linear-gradient" x1="102.75" y1="500.01" x2="813.78" y2="500.01" gradientTransform="translate(0.15 -0.13) rotate(0.01)" gradientUnits="userSpaceOnUse">
<stop offset="0" stop-color="#890F3C"/>
<stop offset="0.69" stop-color="#e53b7a"/>
</linearGradient></defs>
<title>Astro logo</title>
<path class="cls-1" transform="translate(-20.50 -140.43)"
 d="M601,174.21c-2.09-.92-4.19-1.82-6.31-2.68a351.08,351.08,0,0,0-62.43-19.39c-2.33-.51-4.68-1-7-1.42a358.45,358.45,0,0,0-145.2,2.37c-2.32.51-4.62,1.05-6.92,1.62A352.17,352.17,0,0,0,318.49,173q-3.14,1.36-6.25,2.76A351,351,0,0,0,272.16,197q-2.9,1.77-5.75,3.62C168,263.86,102.85,374.26,102.83,499.89A354.07,354.07,0,0,0,188.59,731.5c1.55,1.82,3.14,3.62,4.73,5.4a357.09,357.09,0,0,0,47.85,44.52q2.7,2.11,5.46,4.13a355.82,355.82,0,0,0,375.88,29.8c2-1,4-2.12,6-3.2l-30.1-51.95q-3,1.61-6,3.16A295.77,295.77,0,0,1,277,733.24c-1.81-1.4-3.6-2.82-5.37-4.28a296.2,296.2,0,0,1-46.27-47.28c-1.52-1.93-3-3.88-4.46-5.85a294.39,294.39,0,0,1-58-175.93c0-103.46,53.18-194.48,133.69-247.26q2.84-1.88,5.73-3.68a294.23,294.23,0,0,1,40.25-21c2.11-.91,4.21-1.78,6.34-2.61a292,292,0,0,1,55.9-16.1q3.55-.66,7.14-1.21a298.52,298.52,0,0,1,81-1.63c2.45.28,4.89.6,7.31.94a293.29,293.29,0,0,1,64,16.62c2.14.82,4.27,1.65,6.39,2.54,107.51,44.2,183.19,150,183.18,273.44a294.19,294.19,0,0,1-65.43,185.41L496.61,354.31l-3.92-6.78L455.86,284l-3.92-6.78L448,284l-32.63,56.28L411.46,347l-26.21,45.22L381.32,399,239.81,643.14h89.38l96.81-167,3.92-6.78,26.22-45.22L636.59,735.66l30.27,52.24q2.77-2,5.5-4.06a356.39,356.39,0,0,0,43-38.31q2.46-2.56,4.86-5.18A354.17,354.17,0,0,0,813.86,500C813.88,354.36,726.34,229.19,601,174.21Z" />
</svg>