<svg id="Layer_1" data-name="Layer 1" xmlns="http://www.w3.org/2000/svg" xmlns:xlink="http://www.w3.org/1999/xlink" viewBox="0 0 1794.21 711.03">
<defs>
<style>.cls-1{fill:url(#linear-gradient);}.cls-2{fill:#890F3C;}
</style>
<linearGradient id="linear-gradient" x1="102.75" y1="500.01" x2="813.78" y2="500.01" gradientTransform="translate(0.15 -0.13) rotate(0.01)" gradientUnits="userSpaceOnUse">
<stop offset="0" stop-color="#890F3C"/>
<stop offset="0.69" stop-color="#e53b7a"/>
</linearGradient></defs>
<title>Astro logo</title>
<path class="cls-1" d="M601,174.21c-2.09-.92-4.19-1.82-6.31-2.68a351.08,351.08,0,0,0-62.43-19.39c-2.33-.51-4.68-1-7-1.42a358.45,358.45,0,0,0-145.2,2.37c-2.32.51-4.62,1.05-6.92,1.62A352.17,352.17,0,0,0,318.49,173q-3.14,1.36-6.25,2.76A351,351,0,0,0,272.16,197q-2.9,1.77-5.75,3.62C168,263.86,102.85,374.26,102.83,499.89A354.07,354.07,0,0,0,188.59,731.5c1.55,1.82,3.14,3.62,4.73,5.4a357.09,357.09,0,0,0,47.85,44.52q2.7,2.11,5.46,4.13a355.82,355.82,0,0,0,375.88,29.8c2-1,4-2.12,6-3.2l-30.1-51.95q-3,1.61-6,3.16A295.77,295.77,0,0,1,277,733.24c-1.81-1.4-3.6-2.82-5.37-4.28a296.2,296.2,0,0,1-46.27-47.28c-1.52-1.93-3-3.88-4.46-5.85a294.39,294.39,0,0,1-58-175.93c0-103.46,53.18-194.48,133.69-247.26q2.84-1.88,5.73-3.68a294.23,294.23,0,0,1,40.25-21c2.11-.91,4.21-1.78,6.34-2.61a292,292,0,0,1,55.9-16.1q3.55-.66,7.14-1.21a298.52,298.52,0,0,1,81-1.63c2.45.28,4.89.6,7.31.94a293.29,293.29,0,0,1,64,16.62c2.14.82,4.27,1.65,6.39,2.54,107.51,44.2,183.19,150,183.18,273.44a294.19,294.19,0,0,1-65.43,185.41L496.61,354.31l-3.92-6.78L455.86,284l-3.92-6.78L448,284l-32.63,56.28L411.46,347l-26.21,45.22L381.32,399,239.81,643.14h89.38l96.81-167,3.92-6.78,26.22-45.22L636.59,735.66l30.27,52.24q2.77-2,5.5-4.06a356.39,356.39,0,0,0,43-38.31q2.46-2.56,4.86-5.18A354.17,354.17,0,0,0,813.86,500C813.88,354.36,726.34,229.19,601,174.21Z" transform="translate(-102.83 -144.43)"/>
<path class="cls-2" style="fill:#fff" d="M1025.07,595.26h-91.5l-13,50.87H833.39l98.24-295.77h98.6L1130,646.15h-91.89ZM971.85,446.57l-21.31,82.82h58L987.62,447l-7.1-31.55h-1.18Z" transform="translate(-102.83 -144.43)"/>
<path class="cls-2" style="fill:#fff" d="M1318.48,568.09a101.32,101.32,0,0,1-5.33,33.72,65.57,65.57,0,0,1-17,26.22q-11.64,11-30,17t-44,5.91q-45.36,0-76.51-15l7.5-59.94a105.64,105.64,0,0,0,16.56,6.9,153.14,153.14,0,0,0,18.14,4.73q9.07,1.78,17.94,2.76a145.73,145.73,0,0,0,16,1q13.8,0,20.11-4.53a14.12,14.12,0,0,0,6.31-12q0-7.49-7.89-11.63a114.29,114.29,0,0,0-19.52-7.69q-11.64-3.55-25.24-7.89a93.84,93.84,0,0,1-25.24-12.43,67.64,67.64,0,0,1-19.52-21.3q-7.89-13.21-7.88-34.9a83.06,83.06,0,0,1,5.72-31,64.55,64.55,0,0,1,17.55-24.84q11.83-10.44,30-16.36t42.59-5.91a189.58,189.58,0,0,1,36.87,3.55,179.69,179.69,0,0,1,33.32,9.86l-5.53,59.16a153.29,153.29,0,0,0-16.37-4.93q-8.87-2.16-17.75-3.75a166.64,166.64,0,0,0-17.15-2.17q-8.28-.59-14.59-.59-22.09,0-22.09,13.8,0,7.1,7.69,11a109.94,109.94,0,0,0,19.13,7.3q11.44,3.36,24.65,7.69a96.18,96.18,0,0,1,24.65,12.23,66,66,0,0,1,19.12,20.71Q1318.49,547.58,1318.48,568.09Z" transform="translate(-102.83 -144.43)"/>
<path class="cls-2" style="fill:#fff" d="M1425.77,459.65V570.47q0,11.44,5.91,16.76t18.93,5.33a70,70,0,0,0,9.86-.79,43,43,0,0,0,8.68-2l3.94,52.85q-6.71,3.16-19.13,5.32a155.16,155.16,0,0,1-26.62,2.17q-39.84,0-58.76-21.11t-18.92-56.6l0-112.79h-22.87V404.81h26.82l12.23-51.27,59.95-5.12v56.4h50.09v54.82Z" transform="translate(-102.83 -144.43)"/>
<path class="cls-2" style="fill:#fff" d="M1501.86,646.2l0-239.39,60.34-2.75,6.7,34.71h1.18Q1581.55,419,1597.33,410a68.41,68.41,0,0,1,34.71-9.07,111.74,111.74,0,0,1,15.58,1,48.53,48.53,0,0,1,11.63,3l-4.35,71.78a73.32,73.32,0,0,0-13-3,109.7,109.7,0,0,0-15-1q-22.09,0-35.5,13.6T1578,525.92l0,120.29Z" transform="translate(-102.83 -144.43)"/>
<path class="cls-2" style="fill:#fff" d="M1897,526.75q0,33.13-6.71,56.79t-20.52,38.84q-13.81,15.18-35.3,22.28t-51.47,7.09q-59.16,0-86.56-29.39t-27.4-95.64q0-66.26,27.62-96.23t86.77-30q29.58,0,51.07,7.3T1870,430.52q14,15.38,20.5,39.24T1897,526.75Zm-149.08,0q0,20.11,2,32.93t6.11,20.11a22.14,22.14,0,0,0,10.85,10.06q6.7,2.76,16.56,2.76t16.56-2.76q6.7-2.75,10.85-10.25t5.92-20.11a243.92,243.92,0,0,0,1.78-32.73,248.58,248.58,0,0,0-1.77-32.93Q1815,481,1810.88,473.7A22.22,22.22,0,0,0,1800,463.64q-6.71-2.76-16.56-2.76a45.25,45.25,0,0,0-16.76,2.76,22.05,22.05,0,0,0-11,10.05q-4.14,7.3-5.92,20.11A248.65,248.65,0,0,0,1748,526.73Z" transform="translate(-102.83 -144.43)"/>
</svg>