<svg id="Layer_1" data-name="Layer 1" xmlns="http://www.w3.org/2000/svg" viewBox="0 0 1794.17 711.02"><defs><style>.cls-1{fill:#fff;}</style></defs><title>Astro logo (white)</title><path class="cls-1" d="M498.17,29.78c-2.09-.92-4.19-1.82-6.31-2.68A351.08,351.08,0,0,0,429.43,7.71c-2.33-.51-4.68-1-7-1.42a358.45,358.45,0,0,0-145.2,2.37c-2.32.51-4.62,1.05-6.92,1.62a352.17,352.17,0,0,0-54.65,18.29q-3.14,1.36-6.25,2.76a351,351,0,0,0-40.08,21.24q-2.9,1.77-5.75,3.62C65.17,119.43,0,229.83,0,355.46A354.07,354.07,0,0,0,85.76,587.07c1.55,1.82,3.14,3.62,4.73,5.4A357.09,357.09,0,0,0,138.34,637q2.7,2.11,5.46,4.13a355.82,355.82,0,0,0,375.88,29.8c2-1,4-2.12,6-3.2l-30.1-52q-3,1.61-6,3.16a295.77,295.77,0,0,1-315.41-30.12c-1.81-1.4-3.6-2.82-5.37-4.28a296.2,296.2,0,0,1-46.27-47.28c-1.52-1.93-3-3.88-4.46-5.85a294.39,294.39,0,0,1-58-175.93C60.07,252,113.25,161,193.76,108.21q2.84-1.88,5.73-3.68a294.23,294.23,0,0,1,40.25-21c2.11-.91,4.21-1.78,6.34-2.61A292,292,0,0,1,302,64.82q3.55-.66,7.14-1.21a298.52,298.52,0,0,1,81-1.63c2.45.28,4.89.6,7.31.94a293.29,293.29,0,0,1,64,16.62c2.14.82,4.27,1.65,6.39,2.54C575.33,126.28,651,232.08,651,355.52a294.19,294.19,0,0,1-65.43,185.41l-191.79-331-3.92-6.78L353,139.57l-3.92-6.78-3.94,6.78-32.63,56.28-3.91,6.72-26.21,45.22-3.93,6.78L137,498.71h89.38l96.81-167,3.92-6.78,26.22-45.22L533.76,591.23,564,643.47q2.77-2,5.5-4.06a356.39,356.39,0,0,0,43-38.31q2.46-2.56,4.86-5.18A354.17,354.17,0,0,0,711,355.57C711.05,209.93,623.51,84.76,498.17,29.78Z" transform="translate(0 0)"/><path class="cls-1" d="M922.24,450.83h-91.5l-13,50.87H730.56L828.8,205.93h98.6l99.77,295.79H935.28ZM869,302.14,847.71,385h58l-20.92-82.39L877.69,271h-1.18Z" transform="translate(0 0)"/><path class="cls-1" d="M1215.65,423.66a101.32,101.32,0,0,1-5.33,33.72,65.57,65.57,0,0,1-17,26.22q-11.64,11-30,17t-44,5.91q-45.36,0-76.51-15l7.5-59.94a105.64,105.64,0,0,0,16.56,6.9A153.14,153.14,0,0,0,1085,443.2Q1094.08,445,1103,446a145.73,145.73,0,0,0,16,1q13.8,0,20.11-4.53a14.12,14.12,0,0,0,6.31-12q0-7.49-7.89-11.63a114.29,114.29,0,0,0-19.52-7.69q-11.64-3.55-25.24-7.89a93.84,93.84,0,0,1-25.24-12.43,67.64,67.64,0,0,1-19.52-21.3q-7.89-13.21-7.88-34.9a83.06,83.06,0,0,1,5.72-31,64.55,64.55,0,0,1,17.55-24.84q11.83-10.44,30-16.36t42.59-5.91a189.58,189.58,0,0,1,36.87,3.55,179.69,179.69,0,0,1,33.32,9.86L1200.6,329a153.3,153.3,0,0,0-16.37-4.93q-8.87-2.16-17.75-3.75a166.65,166.65,0,0,0-17.15-2.17q-8.28-.59-14.59-.59-22.09,0-22.09,13.8,0,7.1,7.69,11a109.94,109.94,0,0,0,19.13,7.3q11.44,3.36,24.65,7.69a96.18,96.18,0,0,1,24.65,12.23,66,66,0,0,1,19.12,20.71Q1215.66,403.15,1215.65,423.66Z" transform="translate(0 0)"/><path class="cls-1" d="M1322.94,315.22V426q0,11.44,5.91,16.76t18.93,5.33a70,70,0,0,0,9.86-.79,43,43,0,0,0,8.68-2l3.94,52.85q-6.71,3.16-19.13,5.32a155.16,155.16,0,0,1-26.62,2.17q-39.84,0-58.76-21.11T1246.83,428V315.18H1224v-54.8h26.82L1263,209.11,1323,204v56.4H1373v54.82Z" transform="translate(0 0)"/><path class="cls-1" d="M1399,501.77V262.38l60.34-2.75,6.7,34.71h1.18q11.47-19.77,27.25-28.77a68.41,68.41,0,0,1,34.71-9.07,111.74,111.74,0,0,1,15.58,1,48.53,48.53,0,0,1,11.63,3l-4.35,71.78a73.32,73.32,0,0,0-13-3,109.7,109.7,0,0,0-15-1q-22.09,0-35.5,13.6t-13.4,39.61V501.78Z" transform="translate(0 0)"/><path class="cls-1" d="M1794.17,382.32q0,33.13-6.71,56.79T1766.94,478q-13.81,15.18-35.3,22.28t-51.47,7.09q-59.16,0-86.56-29.39t-27.4-95.64q0-66.26,27.62-96.23t86.77-30q29.58,0,51.07,7.3t35.5,22.73q14,15.38,20.5,39.24T1794.17,382.32Zm-149.08,0q0,20.11,2,32.93t6.11,20.11a22.14,22.14,0,0,0,10.85,10.06q6.7,2.76,16.56,2.76t16.56-2.76q6.7-2.75,10.85-10.25t5.92-20.11a243.92,243.92,0,0,0,1.78-32.73A248.59,248.59,0,0,0,1714,349.4q-1.78-12.83-5.9-20.13a22.22,22.22,0,0,0-10.88-10.06q-6.71-2.76-16.56-2.76a45.25,45.25,0,0,0-16.76,2.76,22.05,22.05,0,0,0-11,10q-4.14,7.3-5.92,20.11a248.65,248.65,0,0,0-1.76,32.93Z" transform="translate(0 0)"/></svg>