<svg width="20" height="20" viewBox="0 0 20 20" fill="none" xmlns="http://www.w3.org/2000/svg">
<path d="M16 13.5V8.5C16 5.43 14.36 2.86 11.5 2.18V1.5C11.5 0.67 10.82 0 9.98998 0C9.15998 0 8.49998 0.67 8.49998 1.5V2.18C5.62998 2.86 3.99998 5.42 3.99998 8.5V13.5L2.69998 14.79C2.06998 15.42 2.50998 16.5 3.39998 16.5H16.57C17.46 16.5 17.91 15.42 17.28 14.79L16 13.5ZM9.98998 19.5C11.09 19.5 11.99 18.6 11.99 17.5H7.98998C7.98998 18.6 8.87998 19.5 9.98998 19.5ZM4.76998 2.23C5.18998 1.85 5.19998 1.2 4.79998 0.8C4.41998 0.42 3.79998 0.41 3.40998 0.78C1.69998 2.34 0.519977 4.46 0.139977 6.84C0.0499772 7.45 0.519977 8 1.13998 8C1.61998 8 2.03998 7.65 2.11998 7.17C2.41998 5.23 3.37998 3.5 4.76998 2.23ZM16.6 0.78C16.2 0.41 15.58 0.42 15.2 0.8C14.8 1.2 14.82 1.84 15.23 2.22C16.61 3.49 17.58 5.22 17.88 7.16C17.95 7.64 18.37 7.99 18.86 7.99C19.47 7.99 19.95 7.44 19.85 6.83C19.47 4.46 18.3 2.35 16.6 0.78Z" fill="#0066F5"/>
</svg>
