<svg width="24" height="24" viewBox="0 0 24 24" fill="none" xmlns="http://www.w3.org/2000/svg">
<path d="M23.6381 14.9029C22.0353 21.3315 15.5243 25.2438 9.09496 23.6407C2.66828 22.038 -1.24407 15.5266 0.359419 9.09838C1.9614 2.66907 8.47247 -1.24364 14.8999 0.359095C21.3288 1.96183 25.2408 8.47401 23.6381 14.9029Z" fill="#F7931A"/>
<path d="M16.7095 8.86342C16.527 7.25927 15.1305 6.7448 13.3766 6.62195L13.3376 4.3931L11.9809 4.41692L12.0189 6.58702C11.6622 6.59329 11.2978 6.60671 10.9357 6.62026L10.8978 4.43578L9.54184 4.45941L9.58024 6.68762C9.28661 6.69875 8.99826 6.70925 8.71699 6.71434L8.71669 6.70743L6.8455 6.73945L6.87115 8.18842C6.87115 8.18842 7.87267 8.15183 7.85634 8.17057C8.40587 8.16115 8.59028 8.47705 8.64711 8.75144L8.69155 11.2906C8.72948 11.2901 8.77898 11.2908 8.83512 11.2975C8.78993 11.2984 8.74155 11.2989 8.69181 11.3002L8.75355 14.8573C8.73246 15.0306 8.63562 15.3081 8.25169 15.3155C8.26932 15.3306 7.26549 15.3325 7.26549 15.3325L7.02421 16.9574L8.78973 16.9265C9.11829 16.9212 9.44165 16.9211 9.75906 16.9176L9.79899 19.1718L11.1542 19.1483L11.1152 16.918C11.4875 16.9191 11.8476 16.9158 12.1992 16.9094L12.2374 19.1295L13.594 19.1057L13.5552 16.8554C15.8337 16.6848 17.4201 16.0823 17.5809 13.9369C17.7109 12.2095 16.8861 11.4541 15.586 11.1658C16.3656 10.7515 16.845 10.0372 16.7095 8.86342ZM14.8955 13.7166C14.9257 15.4012 12.0379 15.2599 11.1185 15.2768L11.0667 12.2901C11.9864 12.2743 14.865 11.9595 14.8955 13.7166ZM14.191 9.51378C14.2173 11.0464 11.8086 10.9096 11.0428 10.923L10.9956 8.21419C11.7614 8.20076 14.1629 7.91521 14.191 9.51378Z" fill="white"/>
</svg>
