<svg xmlns="http://www.w3.org/2000/svg" xmlns:xlink="http://www.w3.org/1999/xlink" viewBox="0 0 59 30"><defs><style>.cls-1{fill:none;}.cls-2,.cls-7{fill:#009b3a;}.cls-3{fill:#fedf00;}.cls-4{fill:#002776;}.cls-5{clip-path:url(#clip-path);}.cls-6{fill:#fff;}.cls-7{fill-rule:evenodd;}.cls-8{clip-path:url(#clip-path-2);}</style><clipPath id="clip-path"><circle class="cls-1" cx="29.5" cy="15" r="7.5"/></clipPath><clipPath id="clip-path-2"><path class="cls-1" d="M31.83,14l.28-.66.59.26-.28.65Zm.48-.31-.05.11.3.13,0-.12Z"/></clipPath></defs><title>Asset 2</title><g id="Layer_2" data-name="Layer 2"><g id="Layer_1-2" data-name="Layer 1"><rect class="cls-2" width="59" height="30" rx="5"/><path class="cls-3" d="M11.71,15,29.5,26.36,47.29,15,29.5,3.64Z"/><circle class="cls-4" cx="29.5" cy="15" r="7.5"/><g class="cls-5"><path class="cls-6" d="M7,30a18.22,18.22,0,0,1,36.43,0H42.36A17.15,17.15,0,0,0,8.07,30Z"/></g><path id="O" class="cls-7" d="M23.1,12.81A.36.36,0,0,0,23,12.1a.36.36,0,0,0,.08.71m0-.13a.23.23,0,0,0,.16-.25.22.22,0,0,0-.22-.2.21.21,0,0,0-.16.25.22.22,0,0,0,.22.2"/><g id="R"><path id="P" class="cls-7" d="M23.69,12.74h.13l0-.26.28,0a.23.23,0,0,0,0-.45l-.4,0Zm.1-.4.27,0a.1.1,0,1,0,0-.19l-.27,0Z"/><path class="cls-2" d="M24.29,12.7c0-.1,0-.32-.17-.31h-.2c.23,0,.24.21.25.31"/></g><path id="D" class="cls-7" d="M24.59,12.69h.34a.3.3,0,0,0,.3-.31v-.1a.31.31,0,0,0-.32-.3h-.33Zm.13-.14h.19a.2.2,0,0,0,.2-.2v-.06a.19.19,0,0,0-.19-.19h-.2Z"/><path id="E" class="cls-2" d="M25.5,12.68l.64,0v-.13l-.52,0v-.18H26v-.12l-.4,0V12.1l.49,0V12l-.61,0Z"/><path id="M" class="cls-2" d="M26.4,12.72h.13l0-.49.1.5h.11l.18-.48,0,.49H27l.07-.71h-.18l-.19.47-.1-.5-.17,0Z"/><path id="e-2" data-name="e" class="cls-2" d="M27.88,12.88l.53.09,0-.12-.4-.07,0-.16.33.06,0-.12-.34-.06,0-.11.4.07,0-.12L28,12.25Z"/><path class="cls-7" d="M29.24,13.15l.13,0,.06-.25.28.07a.23.23,0,1,0,.11-.44l-.39-.1Zm.23-.35.26.07a.11.11,0,0,0,.12-.07.09.09,0,0,0-.07-.11l-.27-.07Z"/><path class="cls-7" d="M30.12,13.38l.12,0,.08-.25.28.09a.23.23,0,0,0,.28-.15.23.23,0,0,0-.15-.28l-.39-.12Zm.24-.34.27.09a.09.09,0,0,0,.11-.06.09.09,0,0,0-.06-.12l-.26-.08Z"/><path class="cls-2" d="M30.7,13.57c0-.1.09-.32-.05-.36l-.19-.06c.22.07.15.28.12.38"/><path class="cls-7" d="M31.28,13.78a.35.35,0,0,0,.43-.23.33.33,0,1,0-.61-.22.36.36,0,0,0,.18.45m0-.13a.23.23,0,1,0-.1-.28.21.21,0,0,0,.1.28"/><g id="G"><g class="cls-8"><path class="cls-7" d="M32.12,14.12a.35.35,0,0,0,.44-.2.32.32,0,1,0-.59-.26.35.35,0,0,0,.15.46m.05-.13a.2.2,0,0,0,.27-.13.21.21,0,0,0-.09-.28.21.21,0,0,0-.26.13.21.21,0,0,0,.08.28"/></g><rect class="cls-2" x="32.36" y="13.77" width="0.1" height="0.27" transform="translate(6.73 38.09) rotate(-66.5)"/><rect class="cls-2" x="32.26" y="14.01" width="0.36" height="0.1" transform="translate(6.61 38.2) rotate(-66.5)"/></g><path class="cls-7" d="M32.66,14.36l.11.05.12-.23.26.12a.22.22,0,0,0,.3-.1.23.23,0,0,0-.1-.3L33,13.72Zm.29-.3.25.12a.09.09,0,0,0,.12,0,.08.08,0,0,0,0-.12L33,13.89Z"/><path class="cls-2" d="M33.2,14.63c0-.1.14-.3,0-.36L33,14.18c.2.1.1.3.06.39"/><path class="cls-2" d="M33.46,14.77l.56.31.07-.11-.45-.26.09-.16.35.2.06-.1-.35-.21.07-.12.42.24.07-.11-.53-.31Z"/><path id="S" class="cls-2" d="M34.51,15.12c0,.06,0,.12.08.18s.15,0,.17,0-.37-.3-.23-.51.32,0,.4,0a.23.23,0,0,1,.11.32l-.14-.08c.05-.07,0-.13-.07-.17s-.12-.07-.16,0,.38.28.24.5-.27.09-.39,0-.25-.21-.15-.36Z"/><path class="cls-2" d="M35.27,15.62c0,.06,0,.13.08.19s.14.06.17,0-.36-.32-.21-.53.33,0,.4,0a.24.24,0,0,1,.09.33l-.13-.09c0-.06,0-.12-.06-.17s-.12-.07-.16,0,.36.31.21.51-.27.08-.39,0-.23-.23-.13-.37Z"/><path class="cls-7" d="M36,16.44A.35.35,0,1,0,36,16a.34.34,0,0,0,0,.48m.08-.1a.21.21,0,0,0,.29-.06.21.21,0,0,0,0-.29.23.23,0,0,0-.28.35"/><g id="αCMi"><g id="star1"><g id="star"><g id="c"><path id="t" class="cls-6" d="M23.38,13.33l-.1.31.15,0"/><path class="cls-6" d="M23.38,13.33l.1.31-.16,0"/></g><path class="cls-6" d="M23.68,13.55h-.32v.16"/><path class="cls-6" d="M23.68,13.55l-.26.19-.09-.13"/><path class="cls-6" d="M23.07,13.55l.26.19.1-.13"/><path class="cls-6" d="M23.07,13.55h.32v.16"/><path class="cls-6" d="M23.57,13.91l-.1-.3-.16.05"/><path class="cls-6" d="M23.57,13.91l-.26-.19.09-.13"/><path class="cls-6" d="M23.19,13.91l.26-.19-.1-.13"/><path class="cls-6" d="M23.19,13.91l.1-.3.15.05"/></g></g></g><g id="αCMa"><path class="cls-6" d="M24,16.48l-.1.31.15.05"/><path class="cls-6" d="M24,16.48l.1.31-.15.05"/><path class="cls-6" d="M24.35,16.71H24v.16"/><path class="cls-6" d="M24.35,16.71l-.26.19-.1-.13"/><path class="cls-6" d="M23.74,16.71l.26.19.09-.13"/><path class="cls-6" d="M23.74,16.71h.32v.16"/><path class="cls-6" d="M24.23,17.07l-.1-.31-.15,0"/><path class="cls-6" d="M24.23,17.07,24,16.88l.09-.13"/><path class="cls-6" d="M23.85,17.07l.26-.19L24,16.75"/><path class="cls-6" d="M23.85,17.07l.1-.31.15,0"/></g><g id="βCMa"><g id="star2"><path class="cls-6" d="M23.12,17.21l-.08.26.13,0"/><path class="cls-6" d="M23.12,17.21l.09.26-.13,0"/><path class="cls-6" d="M23.38,17.4h-.27v.13"/><path class="cls-6" d="M23.38,17.4l-.22.15-.08-.1"/><path class="cls-6" d="M22.87,17.4l.21.15.08-.1"/><path class="cls-6" d="M22.87,17.4h.27v.13"/><path class="cls-6" d="M23.28,17.7l-.08-.26-.13,0"/><path class="cls-6" d="M23.28,17.7l-.22-.16.08-.11"/><path class="cls-6" d="M23,17.7l.21-.16-.08-.11"/><path class="cls-6" d="M23,17.7l.08-.26.13,0"/></g></g><g id="γCMa"><g id="star4"><path class="cls-6" d="M24.78,16.19l-.05.15.07,0"/><path class="cls-6" d="M24.78,16.19l0,.15-.07,0"/><path class="cls-6" d="M24.92,16.3h-.15v.08"/><path class="cls-6" d="M24.92,16.3l-.12.09-.05-.06"/><path class="cls-6" d="M24.63,16.3l.12.09.05-.06"/><path class="cls-6" d="M24.63,16.3h.15v.08"/><path class="cls-6" d="M24.87,16.47l-.05-.14-.07,0"/><path class="cls-6" d="M24.87,16.47l-.13-.09.05-.06"/><path class="cls-6" d="M24.69,16.47l.12-.09,0-.06"/><path class="cls-6" d="M24.69,16.47l0-.14.08,0"/></g></g><g id="δCMa"><path class="cls-6" d="M25.6,17.28l-.08.26.13,0"/><path class="cls-6" d="M25.6,17.28l.08.26-.12,0"/><path class="cls-6" d="M25.86,17.47h-.27v.13"/><path class="cls-6" d="M25.86,17.47l-.22.16-.08-.11"/><path class="cls-6" d="M25.35,17.47l.21.16.08-.11"/><path class="cls-6" d="M25.35,17.47h.27v.13"/><path class="cls-6" d="M25.76,17.77l-.08-.26-.13,0"/><path class="cls-6" d="M25.76,17.77l-.22-.16.08-.11"/><path class="cls-6" d="M25.44,17.77l.22-.16-.08-.11"/><path class="cls-6" d="M25.44,17.77l.09-.26.12,0"/></g><g id="εCMa"><g id="star3"><path class="cls-6" d="M25.38,18.08l-.07.21.1,0"/><path class="cls-6" d="M25.38,18.08l.06.21-.1,0"/><path class="cls-6" d="M25.58,18.23h-.21v.11"/><path class="cls-6" d="M25.58,18.23l-.17.13-.06-.09"/><path class="cls-6" d="M25.17,18.23l.18.13.06-.09"/><path class="cls-6" d="M25.17,18.23h.22v.11"/><path class="cls-6" d="M25.5,18.47l-.06-.2-.1,0"/><path class="cls-6" d="M25.5,18.47l-.17-.13.06-.08"/><path class="cls-6" d="M25.25,18.47l.17-.13-.06-.08"/><path class="cls-6" d="M25.25,18.47l.07-.2.1,0"/></g></g><g id="αVir"><path class="cls-6" d="M31.83,12.35l-.1.31.15.05"/><path class="cls-6" d="M31.83,12.35l.1.31-.16.05"/><path class="cls-6" d="M32.13,12.57h-.32v.16"/><path class="cls-6" d="M32.13,12.57l-.26.19-.09-.13"/><path class="cls-6" d="M31.52,12.57l.26.19.1-.13"/><path class="cls-6" d="M31.52,12.57h.32v.16"/><path class="cls-6" d="M32,12.93l-.1-.3-.16,0"/><path class="cls-6" d="M32,12.93l-.26-.19.09-.13"/><path class="cls-6" d="M31.64,12.93l.26-.19-.1-.13"/><path class="cls-6" d="M31.64,12.93l.1-.3.15,0"/></g><g id="αSco"><path class="cls-6" d="M34.76,17.31l-.1.31.15.05"/><path class="cls-6" d="M34.76,17.31l.09.31-.15.05"/><path class="cls-6" d="M35.06,17.53h-.32v.16"/><path class="cls-6" d="M35.06,17.53l-.26.19-.09-.13"/><path class="cls-6" d="M34.45,17.53l.26.19.09-.13"/><path class="cls-6" d="M34.45,17.53h.32v.16"/><path class="cls-6" d="M34.94,17.89l-.1-.3-.15.05"/><path class="cls-6" d="M34.94,17.89l-.26-.19.1-.13"/><path class="cls-6" d="M34.57,17.89l.26-.19-.1-.13"/><path class="cls-6" d="M34.57,17.89l.1-.3.15.05"/></g><g id="βSco"><path class="cls-6" d="M35.8,17.49l-.07.2.1,0"/><path class="cls-6" d="M35.8,17.49l.06.2-.1,0"/><path class="cls-6" d="M36,17.64h-.21v.11"/><path class="cls-6" d="M36,17.64l-.17.12-.07-.08"/><path class="cls-6" d="M35.59,17.64l.18.12.06-.08"/><path class="cls-6" d="M35.59,17.64h.22v.11"/><path class="cls-6" d="M35.92,17.88l-.06-.21-.11,0"/><path class="cls-6" d="M35.92,17.88l-.17-.13.06-.09"/><path class="cls-6" d="M35.67,17.88l.17-.13-.06-.09"/><path class="cls-6" d="M35.67,17.88l.07-.21.1,0"/></g><g id="εSco"><path class="cls-6" d="M35.06,18l-.08.25.13,0"/><path class="cls-6" d="M35.06,18l.08.25-.12,0"/><path class="cls-6" d="M35.32,18.21h-.27v.14"/><path class="cls-6" d="M35.32,18.21l-.22.16L35,18.26"/><path class="cls-6" d="M34.81,18.21l.21.16.08-.11"/><path class="cls-6" d="M34.81,18.21h.26v.14"/><path class="cls-6" d="M35.22,18.51l-.08-.25-.13,0"/><path class="cls-6" d="M35.22,18.51,35,18.36l.08-.11"/><path class="cls-6" d="M34.9,18.51l.22-.15L35,18.25"/><path class="cls-6" d="M34.9,18.51l.09-.25.12,0"/></g><g id="θSco"><path class="cls-6" d="M33.26,19.6l-.09.25.13,0"/><path class="cls-6" d="M33.26,19.6l.08.25-.13,0"/><path class="cls-6" d="M33.51,19.78h-.27v.14"/><path class="cls-6" d="M33.51,19.78l-.22.16-.08-.11"/><path class="cls-6" d="M33,19.78l.22.16.08-.11"/><path class="cls-6" d="M33,19.78h.27v.14"/><path class="cls-6" d="M33.41,20.08l-.08-.25-.13,0"/><path class="cls-6" d="M33.41,20.08l-.21-.15.07-.11"/><path class="cls-6" d="M33.1,20.08l.21-.15-.07-.11"/><path class="cls-6" d="M33.1,20.08l.08-.25.13,0"/></g><g id="ιSco"><path class="cls-6" d="M33.24,20.41l-.06.2.1,0"/><path class="cls-6" d="M33.24,20.41l.07.2-.1,0"/><path class="cls-6" d="M33.45,20.56h-.22v.1"/><path class="cls-6" d="M33.45,20.56l-.17.12-.07-.08"/><path class="cls-6" d="M33,20.56l.17.12.07-.08"/><path class="cls-6" d="M33,20.56h.22v.1"/><path class="cls-6" d="M33.37,20.8l-.07-.21-.1,0"/><path class="cls-6" d="M33.37,20.8l-.17-.13.06-.09"/><path class="cls-6" d="M33.12,20.8l.17-.13-.06-.09"/><path class="cls-6" d="M33.12,20.8l.07-.21.1,0"/></g><g id="κSco"><path class="cls-6" d="M34,19.06l-.07.21.11,0"/><path class="cls-6" d="M34,19.06l.07.21-.11,0"/><path class="cls-6" d="M34.2,19.21H34v.11"/><path class="cls-6" d="M34.2,19.21l-.17.13L34,19.25"/><path class="cls-6" d="M33.8,19.21l.17.13.06-.09"/><path class="cls-6" d="M33.8,19.21H34v.11"/><path class="cls-6" d="M34.13,19.45l-.07-.2-.1,0"/><path class="cls-6" d="M34.13,19.45,34,19.32l.07-.08"/><path class="cls-6" d="M33.87,19.45l.18-.13L34,19.24"/><path class="cls-6" d="M33.87,19.45l.07-.2.1,0"/></g><g id="λSco"><path class="cls-6" d="M34.6,18.63l-.08.25.13.05"/><path class="cls-6" d="M34.6,18.63l.08.25-.12.05"/><path class="cls-6" d="M34.86,18.82h-.27V19"/><path class="cls-6" d="M34.86,18.82l-.22.15-.08-.11"/><path class="cls-6" d="M34.35,18.82l.21.15.08-.11"/><path class="cls-6" d="M34.35,18.82h.27V19"/><path class="cls-6" d="M34.76,19.11l-.08-.25-.13,0"/><path class="cls-6" d="M34.76,19.11,34.54,19l.08-.11"/><path class="cls-6" d="M34.44,19.11l.22-.15-.08-.11"/><path class="cls-6" d="M34.44,19.11l.09-.25.12,0"/></g><g id="μSco"><path class="cls-6" d="M33.22,18.92l-.06.2.1,0"/><path class="cls-6" d="M33.22,18.92l.07.2-.1,0"/><path class="cls-6" d="M33.43,19.07h-.22v.1"/><path class="cls-6" d="M33.43,19.07l-.18.12-.06-.08"/><path class="cls-6" d="M33,19.07l.17.12.07-.08"/><path class="cls-6" d="M33,19.07h.21v.1"/><path class="cls-6" d="M33.35,19.31l-.07-.21-.1,0"/><path class="cls-6" d="M33.35,19.31l-.17-.13.06-.09"/><path class="cls-6" d="M33.1,19.31l.17-.13-.06-.09"/><path class="cls-6" d="M33.1,19.31l.06-.21.11,0"/></g><g id="αHya"><path class="cls-6" d="M26.64,15l-.08.25.13,0"/><path class="cls-6" d="M26.64,15l.09.25-.13,0"/><path class="cls-6" d="M26.9,15.22h-.27v.14"/><path class="cls-6" d="M26.9,15.22l-.22.16-.08-.11"/><path class="cls-6" d="M26.39,15.22l.21.16.08-.11"/><path class="cls-6" d="M26.39,15.22h.27v.14"/><path class="cls-6" d="M26.8,15.52l-.08-.25-.13,0"/><path class="cls-6" d="M26.8,15.52l-.22-.15.08-.11"/><path class="cls-6" d="M26.49,15.52l.21-.15-.08-.11"/><path class="cls-6" d="M26.49,15.52l.08-.25.13,0"/></g><g id="γHya"><path class="cls-6" d="M31.54,14.41l-.07.2.11,0"/><path class="cls-6" d="M31.54,14.41l.07.2-.1,0"/><path class="cls-6" d="M31.74,14.56h-.21v.1"/><path class="cls-6" d="M31.74,14.56l-.17.12-.06-.08"/><path class="cls-6" d="M31.34,14.56l.17.12.06-.08"/><path class="cls-6" d="M31.34,14.56h.21v.1"/><path class="cls-6" d="M31.67,14.8l-.07-.21-.1,0"/><path class="cls-6" d="M31.67,14.8l-.18-.13.07-.09"/><path class="cls-6" d="M31.41,14.8l.18-.13-.06-.09"/><path class="cls-6" d="M31.41,14.8l.07-.21.1,0"/></g><g id="αCru"><path class="cls-6" d="M29.5,18.05l-.1.3.15,0"/><path class="cls-6" d="M29.5,18.05l.1.3-.15,0"/><path class="cls-6" d="M29.81,18.27h-.33v.16"/><path class="cls-6" d="M29.81,18.27l-.26.19-.1-.13"/><path class="cls-6" d="M29.19,18.27l.26.19.1-.13"/><path class="cls-6" d="M29.19,18.27h.33v.16"/><path class="cls-6" d="M29.69,18.63l-.1-.31-.15.05"/><path class="cls-6" d="M29.69,18.63l-.26-.19.09-.13"/><path class="cls-6" d="M29.31,18.63l.26-.19-.09-.13"/><path class="cls-6" d="M29.31,18.63l.1-.31.15.05"/></g><g id="βCru"><path class="cls-6" d="M30.37,16.61l-.09.25.13.05"/><path class="cls-6" d="M30.37,16.61l.08.25-.13.05"/><path class="cls-6" d="M30.62,16.79h-.27v.14"/><path class="cls-6" d="M30.62,16.79l-.21.16-.08-.11"/><path class="cls-6" d="M30.11,16.79l.22.16.08-.11"/><path class="cls-6" d="M30.11,16.79h.27v.14"/><path class="cls-6" d="M30.52,17.09l-.08-.25-.13,0"/><path class="cls-6" d="M30.52,17.09l-.21-.15.08-.11"/><path class="cls-6" d="M30.21,17.09l.22-.15-.08-.11"/><path class="cls-6" d="M30.21,17.09l.08-.25.13,0"/></g><g id="γCru"><path class="cls-6" d="M29.5,15.94l-.08.25.12,0"/><path class="cls-6" d="M29.5,15.94l.08.25-.12,0"/><path class="cls-6" d="M29.75,16.12h-.26v.14"/><path class="cls-6" d="M29.75,16.12l-.21.16-.08-.11"/><path class="cls-6" d="M29.25,16.12l.21.16.08-.11"/><path class="cls-6" d="M29.25,16.12h.26v.14"/><path class="cls-6" d="M29.66,16.42l-.09-.25-.12,0"/><path class="cls-6" d="M29.66,16.42l-.22-.16.08-.11"/><path class="cls-6" d="M29.34,16.42l.22-.16-.08-.11"/><path class="cls-6" d="M29.34,16.42l.09-.25.12,0"/></g><g id="δCru"><path class="cls-6" d="M28.74,16.66l-.06.21.1,0"/><path class="cls-6" d="M28.74,16.66l.07.21-.1,0"/><path class="cls-6" d="M29,16.81h-.22v.11"/><path class="cls-6" d="M29,16.81l-.17.13-.07-.09"/><path class="cls-6" d="M28.54,16.81l.17.13.07-.09"/><path class="cls-6" d="M28.54,16.81h.22v.11"/><path class="cls-6" d="M28.87,17.05l-.07-.2-.1,0"/><path class="cls-6" d="M28.87,17.05l-.17-.13.06-.08"/><path class="cls-6" d="M28.62,17.05l.17-.13-.06-.08"/><path class="cls-6" d="M28.62,17.05l.07-.2.1,0"/></g><g id="εCru"><path class="cls-6" d="M29.12,17.24l0,.15.07,0"/><path class="cls-6" d="M29.12,17.24l.05.15-.07,0"/><path class="cls-6" d="M29.27,17.35h-.16v.08"/><path class="cls-6" d="M29.27,17.35l-.13.09,0-.06"/><path class="cls-6" d="M29,17.35l.12.09,0-.06"/><path class="cls-6" d="M29,17.35h.15v.08"/><path class="cls-6" d="M29.21,17.52l0-.14-.08,0"/><path class="cls-6" d="M29.21,17.52l-.12-.09,0-.06"/><path class="cls-6" d="M29,17.52l.13-.09-.05-.06"/><path class="cls-6" d="M29,17.52l0-.14.07,0"/></g><g id="αTrA"><path class="cls-6" d="M31.74,19.78l-.08.26.13,0"/><path class="cls-6" d="M31.74,19.78l.09.26-.13,0"/><path class="cls-6" d="M32,20h-.27v.13"/><path class="cls-6" d="M32,20l-.22.16L31.7,20"/><path class="cls-6" d="M31.49,20l.22.16.08-.11"/><path class="cls-6" d="M31.49,20h.27v.13"/><path class="cls-6" d="M31.9,20.27,31.82,20l-.13,0"/><path class="cls-6" d="M31.9,20.27l-.21-.16.07-.11"/><path class="cls-6" d="M31.59,20.27l.21-.16L31.73,20"/><path class="cls-6" d="M31.59,20.27l.08-.26.13,0"/></g><g id="βTrA"><path class="cls-6" d="M32.39,19.17l-.07.21.1,0"/><path class="cls-6" d="M32.39,19.17l.06.21-.1,0"/><path class="cls-6" d="M32.59,19.32h-.21v.11"/><path class="cls-6" d="M32.59,19.32l-.17.13-.06-.09"/><path class="cls-6" d="M32.18,19.32l.18.13.06-.09"/><path class="cls-6" d="M32.18,19.32h.22v.11"/><path class="cls-6" d="M32.51,19.56l-.06-.2-.1,0"/><path class="cls-6" d="M32.51,19.56l-.17-.12.06-.09"/><path class="cls-6" d="M32.26,19.56l.18-.12-.07-.09"/><path class="cls-6" d="M32.26,19.56l.07-.2.1,0"/></g><g id="γTrA"><path class="cls-6" d="M31.15,19l-.06.2.1,0"/><path class="cls-6" d="M31.15,19l.07.2-.1,0"/><path class="cls-6" d="M31.36,19.14h-.22v.11"/><path class="cls-6" d="M31.36,19.14l-.18.12-.06-.08"/><path class="cls-6" d="M31,19.14l.17.12.07-.08"/><path class="cls-6" d="M31,19.14h.21v.11"/><path class="cls-6" d="M31.28,19.38l-.07-.21-.1,0"/><path class="cls-6" d="M31.28,19.38l-.17-.13.06-.09"/><path class="cls-6" d="M31,19.38l.17-.13-.06-.09"/><path class="cls-6" d="M31,19.38l.06-.21.11,0"/></g><g id="αCar"><path class="cls-6" d="M26.49,18.66l-.1.3.15.05"/><path class="cls-6" d="M26.49,18.66l.1.3-.15.05"/><path class="cls-6" d="M26.8,18.88h-.33V19"/><path class="cls-6" d="M26.8,18.88l-.26.19-.1-.13"/><path class="cls-6" d="M26.18,18.88l.26.19.1-.13"/><path class="cls-6" d="M26.18,18.88h.33V19"/><path class="cls-6" d="M26.68,19.24l-.1-.31-.15.05"/><path class="cls-6" d="M26.68,19.24l-.26-.19.09-.13"/><path class="cls-6" d="M26.3,19.24l.26-.19-.09-.13"/><path class="cls-6" d="M26.3,19.24l.1-.31.15.05"/></g><g id="σOct"><g id="star5"><path class="cls-6" d="M29.5,20.76l0,.1.05,0"/><path class="cls-6" d="M29.5,20.76l0,.1-.05,0"/><path class="cls-6" d="M29.6,20.83h-.11v.06"/><path class="cls-6" d="M29.6,20.83l-.08.07,0,0"/><path class="cls-6" d="M29.4,20.83l.08.07,0,0"/><path class="cls-6" d="M29.4,20.83h.11v.06"/><path class="cls-6" d="M29.56,21l0-.1-.05,0"/><path class="cls-6" d="M29.56,21l-.08-.06,0,0"/><path class="cls-6" d="M29.44,21l.08-.06,0,0"/><path class="cls-6" d="M29.44,21l0-.1.05,0"/></g></g></g></g></svg>