<svg width="24" height="25" viewBox="0 0 24 25" fill="none" xmlns="http://www.w3.org/2000/svg">
<path d="M23.6381 15.7408C22.0353 22.1694 15.5243 26.0817 9.09496 24.4786C2.66828 22.8759 -1.24407 16.3645 0.359419 9.93627C1.9614 3.50696 8.47247 -0.405748 14.8999 1.19699C21.3288 2.79972 25.2408 9.3119 23.6381 15.7408Z" fill="#0066F5"/>
<path d="M16.7095 9.70131C16.527 8.09716 15.1305 7.5827 13.3766 7.45984L13.3376 5.23099L11.9809 5.25482L12.0189 7.42491C11.6622 7.43118 11.2978 7.4446 10.9357 7.45815L10.8978 5.27367L9.54184 5.2973L9.58024 7.52551C9.28661 7.53664 8.99826 7.54714 8.71699 7.55223L8.71669 7.54532L6.8455 7.57734L6.87115 9.02631C6.87115 9.02631 7.87267 8.98972 7.85634 9.00846C8.40587 8.99904 8.59028 9.31494 8.64711 9.58933L8.69155 12.1284C8.72948 12.128 8.77898 12.1287 8.83512 12.1354C8.78993 12.1363 8.74155 12.1368 8.69181 12.1381L8.75355 15.6952C8.73246 15.8685 8.63562 16.146 8.25169 16.1534C8.26932 16.1685 7.26549 16.1704 7.26549 16.1704L7.02421 17.7953L8.78973 17.7644C9.11829 17.7591 9.44165 17.759 9.75906 17.7555L9.79899 20.0097L11.1542 19.9862L11.1152 17.7558C11.4875 17.757 11.8476 17.7537 12.1992 17.7473L12.2374 19.9674L13.594 19.9436L13.5552 17.6933C15.8337 17.5227 17.4201 16.9202 17.5809 14.7748C17.7109 13.0474 16.8861 12.292 15.586 12.0037C16.3656 11.5894 16.845 10.8751 16.7095 9.70131ZM14.8955 14.5545C14.9257 16.2391 12.0379 16.0978 11.1185 16.1147L11.0667 13.128C11.9864 13.1122 14.865 12.7974 14.8955 14.5545ZM14.191 10.3517C14.2173 11.8843 11.8086 11.7475 11.0428 11.7609L10.9956 9.05208C11.7614 9.03865 14.1629 8.7531 14.191 10.3517Z" fill="white"/>
</svg>
