<svg width="59" height="32" viewBox="0 0 59 32" fill="none" xmlns="http://www.w3.org/2000/svg">
<g clip-path="url(#clip1)">
<path d="M53.9999 1.19189H5C2.51472 1.19189 0.5 3.20661 0.5 5.69189V26.6919C0.5 29.1772 2.51472 31.1919 5 31.1919H53.9999C56.4852 31.1919 58.4999 29.1772 58.4999 26.6919V5.69189C58.4999 3.20661 56.4852 1.19189 53.9999 1.19189Z" fill="white" stroke="#012169" stroke-width="0.5"/>
<path d="M6.27372 6.6397L5.75372 5.3097C5.74172 5.2757 5.72572 5.2677 5.68772 5.2677H5.60771C5.56971 5.2677 5.55371 5.2757 5.54171 5.3117L5.02171 6.6397C5.00971 6.6737 5.01771 6.6917 5.05771 6.6917H5.12771C5.19171 6.6917 5.20971 6.6817 5.22371 6.6457L5.34771 6.3197H5.93971L6.06371 6.6457C6.07571 6.6817 6.09371 6.6917 6.15971 6.6917H6.23771C6.27771 6.6917 6.28571 6.6737 6.27372 6.6397ZM5.68571 5.6357L5.88572 6.1617H5.40171L5.60372 5.6337C5.63572 5.5417 5.63571 5.4517 5.63771 5.4477H5.64972C5.64972 5.4517 5.65371 5.5417 5.68571 5.6357ZM6.49854 5.6877C6.43454 5.7137 6.42054 5.7357 6.42054 5.8017V7.0837C6.42054 7.1197 6.43254 7.1317 6.46654 7.1317H6.55054C6.58654 7.1317 6.59855 7.1197 6.59855 7.0837V6.6677C6.65055 6.6857 6.74454 6.7217 6.85854 6.7217C7.14854 6.7217 7.28454 6.5737 7.28454 6.3137V6.0317C7.28454 5.7757 7.15254 5.6297 6.86654 5.6297C6.69254 5.6297 6.57654 5.6577 6.49854 5.6877ZM7.10454 6.0377V6.3077C7.10454 6.4737 7.02454 6.5577 6.84454 6.5577C6.73854 6.5577 6.64455 6.5217 6.59855 6.5057V5.8657C6.59855 5.8417 6.60254 5.8357 6.62854 5.8237C6.68254 5.8077 6.75254 5.7937 6.84054 5.7937C7.01654 5.7937 7.10454 5.8777 7.10454 6.0377ZM7.57666 5.6877C7.51267 5.7137 7.49866 5.7357 7.49866 5.8017V7.0837C7.49866 7.1197 7.51066 7.1317 7.54466 7.1317H7.62866C7.66466 7.1317 7.67666 7.1197 7.67666 7.0837V6.6677C7.72866 6.6857 7.82266 6.7217 7.93667 6.7217C8.22667 6.7217 8.36267 6.5737 8.36267 6.3137V6.0317C8.36267 5.7757 8.23066 5.6297 7.94466 5.6297C7.77066 5.6297 7.65466 5.6577 7.57666 5.6877ZM8.18266 6.0377V6.3077C8.18266 6.4737 8.10266 6.5577 7.92266 6.5577C7.81666 6.5577 7.72266 6.5217 7.67666 6.5057V5.8657C7.67666 5.8417 7.68067 5.8357 7.70667 5.8237C7.76066 5.8077 7.83066 5.7937 7.91866 5.7937C8.09467 5.7937 8.18266 5.8777 8.18266 6.0377ZM9.00587 5.6657C9.00587 6.0017 9.29588 6.0417 9.54187 6.0677C9.72787 6.0897 9.89587 6.1197 9.89587 6.2917C9.89587 6.4617 9.77188 6.5397 9.53588 6.5397C9.35588 6.5397 9.23787 6.4617 9.17387 6.3137C9.15788 6.2757 9.14187 6.2697 9.10588 6.2817L9.02388 6.3117C8.98588 6.3257 8.97587 6.3417 8.98987 6.3797C9.07787 6.6057 9.23588 6.7217 9.53588 6.7217C9.89588 6.7217 10.0899 6.5517 10.0899 6.2877C10.0899 5.9637 9.82587 5.9117 9.58787 5.8837C9.38787 5.8617 9.20387 5.8317 9.20387 5.6537C9.20387 5.5057 9.31988 5.4277 9.53788 5.4277C9.71988 5.4277 9.81388 5.4977 9.88188 5.6297C9.89988 5.6657 9.91388 5.6717 9.94987 5.6557L10.0339 5.6177C10.0699 5.6017 10.0799 5.5837 10.0619 5.5477C9.96387 5.3437 9.81588 5.2417 9.53788 5.2417C9.19187 5.2417 9.00587 5.4157 9.00587 5.6657ZM10.514 5.4197H10.43C10.394 5.4197 10.384 5.4317 10.384 5.4677V5.6597H10.218C10.182 5.6597 10.17 5.6717 10.17 5.7077V5.7777C10.17 5.8137 10.182 5.8257 10.218 5.8257H10.384V6.2957C10.384 6.6297 10.502 6.7277 10.82 6.7197C10.858 6.7177 10.87 6.7077 10.87 6.6717V6.5997C10.87 6.5617 10.858 6.5517 10.82 6.5517C10.626 6.5517 10.562 6.5097 10.562 6.2917V5.8257H10.824C10.858 5.8257 10.87 5.8137 10.87 5.7777V5.7077C10.87 5.6717 10.858 5.6597 10.824 5.6597H10.562V5.4677C10.562 5.4317 10.55 5.4197 10.514 5.4197ZM10.9921 6.0137V6.3397C10.9921 6.5757 11.1581 6.7217 11.4401 6.7217C11.7281 6.7217 11.8901 6.5757 11.8901 6.3397V6.0137C11.8901 5.7757 11.7281 5.6297 11.4401 5.6297C11.1581 5.6297 10.9921 5.7757 10.9921 6.0137ZM11.7121 6.0117V6.3397C11.7121 6.4777 11.6101 6.5597 11.4401 6.5597C11.2721 6.5597 11.1701 6.4777 11.1701 6.3397V6.0117C11.1701 5.8737 11.2721 5.7917 11.4401 5.7917C11.6101 5.7917 11.7121 5.8737 11.7121 6.0117ZM12.5461 5.6297C12.3701 5.6337 12.2541 5.6637 12.1801 5.6917C12.1181 5.7177 12.1041 5.7417 12.1041 5.8037V6.6437C12.1041 6.6797 12.1161 6.6917 12.1501 6.6917H12.2341C12.2701 6.6917 12.2821 6.6797 12.2821 6.6437V5.8677C12.2821 5.8497 12.2841 5.8377 12.3101 5.8277C12.3681 5.8097 12.4421 5.7937 12.5401 5.7937H12.6101C12.6461 5.7937 12.6581 5.7817 12.6581 5.7457V5.6777C12.6581 5.6417 12.6461 5.6297 12.6101 5.6297H12.5461ZM12.7264 6.0577V6.3057C12.7264 6.5497 12.8584 6.7217 13.1704 6.7217C13.4004 6.7217 13.5304 6.6377 13.6004 6.5157C13.6224 6.4817 13.6184 6.4557 13.5824 6.4377L13.5284 6.4097C13.4924 6.3897 13.4744 6.3937 13.4504 6.4277C13.4004 6.5117 13.3144 6.5657 13.1724 6.5657C12.9964 6.5657 12.9044 6.4777 12.9044 6.3257V6.2297H13.5564C13.6124 6.2297 13.6304 6.2017 13.6304 6.1597V6.0437C13.6304 5.8077 13.4864 5.6297 13.1784 5.6297C12.8824 5.6297 12.7264 5.7877 12.7264 6.0577ZM13.4524 6.0337V6.0917H12.9044V6.0337C12.9044 5.8777 12.9984 5.7817 13.1784 5.7817C13.3604 5.7817 13.4524 5.8777 13.4524 6.0337ZM14.3718 5.5957C14.3718 5.7237 14.4418 5.8257 14.5278 5.9157C14.3718 5.9937 14.2418 6.1057 14.2418 6.3137C14.2418 6.5517 14.4158 6.7217 14.6518 6.7217C14.7998 6.7217 14.9098 6.6837 15.1018 6.5057L15.2598 6.6617C15.2818 6.6857 15.2978 6.6917 15.3318 6.6917H15.4438C15.4878 6.6917 15.4918 6.6737 15.4658 6.6437L15.2178 6.3937L15.3538 6.2597C15.3778 6.2377 15.3758 6.2237 15.3578 6.2037L15.2978 6.1417C15.2758 6.1197 15.2538 6.1197 15.2338 6.1417L15.1018 6.2697L14.7938 5.9637L14.8138 5.9537C15.0118 5.8637 15.1078 5.7637 15.1078 5.5837C15.1078 5.3957 14.9518 5.2417 14.7458 5.2417C14.5058 5.2417 14.3718 5.4117 14.3718 5.5957ZM14.9398 5.5857C14.9398 5.7097 14.8598 5.7557 14.7398 5.8117L14.6798 5.8417C14.5938 5.7557 14.5418 5.6917 14.5418 5.5977C14.5418 5.4937 14.6178 5.3997 14.7458 5.3997C14.8578 5.3997 14.9398 5.4857 14.9398 5.5857ZM14.6438 6.0397L14.9858 6.3797C14.8558 6.4997 14.7758 6.5517 14.6618 6.5517C14.5278 6.5517 14.4238 6.4517 14.4238 6.3177C14.4238 6.1877 14.4978 6.1057 14.6438 6.0397ZM16.1748 5.2817H16.1628C16.0908 5.2817 16.0668 5.3057 16.0668 5.3777V5.3937C16.0668 5.4677 16.0908 5.4897 16.1628 5.4897H16.1748C16.2488 5.4897 16.2708 5.4657 16.2708 5.3937V5.3777C16.2708 5.3057 16.2488 5.2817 16.1748 5.2817ZM16.2108 5.6597H16.1268C16.0908 5.6597 16.0788 5.6717 16.0788 5.7077V6.6437C16.0788 6.6797 16.0908 6.6917 16.1268 6.6917H16.2108C16.2468 6.6917 16.2588 6.6797 16.2588 6.6437V5.7077C16.2588 5.6717 16.2468 5.6597 16.2108 5.6597ZM17.3949 5.2717H16.4469C16.4069 5.2717 16.3949 5.2857 16.3949 5.3237V5.3997C16.3949 5.4377 16.4069 5.4517 16.4469 5.4517H16.8249V6.6397C16.8249 6.6777 16.8369 6.6917 16.8769 6.6917H16.9649C17.0049 6.6917 17.0169 6.6777 17.0169 6.6397V5.4517H17.3949C17.4329 5.4517 17.4469 5.4377 17.4469 5.3997V5.3237C17.4469 5.2857 17.4329 5.2717 17.3949 5.2717ZM18.2305 5.6597H18.1485C18.1125 5.6597 18.1005 5.6717 18.1005 5.7077V6.4777C18.1005 6.4977 18.0965 6.5117 18.0705 6.5237C18.0125 6.5417 17.9425 6.5577 17.8445 6.5577C17.6725 6.5577 17.5925 6.4777 17.5925 6.3197V5.7077C17.5925 5.6717 17.5805 5.6597 17.5465 5.6597H17.4625C17.4265 5.6597 17.4145 5.6717 17.4145 5.7077V6.3257C17.4145 6.5737 17.5405 6.7217 17.8205 6.7217C18.0065 6.7217 18.1225 6.6837 18.2025 6.6537C18.2645 6.6277 18.2785 6.6037 18.2785 6.5417V5.7077C18.2785 5.6717 18.2665 5.6597 18.2305 5.6597ZM18.5981 5.6977C18.5361 5.7237 18.5221 5.7477 18.5221 5.8097V6.6437C18.5221 6.6797 18.5341 6.6917 18.5681 6.6917H18.6521C18.6881 6.6917 18.7001 6.6797 18.7001 6.6437V5.8657C18.7001 5.8497 18.7041 5.8377 18.7241 5.8297C18.7801 5.8117 18.8581 5.7937 18.9561 5.7937C19.1281 5.7937 19.2061 5.8737 19.2061 6.0317V6.6437C19.2061 6.6797 19.2181 6.6917 19.2541 6.6917H19.3381C19.3741 6.6917 19.3861 6.6797 19.3861 6.6437V6.0257C19.3861 5.7777 19.2601 5.6297 18.9801 5.6297C18.7941 5.6297 18.6761 5.6657 18.5981 5.6977ZM19.5897 6.0577V6.3057C19.5897 6.5497 19.7217 6.7217 20.0337 6.7217C20.2637 6.7217 20.3937 6.6377 20.4637 6.5157C20.4857 6.4817 20.4817 6.4557 20.4457 6.4377L20.3917 6.4097C20.3557 6.3897 20.3377 6.3937 20.3137 6.4277C20.2637 6.5117 20.1777 6.5657 20.0357 6.5657C19.8597 6.5657 19.7677 6.4777 19.7677 6.3257V6.2297H20.4197C20.4757 6.2297 20.4937 6.2017 20.4937 6.1597V6.0437C20.4937 5.8077 20.3497 5.6297 20.0417 5.6297C19.7457 5.6297 19.5897 5.7877 19.5897 6.0577ZM20.3157 6.0337V6.0917H19.7677V6.0337C19.7677 5.8777 19.8617 5.7817 20.0417 5.7817C20.2237 5.7817 20.3157 5.8777 20.3157 6.0337ZM20.654 5.9397C20.654 6.1977 20.86 6.2317 21.06 6.2517C21.228 6.2677 21.326 6.2897 21.326 6.4097C21.326 6.5077 21.246 6.5617 21.076 6.5617C20.936 6.5617 20.846 6.5217 20.806 6.4177C20.79 6.3817 20.774 6.3777 20.742 6.3877L20.674 6.4117C20.638 6.4237 20.63 6.4437 20.644 6.4757C20.706 6.6397 20.854 6.7217 21.082 6.7217C21.362 6.7217 21.5 6.5917 21.5 6.4017C21.5 6.1657 21.332 6.1157 21.104 6.0937C20.938 6.0797 20.832 6.0637 20.832 5.9357C20.832 5.8397 20.906 5.7917 21.06 5.7917C21.214 5.7917 21.278 5.8437 21.316 5.9217C21.336 5.9537 21.346 5.9597 21.382 5.9437L21.45 5.9157C21.482 5.9017 21.492 5.8817 21.474 5.8457C21.414 5.7157 21.288 5.6297 21.056 5.6297C20.79 5.6297 20.654 5.7537 20.654 5.9397Z" fill="#323643"/>
<path d="M10.1161 19.6919H10.2245V26.6919H10.1161V19.6919ZM9 26.6919H9.50417V19.6919H9V26.6919ZM12.386 26.6919H12.5122V19.6919H12.386V26.6919ZM12.7286 26.6919H13.2328V19.6919H12.7286V26.6919ZM11.3235 26.6919H11.8277V19.6919H11.3235V26.6919ZM10.6028 26.6919H10.7109V19.6919H10.6028V26.6919ZM10.9454 26.6919H11.0532V19.6919H10.9454V26.6919ZM14.6737 26.6919H15.1782V19.6919H14.6737V26.6919ZM16.1324 26.6919H16.2408V19.6919H16.1324V26.6919ZM15.7905 26.6919H15.8989V19.6919H15.7905V26.6919ZM13.6115 26.6919H13.7192V19.6919H13.6115V26.6919ZM13.9534 26.6919H14.458V19.6919H13.9534V26.6919ZM18.0254 26.6919H18.5292V19.6919H18.0254V26.6919ZM18.7453 19.6919V26.6919H19.2495V19.6919H18.7453ZM17.3402 26.6919H17.4659V19.6919H17.3402V26.6919ZM16.6199 26.6919H16.7283V19.6919H16.6199V26.6919ZM16.9618 26.6919H17.0698V19.6919H16.9618V26.6919Z" fill="#323643"/>
<path d="M20.3621 19.6919H20.4706V26.6919H20.3621V19.6919ZM19.2461 26.6919H19.7503V19.6919H19.2461V26.6919ZM22.6321 26.6919H22.7583V19.6919H22.6321V26.6919ZM22.9747 26.6919H23.4789V19.6919H22.9747V26.6919ZM21.5696 26.6919H22.0737V19.6919H21.5696V26.6919ZM20.8489 26.6919H20.957V19.6919H20.8489V26.6919ZM21.1915 26.6919H21.2993V19.6919H21.1915V26.6919ZM24.9198 26.6919H25.4243V19.6919H24.9198V26.6919ZM26.3785 26.6919H26.4869V19.6919H26.3785V26.6919ZM26.0366 26.6919H26.145V19.6919H26.0366V26.6919ZM23.8576 26.6919H23.9653V19.6919H23.8576V26.6919ZM24.1995 26.6919H24.704V19.6919H24.1995V26.6919ZM28.2714 26.6919H28.7753V19.6919H28.2714V26.6919ZM28.9914 19.6919V26.6919H29.4956V19.6919H28.9914ZM27.5863 26.6919H27.712V19.6919H27.5863V26.6919ZM26.866 26.6919H26.9744V19.6919H26.866V26.6919ZM27.2079 26.6919H27.3159V19.6919H27.2079V26.6919Z" fill="#323643"/>
<path d="M30.6161 19.6919H30.7245V26.6919H30.6161V19.6919ZM29.5 26.6919H30.0042V19.6919H29.5V26.6919ZM32.886 26.6919H33.0122V19.6919H32.886V26.6919ZM33.2286 26.6919H33.7328V19.6919H33.2286V26.6919ZM31.8235 26.6919H32.3277V19.6919H31.8235V26.6919ZM31.1028 26.6919H31.2109V19.6919H31.1028V26.6919ZM31.4454 26.6919H31.5532V19.6919H31.4454V26.6919ZM35.1737 26.6919H35.6782V19.6919H35.1737V26.6919ZM36.6324 26.6919H36.7408V19.6919H36.6324V26.6919ZM36.2905 26.6919H36.3989V19.6919H36.2905V26.6919ZM34.1115 26.6919H34.2192V19.6919H34.1115V26.6919ZM34.4534 26.6919H34.958V19.6919H34.4534V26.6919ZM38.5254 26.6919H39.0292V19.6919H38.5254V26.6919ZM39.2453 19.6919V26.6919H39.7495V19.6919H39.2453ZM37.8402 26.6919H37.9659V19.6919H37.8402V26.6919ZM37.1199 26.6919H37.2283V19.6919H37.1199V26.6919ZM37.4618 26.6919H37.5698V19.6919H37.4618V26.6919Z" fill="#323643"/>
<path d="M40.8661 19.6919H40.9745V26.6919H40.8661V19.6919ZM39.75 26.6919H40.2542V19.6919H39.75V26.6919ZM43.136 26.6919H43.2622V19.6919H43.136V26.6919ZM43.4786 26.6919H43.9828V19.6919H43.4786V26.6919ZM42.0735 26.6919H42.5777V19.6919H42.0735V26.6919ZM41.3528 26.6919H41.4609V19.6919H41.3528V26.6919ZM41.6954 26.6919H41.8032V19.6919H41.6954V26.6919ZM45.4237 26.6919H45.9282V19.6919H45.4237V26.6919ZM46.8824 26.6919H46.9908V19.6919H46.8824V26.6919ZM46.5405 26.6919H46.6489V19.6919H46.5405V26.6919ZM44.3615 26.6919H44.4692V19.6919H44.3615V26.6919ZM44.7034 26.6919H45.208V19.6919H44.7034V26.6919ZM48.7754 26.6919H49.2792V19.6919H48.7754V26.6919ZM49.4953 19.6919V26.6919H49.9995V19.6919H49.4953ZM48.0902 26.6919H48.2159V19.6919H48.0902V26.6919ZM47.3699 26.6919H47.4783V19.6919H47.3699V26.6919ZM47.7118 26.6919H47.8198V19.6919H47.7118V26.6919Z" fill="#323643"/>
</g>
<defs>
<clipPath id="clip1">
<rect width="59" height="31" fill="white" transform="translate(0 0.691895)"/>
</clipPath>
</defs>
</svg>
