<svg width="19" height="19" viewBox="0 0 19 19" fill="none" xmlns="http://www.w3.org/2000/svg">
<path d="M9.50016 1.58334C5.13016 1.58334 1.5835 5.13 1.5835 9.5C1.5835 13.87 5.13016 17.4167 9.50016 17.4167C13.8702 17.4167 17.4168 13.87 17.4168 9.5C17.4168 5.13 13.8702 1.58334 9.50016 1.58334ZM10.6164 14.3213V14.7804C10.6164 15.3583 10.1414 15.8333 9.5635 15.8333H9.55558C8.97766 15.8333 8.50266 15.3583 8.50266 14.7804V14.3054C7.44975 14.0838 6.51558 13.5058 6.11975 12.5321C5.93766 12.0967 6.27808 11.6138 6.75308 11.6138H6.94308C7.236 11.6138 7.4735 11.8117 7.58433 12.0888C7.81391 12.6825 8.41558 13.0942 9.57141 13.0942C11.1231 13.0942 11.4714 12.3183 11.4714 11.8354C11.4714 11.1783 11.1231 10.5608 9.35766 10.1413C7.39433 9.66625 6.0485 8.85875 6.0485 7.23584C6.0485 5.87417 7.14891 4.9875 8.51058 4.69459V4.21959C8.51058 3.64167 8.98558 3.16667 9.5635 3.16667H9.57141C10.1493 3.16667 10.6243 3.64167 10.6243 4.21959V4.71042C11.7168 4.97959 12.4056 5.66042 12.7064 6.49959C12.8647 6.935 12.5322 7.39417 12.0652 7.39417H11.8593C11.5664 7.39417 11.3289 7.18834 11.2497 6.90334C11.0677 6.30167 10.5689 5.91375 9.57141 5.91375C8.38391 5.91375 7.67141 6.45209 7.67141 7.21209C7.67141 7.87709 8.186 8.3125 9.78516 8.72417C11.3843 9.13584 13.0943 9.82459 13.0943 11.8196C13.0785 13.2683 11.9939 14.06 10.6164 14.3213Z" fill="white"/>
</svg>
