<svg width="19" height="19" viewBox="0 0 19 19" fill="none" xmlns="http://www.w3.org/2000/svg">
<path d="M10.4261 1.58333H4.74984C3.879 1.58333 3.1665 2.29583 3.1665 3.16666V15.8333C3.1665 16.7042 3.879 17.4167 4.74984 17.4167H14.2498C15.1207 17.4167 15.8332 16.7042 15.8332 15.8333V6.99041C15.8332 6.57083 15.6669 6.16708 15.3661 5.87416L11.5423 2.05041C11.2494 1.74958 10.8457 1.58333 10.4261 1.58333ZM9.49984 7.91666C10.3707 7.91666 11.0832 8.62916 11.0832 9.5C11.0832 10.3708 10.3707 11.0833 9.49984 11.0833C8.629 11.0833 7.9165 10.3708 7.9165 9.5C7.9165 8.62916 8.629 7.91666 9.49984 7.91666ZM12.6665 14.25H6.33317V13.7987C6.33317 13.1575 6.71317 12.5875 7.299 12.3342C7.97192 12.0412 8.71609 11.875 9.49984 11.875C10.2836 11.875 11.0278 12.0412 11.7007 12.3342C12.2865 12.5875 12.6665 13.1575 12.6665 13.7987V14.25Z" fill="white"/>
</svg>
