<svg width="15" height="18" viewBox="0 0 15 18" fill="none" xmlns="http://www.w3.org/2000/svg">
<path d="M10.3168 0.847412H2.02019C1.19053 0.847412 0.511719 1.52623 0.511719 2.35589V12.161C0.511719 12.5758 0.851126 12.9152 1.26596 12.9152C1.68079 12.9152 2.02019 12.5758 2.02019 12.161V3.11012C2.02019 2.69529 2.3596 2.35589 2.77443 2.35589H10.3168C10.7316 2.35589 11.071 2.01648 11.071 1.60165C11.071 1.18682 10.7316 0.847412 10.3168 0.847412ZM13.3338 3.86436H5.03714C4.20748 3.86436 3.52867 4.54317 3.52867 5.37284V15.9322C3.52867 16.7618 4.20748 17.4406 5.03714 17.4406H13.3338C14.1634 17.4406 14.8422 16.7618 14.8422 15.9322V5.37284C14.8422 4.54317 14.1634 3.86436 13.3338 3.86436ZM12.5795 15.9322H5.79138C5.37655 15.9322 5.03714 15.5927 5.03714 15.1779V6.12707C5.03714 5.71224 5.37655 5.37284 5.79138 5.37284H12.5795C12.9943 5.37284 13.3338 5.71224 13.3338 6.12707V15.1779C13.3338 15.5927 12.9943 15.9322 12.5795 15.9322Z" fill="#0066F5"/>
</svg>
