<svg width="2576" height="3737" viewBox="0 0 2576 3737" fill="none" xmlns="http://www.w3.org/2000/svg">
<path fill-rule="evenodd" clip-rule="evenodd" d="M1325.45 659.933C1380.49 694.166 1434.58 710.706 1459.96 703.954C1523.62 687.023 1529.47 446.728 1480.22 351.996C1430.96 257.265 1177.75 215.974 1164.98 403.668C1160.55 468.811 1187.06 526.946 1226.23 574.384L1156 912.136H1360L1325.45 659.933Z" fill="#B28B67"/>
<path fill-rule="evenodd" clip-rule="evenodd" d="M1434.25 289.528C1429.57 286.651 1419.8 280.581 1414.85 278.381C1413.67 277.852 1405.47 271.811 1405.25 271.887C1399.03 274.05 1381.04 282.035 1379.5 288.935C1379.26 289.458 1379.02 289.949 1378.8 290.378C1376.25 295.159 1373.91 300.06 1371.68 305.021C1366.78 315.91 1362.55 327.29 1358.51 338.581C1350.65 360.57 1343.82 383.072 1337.54 405.625C1331.15 428.584 1325.72 451.811 1319.64 474.864C1310.9 508.037 1299.71 540.396 1291.03 573.555C1285.49 594.728 1282.4 616.15 1283.86 637.941C1283.87 638.203 1283.88 638.462 1283.9 638.728C1283.91 638.837 1283.93 638.945 1283.94 639.054C1284.18 642.404 1284.54 645.762 1285.01 649.13C1285.42 652.01 1285.83 654.9 1286.27 657.79C1294.2 641.474 1300.26 623.495 1306.68 606.43C1307.31 604.76 1307.91 603.077 1308.5 601.389C1310.57 597.928 1312.68 594.492 1314.82 591.069C1328.29 569.485 1341.81 547.98 1354.73 526.005C1377.96 486.482 1400.97 446.123 1428.52 409.829C1436.65 399.112 1444.98 388.559 1453.01 377.753C1457.58 371.605 1462.03 365.353 1466.33 358.99C1469.41 354.44 1482.8 338.581 1477.95 329.052C1475.47 324.177 1446.37 296.994 1434.25 289.528Z" fill="#2C2C2C"/>
<path fill-rule="evenodd" clip-rule="evenodd" d="M1416.32 279.176C1420.86 280.752 1418.65 270.995 1414.25 267.562C1393.86 251.655 1315.91 245.883 1248.07 260.414C1202.62 270.148 1149.77 294.376 1113.47 325.523C1080.75 353.601 1058.25 398.613 1046.66 442.102C1034.49 487.767 1032.65 535.374 1039.43 582.2C1040.92 592.486 1044.12 602.288 1045.9 612.356C1047.91 623.693 1048.94 634.609 1052.52 645.639C1054.71 652.392 1058.43 659.012 1060.3 665.804C1062.44 673.553 1061.13 680.722 1059.58 688.605C1057.04 701.452 1053.9 714.273 1049.43 726.542C1042.71 744.967 1034.57 762.223 1029.46 781.343C1022.67 806.783 994.245 889.571 1015.02 912.136H1410.42C1400.47 884.112 1370.58 851.131 1364.53 821.131C1360.97 803.459 1359.27 764.866 1358.9 763.463C1349.99 700.085 1332.59 669.819 1321.69 658.835C1310.8 647.851 1296.28 644.473 1295.53 634.946C1292.44 595.54 1307.63 557.783 1318.77 521.006C1332.04 477.175 1341.76 432.255 1355.45 388.572C1361.5 369.228 1392.73 270.995 1416.32 279.176Z" fill="#8991DC"/>
<path fill-rule="evenodd" clip-rule="evenodd" d="M1262.78 466.085C1259.57 399.384 1262.78 373.326 1277.69 324.51H1268.49C1253.96 343.883 1241.8 403.139 1255.46 466.085H1262.78ZM1082.59 462.943C1080.99 458.892 1079.35 454.746 1077.65 450.493L1071.8 453.391C1090.25 522.993 1112.68 576.723 1189.71 621.767L1195.7 617.439C1122.85 564.584 1107.23 525.141 1082.59 462.943ZM1194.05 397.352L1194.05 397.354C1205.12 485.531 1212.14 541.449 1273.87 642.859L1266.87 645.066C1199.21 551.019 1188.48 474.259 1185.28 380.239L1191.81 379.696C1192.59 385.733 1193.32 391.611 1194.05 397.352ZM1125.18 665.512L1119.19 673.018C1149.17 679.492 1169.55 702.24 1192.92 728.319C1217.64 755.912 1245.7 787.232 1292 806.949L1300.6 801.575C1250.06 774.462 1226.55 747.516 1206.02 723.989C1184.77 699.631 1166.71 678.937 1125.18 665.512Z" fill="black" fill-opacity="0.2"/>
<path fill-rule="evenodd" clip-rule="evenodd" d="M787.292 2008.45H1443.96L1530 3096H552.5L787.292 2008.45Z" fill="#C5CFD6"/>
<path fill-rule="evenodd" clip-rule="evenodd" d="M787.292 2008.45H989.254L1110.13 3096H552.5L787.292 2008.45Z" fill="black" fill-opacity="0.1"/>
<path fill-rule="evenodd" clip-rule="evenodd" d="M1804.75 2223.91C1730.96 2385.39 1615.65 2777.39 1615.65 2777.39L1713.54 2823.53C1713.54 2823.53 1961.92 2411.48 2113.71 2129.81C2106.64 2193.22 2099.44 2264.61 2092.76 2339.65C2076.95 2517.43 2092.76 2901.53 2101.26 3012.48C2106.61 3082.21 2198.44 3067.6 2207.01 3012.3C2208.46 3002.93 2214.38 2970.05 2223.21 2920.98C2266.5 2680.39 2379.8 2050.71 2380 1896.53C2380.08 1834.49 2262.62 1778.75 2192.6 1822.13C2144.51 1769.19 2053.49 1738.67 2001.21 1826.13C1967.96 1881.73 1888.98 2039.59 1804.75 2223.91Z" fill="#B28B67"/>
<path fill-rule="evenodd" clip-rule="evenodd" d="M1622.65 2632.26L1958.63 1811C2039.12 1677.41 2264.79 1838.19 2237.34 1915.68C2175.03 2091.59 1858.1 2661.11 1839.53 2713.52L1622.65 2632.26Z" fill="#1F28CF"/>
<path fill-rule="evenodd" clip-rule="evenodd" d="M1619.79 2715.48C1619.14 2714.48 1617.82 2714.22 1616.91 2714.96C1608.77 2721.59 1573.3 2751.01 1563.15 2769.16C1551.65 2789.7 1536.23 2833.07 1536.23 2833.07C1559.33 2846.83 1951.41 3080.41 1951.41 3080.41C1951.41 3080.41 1998.49 3034.84 1966.08 3009.67C1933.68 2984.49 1912.6 2967.21 1912.6 2967.21L1764.76 2757.04C1764.43 2756.57 1763.79 2756.47 1763.35 2756.82L1727.45 2785.34C1727.45 2785.34 1686.48 2781.65 1666.3 2769.63C1648.61 2759.09 1625.28 2723.99 1619.79 2715.48Z" fill="#E4E4E4"/>
<path fill-rule="evenodd" clip-rule="evenodd" d="M2088.58 2951.07C2087.52 2950.53 2086.23 2950.99 2085.8 2952.1C2081.94 2962.07 2065.5 3005.82 2065.5 3026.76C2065.5 3050.49 2073.16 3096 2073.16 3096C2099.83 3096 2552.58 3096 2552.58 3096C2552.58 3096 2571.26 3032.25 2531 3027.17C2490.74 3022.09 2464.11 3017.99 2464.11 3017.99L2234.25 2912.26C2233.73 2912.02 2233.12 2912.27 2232.9 2912.8L2215.64 2956.01C2215.64 2956.01 2178.36 2973.96 2155.06 2973.96C2134.67 2973.96 2097.53 2955.64 2088.58 2951.07Z" fill="#E4E4E4"/>
<path fill-rule="evenodd" clip-rule="evenodd" d="M2403.55 1959.63C2403.55 2192.63 2296.31 2736.15 2296.24 2787.45L2065.5 2787.64C2065.5 2787.64 2116.16 2060.18 2101.43 2052.34C2086.69 2044.51 1497.49 2113.04 1320.78 2113.04C1065.97 2113.04 960.554 1947.24 952 1640.09H1456.78C1559.56 1651.44 2095.66 1763.01 2294.76 1801.37C2380 1817.79 2403.55 1895.44 2403.55 1959.63Z" fill="#2B44FF"/>
<path fill-rule="evenodd" clip-rule="evenodd" d="M555.882 2033.96C580.791 1981.82 705.243 1310.75 705.243 1310.75L891.371 1311.47C891.371 1311.47 678.73 2022.33 665.617 2055.86C648.584 2099.42 677.517 2162.7 697.137 2205.62C700.172 2212.25 702.984 2218.4 705.369 2223.92C678.146 2236.49 665.069 2221.3 651.283 2205.28C635.711 2187.19 619.234 2168.05 580.447 2186.67C565.462 2193.86 551.282 2202.36 537.428 2210.67C489.573 2239.38 445.611 2265.74 385.807 2227.67C376.325 2221.63 365.936 2198.9 391.039 2181.14C453.58 2136.89 543.705 2059.45 555.882 2033.96ZM2123.48 1772.49L1882.69 1530.11L1802.72 1672.9L2053.1 1825.22C2115.89 1927.26 2152.76 1971.35 2163.72 1957.49C2172.97 1945.8 2168.73 1932.99 2164.83 1921.19C2161.79 1912 2158.95 1903.42 2162.85 1896.47C2171.75 1880.58 2222.02 1889.68 2269.36 1900.42C2316.71 1911.15 2305.76 1887.16 2295.69 1874.63C2250.94 1837.37 2193.54 1803.32 2123.48 1772.49Z" fill="#B28B67"/>
<path fill-rule="evenodd" clip-rule="evenodd" d="M1272.41 765.949L1345.91 752.941C1461.69 1175.26 2056.6 1463.13 2093.12 1621C2106.51 1678.9 2066.13 1708.16 2086.99 1725.8L1991.45 1797.96C1975.27 1778.48 1940.75 1814.11 1868.65 1789.19C1796.55 1764.27 1272.41 1266.01 1272.41 765.949Z" fill="#DB2721"/>
<path fill-rule="evenodd" clip-rule="evenodd" d="M1111.76 675.62C1109.55 675.461 1107.64 677.119 1107.5 679.323L1101.91 761.703C963.587 871.539 620.751 1199.75 531.413 1810.74C522.029 1874.92 539 1909.3 552.56 1936.76C561.836 1955.55 569.516 1971.11 566.071 1990.76L691.103 2026.37C691.103 2011.86 706.861 2000.83 727.191 1986.58C756.753 1965.88 795.98 1938.4 810.485 1883.63C824.233 1831.71 844.366 1766.86 868.418 1694.73C870.689 1790.26 888.249 1878.13 926.5 1950.9C1021.93 2132.46 1573.42 1933.35 1631.04 1748.13C1661.79 1649.29 1618.16 1566.32 1560.46 1456.57C1487.22 1317.27 1391.31 1134.84 1396.05 822.101L1404.27 700.736C1404.42 698.532 1402.76 696.616 1400.55 696.457L1111.76 675.62Z" fill="#FF4133"/>
</svg>
