<svg width="22" height="16" viewBox="0 0 22 16" fill="none" xmlns="http://www.w3.org/2000/svg">
<path d="M17.65 4.35L14.86 7.14C14.54 7.46 14.76 8 15.21 8H17C17 11.31 14.31 14 11 14C10.21 14 9.44003 13.85 8.75003 13.56C8.39003 13.41 7.98003 13.52 7.71003 13.79C7.20003 14.3 7.38003 15.16 8.05003 15.43C8.96003 15.8 9.96003 16 11 16C15.42 16 19 12.42 19 8H20.79C21.24 8 21.46 7.46 21.14 7.15L18.35 4.36C18.16 4.16 17.84 4.16 17.65 4.35ZM5.00003 8C5.00003 4.69 7.69003 2 11 2C11.79 2 12.56 2.15 13.25 2.44C13.61 2.59 14.02 2.48 14.29 2.21C14.8 1.7 14.62 0.84 13.95 0.57C13.04 0.2 12.04 0 11 0C6.58003 0 3.00003 3.58 3.00003 8H1.21003C0.760031 8 0.540031 8.54 0.860031 8.85L3.65003 11.64C3.85003 11.84 4.16003 11.84 4.36003 11.64L7.15003 8.85C7.46003 8.54 7.24003 8 6.79003 8H5.00003Z" fill="#0066F5"/>
</svg>
