<svg width="267" height="151" viewBox="0 0 267 151" fill="none" xmlns="http://www.w3.org/2000/svg">
<g clip-path="url(#clip0)">
<rect width="266.884" height="150.055" rx="2.14365" fill="#004FF1"/>
<circle cx="15.3838" cy="139.5" r="32.5" fill="#0066F5"/>
<circle cx="15.3838" cy="139.5" r="37" stroke="#0066F5"/>
<path d="M40.8198 31.214L40.7095 31.0774C41.4791 30.453 42.2801 29.8683 43.1093 29.3256L43.2057 29.4728C42.3811 30.012 41.5848 30.5932 40.8198 31.214Z" fill="white"/>
<path d="M39.5268 32.3194L39.4077 32.1897C39.6424 31.9778 39.8842 31.7658 40.1242 31.5609L40.238 31.6957C39.998 31.8989 39.7598 32.1091 39.5268 32.3194Z" fill="white"/>
<path d="M58.9279 53.6978C67.314 46.3512 69.9163 35.606 64.7404 29.6978C59.5645 23.7896 48.5704 24.9556 40.1843 32.3022C31.7982 39.6488 29.1959 50.394 34.3718 56.3022C39.5477 62.2104 50.5419 61.0444 58.9279 53.6978Z" fill="#B6D3F8"/>
<path d="M57.6862 52.28C64.9611 45.9068 67.2187 36.5856 62.7287 31.4604C58.2388 26.3352 48.7015 27.3468 41.4267 33.7199C34.1518 40.0931 31.8942 49.4143 36.3842 54.5395C40.8741 59.6648 50.4114 58.6531 57.6862 52.28Z" fill="white"/>
<path d="M53.1906 29.4535C45.6073 30.0684 37.8332 36.6356 35.8257 44.1085L63.2875 41.8855C65.295 34.4056 60.7738 28.8404 53.1906 29.4535Z" fill="#0B3EA9"/>
<path opacity="0.7" d="M35.8223 44.1085L49.5541 42.9961L42.4175 34.2025C39.2749 36.8581 36.8295 40.3685 35.8223 44.1085Z" fill="#B6D3F8"/>
<path opacity="0.4" d="M53.1906 29.4535C49.3999 29.7618 45.5601 31.5556 42.4175 34.206L49.5575 42.9961L53.1906 29.4535Z" fill="#7F9ECE"/>
<path opacity="0.1" d="M53.1902 29.4535L49.5571 42.9961L61.835 32.6347C60.0079 30.3855 56.9827 29.147 53.1902 29.4535Z" fill="#004FF1"/>
<path d="M52.8725 46.7855C55.8408 44.1852 56.7623 40.3823 54.9307 38.2916C53.0992 36.2009 49.2081 36.6141 46.2398 39.2145C43.2715 41.8149 42.35 45.6177 44.1816 47.7084C46.0131 49.7991 49.9042 49.3859 52.8725 46.7855Z" fill="white"/>
<path d="M51.4919 45.2097C53.2238 43.6924 53.7611 41.4731 52.692 40.2528C51.6229 39.0324 49.3523 39.2731 47.6203 40.7904C45.8884 42.3076 45.351 44.5269 46.4201 45.7473C47.4892 46.9676 49.7599 46.7269 51.4919 45.2097Z" fill="#004FF1"/>
<path d="M59.8346 35.7527C56.5676 36.9864 53.4699 38.6285 50.6152 40.64L51.9063 42.9523C54.8254 40.8756 57.4869 38.4587 59.8346 35.7527Z" fill="#004FF1"/>
<path d="M37.3986 49.2778C37.3578 49.2799 37.3171 49.2725 37.2797 49.2563C37.2423 49.24 37.2091 49.2153 37.1828 49.1841C37.1565 49.1529 37.1378 49.116 37.1281 49.0763C37.1185 49.0367 37.1181 48.9953 37.1271 48.9555C37.1474 48.857 37.1983 48.7674 37.2725 48.6994C37.3468 48.6315 37.4405 48.5887 37.5405 48.5771L52.6386 47.3807C52.6813 47.3742 52.7249 47.3782 52.7656 47.3924C52.8064 47.4066 52.843 47.4305 52.8724 47.4622C52.9018 47.4938 52.923 47.5321 52.9341 47.5738C52.9453 47.6154 52.9461 47.6592 52.9364 47.7013C52.9166 47.7996 52.866 47.8891 52.7921 47.9568C52.7181 48.0244 52.6245 48.0669 52.5248 48.0779L37.4389 49.2761L37.3986 49.2778Z" fill="#EAEAEA"/>
<path d="M50.4577 50.7142C50.4168 50.7167 50.3759 50.7095 50.3383 50.6934C50.3007 50.6773 50.2674 50.6525 50.241 50.6212C50.2146 50.5899 50.1959 50.5529 50.1864 50.5131C50.1769 50.4733 50.1768 50.4318 50.1861 50.3919C50.2061 50.2933 50.2569 50.2037 50.3312 50.136C50.4056 50.0682 50.4996 50.026 50.5996 50.0153L55.5044 49.6247C55.5472 49.6178 55.591 49.6216 55.632 49.6356C55.673 49.6497 55.7099 49.6736 55.7394 49.7053C55.769 49.7369 55.7904 49.7754 55.8016 49.8172C55.8129 49.859 55.8137 49.903 55.8039 49.9452C55.7839 50.0439 55.733 50.1336 55.6588 50.2016C55.5845 50.2696 55.4906 50.3123 55.3905 50.3236L50.4857 50.7125L50.4577 50.7142Z" fill="#EAEAEA"/>
<path d="M25.5133 56.9889C25.4726 56.991 25.4319 56.9836 25.3945 56.9674C25.357 56.9511 25.3239 56.9264 25.2976 56.8952C25.2713 56.864 25.2526 56.8271 25.2429 56.7874C25.2332 56.7478 25.2328 56.7064 25.2418 56.6666C25.2626 56.5672 25.3146 56.4771 25.3903 56.4093C25.4659 56.3416 25.5612 56.2998 25.6622 56.29L30.5671 55.8994C30.6098 55.8929 30.6534 55.897 30.6942 55.9112C30.7349 55.9254 30.7717 55.9493 30.8011 55.9809C30.8306 56.0124 30.852 56.0507 30.8634 56.0923C30.8748 56.134 30.8759 56.1778 30.8666 56.2199C30.8466 56.3183 30.7961 56.4079 30.7221 56.4758C30.6482 56.5438 30.5547 56.5866 30.455 56.5983L25.5501 56.9872L25.5133 56.9889Z" fill="#EAEAEA"/>
<path d="M29.8822 54.1214C29.8414 54.1235 29.8008 54.1162 29.7634 54.0999C29.726 54.0836 29.6929 54.0589 29.6667 54.0276C29.6406 53.9963 29.622 53.9594 29.6126 53.9197C29.6032 53.8801 29.6031 53.8387 29.6124 53.799C29.6325 53.7008 29.6831 53.6115 29.7571 53.5439C29.831 53.4762 29.9245 53.4337 30.0241 53.4224L44.7386 52.254C44.7813 52.2476 44.8249 52.2517 44.8657 52.2659C44.9064 52.2801 44.9431 52.304 44.9726 52.3355C45.0021 52.3671 45.0235 52.4053 45.0349 52.447C45.0463 52.4886 45.0474 52.5324 45.0381 52.5746C45.0178 52.6731 44.9669 52.7627 44.8926 52.8307C44.8184 52.8986 44.7247 52.9414 44.6247 52.953L29.9102 54.1196L29.8822 54.1214Z" fill="#EAEAEA"/>
<path d="M32.935 79.155V80.76H28.1275V83.7675H31.915V85.32H28.1275V88.3875H32.935V90H26.095V79.155H32.935ZM36.3965 86.0325L33.869 82.305H35.654C35.789 82.305 35.889 82.325 35.954 82.365C36.019 82.4 36.0765 82.46 36.1265 82.545L37.739 85.1175C37.764 85.0325 37.794 84.9475 37.829 84.8625C37.869 84.7775 37.9165 84.6925 37.9715 84.6075L39.269 82.5825C39.329 82.4875 39.3915 82.4175 39.4565 82.3725C39.5215 82.3275 39.6015 82.305 39.6965 82.305H41.399L38.864 85.95L41.504 90H39.719C39.584 90 39.474 89.965 39.389 89.895C39.309 89.825 39.2415 89.745 39.1865 89.655L37.5515 86.9775C37.5065 87.1575 37.444 87.3075 37.364 87.4275L35.924 89.655C35.869 89.74 35.8015 89.82 35.7215 89.895C35.6415 89.965 35.5415 90 35.4215 90H33.764L36.3965 86.0325ZM42.6746 92.5125V82.305H43.8071C43.9271 82.305 44.0296 82.3325 44.1146 82.3875C44.1996 82.4425 44.2546 82.5275 44.2796 82.6425L44.4296 83.355C44.7396 83 45.0946 82.7125 45.4946 82.4925C45.8996 82.2725 46.3721 82.1625 46.9121 82.1625C47.3321 82.1625 47.7146 82.25 48.0596 82.425C48.4096 82.6 48.7096 82.855 48.9596 83.19C49.2146 83.52 49.4096 83.93 49.5446 84.42C49.6846 84.905 49.7546 85.4625 49.7546 86.0925C49.7546 86.6675 49.6771 87.2 49.5221 87.69C49.3671 88.18 49.1446 88.605 48.8546 88.965C48.5696 89.325 48.2221 89.6075 47.8121 89.8125C47.4071 90.0125 46.9521 90.1125 46.4471 90.1125C46.0121 90.1125 45.6421 90.0475 45.3371 89.9175C45.0371 89.7825 44.7671 89.5975 44.5271 89.3625V92.5125H42.6746ZM46.2746 83.625C45.8896 83.625 45.5596 83.7075 45.2846 83.8725C45.0146 84.0325 44.7621 84.26 44.5271 84.555V88.005C44.7371 88.265 44.9646 88.4475 45.2096 88.5525C45.4596 88.6525 45.7271 88.7025 46.0121 88.7025C46.2921 88.7025 46.5446 88.65 46.7696 88.545C46.9996 88.44 47.1921 88.28 47.3471 88.065C47.5071 87.85 47.6296 87.58 47.7146 87.255C47.7996 86.925 47.8421 86.5375 47.8421 86.0925C47.8421 85.6425 47.8046 85.2625 47.7296 84.9525C47.6596 84.6375 47.5571 84.3825 47.4221 84.1875C47.2871 83.9925 47.1221 83.85 46.9271 83.76C46.7371 83.67 46.5196 83.625 46.2746 83.625ZM54.336 82.185C54.821 82.185 55.266 82.2625 55.671 82.4175C56.081 82.5725 56.4335 82.8 56.7285 83.1C57.0235 83.395 57.2535 83.76 57.4185 84.195C57.5835 84.625 57.666 85.1175 57.666 85.6725C57.666 85.8125 57.6585 85.93 57.6435 86.025C57.6335 86.115 57.611 86.1875 57.576 86.2425C57.546 86.2925 57.5035 86.33 57.4485 86.355C57.3935 86.375 57.3235 86.385 57.2385 86.385H52.4835C52.5385 87.175 52.751 87.755 53.121 88.125C53.491 88.495 53.981 88.68 54.591 88.68C54.891 88.68 55.1485 88.645 55.3635 88.575C55.5835 88.505 55.7735 88.4275 55.9335 88.3425C56.0985 88.2575 56.241 88.18 56.361 88.11C56.486 88.04 56.606 88.005 56.721 88.005C56.796 88.005 56.861 88.02 56.916 88.05C56.971 88.08 57.0185 88.1225 57.0585 88.1775L57.5985 88.8525C57.3935 89.0925 57.1635 89.295 56.9085 89.46C56.6535 89.62 56.386 89.75 56.106 89.85C55.831 89.945 55.5485 90.0125 55.2585 90.0525C54.9735 90.0925 54.696 90.1125 54.426 90.1125C53.891 90.1125 53.3935 90.025 52.9335 89.85C52.4735 89.67 52.0735 89.4075 51.7335 89.0625C51.3935 88.7125 51.126 88.2825 50.931 87.7725C50.736 87.2575 50.6385 86.6625 50.6385 85.9875C50.6385 85.4625 50.7235 84.97 50.8935 84.51C51.0635 84.045 51.306 83.6425 51.621 83.3025C51.941 82.9575 52.3285 82.685 52.7835 82.485C53.2435 82.285 53.761 82.185 54.336 82.185ZM54.3735 83.5125C53.8335 83.5125 53.411 83.665 53.106 83.97C52.801 84.275 52.606 84.7075 52.521 85.2675H56.001C56.001 85.0275 55.9685 84.8025 55.9035 84.5925C55.8385 84.3775 55.7385 84.19 55.6035 84.03C55.4685 83.87 55.2985 83.745 55.0935 83.655C54.8885 83.56 54.6485 83.5125 54.3735 83.5125ZM59.1687 90V82.305H60.2562C60.4462 82.305 60.5787 82.34 60.6537 82.41C60.7287 82.48 60.7787 82.6 60.8037 82.77L60.9162 83.7C61.1912 83.225 61.5137 82.85 61.8837 82.575C62.2537 82.3 62.6687 82.1625 63.1287 82.1625C63.5087 82.1625 63.8237 82.25 64.0737 82.425L63.8337 83.8125C63.8187 83.9025 63.7862 83.9675 63.7362 84.0075C63.6862 84.0425 63.6187 84.06 63.5337 84.06C63.4587 84.06 63.3562 84.0425 63.2262 84.0075C63.0962 83.9725 62.9237 83.955 62.7087 83.955C62.3237 83.955 61.9937 84.0625 61.7187 84.2775C61.4437 84.4875 61.2112 84.7975 61.0212 85.2075V90H59.1687ZM67.2643 82.305V90H65.4118V82.305H67.2643ZM67.5418 80.0625C67.5418 80.2225 67.5093 80.3725 67.4443 80.5125C67.3793 80.6525 67.2918 80.775 67.1818 80.88C67.0768 80.985 66.9518 81.07 66.8068 81.135C66.6618 81.195 66.5068 81.225 66.3418 81.225C66.1818 81.225 66.0293 81.195 65.8843 81.135C65.7443 81.07 65.6218 80.985 65.5168 80.88C65.4118 80.775 65.3268 80.6525 65.2618 80.5125C65.2018 80.3725 65.1718 80.2225 65.1718 80.0625C65.1718 79.8975 65.2018 79.7425 65.2618 79.5975C65.3268 79.4525 65.4118 79.3275 65.5168 79.2225C65.6218 79.1175 65.7443 79.035 65.8843 78.975C66.0293 78.91 66.1818 78.8775 66.3418 78.8775C66.5068 78.8775 66.6618 78.91 66.8068 78.975C66.9518 79.035 67.0768 79.1175 67.1818 79.2225C67.2918 79.3275 67.3793 79.4525 67.4443 79.5975C67.5093 79.7425 67.5418 79.8975 67.5418 80.0625ZM72.544 82.185C73.029 82.185 73.474 82.2625 73.879 82.4175C74.289 82.5725 74.6415 82.8 74.9365 83.1C75.2315 83.395 75.4615 83.76 75.6265 84.195C75.7915 84.625 75.874 85.1175 75.874 85.6725C75.874 85.8125 75.8665 85.93 75.8515 86.025C75.8415 86.115 75.819 86.1875 75.784 86.2425C75.754 86.2925 75.7115 86.33 75.6565 86.355C75.6015 86.375 75.5315 86.385 75.4465 86.385H70.6915C70.7465 87.175 70.959 87.755 71.329 88.125C71.699 88.495 72.189 88.68 72.799 88.68C73.099 88.68 73.3565 88.645 73.5715 88.575C73.7915 88.505 73.9815 88.4275 74.1415 88.3425C74.3065 88.2575 74.449 88.18 74.569 88.11C74.694 88.04 74.814 88.005 74.929 88.005C75.004 88.005 75.069 88.02 75.124 88.05C75.179 88.08 75.2265 88.1225 75.2665 88.1775L75.8065 88.8525C75.6015 89.0925 75.3715 89.295 75.1165 89.46C74.8615 89.62 74.594 89.75 74.314 89.85C74.039 89.945 73.7565 90.0125 73.4665 90.0525C73.1815 90.0925 72.904 90.1125 72.634 90.1125C72.099 90.1125 71.6015 90.025 71.1415 89.85C70.6815 89.67 70.2815 89.4075 69.9415 89.0625C69.6015 88.7125 69.334 88.2825 69.139 87.7725C68.944 87.2575 68.8465 86.6625 68.8465 85.9875C68.8465 85.4625 68.9315 84.97 69.1015 84.51C69.2715 84.045 69.514 83.6425 69.829 83.3025C70.149 82.9575 70.5365 82.685 70.9915 82.485C71.4515 82.285 71.969 82.185 72.544 82.185ZM72.5815 83.5125C72.0415 83.5125 71.619 83.665 71.314 83.97C71.009 84.275 70.814 84.7075 70.729 85.2675H74.209C74.209 85.0275 74.1765 84.8025 74.1115 84.5925C74.0465 84.3775 73.9465 84.19 73.8115 84.03C73.6765 83.87 73.5065 83.745 73.3015 83.655C73.0965 83.56 72.8565 83.5125 72.5815 83.5125ZM77.3767 90V82.305H78.5092C78.7492 82.305 78.9067 82.4175 78.9817 82.6425L79.1092 83.25C79.2642 83.09 79.4267 82.945 79.5967 82.815C79.7717 82.685 79.9542 82.5725 80.1442 82.4775C80.3392 82.3825 80.5467 82.31 80.7667 82.26C80.9867 82.21 81.2267 82.185 81.4867 82.185C81.9067 82.185 82.2792 82.2575 82.6042 82.4025C82.9292 82.5425 83.1992 82.7425 83.4142 83.0025C83.6342 83.2575 83.7992 83.565 83.9092 83.925C84.0242 84.28 84.0817 84.6725 84.0817 85.1025V90H82.2292V85.1025C82.2292 84.6325 82.1192 84.27 81.8992 84.015C81.6842 83.755 81.3592 83.625 80.9242 83.625C80.6042 83.625 80.3042 83.6975 80.0242 83.8425C79.7442 83.9875 79.4792 84.185 79.2292 84.435V90H77.3767ZM91.3096 83.9325C91.2546 84.0025 91.1996 84.0575 91.1446 84.0975C91.0946 84.1375 91.0196 84.1575 90.9196 84.1575C90.8246 84.1575 90.7321 84.13 90.6421 84.075C90.5521 84.015 90.4446 83.95 90.3196 83.88C90.1946 83.805 90.0446 83.74 89.8696 83.685C89.6996 83.625 89.4871 83.595 89.2321 83.595C88.9071 83.595 88.6221 83.655 88.3771 83.775C88.1321 83.89 87.9271 84.0575 87.7621 84.2775C87.6021 84.4975 87.4821 84.765 87.4021 85.08C87.3221 85.39 87.2821 85.7425 87.2821 86.1375C87.2821 86.5475 87.3246 86.9125 87.4096 87.2325C87.4996 87.5525 87.6271 87.8225 87.7921 88.0425C87.9571 88.2575 88.1571 88.4225 88.3921 88.5375C88.6271 88.6475 88.8921 88.7025 89.1871 88.7025C89.4821 88.7025 89.7196 88.6675 89.8996 88.5975C90.0846 88.5225 90.2396 88.4425 90.3646 88.3575C90.4896 88.2675 90.5971 88.1875 90.6871 88.1175C90.7821 88.0425 90.8871 88.005 91.0021 88.005C91.1521 88.005 91.2646 88.0625 91.3396 88.1775L91.8721 88.8525C91.6671 89.0925 91.4446 89.295 91.2046 89.46C90.9646 89.62 90.7146 89.75 90.4546 89.85C90.1996 89.945 89.9346 90.0125 89.6596 90.0525C89.3846 90.0925 89.1121 90.1125 88.8421 90.1125C88.3671 90.1125 87.9196 90.025 87.4996 89.85C87.0796 89.67 86.7121 89.41 86.3971 89.07C86.0871 88.73 85.8396 88.315 85.6546 87.825C85.4746 87.33 85.3846 86.7675 85.3846 86.1375C85.3846 85.5725 85.4646 85.05 85.6246 84.57C85.7896 84.085 86.0296 83.6675 86.3446 83.3175C86.6596 82.9625 87.0496 82.685 87.5146 82.485C87.9796 82.285 88.5146 82.185 89.1196 82.185C89.6946 82.185 90.1971 82.2775 90.6271 82.4625C91.0621 82.6475 91.4521 82.9125 91.7971 83.2575L91.3096 83.9325ZM96.2305 82.185C96.7155 82.185 97.1605 82.2625 97.5655 82.4175C97.9755 82.5725 98.328 82.8 98.623 83.1C98.918 83.395 99.148 83.76 99.313 84.195C99.478 84.625 99.5605 85.1175 99.5605 85.6725C99.5605 85.8125 99.553 85.93 99.538 86.025C99.528 86.115 99.5055 86.1875 99.4705 86.2425C99.4405 86.2925 99.398 86.33 99.343 86.355C99.288 86.375 99.218 86.385 99.133 86.385H94.378C94.433 87.175 94.6455 87.755 95.0155 88.125C95.3855 88.495 95.8755 88.68 96.4855 88.68C96.7855 88.68 97.043 88.645 97.258 88.575C97.478 88.505 97.668 88.4275 97.828 88.3425C97.993 88.2575 98.1355 88.18 98.2555 88.11C98.3805 88.04 98.5005 88.005 98.6155 88.005C98.6905 88.005 98.7555 88.02 98.8105 88.05C98.8655 88.08 98.913 88.1225 98.953 88.1775L99.493 88.8525C99.288 89.0925 99.058 89.295 98.803 89.46C98.548 89.62 98.2805 89.75 98.0005 89.85C97.7255 89.945 97.443 90.0125 97.153 90.0525C96.868 90.0925 96.5905 90.1125 96.3205 90.1125C95.7855 90.1125 95.288 90.025 94.828 89.85C94.368 89.67 93.968 89.4075 93.628 89.0625C93.288 88.7125 93.0205 88.2825 92.8255 87.7725C92.6305 87.2575 92.533 86.6625 92.533 85.9875C92.533 85.4625 92.618 84.97 92.788 84.51C92.958 84.045 93.2005 83.6425 93.5155 83.3025C93.8355 82.9575 94.223 82.685 94.678 82.485C95.138 82.285 95.6555 82.185 96.2305 82.185ZM96.268 83.5125C95.728 83.5125 95.3055 83.665 95.0005 83.97C94.6955 84.275 94.5005 84.7075 94.4155 85.2675H97.8955C97.8955 85.0275 97.863 84.8025 97.798 84.5925C97.733 84.3775 97.633 84.19 97.498 84.03C97.363 83.87 97.193 83.745 96.988 83.655C96.783 83.56 96.543 83.5125 96.268 83.5125ZM110.909 79.155V80.76H106.101V83.97H110.159V85.5825H106.101V90H104.069V79.155H110.909ZM118.416 90H117.584C117.409 90 117.271 89.975 117.171 89.925C117.071 89.87 116.996 89.7625 116.946 89.6025L116.781 89.055C116.586 89.23 116.394 89.385 116.204 89.52C116.019 89.65 115.826 89.76 115.626 89.85C115.426 89.94 115.214 90.0075 114.989 90.0525C114.764 90.0975 114.514 90.12 114.239 90.12C113.914 90.12 113.614 90.0775 113.339 89.9925C113.064 89.9025 112.826 89.77 112.626 89.595C112.431 89.42 112.279 89.2025 112.169 88.9425C112.059 88.6825 112.004 88.38 112.004 88.035C112.004 87.745 112.079 87.46 112.229 87.18C112.384 86.895 112.639 86.64 112.994 86.415C113.349 86.185 113.821 85.995 114.411 85.845C115.001 85.695 115.734 85.61 116.609 85.59V85.14C116.609 84.625 116.499 84.245 116.279 84C116.064 83.75 115.749 83.625 115.334 83.625C115.034 83.625 114.784 83.66 114.584 83.73C114.384 83.8 114.209 83.88 114.059 83.97C113.914 84.055 113.779 84.1325 113.654 84.2025C113.529 84.2725 113.391 84.3075 113.241 84.3075C113.116 84.3075 113.009 84.275 112.919 84.21C112.829 84.145 112.756 84.065 112.701 83.97L112.364 83.3775C113.249 82.5675 114.316 82.1625 115.566 82.1625C116.016 82.1625 116.416 82.2375 116.766 82.3875C117.121 82.5325 117.421 82.7375 117.666 83.0025C117.911 83.2625 118.096 83.575 118.221 83.94C118.351 84.305 118.416 84.705 118.416 85.14V90ZM114.816 88.845C115.006 88.845 115.181 88.8275 115.341 88.7925C115.501 88.7575 115.651 88.705 115.791 88.635C115.936 88.565 116.074 88.48 116.204 88.38C116.339 88.275 116.474 88.1525 116.609 88.0125V86.715C116.069 86.74 115.616 86.7875 115.251 86.8575C114.891 86.9225 114.601 87.0075 114.381 87.1125C114.161 87.2175 114.004 87.34 113.909 87.48C113.819 87.62 113.774 87.7725 113.774 87.9375C113.774 88.2625 113.869 88.495 114.059 88.635C114.254 88.775 114.506 88.845 114.816 88.845ZM124.806 83.805C124.756 83.885 124.703 83.9425 124.648 83.9775C124.593 84.0075 124.523 84.0225 124.438 84.0225C124.348 84.0225 124.251 83.9975 124.146 83.9475C124.046 83.8975 123.928 83.8425 123.793 83.7825C123.658 83.7175 123.503 83.66 123.328 83.61C123.158 83.56 122.956 83.535 122.721 83.535C122.356 83.535 122.068 83.6125 121.858 83.7675C121.648 83.9225 121.543 84.125 121.543 84.375C121.543 84.54 121.596 84.68 121.701 84.795C121.811 84.905 121.953 85.0025 122.128 85.0875C122.308 85.1725 122.511 85.25 122.736 85.32C122.961 85.385 123.191 85.4575 123.426 85.5375C123.661 85.6175 123.891 85.71 124.116 85.815C124.341 85.915 124.541 86.045 124.716 86.205C124.896 86.36 125.038 86.5475 125.143 86.7675C125.253 86.9875 125.308 87.2525 125.308 87.5625C125.308 87.9325 125.241 88.275 125.106 88.59C124.971 88.9 124.773 89.17 124.513 89.4C124.253 89.625 123.931 89.8025 123.546 89.9325C123.166 90.0575 122.728 90.12 122.233 90.12C121.968 90.12 121.708 90.095 121.453 90.045C121.203 90 120.961 89.935 120.726 89.85C120.496 89.765 120.281 89.665 120.081 89.55C119.886 89.435 119.713 89.31 119.563 89.175L119.991 88.47C120.046 88.385 120.111 88.32 120.186 88.275C120.261 88.23 120.356 88.2075 120.471 88.2075C120.586 88.2075 120.693 88.24 120.793 88.305C120.898 88.37 121.018 88.44 121.153 88.515C121.288 88.59 121.446 88.66 121.626 88.725C121.811 88.79 122.043 88.8225 122.323 88.8225C122.543 88.8225 122.731 88.7975 122.886 88.7475C123.046 88.6925 123.176 88.6225 123.276 88.5375C123.381 88.4525 123.456 88.355 123.501 88.245C123.551 88.13 123.576 88.0125 123.576 87.8925C123.576 87.7125 123.521 87.565 123.411 87.45C123.306 87.335 123.163 87.235 122.983 87.15C122.808 87.065 122.606 86.99 122.376 86.925C122.151 86.855 121.918 86.78 121.678 86.7C121.443 86.62 121.211 86.5275 120.981 86.4225C120.756 86.3125 120.553 86.175 120.373 86.01C120.198 85.845 120.056 85.6425 119.946 85.4025C119.841 85.1625 119.788 84.8725 119.788 84.5325C119.788 84.2175 119.851 83.9175 119.976 83.6325C120.101 83.3475 120.283 83.1 120.523 82.89C120.768 82.675 121.071 82.505 121.431 82.38C121.796 82.25 122.216 82.185 122.691 82.185C123.221 82.185 123.703 82.2725 124.138 82.4475C124.573 82.6225 124.936 82.8525 125.226 83.1375L124.806 83.805ZM129.313 90.12C128.648 90.12 128.136 89.9325 127.776 89.5575C127.416 89.1775 127.236 88.655 127.236 87.99V83.6925H126.456C126.356 83.6925 126.268 83.66 126.193 83.595C126.123 83.53 126.088 83.4325 126.088 83.3025V82.5675L127.326 82.365L127.716 80.265C127.736 80.165 127.781 80.0875 127.851 80.0325C127.926 79.9775 128.018 79.95 128.128 79.95H129.088V82.3725H131.113V83.6925H129.088V87.8625C129.088 88.1025 129.148 88.29 129.268 88.425C129.388 88.56 129.548 88.6275 129.748 88.6275C129.863 88.6275 129.958 88.615 130.033 88.59C130.113 88.56 130.181 88.53 130.236 88.5C130.296 88.47 130.348 88.4425 130.393 88.4175C130.438 88.3875 130.483 88.3725 130.528 88.3725C130.583 88.3725 130.628 88.3875 130.663 88.4175C130.698 88.4425 130.736 88.4825 130.776 88.5375L131.331 89.4375C131.061 89.6625 130.751 89.8325 130.401 89.9475C130.051 90.0625 129.688 90.12 129.313 90.12ZM135.487 92.5125V82.305H136.62C136.74 82.305 136.842 82.3325 136.927 82.3875C137.012 82.4425 137.067 82.5275 137.092 82.6425L137.242 83.355C137.552 83 137.907 82.7125 138.307 82.4925C138.712 82.2725 139.185 82.1625 139.725 82.1625C140.145 82.1625 140.527 82.25 140.872 82.425C141.222 82.6 141.522 82.855 141.772 83.19C142.027 83.52 142.222 83.93 142.357 84.42C142.497 84.905 142.567 85.4625 142.567 86.0925C142.567 86.6675 142.49 87.2 142.335 87.69C142.18 88.18 141.957 88.605 141.667 88.965C141.382 89.325 141.035 89.6075 140.625 89.8125C140.22 90.0125 139.765 90.1125 139.26 90.1125C138.825 90.1125 138.455 90.0475 138.15 89.9175C137.85 89.7825 137.58 89.5975 137.34 89.3625V92.5125H135.487ZM139.087 83.625C138.702 83.625 138.372 83.7075 138.097 83.8725C137.827 84.0325 137.575 84.26 137.34 84.555V88.005C137.55 88.265 137.777 88.4475 138.022 88.5525C138.272 88.6525 138.54 88.7025 138.825 88.7025C139.105 88.7025 139.357 88.65 139.582 88.545C139.812 88.44 140.005 88.28 140.16 88.065C140.32 87.85 140.442 87.58 140.527 87.255C140.612 86.925 140.655 86.5375 140.655 86.0925C140.655 85.6425 140.617 85.2625 140.542 84.9525C140.472 84.6375 140.37 84.3825 140.235 84.1875C140.1 83.9925 139.935 83.85 139.74 83.76C139.55 83.67 139.332 83.625 139.087 83.625ZM149.999 90H149.166C148.991 90 148.854 89.975 148.754 89.925C148.654 89.87 148.579 89.7625 148.529 89.6025L148.364 89.055C148.169 89.23 147.976 89.385 147.786 89.52C147.601 89.65 147.409 89.76 147.209 89.85C147.009 89.94 146.796 90.0075 146.571 90.0525C146.346 90.0975 146.096 90.12 145.821 90.12C145.496 90.12 145.196 90.0775 144.921 89.9925C144.646 89.9025 144.409 89.77 144.209 89.595C144.014 89.42 143.861 89.2025 143.751 88.9425C143.641 88.6825 143.586 88.38 143.586 88.035C143.586 87.745 143.661 87.46 143.811 87.18C143.966 86.895 144.221 86.64 144.576 86.415C144.931 86.185 145.404 85.995 145.994 85.845C146.584 85.695 147.316 85.61 148.191 85.59V85.14C148.191 84.625 148.081 84.245 147.861 84C147.646 83.75 147.331 83.625 146.916 83.625C146.616 83.625 146.366 83.66 146.166 83.73C145.966 83.8 145.791 83.88 145.641 83.97C145.496 84.055 145.361 84.1325 145.236 84.2025C145.111 84.2725 144.974 84.3075 144.824 84.3075C144.699 84.3075 144.591 84.275 144.501 84.21C144.411 84.145 144.339 84.065 144.284 83.97L143.946 83.3775C144.831 82.5675 145.899 82.1625 147.149 82.1625C147.599 82.1625 147.999 82.2375 148.349 82.3875C148.704 82.5325 149.004 82.7375 149.249 83.0025C149.494 83.2625 149.679 83.575 149.804 83.94C149.934 84.305 149.999 84.705 149.999 85.14V90ZM146.399 88.845C146.589 88.845 146.764 88.8275 146.924 88.7925C147.084 88.7575 147.234 88.705 147.374 88.635C147.519 88.565 147.656 88.48 147.786 88.38C147.921 88.275 148.056 88.1525 148.191 88.0125V86.715C147.651 86.74 147.199 86.7875 146.834 86.8575C146.474 86.9225 146.184 87.0075 145.964 87.1125C145.744 87.2175 145.586 87.34 145.491 87.48C145.401 87.62 145.356 87.7725 145.356 87.9375C145.356 88.2625 145.451 88.495 145.641 88.635C145.836 88.775 146.089 88.845 146.399 88.845ZM154.286 92.115C154.231 92.245 154.159 92.3425 154.069 92.4075C153.984 92.4775 153.851 92.5125 153.671 92.5125H152.291L153.731 89.43L150.619 82.305H152.239C152.389 82.305 152.504 82.34 152.584 82.41C152.664 82.48 152.724 82.56 152.764 82.65L154.406 86.64C154.461 86.77 154.509 86.905 154.549 87.045C154.589 87.185 154.624 87.325 154.654 87.465C154.694 87.32 154.736 87.18 154.781 87.045C154.831 86.91 154.884 86.7725 154.939 86.6325L156.484 82.65C156.524 82.55 156.589 82.4675 156.679 82.4025C156.774 82.3375 156.879 82.305 156.994 82.305H158.479L154.286 92.115ZM159.554 90V82.305H160.687C160.927 82.305 161.084 82.4175 161.159 82.6425L161.279 83.2125C161.414 83.0625 161.554 82.925 161.699 82.8C161.849 82.675 162.007 82.5675 162.172 82.4775C162.342 82.3875 162.522 82.3175 162.712 82.2675C162.907 82.2125 163.119 82.185 163.349 82.185C163.834 82.185 164.232 82.3175 164.542 82.5825C164.857 82.8425 165.092 83.19 165.247 83.625C165.367 83.37 165.517 83.1525 165.697 82.9725C165.877 82.7875 166.074 82.6375 166.289 82.5225C166.504 82.4075 166.732 82.3225 166.972 82.2675C167.217 82.2125 167.462 82.185 167.707 82.185C168.132 82.185 168.509 82.25 168.839 82.38C169.169 82.51 169.447 82.7 169.672 82.95C169.897 83.2 170.067 83.505 170.182 83.865C170.302 84.225 170.362 84.6375 170.362 85.1025V90H168.509V85.1025C168.509 84.6125 168.402 84.245 168.187 84C167.972 83.75 167.657 83.625 167.242 83.625C167.052 83.625 166.874 83.6575 166.709 83.7225C166.549 83.7875 166.407 83.8825 166.282 84.0075C166.162 84.1275 166.067 84.28 165.997 84.465C165.927 84.65 165.892 84.8625 165.892 85.1025V90H164.032V85.1025C164.032 84.5875 163.927 84.2125 163.717 83.9775C163.512 83.7425 163.207 83.625 162.802 83.625C162.537 83.625 162.287 83.6925 162.052 83.8275C161.822 83.9575 161.607 84.1375 161.407 84.3675V90H159.554ZM175.361 82.185C175.846 82.185 176.291 82.2625 176.696 82.4175C177.106 82.5725 177.459 82.8 177.754 83.1C178.049 83.395 178.279 83.76 178.444 84.195C178.609 84.625 178.691 85.1175 178.691 85.6725C178.691 85.8125 178.684 85.93 178.669 86.025C178.659 86.115 178.636 86.1875 178.601 86.2425C178.571 86.2925 178.529 86.33 178.474 86.355C178.419 86.375 178.349 86.385 178.264 86.385H173.509C173.564 87.175 173.776 87.755 174.146 88.125C174.516 88.495 175.006 88.68 175.616 88.68C175.916 88.68 176.174 88.645 176.389 88.575C176.609 88.505 176.799 88.4275 176.959 88.3425C177.124 88.2575 177.266 88.18 177.386 88.11C177.511 88.04 177.631 88.005 177.746 88.005C177.821 88.005 177.886 88.02 177.941 88.05C177.996 88.08 178.044 88.1225 178.084 88.1775L178.624 88.8525C178.419 89.0925 178.189 89.295 177.934 89.46C177.679 89.62 177.411 89.75 177.131 89.85C176.856 89.945 176.574 90.0125 176.284 90.0525C175.999 90.0925 175.721 90.1125 175.451 90.1125C174.916 90.1125 174.419 90.025 173.959 89.85C173.499 89.67 173.099 89.4075 172.759 89.0625C172.419 88.7125 172.151 88.2825 171.956 87.7725C171.761 87.2575 171.664 86.6625 171.664 85.9875C171.664 85.4625 171.749 84.97 171.919 84.51C172.089 84.045 172.331 83.6425 172.646 83.3025C172.966 82.9575 173.354 82.685 173.809 82.485C174.269 82.285 174.786 82.185 175.361 82.185ZM175.399 83.5125C174.859 83.5125 174.436 83.665 174.131 83.97C173.826 84.275 173.631 84.7075 173.546 85.2675H177.026C177.026 85.0275 176.994 84.8025 176.929 84.5925C176.864 84.3775 176.764 84.19 176.629 84.03C176.494 83.87 176.324 83.745 176.119 83.655C175.914 83.56 175.674 83.5125 175.399 83.5125ZM180.194 90V82.305H181.327C181.567 82.305 181.724 82.4175 181.799 82.6425L181.927 83.25C182.082 83.09 182.244 82.945 182.414 82.815C182.589 82.685 182.772 82.5725 182.962 82.4775C183.157 82.3825 183.364 82.31 183.584 82.26C183.804 82.21 184.044 82.185 184.304 82.185C184.724 82.185 185.097 82.2575 185.422 82.4025C185.747 82.5425 186.017 82.7425 186.232 83.0025C186.452 83.2575 186.617 83.565 186.727 83.925C186.842 84.28 186.899 84.6725 186.899 85.1025V90H185.047V85.1025C185.047 84.6325 184.937 84.27 184.717 84.015C184.502 83.755 184.177 83.625 183.742 83.625C183.422 83.625 183.122 83.6975 182.842 83.8425C182.562 83.9875 182.297 84.185 182.047 84.435V90H180.194ZM191.247 90.12C190.582 90.12 190.069 89.9325 189.709 89.5575C189.349 89.1775 189.169 88.655 189.169 87.99V83.6925H188.389C188.289 83.6925 188.202 83.66 188.127 83.595C188.057 83.53 188.022 83.4325 188.022 83.3025V82.5675L189.259 82.365L189.649 80.265C189.669 80.165 189.714 80.0875 189.784 80.0325C189.859 79.9775 189.952 79.95 190.062 79.95H191.022V82.3725H193.047V83.6925H191.022V87.8625C191.022 88.1025 191.082 88.29 191.202 88.425C191.322 88.56 191.482 88.6275 191.682 88.6275C191.797 88.6275 191.892 88.615 191.967 88.59C192.047 88.56 192.114 88.53 192.169 88.5C192.229 88.47 192.282 88.4425 192.327 88.4175C192.372 88.3875 192.417 88.3725 192.462 88.3725C192.517 88.3725 192.562 88.3875 192.597 88.4175C192.632 88.4425 192.669 88.4825 192.709 88.5375L193.264 89.4375C192.994 89.6625 192.684 89.8325 192.334 89.9475C191.984 90.0625 191.622 90.12 191.247 90.12ZM199.088 83.805C199.038 83.885 198.985 83.9425 198.93 83.9775C198.875 84.0075 198.805 84.0225 198.72 84.0225C198.63 84.0225 198.533 83.9975 198.428 83.9475C198.328 83.8975 198.21 83.8425 198.075 83.7825C197.94 83.7175 197.785 83.66 197.61 83.61C197.44 83.56 197.238 83.535 197.003 83.535C196.638 83.535 196.35 83.6125 196.14 83.7675C195.93 83.9225 195.825 84.125 195.825 84.375C195.825 84.54 195.878 84.68 195.983 84.795C196.093 84.905 196.235 85.0025 196.41 85.0875C196.59 85.1725 196.793 85.25 197.018 85.32C197.243 85.385 197.473 85.4575 197.708 85.5375C197.943 85.6175 198.173 85.71 198.398 85.815C198.623 85.915 198.823 86.045 198.998 86.205C199.178 86.36 199.32 86.5475 199.425 86.7675C199.535 86.9875 199.59 87.2525 199.59 87.5625C199.59 87.9325 199.523 88.275 199.388 88.59C199.253 88.9 199.055 89.17 198.795 89.4C198.535 89.625 198.213 89.8025 197.828 89.9325C197.448 90.0575 197.01 90.12 196.515 90.12C196.25 90.12 195.99 90.095 195.735 90.045C195.485 90 195.243 89.935 195.008 89.85C194.778 89.765 194.563 89.665 194.363 89.55C194.168 89.435 193.995 89.31 193.845 89.175L194.273 88.47C194.328 88.385 194.393 88.32 194.468 88.275C194.543 88.23 194.638 88.2075 194.753 88.2075C194.868 88.2075 194.975 88.24 195.075 88.305C195.18 88.37 195.3 88.44 195.435 88.515C195.57 88.59 195.728 88.66 195.908 88.725C196.093 88.79 196.325 88.8225 196.605 88.8225C196.825 88.8225 197.013 88.7975 197.168 88.7475C197.328 88.6925 197.458 88.6225 197.558 88.5375C197.663 88.4525 197.738 88.355 197.783 88.245C197.833 88.13 197.858 88.0125 197.858 87.8925C197.858 87.7125 197.803 87.565 197.693 87.45C197.588 87.335 197.445 87.235 197.265 87.15C197.09 87.065 196.888 86.99 196.658 86.925C196.433 86.855 196.2 86.78 195.96 86.7C195.725 86.62 195.493 86.5275 195.263 86.4225C195.038 86.3125 194.835 86.175 194.655 86.01C194.48 85.845 194.338 85.6425 194.228 85.4025C194.123 85.1625 194.07 84.8725 194.07 84.5325C194.07 84.2175 194.133 83.9175 194.258 83.6325C194.383 83.3475 194.565 83.1 194.805 82.89C195.05 82.675 195.353 82.505 195.713 82.38C196.078 82.25 196.498 82.185 196.973 82.185C197.503 82.185 197.985 82.2725 198.42 82.4475C198.855 82.6225 199.218 82.8525 199.508 83.1375L199.088 83.805ZM203.031 82.305H204.501C204.641 82.305 204.759 82.3375 204.854 82.4025C204.949 82.4675 205.009 82.55 205.034 82.65L206.136 86.76C206.196 86.985 206.244 87.205 206.279 87.42C206.319 87.635 206.356 87.85 206.391 88.065C206.446 87.85 206.504 87.635 206.564 87.42C206.629 87.205 206.696 86.985 206.766 86.76L208.041 82.635C208.071 82.535 208.131 82.4525 208.221 82.3875C208.311 82.3225 208.416 82.29 208.536 82.29H209.354C209.489 82.29 209.601 82.3225 209.691 82.3875C209.781 82.4525 209.841 82.535 209.871 82.635L211.131 86.835C211.196 87.05 211.254 87.26 211.304 87.465C211.359 87.665 211.411 87.8675 211.461 88.0725C211.496 87.8575 211.534 87.6425 211.574 87.4275C211.619 87.2125 211.674 86.99 211.739 86.76L212.879 82.65C212.904 82.55 212.964 82.4675 213.059 82.4025C213.154 82.3375 213.264 82.305 213.389 82.305H214.791L212.354 90H210.861C210.701 90 210.586 89.89 210.516 89.67L209.129 85.2225C209.084 85.0775 209.041 84.9325 209.001 84.7875C208.966 84.6375 208.936 84.49 208.911 84.345C208.881 84.495 208.849 84.645 208.814 84.795C208.779 84.94 208.739 85.0875 208.694 85.2375L207.291 89.67C207.221 89.89 207.086 90 206.886 90H205.469L203.031 82.305ZM215.834 90V78.855H217.686V83.1375C217.986 82.8525 218.316 82.6225 218.676 82.4475C219.036 82.2725 219.459 82.185 219.944 82.185C220.364 82.185 220.736 82.2575 221.061 82.4025C221.386 82.5425 221.656 82.7425 221.871 83.0025C222.091 83.2575 222.256 83.565 222.366 83.925C222.481 84.28 222.539 84.6725 222.539 85.1025V90H220.686V85.1025C220.686 84.6325 220.576 84.27 220.356 84.015C220.141 83.755 219.816 83.625 219.381 83.625C219.061 83.625 218.761 83.6975 218.481 83.8425C218.201 83.9875 217.936 84.185 217.686 84.435V90H215.834ZM227.539 82.185C228.024 82.185 228.469 82.2625 228.874 82.4175C229.284 82.5725 229.637 82.8 229.932 83.1C230.227 83.395 230.457 83.76 230.622 84.195C230.787 84.625 230.869 85.1175 230.869 85.6725C230.869 85.8125 230.862 85.93 230.847 86.025C230.837 86.115 230.814 86.1875 230.779 86.2425C230.749 86.2925 230.707 86.33 230.652 86.355C230.597 86.375 230.527 86.385 230.442 86.385H225.687C225.742 87.175 225.954 87.755 226.324 88.125C226.694 88.495 227.184 88.68 227.794 88.68C228.094 88.68 228.352 88.645 228.567 88.575C228.787 88.505 228.977 88.4275 229.137 88.3425C229.302 88.2575 229.444 88.18 229.564 88.11C229.689 88.04 229.809 88.005 229.924 88.005C229.999 88.005 230.064 88.02 230.119 88.05C230.174 88.08 230.222 88.1225 230.262 88.1775L230.802 88.8525C230.597 89.0925 230.367 89.295 230.112 89.46C229.857 89.62 229.589 89.75 229.309 89.85C229.034 89.945 228.752 90.0125 228.462 90.0525C228.177 90.0925 227.899 90.1125 227.629 90.1125C227.094 90.1125 226.597 90.025 226.137 89.85C225.677 89.67 225.277 89.4075 224.937 89.0625C224.597 88.7125 224.329 88.2825 224.134 87.7725C223.939 87.2575 223.842 86.6625 223.842 85.9875C223.842 85.4625 223.927 84.97 224.097 84.51C224.267 84.045 224.509 83.6425 224.824 83.3025C225.144 82.9575 225.532 82.685 225.987 82.485C226.447 82.285 226.964 82.185 227.539 82.185ZM227.577 83.5125C227.037 83.5125 226.614 83.665 226.309 83.97C226.004 84.275 225.809 84.7075 225.724 85.2675H229.204C229.204 85.0275 229.172 84.8025 229.107 84.5925C229.042 84.3775 228.942 84.19 228.807 84.03C228.672 83.87 228.502 83.745 228.297 83.655C228.092 83.56 227.852 83.5125 227.577 83.5125ZM232.372 90V82.305H233.504C233.744 82.305 233.902 82.4175 233.977 82.6425L234.104 83.25C234.259 83.09 234.422 82.945 234.592 82.815C234.767 82.685 234.949 82.5725 235.139 82.4775C235.334 82.3825 235.542 82.31 235.762 82.26C235.982 82.21 236.222 82.185 236.482 82.185C236.902 82.185 237.274 82.2575 237.599 82.4025C237.924 82.5425 238.194 82.7425 238.409 83.0025C238.629 83.2575 238.794 83.565 238.904 83.925C239.019 84.28 239.077 84.6725 239.077 85.1025V90H237.224V85.1025C237.224 84.6325 237.114 84.27 236.894 84.015C236.679 83.755 236.354 83.625 235.919 83.625C235.599 83.625 235.299 83.6975 235.019 83.8425C234.739 83.9875 234.474 84.185 234.224 84.435V90H232.372ZM28.72 110.115C28.665 110.245 28.5925 110.343 28.5025 110.408C28.4175 110.478 28.285 110.513 28.105 110.513H26.725L28.165 107.43L25.0525 100.305H26.6725C26.8225 100.305 26.9375 100.34 27.0175 100.41C27.0975 100.48 27.1575 100.56 27.1975 100.65L28.84 104.64C28.895 104.77 28.9425 104.905 28.9825 105.045C29.0225 105.185 29.0575 105.325 29.0875 105.465C29.1275 105.32 29.17 105.18 29.215 105.045C29.265 104.91 29.3175 104.772 29.3725 104.632L30.9175 100.65C30.9575 100.55 31.0225 100.467 31.1125 100.402C31.2075 100.337 31.3125 100.305 31.4275 100.305H32.9125L28.72 110.115ZM37.024 100.185C37.599 100.185 38.119 100.277 38.584 100.463C39.054 100.647 39.454 100.91 39.784 101.25C40.114 101.59 40.369 102.005 40.549 102.495C40.729 102.985 40.819 103.532 40.819 104.137C40.819 104.747 40.729 105.297 40.549 105.787C40.369 106.277 40.114 106.695 39.784 107.04C39.454 107.385 39.054 107.65 38.584 107.835C38.119 108.02 37.599 108.113 37.024 108.113C36.449 108.113 35.9265 108.02 35.4565 107.835C34.9865 107.65 34.584 107.385 34.249 107.04C33.919 106.695 33.6615 106.277 33.4765 105.787C33.2965 105.297 33.2065 104.747 33.2065 104.137C33.2065 103.532 33.2965 102.985 33.4765 102.495C33.6615 102.005 33.919 101.59 34.249 101.25C34.584 100.91 34.9865 100.647 35.4565 100.463C35.9265 100.277 36.449 100.185 37.024 100.185ZM37.024 106.687C37.664 106.687 38.1365 106.472 38.4415 106.042C38.7515 105.612 38.9065 104.982 38.9065 104.152C38.9065 103.322 38.7515 102.69 38.4415 102.255C38.1365 101.82 37.664 101.602 37.024 101.602C36.374 101.602 35.894 101.822 35.584 102.262C35.274 102.697 35.119 103.327 35.119 104.152C35.119 104.977 35.274 105.607 35.584 106.042C35.894 106.472 36.374 106.687 37.024 106.687ZM43.9594 100.305V105.195C43.9594 105.665 44.0669 106.03 44.2819 106.29C44.5019 106.545 44.8294 106.672 45.2644 106.672C45.5844 106.672 45.8844 106.602 46.1644 106.462C46.4444 106.317 46.7094 106.12 46.9594 105.87V100.305H48.8119V108H47.6794C47.4394 108 47.2819 107.887 47.2069 107.662L47.0794 107.047C46.9194 107.207 46.7544 107.355 46.5844 107.49C46.4144 107.62 46.2319 107.732 46.0369 107.827C45.8469 107.917 45.6394 107.987 45.4144 108.038C45.1944 108.093 44.9569 108.12 44.7019 108.12C44.2819 108.12 43.9094 108.05 43.5844 107.91C43.2644 107.765 42.9944 107.562 42.7744 107.302C42.5544 107.042 42.3869 106.735 42.2719 106.38C42.1619 106.02 42.1069 105.625 42.1069 105.195V100.305H43.9594ZM56.2177 108.12C55.5527 108.12 55.0402 107.932 54.6802 107.557C54.3202 107.177 54.1402 106.655 54.1402 105.99V101.692H53.3602C53.2602 101.692 53.1727 101.66 53.0977 101.595C53.0277 101.53 52.9927 101.432 52.9927 101.302V100.567L54.2302 100.365L54.6202 98.265C54.6402 98.165 54.6852 98.0875 54.7552 98.0325C54.8302 97.9775 54.9227 97.95 55.0327 97.95H55.9927V100.372H58.0177V101.692H55.9927V105.862C55.9927 106.102 56.0527 106.29 56.1727 106.425C56.2927 106.56 56.4527 106.627 56.6527 106.627C56.7677 106.627 56.8627 106.615 56.9377 106.59C57.0177 106.56 57.0852 106.53 57.1402 106.5C57.2002 106.47 57.2527 106.442 57.2977 106.417C57.3427 106.387 57.3877 106.372 57.4327 106.372C57.4877 106.372 57.5327 106.387 57.5677 106.417C57.6027 106.442 57.6402 106.482 57.6802 106.537L58.2352 107.437C57.9652 107.662 57.6552 107.832 57.3052 107.947C56.9552 108.063 56.5927 108.12 56.2177 108.12ZM59.491 108V100.305H60.5785C60.7685 100.305 60.901 100.34 60.976 100.41C61.051 100.48 61.101 100.6 61.126 100.77L61.2385 101.7C61.5135 101.225 61.836 100.85 62.206 100.575C62.576 100.3 62.991 100.162 63.451 100.162C63.831 100.162 64.146 100.25 64.396 100.425L64.156 101.812C64.141 101.902 64.1085 101.967 64.0585 102.007C64.0085 102.042 63.941 102.06 63.856 102.06C63.781 102.06 63.6785 102.042 63.5485 102.007C63.4185 101.972 63.246 101.955 63.031 101.955C62.646 101.955 62.316 102.062 62.041 102.277C61.766 102.487 61.5335 102.797 61.3435 103.207V108H59.491ZM71.4243 108H70.5918C70.4168 108 70.2793 107.975 70.1793 107.925C70.0793 107.87 70.0043 107.762 69.9543 107.602L69.7893 107.055C69.5943 107.23 69.4018 107.385 69.2118 107.52C69.0268 107.65 68.8343 107.76 68.6343 107.85C68.4343 107.94 68.2218 108.008 67.9968 108.053C67.7718 108.098 67.5218 108.12 67.2468 108.12C66.9218 108.12 66.6218 108.078 66.3468 107.992C66.0718 107.902 65.8343 107.77 65.6343 107.595C65.4393 107.42 65.2868 107.202 65.1768 106.942C65.0668 106.682 65.0118 106.38 65.0118 106.035C65.0118 105.745 65.0868 105.46 65.2368 105.18C65.3918 104.895 65.6468 104.64 66.0018 104.415C66.3568 104.185 66.8293 103.995 67.4193 103.845C68.0093 103.695 68.7418 103.61 69.6168 103.59V103.14C69.6168 102.625 69.5068 102.245 69.2868 102C69.0718 101.75 68.7568 101.625 68.3418 101.625C68.0418 101.625 67.7918 101.66 67.5918 101.73C67.3918 101.8 67.2168 101.88 67.0668 101.97C66.9218 102.055 66.7868 102.132 66.6618 102.202C66.5368 102.272 66.3993 102.307 66.2493 102.307C66.1243 102.307 66.0168 102.275 65.9268 102.21C65.8368 102.145 65.7643 102.065 65.7093 101.97L65.3718 101.377C66.2568 100.567 67.3243 100.162 68.5743 100.162C69.0243 100.162 69.4243 100.237 69.7743 100.387C70.1293 100.532 70.4293 100.737 70.6743 101.002C70.9193 101.262 71.1043 101.575 71.2293 101.94C71.3593 102.305 71.4243 102.705 71.4243 103.14V108ZM67.8243 106.845C68.0143 106.845 68.1893 106.827 68.3493 106.792C68.5093 106.757 68.6593 106.705 68.7993 106.635C68.9443 106.565 69.0818 106.48 69.2118 106.38C69.3468 106.275 69.4818 106.152 69.6168 106.012V104.715C69.0768 104.74 68.6243 104.787 68.2593 104.857C67.8993 104.922 67.6093 105.007 67.3893 105.112C67.1693 105.217 67.0118 105.34 66.9168 105.48C66.8268 105.62 66.7818 105.772 66.7818 105.937C66.7818 106.262 66.8768 106.495 67.0668 106.635C67.2618 106.775 67.5143 106.845 67.8243 106.845ZM78.6609 108C78.4209 108 78.2634 107.887 78.1884 107.662L78.0384 106.92C77.8784 107.1 77.7109 107.262 77.5359 107.407C77.3609 107.552 77.1709 107.677 76.9659 107.782C76.7659 107.887 76.5484 107.967 76.3134 108.023C76.0834 108.083 75.8334 108.113 75.5634 108.113C75.1434 108.113 74.7584 108.025 74.4084 107.85C74.0584 107.675 73.7559 107.422 73.5009 107.092C73.2509 106.757 73.0559 106.345 72.9159 105.855C72.7809 105.365 72.7134 104.805 72.7134 104.175C72.7134 103.605 72.7909 103.075 72.9459 102.585C73.1009 102.095 73.3234 101.67 73.6134 101.31C73.9034 100.95 74.2509 100.67 74.6559 100.47C75.0609 100.265 75.5159 100.162 76.0209 100.162C76.4509 100.162 76.8184 100.232 77.1234 100.372C77.4284 100.507 77.7009 100.69 77.9409 100.92V96.855H79.7934V108H78.6609ZM76.1934 106.642C76.5784 106.642 76.9059 106.562 77.1759 106.402C77.4459 106.242 77.7009 106.015 77.9409 105.72V102.27C77.7309 102.015 77.5009 101.835 77.2509 101.73C77.0059 101.625 76.7409 101.572 76.4559 101.572C76.1759 101.572 75.9209 101.625 75.6909 101.73C75.4659 101.835 75.2734 101.995 75.1134 102.21C74.9584 102.42 74.8384 102.69 74.7534 103.02C74.6684 103.345 74.6259 103.73 74.6259 104.175C74.6259 104.625 74.6609 105.007 74.7309 105.322C74.8059 105.632 74.9109 105.887 75.0459 106.087C75.1809 106.282 75.3459 106.425 75.5409 106.515C75.7359 106.6 75.9534 106.642 76.1934 106.642ZM84.9805 100.185C85.4655 100.185 85.9105 100.262 86.3155 100.417C86.7255 100.572 87.078 100.8 87.373 101.1C87.668 101.395 87.898 101.76 88.063 102.195C88.228 102.625 88.3105 103.117 88.3105 103.672C88.3105 103.812 88.303 103.93 88.288 104.025C88.278 104.115 88.2555 104.187 88.2205 104.242C88.1905 104.292 88.148 104.33 88.093 104.355C88.038 104.375 87.968 104.385 87.883 104.385H83.128C83.183 105.175 83.3955 105.755 83.7655 106.125C84.1355 106.495 84.6255 106.68 85.2355 106.68C85.5355 106.68 85.793 106.645 86.008 106.575C86.228 106.505 86.418 106.427 86.578 106.342C86.743 106.257 86.8855 106.18 87.0055 106.11C87.1305 106.04 87.2505 106.005 87.3655 106.005C87.4405 106.005 87.5055 106.02 87.5605 106.05C87.6155 106.08 87.663 106.122 87.703 106.177L88.243 106.852C88.038 107.092 87.808 107.295 87.553 107.46C87.298 107.62 87.0305 107.75 86.7505 107.85C86.4755 107.945 86.193 108.013 85.903 108.053C85.618 108.093 85.3405 108.113 85.0705 108.113C84.5355 108.113 84.038 108.025 83.578 107.85C83.118 107.67 82.718 107.407 82.378 107.062C82.038 106.712 81.7705 106.282 81.5755 105.772C81.3805 105.257 81.283 104.662 81.283 103.987C81.283 103.462 81.368 102.97 81.538 102.51C81.708 102.045 81.9505 101.642 82.2655 101.302C82.5855 100.957 82.973 100.685 83.428 100.485C83.888 100.285 84.4055 100.185 84.9805 100.185ZM85.018 101.512C84.478 101.512 84.0555 101.665 83.7505 101.97C83.4455 102.275 83.2505 102.707 83.1655 103.267H86.6455C86.6455 103.027 86.613 102.802 86.548 102.592C86.483 102.377 86.383 102.19 86.248 102.03C86.113 101.87 85.943 101.745 85.738 101.655C85.533 101.56 85.293 101.512 85.018 101.512ZM91.7761 100.305H93.2461C93.3861 100.305 93.5036 100.337 93.5986 100.402C93.6936 100.467 93.7536 100.55 93.7786 100.65L94.8811 104.76C94.9411 104.985 94.9886 105.205 95.0236 105.42C95.0636 105.635 95.1011 105.85 95.1361 106.065C95.1911 105.85 95.2486 105.635 95.3086 105.42C95.3736 105.205 95.4411 104.985 95.5111 104.76L96.7861 100.635C96.8161 100.535 96.8761 100.452 96.9661 100.387C97.0561 100.322 97.1611 100.29 97.2811 100.29H98.0986C98.2336 100.29 98.3461 100.322 98.4361 100.387C98.5261 100.452 98.5861 100.535 98.6161 100.635L99.8761 104.835C99.9411 105.05 99.9986 105.26 100.049 105.465C100.104 105.665 100.156 105.867 100.206 106.073C100.241 105.857 100.279 105.642 100.319 105.427C100.364 105.212 100.419 104.99 100.484 104.76L101.624 100.65C101.649 100.55 101.709 100.467 101.804 100.402C101.899 100.337 102.009 100.305 102.134 100.305H103.536L101.099 108H99.6061C99.4461 108 99.3311 107.89 99.2611 107.67L97.8736 103.222C97.8286 103.077 97.7861 102.932 97.7461 102.787C97.7111 102.637 97.6811 102.49 97.6561 102.345C97.6261 102.495 97.5936 102.645 97.5586 102.795C97.5236 102.94 97.4836 103.087 97.4386 103.237L96.0361 107.67C95.9661 107.89 95.8311 108 95.6311 108H94.2136L91.7761 100.305ZM106.551 100.305V108H104.699V100.305H106.551ZM106.829 98.0625C106.829 98.2225 106.796 98.3725 106.731 98.5125C106.666 98.6525 106.579 98.775 106.469 98.88C106.364 98.985 106.239 99.07 106.094 99.135C105.949 99.195 105.794 99.225 105.629 99.225C105.469 99.225 105.316 99.195 105.171 99.135C105.031 99.07 104.909 98.985 104.804 98.88C104.699 98.775 104.614 98.6525 104.549 98.5125C104.489 98.3725 104.459 98.2225 104.459 98.0625C104.459 97.8975 104.489 97.7425 104.549 97.5975C104.614 97.4525 104.699 97.3275 104.804 97.2225C104.909 97.1175 105.031 97.035 105.171 96.975C105.316 96.91 105.469 96.8775 105.629 96.8775C105.794 96.8775 105.949 96.91 106.094 96.975C106.239 97.035 106.364 97.1175 106.469 97.2225C106.579 97.3275 106.666 97.4525 106.731 97.5975C106.796 97.7425 106.829 97.8975 106.829 98.0625ZM111.179 108.12C110.514 108.12 110.001 107.932 109.641 107.557C109.281 107.177 109.101 106.655 109.101 105.99V101.692H108.321C108.221 101.692 108.134 101.66 108.059 101.595C107.989 101.53 107.954 101.432 107.954 101.302V100.567L109.191 100.365L109.581 98.265C109.601 98.165 109.646 98.0875 109.716 98.0325C109.791 97.9775 109.884 97.95 109.994 97.95H110.954V100.372H112.979V101.692H110.954V105.862C110.954 106.102 111.014 106.29 111.134 106.425C111.254 106.56 111.414 106.627 111.614 106.627C111.729 106.627 111.824 106.615 111.899 106.59C111.979 106.56 112.046 106.53 112.101 106.5C112.161 106.47 112.214 106.442 112.259 106.417C112.304 106.387 112.349 106.372 112.394 106.372C112.449 106.372 112.494 106.387 112.529 106.417C112.564 106.442 112.601 106.482 112.641 106.537L113.196 107.437C112.926 107.662 112.616 107.832 112.266 107.947C111.916 108.063 111.554 108.12 111.179 108.12ZM114.452 108V96.855H116.304V101.137C116.604 100.852 116.934 100.622 117.294 100.447C117.654 100.272 118.077 100.185 118.562 100.185C118.982 100.185 119.354 100.257 119.679 100.402C120.004 100.542 120.274 100.742 120.489 101.002C120.709 101.257 120.874 101.565 120.984 101.925C121.099 102.28 121.157 102.672 121.157 103.102V108H119.304V103.102C119.304 102.632 119.194 102.27 118.974 102.015C118.759 101.755 118.434 101.625 117.999 101.625C117.679 101.625 117.379 101.697 117.099 101.842C116.819 101.987 116.554 102.185 116.304 102.435V108H114.452ZM131.795 99.1275C131.74 99.2375 131.675 99.315 131.6 99.36C131.53 99.405 131.445 99.4275 131.345 99.4275C131.245 99.4275 131.133 99.39 131.008 99.315C130.883 99.235 130.735 99.1475 130.565 99.0525C130.395 98.9575 130.195 98.8725 129.965 98.7975C129.74 98.7175 129.473 98.6775 129.163 98.6775C128.883 98.6775 128.638 98.7125 128.428 98.7825C128.223 98.8475 128.048 98.94 127.903 99.06C127.763 99.18 127.658 99.325 127.588 99.495C127.518 99.66 127.483 99.8425 127.483 100.042C127.483 100.297 127.553 100.51 127.693 100.68C127.838 100.85 128.028 100.995 128.263 101.115C128.498 101.235 128.765 101.342 129.065 101.437C129.365 101.532 129.67 101.635 129.98 101.745C130.295 101.85 130.603 101.975 130.903 102.12C131.203 102.26 131.47 102.44 131.705 102.66C131.94 102.875 132.128 103.14 132.268 103.455C132.413 103.77 132.485 104.152 132.485 104.602C132.485 105.092 132.4 105.552 132.23 105.982C132.065 106.407 131.82 106.78 131.495 107.1C131.175 107.415 130.783 107.665 130.318 107.85C129.853 108.03 129.32 108.12 128.72 108.12C128.375 108.12 128.035 108.085 127.7 108.015C127.365 107.95 127.043 107.855 126.733 107.73C126.428 107.605 126.14 107.455 125.87 107.28C125.605 107.105 125.368 106.91 125.158 106.695L125.743 105.727C125.798 105.657 125.863 105.6 125.938 105.555C126.018 105.505 126.105 105.48 126.2 105.48C126.325 105.48 126.46 105.532 126.605 105.637C126.75 105.737 126.92 105.85 127.115 105.975C127.315 106.1 127.548 106.215 127.813 106.32C128.083 106.42 128.405 106.47 128.78 106.47C129.355 106.47 129.8 106.335 130.115 106.065C130.43 105.79 130.588 105.397 130.588 104.887C130.588 104.602 130.515 104.37 130.37 104.19C130.23 104.01 130.043 103.86 129.808 103.74C129.573 103.615 129.305 103.51 129.005 103.425C128.705 103.34 128.4 103.247 128.09 103.147C127.78 103.047 127.475 102.927 127.175 102.787C126.875 102.647 126.608 102.465 126.373 102.24C126.138 102.015 125.948 101.735 125.803 101.4C125.663 101.06 125.593 100.642 125.593 100.147C125.593 99.7525 125.67 99.3675 125.825 98.9925C125.985 98.6175 126.215 98.285 126.515 97.995C126.82 97.705 127.193 97.4725 127.633 97.2975C128.073 97.1225 128.575 97.035 129.14 97.035C129.78 97.035 130.37 97.135 130.91 97.335C131.45 97.535 131.91 97.815 132.29 98.175L131.795 99.1275ZM132.982 100.305H134.452C134.592 100.305 134.71 100.337 134.805 100.402C134.9 100.467 134.96 100.55 134.985 100.65L136.087 104.76C136.147 104.985 136.195 105.205 136.23 105.42C136.27 105.635 136.307 105.85 136.342 106.065C136.397 105.85 136.455 105.635 136.515 105.42C136.58 105.205 136.647 104.985 136.717 104.76L137.992 100.635C138.022 100.535 138.082 100.452 138.172 100.387C138.262 100.322 138.367 100.29 138.487 100.29H139.305C139.44 100.29 139.552 100.322 139.642 100.387C139.732 100.452 139.792 100.535 139.822 100.635L141.082 104.835C141.147 105.05 141.205 105.26 141.255 105.465C141.31 105.665 141.362 105.867 141.412 106.073C141.447 105.857 141.485 105.642 141.525 105.427C141.57 105.212 141.625 104.99 141.69 104.76L142.83 100.65C142.855 100.55 142.915 100.467 143.01 100.402C143.105 100.337 143.215 100.305 143.34 100.305H144.742L142.305 108H140.812C140.652 108 140.537 107.89 140.467 107.67L139.08 103.222C139.035 103.077 138.992 102.932 138.952 102.787C138.917 102.637 138.887 102.49 138.862 102.345C138.832 102.495 138.8 102.645 138.765 102.795C138.73 102.94 138.69 103.087 138.645 103.237L137.242 107.67C137.172 107.89 137.037 108 136.837 108H135.42L132.982 100.305ZM147.757 100.305V108H145.905V100.305H147.757ZM148.035 98.0625C148.035 98.2225 148.002 98.3725 147.937 98.5125C147.872 98.6525 147.785 98.775 147.675 98.88C147.57 98.985 147.445 99.07 147.3 99.135C147.155 99.195 147 99.225 146.835 99.225C146.675 99.225 146.522 99.195 146.377 99.135C146.237 99.07 146.115 98.985 146.01 98.88C145.905 98.775 145.82 98.6525 145.755 98.5125C145.695 98.3725 145.665 98.2225 145.665 98.0625C145.665 97.8975 145.695 97.7425 145.755 97.5975C145.82 97.4525 145.905 97.3275 146.01 97.2225C146.115 97.1175 146.237 97.035 146.377 96.975C146.522 96.91 146.675 96.8775 146.835 96.8775C147 96.8775 147.155 96.91 147.3 96.975C147.445 97.035 147.57 97.1175 147.675 97.2225C147.785 97.3275 147.872 97.4525 147.937 97.5975C148.002 97.7425 148.035 97.8975 148.035 98.0625ZM150.187 108V101.7L149.52 101.595C149.375 101.57 149.257 101.52 149.167 101.445C149.082 101.37 149.04 101.265 149.04 101.13V100.372H150.187V99.8025C150.187 99.3625 150.252 98.9675 150.382 98.6175C150.517 98.2675 150.707 97.97 150.952 97.725C151.202 97.48 151.505 97.2925 151.86 97.1625C152.215 97.0325 152.615 96.9675 153.06 96.9675C153.415 96.9675 153.745 97.015 154.05 97.11L154.012 98.04C154.002 98.185 153.935 98.275 153.81 98.31C153.685 98.345 153.54 98.3625 153.375 98.3625C153.155 98.3625 152.957 98.3875 152.782 98.4375C152.612 98.4825 152.467 98.565 152.347 98.685C152.227 98.8 152.135 98.955 152.07 99.15C152.01 99.34 151.98 99.5775 151.98 99.8625V100.372H153.982V101.692H152.04V108H150.187ZM157.643 108.12C156.978 108.12 156.466 107.932 156.106 107.557C155.746 107.177 155.566 106.655 155.566 105.99V101.692H154.786C154.686 101.692 154.598 101.66 154.523 101.595C154.453 101.53 154.418 101.432 154.418 101.302V100.567L155.656 100.365L156.046 98.265C156.066 98.165 156.111 98.0875 156.181 98.0325C156.256 97.9775 156.348 97.95 156.458 97.95H157.418V100.372H159.443V101.692H157.418V105.862C157.418 106.102 157.478 106.29 157.598 106.425C157.718 106.56 157.878 106.627 158.078 106.627C158.193 106.627 158.288 106.615 158.363 106.59C158.443 106.56 158.511 106.53 158.566 106.5C158.626 106.47 158.678 106.442 158.723 106.417C158.768 106.387 158.813 106.372 158.858 106.372C158.913 106.372 158.958 106.387 158.993 106.417C159.028 106.442 159.066 106.482 159.106 106.537L159.661 107.437C159.391 107.662 159.081 107.832 158.731 107.947C158.381 108.063 158.018 108.12 157.643 108.12ZM168.664 97.155V98.8125H165.402V108H163.384V98.8125H160.107V97.155H168.664ZM168.636 108V100.305H169.724C169.914 100.305 170.046 100.34 170.121 100.41C170.196 100.48 170.246 100.6 170.271 100.77L170.384 101.7C170.659 101.225 170.981 100.85 171.351 100.575C171.721 100.3 172.136 100.162 172.596 100.162C172.976 100.162 173.291 100.25 173.541 100.425L173.301 101.812C173.286 101.902 173.254 101.967 173.204 102.007C173.154 102.042 173.086 102.06 173.001 102.06C172.926 102.06 172.824 102.042 172.694 102.007C172.564 101.972 172.391 101.955 172.176 101.955C171.791 101.955 171.461 102.062 171.186 102.277C170.911 102.487 170.679 102.797 170.489 103.207V108H168.636ZM180.57 108H179.737C179.562 108 179.425 107.975 179.325 107.925C179.225 107.87 179.15 107.762 179.1 107.602L178.935 107.055C178.74 107.23 178.547 107.385 178.357 107.52C178.172 107.65 177.98 107.76 177.78 107.85C177.58 107.94 177.367 108.008 177.142 108.053C176.917 108.098 176.667 108.12 176.392 108.12C176.067 108.12 175.767 108.078 175.492 107.992C175.217 107.902 174.98 107.77 174.78 107.595C174.585 107.42 174.432 107.202 174.322 106.942C174.212 106.682 174.157 106.38 174.157 106.035C174.157 105.745 174.232 105.46 174.382 105.18C174.537 104.895 174.792 104.64 175.147 104.415C175.502 104.185 175.975 103.995 176.565 103.845C177.155 103.695 177.887 103.61 178.762 103.59V103.14C178.762 102.625 178.652 102.245 178.432 102C178.217 101.75 177.902 101.625 177.487 101.625C177.187 101.625 176.937 101.66 176.737 101.73C176.537 101.8 176.362 101.88 176.212 101.97C176.067 102.055 175.932 102.132 175.807 102.202C175.682 102.272 175.545 102.307 175.395 102.307C175.27 102.307 175.162 102.275 175.072 102.21C174.982 102.145 174.91 102.065 174.855 101.97L174.517 101.377C175.402 100.567 176.47 100.162 177.72 100.162C178.17 100.162 178.57 100.237 178.92 100.387C179.275 100.532 179.575 100.737 179.82 101.002C180.065 101.262 180.25 101.575 180.375 101.94C180.505 102.305 180.57 102.705 180.57 103.14V108ZM176.97 106.845C177.16 106.845 177.335 106.827 177.495 106.792C177.655 106.757 177.805 106.705 177.945 106.635C178.09 106.565 178.227 106.48 178.357 106.38C178.492 106.275 178.627 106.152 178.762 106.012V104.715C178.222 104.74 177.77 104.787 177.405 104.857C177.045 104.922 176.755 105.007 176.535 105.112C176.315 105.217 176.157 105.34 176.062 105.48C175.972 105.62 175.927 105.772 175.927 105.937C175.927 106.262 176.022 106.495 176.212 106.635C176.407 106.775 176.66 106.845 176.97 106.845ZM187.806 108C187.566 108 187.409 107.887 187.334 107.662L187.184 106.92C187.024 107.1 186.856 107.262 186.681 107.407C186.506 107.552 186.316 107.677 186.111 107.782C185.911 107.887 185.694 107.967 185.459 108.023C185.229 108.083 184.979 108.113 184.709 108.113C184.289 108.113 183.904 108.025 183.554 107.85C183.204 107.675 182.901 107.422 182.646 107.092C182.396 106.757 182.201 106.345 182.061 105.855C181.926 105.365 181.859 104.805 181.859 104.175C181.859 103.605 181.936 103.075 182.091 102.585C182.246 102.095 182.469 101.67 182.759 101.31C183.049 100.95 183.396 100.67 183.801 100.47C184.206 100.265 184.661 100.162 185.166 100.162C185.596 100.162 185.964 100.232 186.269 100.372C186.574 100.507 186.846 100.69 187.086 100.92V96.855H188.939V108H187.806ZM185.339 106.642C185.724 106.642 186.051 106.562 186.321 106.402C186.591 106.242 186.846 106.015 187.086 105.72V102.27C186.876 102.015 186.646 101.835 186.396 101.73C186.151 101.625 185.886 101.572 185.601 101.572C185.321 101.572 185.066 101.625 184.836 101.73C184.611 101.835 184.419 101.995 184.259 102.21C184.104 102.42 183.984 102.69 183.899 103.02C183.814 103.345 183.771 103.73 183.771 104.175C183.771 104.625 183.806 105.007 183.876 105.322C183.951 105.632 184.056 105.887 184.191 106.087C184.326 106.282 184.491 106.425 184.686 106.515C184.881 106.6 185.099 106.642 185.339 106.642ZM194.126 100.185C194.611 100.185 195.056 100.262 195.461 100.417C195.871 100.572 196.224 100.8 196.519 101.1C196.814 101.395 197.044 101.76 197.209 102.195C197.374 102.625 197.456 103.117 197.456 103.672C197.456 103.812 197.449 103.93 197.434 104.025C197.424 104.115 197.401 104.187 197.366 104.242C197.336 104.292 197.294 104.33 197.239 104.355C197.184 104.375 197.114 104.385 197.029 104.385H192.274C192.329 105.175 192.541 105.755 192.911 106.125C193.281 106.495 193.771 106.68 194.381 106.68C194.681 106.68 194.939 106.645 195.154 106.575C195.374 106.505 195.564 106.427 195.724 106.342C195.889 106.257 196.031 106.18 196.151 106.11C196.276 106.04 196.396 106.005 196.511 106.005C196.586 106.005 196.651 106.02 196.706 106.05C196.761 106.08 196.809 106.122 196.849 106.177L197.389 106.852C197.184 107.092 196.954 107.295 196.699 107.46C196.444 107.62 196.176 107.75 195.896 107.85C195.621 107.945 195.339 108.013 195.049 108.053C194.764 108.093 194.486 108.113 194.216 108.113C193.681 108.113 193.184 108.025 192.724 107.85C192.264 107.67 191.864 107.407 191.524 107.062C191.184 106.712 190.916 106.282 190.721 105.772C190.526 105.257 190.429 104.662 190.429 103.987C190.429 103.462 190.514 102.97 190.684 102.51C190.854 102.045 191.096 101.642 191.411 101.302C191.731 100.957 192.119 100.685 192.574 100.485C193.034 100.285 193.551 100.185 194.126 100.185ZM194.164 101.512C193.624 101.512 193.201 101.665 192.896 101.97C192.591 102.275 192.396 102.707 192.311 103.267H195.791C195.791 103.027 195.759 102.802 195.694 102.592C195.629 102.377 195.529 102.19 195.394 102.03C195.259 101.87 195.089 101.745 194.884 101.655C194.679 101.56 194.439 101.512 194.164 101.512ZM203.526 101.805C203.476 101.885 203.424 101.942 203.369 101.977C203.314 102.007 203.244 102.022 203.159 102.022C203.069 102.022 202.971 101.997 202.866 101.947C202.766 101.897 202.649 101.842 202.514 101.782C202.379 101.717 202.224 101.66 202.049 101.61C201.879 101.56 201.676 101.535 201.441 101.535C201.076 101.535 200.789 101.612 200.579 101.767C200.369 101.922 200.264 102.125 200.264 102.375C200.264 102.54 200.316 102.68 200.421 102.795C200.531 102.905 200.674 103.002 200.849 103.087C201.029 103.172 201.231 103.25 201.456 103.32C201.681 103.385 201.911 103.457 202.146 103.537C202.381 103.617 202.611 103.71 202.836 103.815C203.061 103.915 203.261 104.045 203.436 104.205C203.616 104.36 203.759 104.547 203.864 104.767C203.974 104.987 204.029 105.252 204.029 105.562C204.029 105.932 203.961 106.275 203.826 106.59C203.691 106.9 203.494 107.17 203.234 107.4C202.974 107.625 202.651 107.802 202.266 107.932C201.886 108.058 201.449 108.12 200.954 108.12C200.689 108.12 200.429 108.095 200.174 108.045C199.924 108 199.681 107.935 199.446 107.85C199.216 107.765 199.001 107.665 198.801 107.55C198.606 107.435 198.434 107.31 198.284 107.175L198.711 106.47C198.766 106.385 198.831 106.32 198.906 106.275C198.981 106.23 199.076 106.207 199.191 106.207C199.306 106.207 199.414 106.24 199.514 106.305C199.619 106.37 199.739 106.44 199.874 106.515C200.009 106.59 200.166 106.66 200.346 106.725C200.531 106.79 200.764 106.822 201.044 106.822C201.264 106.822 201.451 106.797 201.606 106.747C201.766 106.692 201.896 106.622 201.996 106.537C202.101 106.452 202.176 106.355 202.221 106.245C202.271 106.13 202.296 106.012 202.296 105.892C202.296 105.712 202.241 105.565 202.131 105.45C202.026 105.335 201.884 105.235 201.704 105.15C201.529 105.065 201.326 104.99 201.096 104.925C200.871 104.855 200.639 104.78 200.399 104.7C200.164 104.62 199.931 104.527 199.701 104.422C199.476 104.312 199.274 104.175 199.094 104.01C198.919 103.845 198.776 103.642 198.666 103.402C198.561 103.162 198.509 102.872 198.509 102.532C198.509 102.217 198.571 101.917 198.696 101.632C198.821 101.347 199.004 101.1 199.244 100.89C199.489 100.675 199.791 100.505 200.151 100.38C200.516 100.25 200.936 100.185 201.411 100.185C201.941 100.185 202.424 100.272 202.859 100.447C203.294 100.622 203.656 100.852 203.946 101.137L203.526 101.805Z" fill="white"/>
<path d="M28.97 127.15C30.6 127.15 31.72 126.2 32.1 124.87L31.23 124.55C30.94 125.52 30.18 126.25 28.97 126.25C27.68 126.25 26.45 125.3 26.45 123.45C26.45 121.6 27.68 120.66 28.97 120.66C30.13 120.66 30.91 121.26 31.18 122.33L32.09 122.01C31.73 120.64 30.59 119.76 28.97 119.76C27.21 119.76 25.45 121.08 25.45 123.45C25.45 125.82 27.14 127.15 28.97 127.15ZM35.1647 126.31C34.3647 126.31 33.6647 125.71 33.6647 124.59C33.6647 123.48 34.3647 122.88 35.1647 122.88C35.9647 122.88 36.6647 123.48 36.6647 124.59C36.6647 125.71 35.9647 126.31 35.1647 126.31ZM35.1647 122.04C33.7247 122.04 32.7047 123.13 32.7047 124.59C32.7047 126.06 33.7247 127.15 35.1647 127.15C36.6047 127.15 37.6247 126.06 37.6247 124.59C37.6247 123.13 36.6047 122.04 35.1647 122.04ZM39.7573 127V124.1C39.7573 123.38 40.2073 122.88 40.8773 122.88C41.5973 122.88 41.8973 123.36 41.8973 123.98V127H42.8373V124.09C42.8373 123.4 43.2873 122.88 43.9473 122.88C44.6573 122.88 44.9673 123.35 44.9673 123.98V127H45.8973V123.88C45.8973 122.62 45.0773 122.05 44.2373 122.05C43.6273 122.05 43.0073 122.27 42.6273 122.96C42.3673 122.34 41.7873 122.05 41.1873 122.05C40.6273 122.05 40.0273 122.3 39.7273 122.83V122.19H38.8273V127H39.7573ZM48.3316 128.9V126.35C48.5916 126.78 49.1516 127.13 49.8916 127.13C51.3016 127.13 52.1316 126.02 52.1316 124.59C52.1316 123.19 51.3616 122.08 49.9216 122.08C49.1416 122.08 48.5716 122.46 48.3116 122.94V122.19H47.4016V128.9H48.3316ZM51.1716 124.59C51.1716 125.58 50.6216 126.29 49.7516 126.29C48.8916 126.29 48.3216 125.58 48.3216 124.59C48.3216 123.63 48.8916 122.91 49.7516 122.91C50.6316 122.91 51.1716 123.63 51.1716 124.59ZM54.2693 127V119.76H53.3293V127H54.2693ZM56.4784 124.1C56.5184 123.48 56.9984 122.87 57.7884 122.87C58.6384 122.87 59.0884 123.41 59.1084 124.1H56.4784ZM59.2484 125.35C59.0684 125.89 58.6784 126.32 57.8984 126.32C57.0884 126.32 56.4684 125.72 56.4484 124.86H60.0684C60.0784 124.8 60.0884 124.68 60.0884 124.56C60.0884 123.06 59.2584 122.04 57.7784 122.04C56.5684 122.04 55.4784 123.07 55.4784 124.58C55.4784 126.21 56.6084 127.15 57.8984 127.15C59.0184 127.15 59.7884 126.48 60.0584 125.63L59.2484 125.35ZM62.5483 120.67H61.6883V121.45C61.6883 121.87 61.4683 122.19 60.9483 122.19H60.6883V123.04H61.6083V125.68C61.6083 126.55 62.1283 127.05 62.9483 127.05C63.2683 127.05 63.5083 126.99 63.5883 126.96V126.16C63.5083 126.18 63.3383 126.2 63.2183 126.2C62.7283 126.2 62.5483 125.98 62.5483 125.54V123.04H63.5883V122.19H62.5483V120.67ZM65.4041 124.1C65.4441 123.48 65.9241 122.87 66.7141 122.87C67.5641 122.87 68.0141 123.41 68.0341 124.1H65.4041ZM68.1741 125.35C67.9941 125.89 67.6041 126.32 66.8241 126.32C66.0141 126.32 65.3941 125.72 65.3741 124.86H68.9941C69.0041 124.8 69.0141 124.68 69.0141 124.56C69.0141 123.06 68.1841 122.04 66.7041 122.04C65.4941 122.04 64.4041 123.07 64.4041 124.58C64.4041 126.21 65.5341 127.15 66.8241 127.15C67.9441 127.15 68.7141 126.48 68.9841 125.63L68.1741 125.35ZM73.7941 123.22V120.79H75.2141C76.0641 120.79 76.5841 121.27 76.5841 122.02C76.5841 122.75 76.0641 123.22 75.2141 123.22H73.7941ZM75.3941 124.1C76.7041 124.1 77.5841 123.21 77.5841 122.01C77.5841 120.82 76.7041 119.91 75.3941 119.91H72.8141V127H73.7941V124.1H75.3941ZM81.2044 122.14C81.1544 122.13 81.0244 122.11 80.8944 122.11C80.4044 122.11 79.8044 122.29 79.4544 123.03V122.19H78.5344V127H79.4744V124.59C79.4744 123.53 80.0044 123.11 80.7944 123.11C80.9244 123.11 81.0644 123.12 81.2044 123.14V122.14ZM84.2174 126.31C83.4174 126.31 82.7174 125.71 82.7174 124.59C82.7174 123.48 83.4174 122.88 84.2174 122.88C85.0174 122.88 85.7174 123.48 85.7174 124.59C85.7174 125.71 85.0174 126.31 84.2174 126.31ZM84.2174 122.04C82.7774 122.04 81.7574 123.13 81.7574 124.59C81.7574 126.06 82.7774 127.15 84.2174 127.15C85.6574 127.15 86.6774 126.06 86.6774 124.59C86.6774 123.13 85.6574 122.04 84.2174 122.04ZM89.7501 119.73C88.8801 119.73 88.1701 120.31 88.1701 121.38V122.19H87.2801V123.04H88.1701V127H89.1401V123.04H91.3901V127H92.3201V122.19H89.1401V121.42C89.1401 120.76 89.5701 120.61 89.9001 120.61C90.1401 120.61 90.2601 120.65 90.3101 120.67V119.83C90.2701 119.8 90.0701 119.73 89.7501 119.73ZM91.1801 120.35C91.1801 120.72 91.4801 121.02 91.8501 121.02C92.2301 121.02 92.5301 120.72 92.5301 120.35C92.5301 119.97 92.2301 119.67 91.8501 119.67C91.4801 119.67 91.1801 119.97 91.1801 120.35ZM94.8552 127V119.76H93.9152V127H94.8552ZM97.0643 124.1C97.1043 123.48 97.5843 122.87 98.3743 122.87C99.2243 122.87 99.6743 123.41 99.6943 124.1H97.0643ZM99.8343 125.35C99.6543 125.89 99.2643 126.32 98.4843 126.32C97.6743 126.32 97.0543 125.72 97.0343 124.86H100.654C100.664 124.8 100.674 124.68 100.674 124.56C100.674 123.06 99.8443 122.04 98.3643 122.04C97.1543 122.04 96.0643 123.07 96.0643 124.58C96.0643 126.21 97.1943 127.15 98.4843 127.15C99.6043 127.15 100.374 126.48 100.644 125.63L99.8343 125.35Z" fill="#91BBF5"/>
<path d="M110.125 124.125H117.106L114.056 127.175C113.813 127.419 113.813 127.819 114.056 128.062C114.3 128.306 114.694 128.306 114.938 128.062L119.056 123.944C119.3 123.7 119.3 123.306 119.056 123.062L114.944 118.937C114.7 118.694 114.306 118.694 114.063 118.937C113.819 119.181 113.819 119.575 114.063 119.819L117.106 122.875H110.125C109.781 122.875 109.5 123.156 109.5 123.5C109.5 123.844 109.781 124.125 110.125 124.125Z" fill="#91BBF5"/>
<line x1="214.177" y1="-2.17678" x2="301.177" y2="84.8232" stroke="#91BBF5" stroke-width="0.5"/>
<line x1="218.177" y1="-14.1768" x2="305.177" y2="72.8232" stroke="#91BBF5" stroke-width="0.5"/>
<line x1="218.177" y1="-29.1768" x2="305.177" y2="57.8232" stroke="#91BBF5" stroke-width="0.5"/>
<line x1="218.177" y1="-44.1768" x2="305.177" y2="42.8232" stroke="#91BBF5" stroke-width="0.5"/>
<line x1="218.177" y1="-59.1768" x2="305.177" y2="27.8232" stroke="#91BBF5" stroke-width="0.5"/>
<line x1="218.177" y1="-74.1768" x2="305.177" y2="12.8232" stroke="#91BBF5" stroke-width="0.5"/>
</g>
<defs>
<clipPath id="clip0">
<rect width="266.884" height="150.055" fill="white"/>
</clipPath>
</defs>
</svg>
