<svg width="4629" height="5371" viewBox="0 0 4629 5371" fill="none" xmlns="http://www.w3.org/2000/svg">
<path fill-rule="evenodd" clip-rule="evenodd" d="M1291.46 472.335C1605.24 -266.624 3600.25 -131.377 4214.1 827.906C4827.95 1787.19 4126.41 3918.37 3497.55 3918.37C2868.69 3918.37 2868.69 2479.47 2609.39 2056.89C2350.09 1634.32 977.676 1211.29 1291.46 472.335Z" fill="#91FFBD" fill-opacity="0.7"/>
<path fill-rule="evenodd" clip-rule="evenodd" d="M704.368 2665.11C1022.59 3184.71 1349.42 2921.46 1762.52 2546.88C2175.61 2172.29 2726.39 1834.85 2408.17 1315.24C2089.95 795.641 1289.24 671.448 876.148 1046.04C463.052 1420.62 386.144 2145.51 704.368 2665.11Z" fill="#2B44FF" fill-opacity="0.6"/>
<path fill-rule="evenodd" clip-rule="evenodd" d="M4094.92 3632.81C4348.39 3632.81 4628.01 3379.92 4628.01 3057.67C4628.01 2735.42 4348.39 2482.54 4094.92 2482.54C3841.46 2482.54 3747.2 2851.32 3747.2 3115.62C3747.2 3379.92 3841.46 3632.81 4094.92 3632.81Z" fill="#FF73C6" fill-opacity="0.7"/>
<path fill-rule="evenodd" clip-rule="evenodd" d="M2600.47 2203.28L3000.8 2003.38C3064.1 1925.09 3127.74 1865.4 3191.71 1824.3C3211.65 1817.16 3247.24 1814.64 3217.99 1872.67C3188.74 1930.7 3160.77 1993.48 3179.27 2013.47C3197.76 2033.46 3238.61 2010.65 3261.31 2043.24C3276.44 2064.97 3205.79 2092.04 3049.36 2124.46L2766.68 2382.9L2600.47 2203.28Z" fill="#997659"/>
<path fill-rule="evenodd" clip-rule="evenodd" d="M2038.2 2300.4C2234.35 2295.97 2496.36 2252.73 2777.52 2078.2L2884.2 2312.88C2689.45 2499.75 2416.94 2654.68 2180.37 2651.2C1993.94 2648.45 1901.31 2431.76 2038.2 2300.4Z" fill="#2026A2"/>
<path fill-rule="evenodd" clip-rule="evenodd" d="M2165.81 1742.23C2229.96 1782.6 2292.99 1802.11 2322.58 1794.15C2396.78 1774.18 2403.6 1490.81 2346.19 1379.1C2288.78 1267.38 1993.66 1218.69 1978.79 1440.03C1973.62 1516.85 2004.52 1585.41 2050.17 1641.35L1968.32 2039.65H2206.08L2165.81 1742.23Z" fill="#B28B67"/>
<path fill-rule="evenodd" clip-rule="evenodd" d="M2031.9 1691.17C2002.06 1552.57 1917.04 1458.09 1930.03 1396.14C1943.01 1334.19 1999.24 1319.09 1999.24 1319.09C1999.24 1319.09 2028.32 1196.27 2186.81 1214.61C2345.31 1232.95 2442.05 1301.67 2400.27 1452.88C2361.87 1452.88 2315.51 1438.38 2251.4 1463.22C2220.89 1475.05 2207.76 1536.56 2207.76 1536.56H2178.79C2178.79 1536.56 2136.62 1463.56 2095.62 1482.91C2054.63 1502.26 2076.99 1576.9 2076.99 1576.9L2062.72 1691.17H2031.9Z" fill="#191847"/>
<path fill-rule="evenodd" clip-rule="evenodd" d="M1538.59 3332.5H2303.93L2404.21 4615H1264.94L1538.59 3332.5Z" fill="#C5CFD6"/>
<path fill-rule="evenodd" clip-rule="evenodd" d="M1538.59 3332.5H1773.98L1914.86 4615H1264.94L1538.59 3332.5Z" fill="black" fill-opacity="0.1"/>
<path fill-rule="evenodd" clip-rule="evenodd" d="M2724.43 3586.58C2638.42 3777.01 2504.04 4239.27 2504.04 4239.27L2618.13 4293.69C2618.13 4293.69 2907.61 3807.77 3084.52 3475.6C3076.28 3550.38 3067.89 3634.57 3060.11 3723.07C3041.67 3932.72 3060.1 4385.67 3070.01 4516.51C3076.25 4598.74 3183.27 4581.51 3193.26 4516.3C3194.95 4505.25 3201.85 4466.47 3212.14 4408.61C3262.59 4124.88 3394.64 3382.33 3394.88 3200.51C3394.97 3127.34 3258.07 3061.62 3176.47 3112.78C3120.42 3050.34 3014.34 3014.35 2953.4 3117.49C2914.65 3183.06 2822.6 3369.21 2724.43 3586.58Z" fill="#B28B67"/>
<path fill-rule="evenodd" clip-rule="evenodd" d="M2512.19 4068.13L2903.78 3099.65C2997.59 2942.11 3260.6 3131.71 3228.61 3223.09C3155.98 3430.54 2786.6 4102.15 2764.97 4163.95L2512.19 4068.13Z" fill="#1F28CF"/>
<path fill-rule="evenodd" clip-rule="evenodd" d="M2508.64 4165.93C2507.99 4164.91 2506.7 4164.67 2505.8 4165.41C2496.9 4172.73 2454.8 4207.94 2442.84 4229.56C2429.44 4253.79 2411.47 4304.94 2411.47 4304.94C2438.39 4321.16 2895.36 4596.61 2895.36 4596.61C2895.36 4596.61 2950.23 4542.88 2912.46 4513.19C2874.69 4483.51 2850.13 4463.12 2850.13 4463.12L2677.72 4215.13C2677.39 4214.66 2676.75 4214.55 2676.31 4214.91L2634.34 4248.65C2634.34 4248.65 2586.58 4244.3 2563.06 4230.12C2542.21 4217.55 2514.63 4175.34 2508.64 4165.93Z" fill="#E4E4E4"/>
<path fill-rule="evenodd" clip-rule="evenodd" d="M3054.88 4443.92C3053.82 4443.37 3052.55 4443.83 3052.12 4444.95C3047.9 4455.97 3028.33 4508.39 3028.33 4533.35C3028.33 4561.33 3037.26 4615 3037.26 4615C3068.34 4615 3596.01 4615 3596.01 4615C3596.01 4615 3617.79 4539.83 3570.87 4533.83C3523.94 4527.84 3492.9 4523.01 3492.9 4523.01L3224.85 4398.25C3224.33 4398.01 3223.71 4398.25 3223.5 4398.79L3203.31 4449.92C3203.31 4449.92 3159.87 4471.08 3132.71 4471.08C3108.67 4471.08 3064.67 4448.99 3054.88 4443.92Z" fill="#E4E4E4"/>
<path fill-rule="evenodd" clip-rule="evenodd" d="M3422.32 3274.92C3422.32 3549.69 3297.33 4190.64 3297.25 4251.14L3028.33 4251.36C3028.33 4251.36 3087.37 3393.5 3070.2 3384.25C3053.03 3375.01 2366.33 3455.83 2160.37 3455.83C1863.38 3455.83 1740.53 3260.31 1730.56 2898.1H2318.88C2438.66 2911.48 3063.49 3043.06 3295.53 3088.29C3394.88 3107.65 3422.32 3199.22 3422.32 3274.92Z" fill="#2B44FF"/>
<path fill-rule="evenodd" clip-rule="evenodd" d="M1730.56 2991.18H2493.37C2493.37 2991.18 2234.18 2165.91 2228.57 1858.36C2228.38 1847.9 2209.88 1829.48 2201.7 1831.9C2111.96 1858.36 2009.65 1812.11 2009.65 1812.11C1828.81 2115.75 1766.27 2489.61 1730.56 2991.18Z" fill="#DFEAF1"/>
<path fill-rule="evenodd" clip-rule="evenodd" d="M2551.34 2718.77L2733.55 2859.09C2733.55 2859.09 2786.98 3039.13 2836.89 3045.99C2863.93 3064.25 2804.67 2910.95 2854.3 2929.39C2903.93 2947.83 3033.28 3074.77 3051.31 3054.12C3077.97 3023.56 3040.68 2915.96 3003.87 2860.33C2935.08 2756.34 2882.85 2717.46 2757.62 2659.98C2659.41 2614.9 2538.94 2499.49 2538.94 2499.49L2551.34 2718.77Z" fill="#997659"/>
<path fill-rule="evenodd" clip-rule="evenodd" d="M2160.88 2108.7C2281.91 2269.58 2466.41 2466.5 2742.72 2616.06L2663.58 2817.82C2431.84 2746.01 2172.72 2594.19 2032.15 2395.9C1921.37 2239.63 1997.98 2058.23 2160.88 2108.7Z" fill="#1F28CE"/>
<rect width="199.985" height="257.336" transform="matrix(0.822979 0.568072 -0.729074 0.684434 3309.44 1796.36)" fill="black"/>
<rect width="157.917" height="218.218" transform="matrix(0.826104 0.563518 -0.725017 0.688731 3309.44 1819.63)" fill="white"/>
</svg>
