<svg width="19" height="19" viewBox="0 0 19 19" fill="none" xmlns="http://www.w3.org/2000/svg">
<path d="M15.8335 4.75H14.1077C14.1947 4.50458 14.2502 4.23542 14.2502 3.95833C14.2502 2.64417 13.1893 1.58333 11.8752 1.58333C11.0439 1.58333 10.3235 2.01083 9.896 2.65208L9.50016 3.1825L9.10433 2.64417C8.67683 2.01083 7.95641 1.58333 7.12516 1.58333C5.811 1.58333 4.75016 2.64417 4.75016 3.95833C4.75016 4.23542 4.80558 4.50458 4.89266 4.75H3.16683C2.28808 4.75 1.59141 5.45458 1.59141 6.33333L1.5835 15.0417C1.5835 15.9204 2.28808 16.625 3.16683 16.625H15.8335C16.7122 16.625 17.4168 15.9204 17.4168 15.0417V6.33333C17.4168 5.45458 16.7122 4.75 15.8335 4.75ZM11.8752 3.16667C12.3106 3.16667 12.6668 3.52292 12.6668 3.95833C12.6668 4.39375 12.3106 4.75 11.8752 4.75C11.4397 4.75 11.0835 4.39375 11.0835 3.95833C11.0835 3.52292 11.4397 3.16667 11.8752 3.16667ZM7.12516 3.16667C7.56058 3.16667 7.91683 3.52292 7.91683 3.95833C7.91683 4.39375 7.56058 4.75 7.12516 4.75C6.68975 4.75 6.3335 4.39375 6.3335 3.95833C6.3335 3.52292 6.68975 3.16667 7.12516 3.16667ZM15.0418 15.0417H3.9585C3.52308 15.0417 3.16683 14.6854 3.16683 14.25V13.4583H15.8335V14.25C15.8335 14.6854 15.4772 15.0417 15.0418 15.0417ZM15.8335 11.0833H3.16683V7.125C3.16683 6.68958 3.52308 6.33333 3.9585 6.33333H7.1885L6.01683 7.9325C5.75558 8.28875 5.83475 8.7875 6.191 9.04083C6.53933 9.29417 7.03808 9.215 7.29141 8.86667L9.50016 5.85833L11.7089 8.86667C11.9622 9.215 12.461 9.29417 12.8093 9.04083C13.1656 8.7875 13.2447 8.28875 12.9835 7.9325L11.8118 6.33333H15.0418C15.4772 6.33333 15.8335 6.68958 15.8335 7.125V11.0833Z" fill="white"/>
</svg>
