<svg xmlns="http://www.w3.org/2000/svg" xmlns:xlink="http://www.w3.org/1999/xlink" width="246.711" height="251.648" viewBox="0 0 246.711 251.648"><defs><style>.a{opacity:0.679;}.b,.k{fill:#ffe063;}.b{opacity:0.1;}.c{fill:#2196f3;}.d{fill:url(#a);}.e{fill:#1976d2;}.f{fill:#64b5f6;}.g{fill:#0071bc;}.h{fill:#82a9ff;}.i{fill:#0d47a1;}.j{fill:#fff;}.l{fill:#e0e0e0;}.m{opacity:0.2;}</style><linearGradient id="a" x1="0.5" y1="1" x2="0.5" gradientUnits="objectBoundingBox"><stop offset="0" stop-color="gray" stop-opacity="0.251"/><stop offset="0.535" stop-color="gray" stop-opacity="0.122"/><stop offset="1" stop-color="gray" stop-opacity="0.102"/></linearGradient></defs><g class="a"><path class="b" d="M482.711,211.824a128.951,128.951,0,0,1-1.63,20.505c-.088.56-.183,1.12-.281,1.68a125.689,125.689,0,0,1-68.456,91.471c-.169.083-.342.166-.515.249q-2.069,1-4.185,1.915c-.379.162-.756.325-1.139.484a120.549,120.549,0,0,1-23.7,7.249c-.359.073-.718.138-1.078.2a121.436,121.436,0,0,1-22.282,2.067H359.1q-1,0-1.989-.024c-.125,0-.251,0-.376-.007a121.411,121.411,0,0,1-22.177-2.51c-.356-.076-.712-.152-1.067-.232a120.081,120.081,0,0,1-19.256-5.911c-.383-.149-.759-.3-1.139-.463q-2.115-.866-4.185-1.818c-.173-.079-.346-.159-.515-.239a125.637,125.637,0,0,1-70.489-92.436c-.1-.56-.193-1.12-.281-1.68a129.753,129.753,0,0,1-.014-40.92c.122-.778.254-1.559.4-2.333a126.107,126.107,0,0,1,3.965-16.053q.254-.8.518-1.607C259,121.749,305.086,86,359.355,86,419.867,86,470.2,130.446,480.7,189.075c.142.774.275,1.556.4,2.333A129.037,129.037,0,0,1,482.711,211.824Z" transform="translate(-236 -86)"/><path class="c" d="M535.249,223.254h-.658c-.134,0-.465-.536-.465-.69v-.624c0-.487-.54-1.821-1.017-1.821s-1.017,1.335-1.017,1.821v.624c0,.219-.166.69-.369.69h-.658c-.477,0-1.786.378-1.786.864s1.309.864,1.786.864h.785c.248,0,.242.261.242.393v.832c0,.487.54,1.821,1.017,1.821s1.017-1.335,1.017-1.821v-.832c0-.11.218-.393.339-.393h.785c.477,0,1.786-.378,1.786-.864S535.726,223.254,535.249,223.254Z" transform="translate(-429.89 -173.758)"/><path class="d" d="M259.492,324.588h-.869c-.177,0-.615-.709-.615-.912v-.824c0-.643-.713-2.406-1.343-2.406s-1.343,1.763-1.343,2.406v.824c0,.29-.219.912-.488.912h-.869c-.63,0-2.359.5-2.359,1.142s1.729,1.142,2.359,1.142H255c.328,0,.32.344.32.52v1.1c0,.643.713,2.406,1.343,2.406s1.343-1.763,1.343-2.406v-1.1c0-.146.288-.52.447-.52h1.037c.63,0,2.359-.5,2.359-1.142S260.122,324.588,259.492,324.588Z" transform="translate(-246.317 -239.405)"/><path class="d" d="M533.492,220.588h-.869c-.177,0-.615-.709-.615-.912v-.824c0-.643-.713-2.406-1.343-2.406s-1.343,1.763-1.343,2.406v.824c0,.29-.219.912-.487.912h-.869c-.63,0-2.359.5-2.359,1.142s1.729,1.142,2.359,1.142H529c.328,0,.32.344.32.52v1.1c0,.643.713,2.406,1.343,2.406s1.343-1.763,1.343-2.406v-1.1c0-.146.288-.52.447-.52h1.037c.63,0,2.359-.5,2.359-1.142S534.122,220.588,533.492,220.588Z" transform="translate(-427.462 -171.355)"/><path class="d" d="M810.492,267.588h-.869c-.177,0-.615-.709-.615-.912v-.824c0-.643-.713-2.406-1.343-2.406s-1.343,1.763-1.343,2.406v.824c0,.29-.219.912-.487.912h-.869c-.63,0-2.359.5-2.359,1.142s1.729,1.142,2.359,1.142H806c.328,0,.32.344.32.52v1.1c0,.643.713,2.406,1.343,2.406s1.343-1.763,1.343-2.406v-1.1c0-.146.288-.52.447-.52h1.036c.63,0,2.359-.5,2.359-1.142S811.122,267.588,810.492,267.588Z" transform="translate(-610.59 -202.108)"/><path class="e" d="M708.384,255.414h-.419c-.085,0-.335-.338-.335-.436v-.4c0-.31-.374-1.161-.678-1.161s-.678.851-.678,1.161v.4c0,.14-.008.436-.137.436h-.419c-.3,0-1.138.208-1.138.518s.834.518,1.138.518h.5c.158,0,.056.234.056.319v.53c0,.31.374,1.161.678,1.161s.678-.851.678-1.161v-.53c0-.07.178-.319.254-.319h.5c.3,0,1.138-.208,1.138-.518S708.688,255.414,708.384,255.414Z" transform="translate(-545.783 -195.547)"/><path class="d" d="M356.186,309.076H355.5c-.139,0-.546-.552-.546-.712v-.648c0-.505-.609-1.892-1.1-1.892s-1.1,1.387-1.1,1.892v.648c0,.228-.013.712-.223.712h-.684c-.5,0-1.855.34-1.855.845s1.36.845,1.855.845h.815c.258,0,.092.382.092.52v.864c0,.505.609,1.892,1.1,1.892s1.1-1.387,1.1-1.892v-.864c0-.115.289-.52.414-.52h.815c.5,0,1.855-.34,1.855-.845S356.682,309.076,356.186,309.076Z" transform="translate(-311.357 -229.838)"/><path class="d" d="M706.186,252.076H705.5c-.139,0-.546-.552-.546-.712v-.648c0-.505-.609-1.892-1.1-1.892s-1.1,1.387-1.1,1.892v.648c0,.228-.013.712-.224.712h-.684c-.5,0-1.855.34-1.855.845s1.36.845,1.855.845h.815c.258,0,.092.382.092.52v.864c0,.505.609,1.892,1.1,1.892s1.1-1.387,1.1-1.892v-.864c0-.115.289-.52.415-.52h.815c.5,0,1.855-.34,1.855-.845S706.682,252.076,706.186,252.076Z" transform="translate(-542.745 -192.541)"/><path class="e" d="M358.384,312.414h-.419c-.085,0-.335-.339-.335-.437v-.4c0-.31-.374-1.161-.678-1.161s-.678.851-.678,1.161v.4c0,.14-.008.437-.137.437h-.419c-.3,0-1.138.208-1.138.518s.834.518,1.138.518h.5c.158,0,.056.234.056.319v.53c0,.31.374,1.161.678,1.161s.678-.851.678-1.161v-.53c0-.07.177-.319.254-.319h.5c.3,0,1.138-.208,1.138-.518S358.688,312.414,358.384,312.414Z" transform="translate(-314.394 -232.844)"/><ellipse class="f" cx="2.542" cy="2.593" rx="2.542" ry="2.593" transform="translate(137.785 49.151)"/><ellipse class="g" cx="0.847" cy="0.864" rx="0.847" ry="0.864" transform="translate(134.396 75.537)"/><ellipse class="f" cx="2.358" cy="2.405" rx="2.358" ry="2.405" transform="translate(37.135 54.336)"/><ellipse class="f" cx="1.179" cy="1.203" rx="1.179" ry="1.203" transform="translate(17.48 64.641)"/><ellipse class="h" cx="1.179" cy="1.203" rx="1.179" ry="1.203" transform="translate(114.741 89.184)"/><ellipse class="h" cx="2.203" cy="2.247" rx="2.203" ry="2.247" transform="translate(26.051 109.614)"/><ellipse class="d" cx="2.058" cy="2.099" rx="2.058" ry="2.099" transform="translate(69.884 49.371)"/><ellipse class="d" cx="2.058" cy="2.099" rx="2.058" ry="2.099" transform="translate(70.223 75.642)"/><ellipse class="d" cx="2.058" cy="2.099" rx="2.058" ry="2.099" transform="translate(178.329 43.84)"/><ellipse class="d" cx="2.058" cy="2.099" rx="2.058" ry="2.099" transform="translate(225.434 81.172)"/><ellipse class="i" cx="1.257" cy="1.282" rx="1.257" ry="1.282" transform="translate(70.685 50.188)"/><ellipse class="f" cx="2.542" cy="2.593" rx="2.542" ry="2.593" transform="translate(100.846 67.817)"/><path class="j" d="M542.011,556.955a25.117,25.117,0,0,1-2.206,8.773c-.169.415-.342.826-.515,1.234l-.539,1.245a26.131,26.131,0,0,1-3.389,6.2c-.085.1-.169.207-.257.308a10.679,10.679,0,0,1-1.139,1.123,7.711,7.711,0,0,1-4.524,1.96c-3.233.173-6.036-2.126-8.482-4.293q-4.377-3.868-8.753-7.747c-1-.885-3.436-3.038-3.65-3.229v42.262h-.749l.447,7.159.935,14.981A121.426,121.426,0,0,1,486.908,629l-.617-17.024-.176-4.85-.085-2.333h-.7l-.061,1.269L485,611.975l-.8,16.993a121.419,121.419,0,0,1-22.177-2.51l.885-14.487.441-7.18h-.437V561.846A37.2,37.2,0,0,1,458.6,566.7a94.016,94.016,0,0,1-10.007,7.982,21.206,21.206,0,0,1-6.893,3.668,8.753,8.753,0,0,1-1.139.2,6.786,6.786,0,0,1-3.169-.349,6.248,6.248,0,0,1-1.017-.477c-.18-.1-.349-.207-.515-.321-2.538-1.766-3.873-5.154-4.921-8.234-1.268-3.733-2.555-7.643-2.016-11.556a17.983,17.983,0,0,1,2.511-6.606c.824-1.4,1.759-2.748,2.684-4.069a3.487,3.487,0,0,1,1.688-1.511h0l.051-.01a1.317,1.317,0,0,1,.261-.038,2.066,2.066,0,0,1,.254.007,3.364,3.364,0,0,1,1.82,1.2l2.365,2.485,1.139,1.193c.061.066.122.131.186.2.5.525,1,1.051,1.5,1.576.979-1.725,1.966-3.46,3.006-5.157a44.5,44.5,0,0,1,7.391-9.5,24.544,24.544,0,0,1,4.816-3.526,19.994,19.994,0,0,1,4.788-1.932c1.925-.491,3.358-.716,4.341-.363a2.442,2.442,0,0,1,1.5,2.067.1.1,0,0,1,.007.035,9.855,9.855,0,0,1,.156,1.849c0,.384,0,.767,0,1.154h32.2c-.03-1-.058-2.088-.007-3,.01-.221.027-.432.047-.629a2.649,2.649,0,0,1,.366-1.289,1.585,1.585,0,0,1,1.25-.477c1.484-.021,3.63.985,4.68,1.386a30.529,30.529,0,0,1,4.277,2.033,31.83,31.83,0,0,1,14.376,17.36,6.8,6.8,0,0,1,1.254-2.492,7.637,7.637,0,0,1,1.345-1.334,8.189,8.189,0,0,1,2.691-1.383,7.457,7.457,0,0,1,2.094-.328,6.585,6.585,0,0,1,1.139.076,6.341,6.341,0,0,1,1.766.529,7.664,7.664,0,0,1,2.42,1.811c.183.2.352.408.515.622a11.225,11.225,0,0,1,2.006,4.788A12.617,12.617,0,0,1,542.011,556.955Z" transform="translate(-363.461 -377.352)"/><path class="j" d="M569.268,430.993h0c-2.554-9.213-10.5-16.663-19.916-16.663s-17.362,7.45-19.916,16.663h0a4.271,4.271,0,0,0-4.228,4.312v5.244h3.617c1.558,10.021,10.154,16.663,20.527,16.663s18.97-6.642,20.527-16.663h3.726v-5.133A4.381,4.381,0,0,0,569.268,430.993Z" transform="translate(-427.199 -300.836)"/><ellipse class="k" cx="16.817" cy="17.153" rx="16.817" ry="17.153" transform="translate(105.216 119.375)"/><path class="l" d="M744.745,370.337a3.883,3.883,0,0,1-.722,2.264,3.736,3.736,0,0,1-.827.847.186.186,0,0,1-.03.024V509.255q-2.069,1-4.185,1.915V373.621a3.9,3.9,0,0,1-1.545-4.672,3.77,3.77,0,0,1,4.221-2.4,3.838,3.838,0,0,1,3.089,3.793Z" transform="translate(-567.337 -269.526)"/><path class="k" d="M825.781,388.995a85.863,85.863,0,0,1-1.63,17.873C801.077,372.28,778,449.479,754.93,409.5v-40.92c23.078,39.987,46.157-37.25,69.235-2.612A183.015,183.015,0,0,1,825.781,388.995Z" transform="translate(-579.071 -263.171)"/><path class="l" d="M454.072,370.337a3.844,3.844,0,0,1-1.278,2.883,3.485,3.485,0,0,1-.525.4V512.027q-2.115-.866-4.185-1.818V373.472a.181.181,0,0,1-.031-.024,3.733,3.733,0,0,1-.827-.847,3.921,3.921,0,0,1,0-4.534,3.741,3.741,0,0,1,4.228-1.4A3.852,3.852,0,0,1,454.072,370.337Z" transform="translate(-375.169 -269.526)"/><path class="k" d="M308.885,368.579V409.5c-23.752-40.005-47.5,37.321-71.255,2.564A181.607,181.607,0,0,1,236,388.995a87,87,0,0,1,1.617-17.871C261.372,405.93,285.129,328.566,308.885,368.579Z" transform="translate(-236 -263.171)"/><path class="m" d="M565.415,435.129a16.679,16.679,0,0,1,13.426,6.825,16.68,16.68,0,0,0-30.418-1.476,17.439,17.439,0,0,0,1.443,18.343,17.451,17.451,0,0,1,1.574-16.079A16.734,16.734,0,0,1,565.415,435.129Z" transform="translate(-441.259 -311.965)"/><path class="c" d="M407.749,334.254h-.658c-.134,0-.466-.536-.466-.69v-.624c0-.487-.54-1.821-1.017-1.821s-1.017,1.335-1.017,1.821v.624c0,.219-.166.69-.369.69h-.658c-.477,0-1.786.378-1.786.864s1.309.864,1.786.864h.785c.249,0,.242.261.242.393v.832c0,.487.54,1.822,1.017,1.822s1.017-1.335,1.017-1.822v-.832c0-.11.218-.393.339-.393h.785c.477,0,1.786-.378,1.786-.864S408.226,334.254,407.749,334.254Z" transform="translate(-345.599 -246.389)"/><ellipse class="i" cx="1.186" cy="1.21" rx="1.186" ry="1.21" transform="translate(89.154 110.795)"/><ellipse class="f" cx="2.358" cy="2.405" rx="2.358" ry="2.405" transform="translate(216.577 86.137)"/><ellipse class="g" cx="0.847" cy="0.864" rx="0.847" ry="0.864" transform="translate(128.127 105.264)"/><ellipse class="i" cx="1.257" cy="1.282" rx="1.257" ry="1.282" transform="translate(71.024 76.459)"/><path class="c" d="M812.249,270.254h-.658c-.134,0-.466-.536-.466-.69v-.624c0-.487-.54-1.821-1.017-1.821s-1.017,1.335-1.017,1.821v.624c0,.219-.166.69-.369.69h-.658c-.477,0-1.786.378-1.786.864s1.309.864,1.786.864h.785c.248,0,.242.261.242.393v.832c0,.487.54,1.821,1.017,1.821s1.017-1.335,1.017-1.821v-.832c0-.11.218-.393.339-.393h.785c.477,0,1.786-.378,1.786-.864S812.726,270.254,812.249,270.254Z" transform="translate(-613.018 -204.512)"/><ellipse class="i" cx="1.186" cy="1.21" rx="1.186" ry="1.21" transform="translate(226.235 81.759)"/><ellipse class="i" cx="1.186" cy="1.21" rx="1.186" ry="1.21" transform="translate(179.129 44.772)"/><ellipse class="d" cx="3.151" cy="3.214" rx="3.151" ry="3.214" transform="translate(211.886 77.032)"/><ellipse class="d" cx="3.151" cy="3.214" rx="3.151" ry="3.214" transform="translate(166.136 82.909)"/><ellipse class="d" cx="3.151" cy="3.214" rx="3.151" ry="3.214" transform="translate(137.331 48.687)"/><ellipse class="d" cx="3.151" cy="3.214" rx="3.151" ry="3.214" transform="translate(100.392 67.353)"/><ellipse class="d" cx="3.151" cy="3.214" rx="3.151" ry="3.214" transform="translate(36.342 53.527)"/><ellipse class="d" cx="3.151" cy="3.214" rx="3.151" ry="3.214" transform="translate(25.159 108.488)"/><ellipse class="d" cx="1.703" cy="1.737" rx="1.703" ry="1.737" transform="translate(203.683 44.403)"/><ellipse class="d" cx="1.703" cy="1.737" rx="1.703" ry="1.737" transform="translate(114.216 88.649)"/><ellipse class="d" cx="1.703" cy="1.737" rx="1.703" ry="1.737" transform="translate(16.955 64.107)"/><ellipse class="d" cx="1.703" cy="1.737" rx="1.703" ry="1.737" transform="translate(38.983 108.007)"/><ellipse class="d" cx="1.703" cy="1.737" rx="1.703" ry="1.737" transform="translate(77.616 102.13)"/><ellipse class="d" cx="1.703" cy="1.737" rx="1.703" ry="1.737" transform="translate(133.533 74.822)"/><ellipse class="h" cx="1.179" cy="1.203" rx="1.179" ry="1.203" transform="translate(204.207 44.938)"/><ellipse class="f" cx="2.203" cy="2.247" rx="2.203" ry="2.247" transform="translate(212.778 78.158)"/><ellipse class="m" cx="10.5" cy="1" rx="10.5" ry="1" transform="translate(110.545 142.113)"/><rect class="j" width="1" height="22" transform="translate(109.545 99.113)"/><rect class="j" width="2" height="22" transform="translate(134.545 99.113)"/><ellipse class="j" cx="4.5" cy="3.5" rx="4.5" ry="3.5" transform="translate(105.545 96.113)"/><circle class="j" cx="3.5" cy="3.5" r="3.5" transform="translate(131.545 96.113)"/></g></svg>