<svg xmlns="http://www.w3.org/2000/svg" xmlns:xlink="http://www.w3.org/1999/xlink" width="468.883" height="332.024" viewBox="0 0 468.883 332.024"><defs><style>.a{opacity:0.7;}.b{fill:url(#a);}.c,.x{fill:#535461;}.d,.z{opacity:0.1;}.e{fill:#e0e0e0;}.f{fill:url(#b);}.g{fill:url(#c);}.h{fill:#eee;}.i,.v{fill:#ffe063;}.j{fill:url(#f);}.k{fill:url(#g);}.l{fill:url(#k);}.m{fill:url(#l);}.n{fill:url(#m);}.o{fill:url(#n);}.p{fill:url(#o);}.q{fill:url(#r);}.r{fill:url(#s);}.s{fill:url(#u);}.t{opacity:0.4;}.u{fill:url(#v);}.v{opacity:0.2;}.w,.z{fill:#f55f44;}.w{opacity:0.05;}.x{opacity:0.25;}.y{fill:url(#x);}</style><linearGradient id="a" x1="0.5" y1="1" x2="0.5" gradientUnits="objectBoundingBox"><stop offset="0" stop-color="gray" stop-opacity="0.251"/><stop offset="0.54" stop-color="gray" stop-opacity="0.122"/><stop offset="1" stop-color="gray" stop-opacity="0.102"/></linearGradient><linearGradient id="b" x1="0.5" x2="0.5" y2="1" gradientUnits="objectBoundingBox"><stop offset="0" stop-color="#e0e0e0"/><stop offset="0.31" stop-color="#fccc63"/><stop offset="0.77" stop-color="#f55f44"/></linearGradient><linearGradient id="c" x1="0.5" y1="0" x2="0.5" y2="1" xlink:href="#b"/><linearGradient id="f" x1="0.5" x2="0.5" y2="0" xlink:href="#a"/><linearGradient id="g" x1="0.5" x2="0.5" y2="1" gradientUnits="objectBoundingBox"><stop offset="0" stop-color="#f2f2f2"/><stop offset="0.31" stop-color="#e6e6e6"/><stop offset="0.77" stop-color="#ccc"/></linearGradient><linearGradient id="k" x1="0.5" y1="0.001" x2="0.5" y2="1" xlink:href="#g"/><linearGradient id="l" x1="0.5" y1="0" x2="0.5" y2="1" xlink:href="#g"/><linearGradient id="m" x1="0.5" y1="0" x2="0.5" y2="1" xlink:href="#g"/><linearGradient id="n" x1="0.5" y1="0" x2="0.5" y2="1" xlink:href="#g"/><linearGradient id="o" x1="0.5" y1="0" x2="0.5" y2="1" xlink:href="#g"/><linearGradient id="r" x1="0.5" x2="0.5" y2="0" xlink:href="#a"/><linearGradient id="s" x1="0.5" x2="0.5" y2="1" gradientUnits="objectBoundingBox"><stop offset="0" stop-color="#f2f2f2"/><stop offset="0.31" stop-color="#e0e0e0"/><stop offset="0.77" stop-color="#b3b3b3"/></linearGradient><linearGradient id="u" x1="0.5" y1="0" x2="0.5" y2="1" xlink:href="#g"/><linearGradient id="v" x1="0.5" y1="0.999" x2="0.5" y2="-0.001" xlink:href="#a"/><linearGradient id="x" x1="0.501" y1="1.001" x2="0.501" y2="0.001" xlink:href="#a"/></defs><g transform="translate(0 -0.05)"><g class="a" transform="translate(152.892 20.734)"><path class="b" d="M582.469,241.73a57.273,57.273,0,0,0-8.616-30.184,37.849,37.849,0,0,0-7.1-8.766,5.721,5.721,0,0,0-5.777-.97,5.382,5.382,0,0,0-2.027,1.113,39.708,39.708,0,0,0-6.918,8.443,57.583,57.583,0,0,0-9.057,31.012v6.494h-4.9v-75.46a89.152,89.152,0,0,0-12.31-45.276A57.228,57.228,0,0,0,515.677,115a7.84,7.84,0,0,0-10.521,0,59.094,59.094,0,0,0-9.872,12.647,89.461,89.461,0,0,0-12.923,46.47v74.757h-4.232v-6.8a57.584,57.584,0,0,0-9.057-31.012,39.92,39.92,0,0,0-6.918-8.443,5.727,5.727,0,0,0-5.879-.914l.177.082a5.317,5.317,0,0,0-1.652.983,38.933,38.933,0,0,0-7.1,8.766,57.272,57.272,0,0,0-8.616,30.184V354.532h15.1l-1.647,9.275v27.73h12.346v-27.73l-1.647-9.275h14.885V251.79h4.232V354.071h12.062l-1.733,9.732v27.735H505.04v-27.73l-1.733-9.732H519.56l-1.733,9.732v27.73h12.351v-27.73l-1.733-9.732h9.629V251.79h4.9v102.9h3.968v-.155h13.121l-1.647,9.275v27.73h12.351v-27.73l-1.647-9.275h13.354Z" transform="translate(-439.089 -112.969)"/></g><path class="c" d="M346.062,601.268H334.37l2.088-12.078h7.516Z" transform="translate(-164.911 -335.103)"/><g class="d" transform="translate(170.964 255.506)"><path d="M337.34,595.856h8.682l-.583-3.376h-7.516Z" transform="translate(-337.34 -592.48)"/></g><path class="c" d="M543.822,601.268H532.13l2.088-12.078h7.516Z" transform="translate(-262.446 -335.103)"/><g class="d" transform="translate(271.19 255.506)"><path d="M535.1,595.856h8.682l-.583-3.376h-7.516Z" transform="translate(-535.1 -592.48)"/></g><path class="c" d="M421.047,601.268h-11.7l2.088-12.078h7.521Z" transform="translate(-201.891 -335.103)"/><g class="d" transform="translate(208.964 255.506)"><path d="M412.32,595.856h8.687l-.583-3.376H412.9Z" transform="translate(-412.32 -592.48)"/></g><path class="c" d="M468.012,601.268H456.32l2.088-12.078h7.516Z" transform="translate(-225.056 -335.103)"/><g class="d" transform="translate(232.769 255.506)"><path d="M459.29,595.856h8.687l-.588-3.376h-7.516Z" transform="translate(-459.29 -592.48)"/></g><rect class="c" width="83.521" height="2.842" transform="translate(181.151 154.243)"/><path class="e" d="M663.626,316.723a5.283,5.283,0,0,0-6.979,0,38.519,38.519,0,0,0-6.548,8.219,57.259,57.259,0,0,0-8.57,30.184V464.517H678.49V354.673a56.955,56.955,0,0,0-8.164-29.412A37.346,37.346,0,0,0,663.626,316.723Z" transform="translate(-386.04 -207.382)"/><path class="e" d="M461.524,316.723a5.283,5.283,0,0,1,6.979,0,38.523,38.523,0,0,1,6.548,8.219,57.259,57.259,0,0,1,8.57,30.184V464.517H446.649V354.673a56.956,56.956,0,0,1,8.165-29.412A36.767,36.767,0,0,1,461.524,316.723Z" transform="translate(-289.926 -207.382)"/><path class="c" d="M309.65,346.93l8.768.034v9.2H309.65Z" transform="translate(-152.719 -197.305)"/><path class="c" d="M364.86,346.93l8.768.034v9.2H364.86Z" transform="translate(-179.948 -197.305)"/><path class="c" d="M504.11,346.93l8.773.034v9.2H504.11Z" transform="translate(-248.626 -197.305)"/><path class="c" d="M559.32,346.93l8.773.034v9.2H559.32Z" transform="translate(-275.856 -197.305)"/><g class="d" transform="translate(172.987 107.887)"><path d="M490.863,324.617a38.366,38.366,0,0,0-6.548-8.219,5.292,5.292,0,0,0-5.575-.893,5.006,5.006,0,0,1,1.409.893,38.523,38.523,0,0,1,6.548,8.219,57.259,57.259,0,0,1,8.57,30.184V464.183h4.176V354.814A57.262,57.262,0,0,0,490.863,324.617Z" transform="translate(-478.74 -315.085)"/></g><g class="d" transform="translate(255.057 108.182)"><path d="M653,325.309a38.368,38.368,0,0,1,6.548-8.219,5.031,5.031,0,0,1,1.617-.983,5.288,5.288,0,0,0-5.372.983,38.522,38.522,0,0,0-6.548,8.219,57.258,57.258,0,0,0-8.57,30.184V464.875h3.76V355.51a57.256,57.256,0,0,1,8.565-30.2Z" transform="translate(-640.679 -315.771)"/></g><rect class="f" width="11.692" height="27.002" transform="translate(169.459 266.165)"/><rect class="g" width="11.692" height="27.002" transform="translate(207.459 266.165)"/><rect class="g" width="11.692" height="27.002" transform="translate(231.264 266.165)"/><rect class="g" width="11.692" height="27.002" transform="translate(269.684 266.165)"/><path class="h" d="M559.008,116.959a7.272,7.272,0,0,0-9.959,0,57.86,57.86,0,0,0-9.345,12.319,89.088,89.088,0,0,0-12.234,45.254V350.07h52.753V173.825a88.532,88.532,0,0,0-11.656-44.073A55.433,55.433,0,0,0,559.008,116.959Z" transform="translate(-329.787 -93.382)"/><rect class="i" width="27.524" height="10.733" rx="5.366" transform="translate(209.932 43.075)"/><g class="a" transform="translate(68.973 251.342)"><path class="j" d="M551.483,686.649h0c-3.59-18.416-23.213-31.391-45.074-29.8s-38.617,17.2-38.487,35.871v.526h0a44.776,44.776,0,0,0-4.612.841c-3.979-13.483-17.541-23.351-33.813-24.6s-31.7,6.383-38.457,19.038a43.7,43.7,0,0,0-10.6-2.061h0a31.719,31.719,0,0,0-2.894-8.128c-1.307-17.021-17.779-30.325-37.825-30.551s-36.926,12.7-38.762,29.688a31.593,31.593,0,0,0-3.76,11.371h0c-18.224,6.451-27.748,23.594-22.041,39.67H583.077a28.6,28.6,0,0,0-4.458-27.124C572.542,693.33,562.626,687.946,551.483,686.649Z" transform="translate(-273.505 -647.773)"/></g><ellipse class="k" cx="36.91" cy="31.404" rx="36.91" ry="31.404" transform="translate(101.3 252.936)"/><ellipse class="k" cx="40.417" cy="34.388" rx="40.417" ry="34.388" transform="translate(97.61 261.728)"/><ellipse class="k" cx="40.417" cy="34.388" rx="40.417" ry="34.388" transform="translate(261.864 261.728)"/><ellipse class="k" cx="36.91" cy="31.404" rx="36.91" ry="31.404" transform="translate(263.339 267.696)"/><path class="l" d="M575.673,730.894c.012,10.075-5.667,19.54-15.265,25.441h-43.3c-14.142-8.7-19.2-24.629-12.124-38.2s24.349-21.077,41.419-18,29.273,15.909,29.261,30.755Z" transform="translate(-317.133 -425.826)"/><path class="m" d="M483.218,768.814a26.977,26.977,0,0,1-1.581,9.107H410.973V777.9c-3.368-9.482-1.281-19.76,5.631-27.731s17.839-12.7,29.481-12.759h.228q1.551,0,3.076.108a42,42,0,0,1,10.182,1.979C473.821,744.168,483.22,755.821,483.218,768.814Z" transform="translate(-271.552 -447.417)"/><path class="n" d="M666.026,783.4a26.327,26.327,0,0,1-.147,2.79.067.067,0,0,1,0,.039H592.352a26.122,26.122,0,0,1-.152-2.824c-.013-15.531,13.331-28.733,31.381-31.046A43.819,43.819,0,0,1,629.1,752c.943,0,1.88.03,2.808.086,13.476.877,25.313,7.945,30.864,18.43.152.284.3.573.436.862A27.266,27.266,0,0,1,666.026,783.4Z" transform="translate(-361.712 -455.715)"/><path class="o" d="M803.7,768.82a26.977,26.977,0,0,1-1.581,9.107H731.467a27.077,27.077,0,0,1-.948-14.894c.061-.272.122-.548.193-.815,3.665-14.468,18.7-24.8,36.094-24.8,1.161,0,2.3.043,3.431.138.507.034,1.014.086,1.52.142C790.052,739.818,803.695,753.111,803.7,768.82Z" transform="translate(-429.621 -447.422)"/><path class="p" d="M357.824,777.9c.122-.328.228-.655.335-.987,3.42-10.884-.269-22.492-9.669-30.427s-23.073-10.981-35.837-7.985a39.545,39.545,0,0,0-4.313,1.268c-17.511,6.2-26.662,22.671-21.174,38.118h70.658Z" transform="translate(-210.487 -447.396)"/><g class="a" transform="translate(353.276 254.398)"><ellipse class="b" cx="6.771" cy="5.761" rx="6.771" ry="5.761"/></g><ellipse class="k" cx="6.274" cy="5.338" rx="6.274" ry="5.338" transform="translate(353.773 254.82)"/><g class="a" transform="translate(383.669 309.462)"><ellipse class="q" cx="7.384" cy="6.283" rx="7.384" ry="6.283"/></g><ellipse class="r" cx="7.014" cy="5.968" rx="7.014" ry="5.968" transform="translate(384.039 309.777)"/><g class="a" transform="translate(66.979 273.039)"><ellipse class="b" cx="8.114" cy="6.904" rx="8.114" ry="6.904"/></g><ellipse class="s" cx="7.749" cy="6.593" rx="7.749" ry="6.593" transform="translate(67.344 273.349)"/><g class="t" transform="translate(340.791 0.05)"><path class="u" d="M849.824,72.511h0a21.731,21.731,0,0,0-6.629-4.993h0a25.434,25.434,0,0,0-25.406,1.918c-7.156,5.113-9.8,13.485-6.609,20.96s11.521,12.459,20.865,12.481c.471,0,.943,0,1.409-.039,8.174-.439,15.4-4.662,18.822-10.994a16.639,16.639,0,0,0-2.462-19.311Z" transform="translate(-809.845 -65)"/></g><path class="v" d="M854.246,85.265c0,9.447-8.627,17.267-19.706,17.865-.439.026-.885.039-1.331.039-8.841,0-16.736-4.712-19.758-11.781S812.924,76.4,819.7,71.559a24.038,24.038,0,0,1,24.034-1.8h0A20.539,20.539,0,0,1,850,74.485h0A16.149,16.149,0,0,1,854.246,85.265Z" transform="translate(-470.207 -66.298)"/><path class="w" d="M838.437,82.343a24.525,24.525,0,0,0-3.137,1.406,4.777,4.777,0,0,0-1.678,1.294,1.475,1.475,0,0,0-.041,1.824,3.348,3.348,0,0,0,2.367.729,4.981,4.981,0,0,0,4.3-1.207l1.809-1.4c.628-.483,1.318-1.151,1.044-1.833a1.848,1.848,0,0,0-1.52-.862,7.34,7.34,0,0,0-4.526.677" transform="translate(-480.615 -74.729)"/><ellipse class="w" cx="1.105" cy="0.94" rx="1.105" ry="0.94" transform="translate(349.161 25.094)"/><ellipse class="w" cx="4.059" cy="3.454" rx="4.059" ry="3.454" transform="translate(368.724 16.612)"/><path class="w" d="M876.029,77.6h0c-.045,2.513-2.4,4.554-5.35,4.639s-5.463-1.815-5.709-4.319,1.862-4.732,4.79-5.063h0a20.519,20.519,0,0,1,6.269,4.743Z" transform="translate(-496.232 -69.421)"/><path class="w" d="M872.128,130.577a22.067,22.067,0,0,1-15.868,7.555,7.31,7.31,0,0,1-.041-.746,8.452,8.452,0,0,1,5.489-7.574,11.443,11.443,0,0,1,10.419.765Z" transform="translate(-491.926 -101.3)"/><ellipse class="x" cx="2.585" cy="2.199" rx="2.585" ry="2.199" transform="translate(363.737 146.473)"/><ellipse class="x" cx="2.585" cy="2.199" rx="2.585" ry="2.199" transform="translate(19.111 204.253)"/><ellipse class="x" cx="2.585" cy="2.199" rx="2.585" ry="2.199" transform="translate(463.577 216.758)"/><ellipse class="x" cx="2.585" cy="2.199" rx="2.585" ry="2.199" transform="translate(143.744 112.554)"/><ellipse class="x" cx="2.585" cy="2.199" rx="2.585" ry="2.199" transform="translate(135.255 61.992)"/><ellipse class="x" cx="2.585" cy="2.199" rx="2.585" ry="2.199" transform="translate(62.169 162.173)"/><path class="x" d="M843.789,384.543h-2.3V382.59h-.938v1.953h-2.3v.8h2.3V387.3h.938v-1.953h2.3Z" transform="translate(-413.423 -217.589)"/><path class="x" d="M919.789,227.543h-2.3V225.59h-.938v1.953h-2.3v.8h2.3V230.3h.938v-1.953h2.3Z" transform="translate(-450.906 -128.287)"/><path class="x" d="M596.159,139.828h-2.3V137.87h-.938v1.958h-2.3v.8h2.3v1.958h.938v-1.958h2.3Z" transform="translate(-291.293 -78.392)"/><path class="x" d="M794.264,359.053h-2.3V357.1h-.938v1.953h-2.3v.8h2.3v1.953h.938v-1.953h2.3Z" transform="translate(-389 -203.09)"/><path class="x" d="M628.2,509.813h-2.3V507.86h-.938v1.953h-2.3v.8h2.3v1.953h.938v-1.953h2.3Z" transform="translate(-307.1 -288.842)"/><path class="x" d="M163.539,198.823h-2.3V196.87H160.3v1.953H158v.8h2.3v1.958h.938v-1.958h2.3Z" transform="translate(-77.925 -111.951)"/><path class="x" d="M5.539,257.823h-2.3V255.87H2.3v1.953H0v.8H2.3v1.958h.938v-1.958h2.3Z" transform="translate(0 -145.51)"/><path class="x" d="M226.174,443.538h-2.3V441.58h-.938v1.958h-2.3v.8h2.3v1.958h.938v-1.958h2.3Z" transform="translate(-108.819 -251.142)"/><ellipse class="k" cx="7.014" cy="5.968" rx="7.014" ry="5.968" transform="translate(384.039 309.777)"/><g class="t" transform="translate(117.216 146.619)"><path class="y" d="M387.789,408.515h0a10.346,10.346,0,0,0-3.157-2.38h0a12.116,12.116,0,0,0-12.138.878c-3.425,2.438-4.687,6.441-3.156,10.011s5.527,5.94,9.992,5.928H380a10.731,10.731,0,0,0,8.958-5.238,7.927,7.927,0,0,0-1.169-9.195Z" transform="translate(-368.695 -404.91)"/></g><path class="v" d="M389.948,414.6c0,4.5-4.109,8.223-9.386,8.508h-.634c-4.21,0-7.968-2.246-9.406-5.612a7.742,7.742,0,0,1,2.974-9.442,11.449,11.449,0,0,1,11.444-.857h0a9.807,9.807,0,0,1,2.985,2.247h0a7.688,7.688,0,0,1,2.022,5.157Z" transform="translate(-252.083 -258.945)"/><path class="z" d="M382.4,413.2a11.708,11.708,0,0,0-1.52.668,2.284,2.284,0,0,0-.8.608.7.7,0,0,0,0,.862,1.589,1.589,0,0,0,1.125.345,2.372,2.372,0,0,0,2.027-.573l.862-.664c.3-.233.628-.548.507-.862a.917.917,0,0,0-.73-.431,3.5,3.5,0,0,0-2.154.323" transform="translate(-257.02 -262.954)"/><ellipse class="z" cx="0.527" cy="0.448" rx="0.527" ry="0.448" transform="translate(121.252 158.572)"/><ellipse class="z" cx="1.936" cy="1.647" rx="1.936" ry="1.647" transform="translate(130.567 154.532)"/><path class="z" d="M400.321,411.031h0a2.452,2.452,0,0,1-2.54,2.212,2.522,2.522,0,0,1-2.721-2.051,2.36,2.36,0,0,1,2.276-2.412h0a9.8,9.8,0,0,1,2.985,2.251Z" transform="translate(-264.478 -260.492)"/><path class="z" d="M398.486,436.191a10.507,10.507,0,0,1-7.556,3.6v-.358a4.025,4.025,0,0,1,2.62-3.625,5.449,5.449,0,0,1,4.982.382Z" transform="translate(-262.446 -275.622)"/><g class="d" transform="translate(197.952 87.152)"><rect width="52.201" height="1.725"/></g></g></svg>