<svg width="2905" height="2662" viewBox="0 0 2905 2662" fill="none" xmlns="http://www.w3.org/2000/svg">
<path d="M2287.5 771C2287.5 1196.53 1938.06 1541.5 1507 1541.5C1075.94 1541.5 726.5 1196.53 726.5 771C726.5 345.471 1075.94 0.5 1507 0.5C1938.06 0.5 2287.5 345.471 2287.5 771Z" fill="white" stroke="black"/>
<path fill-rule="evenodd" clip-rule="evenodd" d="M1129.62 768.34C1156.95 788.561 1184.68 798.847 1198.44 795.538C1232.93 787.242 1248.29 652.659 1227.1 598.635C1205.92 544.612 1074.25 516.718 1057.92 621.686C1052.26 658.118 1063.3 691.201 1081.57 718.526L1027.23 906.529L1135 910.356L1129.62 768.34Z" fill="#B28B67"/>
<path fill-rule="evenodd" clip-rule="evenodd" d="M1147.03 636.507C1157.74 621.642 1167.74 610.369 1180 604.051C1227.3 606.553 1233.7 597.451 1236.55 566.109C1229.45 559.842 1203.36 548.789 1173.38 544.876C1158.4 539.496 1140.04 539.756 1121.7 547.192C1099.35 553.171 1079.63 567.054 1069.02 593.982C1034.56 648.494 1051.61 707.118 1079.89 727.942C1088.84 717.842 1096.75 708.026 1103.86 698.614C1099.34 693.08 1096.91 685.494 1097.66 677.224C1099.15 660.934 1112.41 648.156 1127.29 648.684C1128.39 648.723 1129.46 648.833 1130.51 649.009C1129.32 669.401 1125.8 738.407 1130.86 762.6C1136.82 791.122 1185.99 799.819 1203.36 800.435C1218.36 800.968 1219.26 785.399 1219.91 774.241C1220 772.634 1220.09 771.119 1220.22 769.756C1220.48 766.909 1217.09 766.796 1213.27 766.669C1208.31 766.504 1202.6 766.314 1203.17 760.08C1203.79 753.285 1212.84 748.378 1220.94 743.986C1225.99 741.247 1230.68 738.708 1232.71 736.037C1239.13 727.61 1242.08 716.042 1233.59 715.741C1228.95 715.576 1222.31 718.28 1214.33 721.533C1202.27 726.443 1187.15 732.605 1171.18 732.038C1144.79 731.101 1147 637.687 1147.03 636.507Z" fill="#191847"/>
<path fill-rule="evenodd" clip-rule="evenodd" d="M946.373 1299.63L955.702 1954.53L927.389 2495.95L982.265 2514.52L1134.96 1363.45L946.373 1299.63Z" fill="#997659"/>
<path fill-rule="evenodd" clip-rule="evenodd" d="M904.65 1285.52C832.91 1490.27 707.117 1756.05 697.642 1767.12C688.167 1778.19 232.464 1972.82 232.464 1972.82L254.999 2030.71C254.999 2030.71 758.529 1902.02 789.739 1872.69C820.948 1843.36 994.57 1535.05 1111.01 1355.34L904.65 1285.52Z" fill="#B28B67"/>
<path fill-rule="evenodd" clip-rule="evenodd" d="M242.15 1957.95C242.279 1956.75 241.46 1955.77 240.344 1955.8C233.463 1956.01 211.132 1957.02 201.453 1961.41C189.936 1966.64 169.187 1980.74 169.187 1980.74C173.873 1994.94 253.417 2235.92 253.417 2235.92C253.417 2235.92 287.646 2231.82 283.04 2209.27C278.434 2186.72 275.743 2171.65 275.743 2171.65L286.655 2026.46C286.698 2025.88 286.295 2025.41 285.759 2025.42L262.178 2025.74C262.178 2025.74 246.919 2009.86 242.824 1997.45C239.409 1987.11 241.397 1965 242.15 1957.95Z" fill="#E4E4E4"/>
<path fill-rule="evenodd" clip-rule="evenodd" d="M920.875 2458.79C920.034 2457.88 918.592 2457.92 917.828 2458.9C913.125 2464.89 898.481 2484.03 894.879 2494.68C890.57 2507.41 886.109 2533.13 886.109 2533.13C899.356 2537.61 1124.21 2613.7 1124.21 2613.7C1124.21 2613.7 1145.07 2582.62 1126 2573.13C1106.92 2563.63 1094.44 2556.96 1094.44 2556.96L999.874 2461.97C999.455 2461.55 998.762 2461.59 998.388 2462.05L982.294 2481.94C982.294 2481.94 960.524 2485.3 948.95 2481.39C939.44 2478.17 925.532 2463.81 920.875 2458.79Z" fill="#E4E4E4"/>
<path fill-rule="evenodd" clip-rule="evenodd" d="M737.759 2375.03L1009.35 2431.74L1153.23 1369.63L919.541 1290.55L737.759 2375.03Z" fill="#69A1AC"/>
<path fill-rule="evenodd" clip-rule="evenodd" d="M311.053 1918.32L405.762 2202.12C405.762 2202.12 787.577 1964.3 866.447 1879.05C945.318 1793.8 1131.27 1362.2 1131.27 1362.2L868.182 1273.18C868.182 1273.18 716.532 1656.93 703.574 1672.79C690.617 1688.65 311.053 1918.32 311.053 1918.32Z" fill="#89C5CC"/>
<path fill-rule="evenodd" clip-rule="evenodd" d="M1427.75 1435.4L1305.9 1302.26L1260.04 1383.24L1389.16 1465.78C1419.99 1522.28 1438.48 1546.58 1444.63 1538.68C1449.82 1532.02 1447.88 1524.89 1446.09 1518.31C1444.7 1513.19 1443.41 1508.42 1445.64 1504.47C1450.74 1495.46 1477.18 1499.99 1502.03 1505.46C1526.88 1510.94 1521.65 1497.61 1516.62 1490.71C1493.78 1470.32 1464.16 1451.89 1427.75 1435.4ZM651.415 1538.6C669.385 1511.29 762.121 1234.19 762.121 1234.19L854.72 1246.88C854.72 1246.88 716.614 1540.63 706.574 1558.39C693.533 1581.47 702.59 1618.71 708.731 1643.96C709.681 1647.86 710.562 1651.48 711.28 1654.72C695.878 1659.83 690.506 1650.47 684.841 1640.6C678.444 1629.45 671.674 1617.65 649.662 1625.33C641.158 1628.3 632.949 1632.06 624.928 1635.73C597.224 1648.4 571.774 1660.04 544.207 1634.7C539.836 1630.68 536.584 1617.31 551.375 1609.16C588.224 1588.84 642.63 1551.96 651.415 1538.6Z" fill="#B28B67"/>
<path fill-rule="evenodd" clip-rule="evenodd" d="M1098.84 840.881L1138.43 838.722C1257.51 992.937 1271.39 1260.71 1422.18 1421.58L1370.39 1473.31C1074.92 1391.94 1054.28 1064.83 1098.84 840.881Z" fill="#E87613"/>
<path fill-rule="evenodd" clip-rule="evenodd" d="M840.758 1349.4C840.758 1349.4 1071.38 1379.98 1180.04 1394.39C1195.55 1396.45 1196.85 1371.41 1196.74 1358.67C1195.48 1211.66 1121.02 1043.5 1156.04 839.119L1061.07 809.242C955.558 941.883 897.321 1114.69 840.758 1349.4Z" fill="#DDE3E9"/>
<path fill-rule="evenodd" clip-rule="evenodd" d="M785.037 1446.9C762.879 1485.21 741.896 1518.42 723.175 1543.58L650.41 1533.93C690.343 1254.14 822.926 1052.35 925.287 933.645C907.72 929.883 893.053 919.545 886.352 898.008C862.76 822.184 882.384 784.762 922.815 776.966C945.047 772.68 963.99 780.129 986.665 789.047C1005.22 796.344 1026.27 804.624 1053.68 808.261C1053.68 808.262 1053.69 808.263 1053.7 808.264C1056.36 808.616 1058.74 809.133 1060.87 809.798L1092.99 816.145C1092.99 816.145 1140.53 1325.75 1053.21 1482.46L785.037 1446.9Z" fill="#FF9B21"/>
<path fill-rule="evenodd" clip-rule="evenodd" d="M785.037 1446.9C814.111 1396.64 845.209 1337.59 875.882 1276.42C871.195 1347.64 871.346 1419.82 885.269 1460.19L785.037 1446.9Z" fill="black" fill-opacity="0.1"/>
<path fill-rule="evenodd" clip-rule="evenodd" d="M1927.11 807.371C1906.36 829.37 1883.87 843.474 1871.54 843.718C1840.61 844.329 1808.51 739.507 1819.23 691.663C1829.94 643.82 1939.66 593.664 1968.45 674.504C1978.44 702.561 1973.55 731.452 1961.61 757.244L2034.83 896.739L1942.36 922.533L1927.11 807.371Z" fill="#B28B67"/>
<path fill-rule="evenodd" clip-rule="evenodd" d="M1843.11 636.149C1854.67 628.771 1872.65 622.348 1880.61 621.08C1873.29 611.788 1868.28 600.557 1866.51 588.753C1864.8 577.283 1867.12 566.463 1868.94 555.295C1869.78 550.147 1870.91 544.946 1873.51 540.464C1876.15 535.897 1880.1 532.269 1884.61 529.804C1889.23 527.282 1894.42 525.938 1899.65 525.598C1901.97 525.447 1904.21 525.9 1906.51 525.857C1908.86 525.814 1909.55 524.142 1910.75 522.315C1913.67 517.914 1918.84 514.699 1923.54 512.755C1928.81 510.573 1934.7 509.817 1940.4 510.159C1945.95 510.493 1951.61 511.97 1956.42 515.078C1958.56 516.462 1960.62 518.141 1962.23 520.183C1962.89 521.021 1963.11 521.564 1964.15 521.647C1965.12 521.725 1966.14 521.449 1967.13 521.503C1976.69 522.024 1986.03 526.688 1992.51 534.215C1996.29 538.606 1999.9 547.189 2002.37 557.245C2004.85 567.302 2003.1 595.83 1997.33 607.669C1992.17 618.236 1982.68 626.907 1972.7 632.328C1982.04 638.444 1989.57 647.238 1995.92 656.547C2002.82 666.658 2008.4 677.608 2012.56 689.19C2016.51 700.193 2019.9 712.051 2020.34 723.778C2020.74 734.746 2017.83 744.649 2010.52 752.452C2007.18 756.026 2003.36 759.077 1999.47 761.976C1995.63 764.832 1991.77 767.646 1987.53 769.832C1979.51 773.969 1969.61 776.404 1961.16 771.455C1958.11 769.67 1954.65 767.325 1952.1 764.82C1951.18 763.919 1950.61 763.322 1951.07 762.062C1951.62 760.553 1952.81 759.183 1953.7 757.876C1958.75 750.424 1960.75 741.798 1959.3 732.615C1957.83 723.299 1952.16 712.326 1942.29 710.835C1930.1 708.994 1919.73 717.902 1911.55 725.79C1903.43 712.491 1891.41 701.833 1876.39 698.883C1859.77 695.62 1842.81 699.426 1826.09 697.316C1821.73 696.766 1817.23 696.015 1813.43 693.478C1811.84 692.418 1809.93 691.001 1808.93 689.289C1807.63 687.041 1808.62 684.573 1809.3 682.346C1812.91 670.541 1831.55 643.526 1843.11 636.149Z" fill="#191847"/>
<path fill-rule="evenodd" clip-rule="evenodd" d="M2147.15 1210.08L1994.37 1768.58L1892.6 2233.1L1846.37 2245.99L1959.61 1262.39L2147.15 1210.08Z" fill="#997659"/>
<path fill-rule="evenodd" clip-rule="evenodd" d="M1908.75 2200.97C1909.63 2200.2 1910.97 2200.31 1911.68 2201.24C1915.57 2206.41 1926.93 2221.95 1929.33 2230.56C1932.24 2240.98 1934.34 2261.94 1934.34 2261.94C1922.25 2265.31 1717.03 2322.56 1717.03 2322.56C1717.03 2322.56 1700.75 2296.92 1718.37 2289.59C1736 2282.27 1747.57 2277.1 1747.57 2277.1L1838.39 2201.93C1838.83 2201.57 1839.47 2201.64 1839.82 2202.09L1852.6 2218.46C1852.6 2218.46 1871.7 2221.63 1882.26 2218.68C1890.89 2216.28 1904.17 2205.02 1908.75 2200.97Z" fill="#E4E4E4"/>
<path fill-rule="evenodd" clip-rule="evenodd" d="M1934.14 2151.67L1837.46 2149.57C1837.46 2149.57 1847.19 1958.07 1873.55 1723.99C1899.9 1489.91 1942.95 1267.04 1942.95 1267.04L2194.76 1196.8C2194.76 1196.8 2155.26 1474.55 2090.1 1710.72C2024.94 1946.89 1934.14 2151.67 1934.14 2151.67Z" fill="#DB2721"/>
<path fill-rule="evenodd" clip-rule="evenodd" d="M2165.96 1204.84C2239.9 1365.49 2351.96 1565.85 2358.73 1571.1C2363.24 1574.61 2492.32 1581.24 2745.95 1590.99L2747.34 1634.54C2458.55 1671.92 2303.6 1681.65 2282.49 1663.72C2250.83 1636.83 2065.86 1406.19 1977.62 1257.37L2165.96 1204.84Z" fill="#B28B67"/>
<path fill-rule="evenodd" clip-rule="evenodd" d="M2654.29 1578.57L2655.01 1649.14C2452.45 1725.27 2321.55 1747.6 2262.32 1716.13C2203.09 1684.66 2103.31 1533.1 1962.98 1261.45L2203.1 1194.48C2306.91 1420.01 2362.44 1537.11 2369.69 1545.77C2376.94 1554.43 2471.8 1565.37 2654.29 1578.57Z" fill="#FF4133"/>
<path fill-rule="evenodd" clip-rule="evenodd" d="M2723.14 1583.02C2722.53 1582.02 2722.87 1580.72 2723.92 1580.19C2729.68 1577.25 2746.96 1568.76 2755.85 1567.89C2766.62 1566.84 2787.63 1568.41 2787.63 1568.41C2788.85 1580.9 2809.59 1792.94 2809.59 1792.94C2809.59 1792.94 2781.51 1804.52 2777.36 1785.89C2773.21 1767.26 2770.13 1754.97 2770.13 1754.97L2711.87 1652.48C2711.59 1651.99 2711.77 1651.36 2712.27 1651.1L2730.61 1641.35C2730.61 1641.35 2737.05 1623.1 2735.98 1612.18C2735.11 1603.27 2726.33 1588.23 2723.14 1583.02Z" fill="#E4E4E4"/>
<path fill-rule="evenodd" clip-rule="evenodd" d="M1730.92 988.53L1885.09 1024.47L1850.49 1091.25L1728.5 1029.39C1673.37 1029.56 1647.08 1025.77 1649.63 1018.01C1651.78 1011.48 1657.77 1010.01 1663.3 1008.66C1667.6 1007.61 1671.62 1006.63 1673.3 1003.37C1677.15 995.942 1660.92 978.244 1644.79 962.108C1628.66 945.972 1640.66 944.422 1648.02 945.335C1673.69 953.926 1701.32 968.324 1730.92 988.53ZM1625.13 1128.81L1692.88 1144.7L1705.97 1204.58C1705.97 1204.58 1660.27 1187.73 1624.99 1187.74C1580.01 1187.74 1560.64 1183.56 1533 1163.27C1518.21 1152.41 1501.15 1127.04 1509 1115.04C1512.01 1110.44 1529.16 1114.55 1546.65 1118.74C1559.99 1121.93 1573.52 1125.18 1581.16 1124.65C1591.43 1123.94 1586.78 1111.66 1583.06 1101.84C1580.4 1094.8 1578.21 1089.03 1582.37 1089.72C1599.64 1085.21 1625.13 1128.81 1625.13 1128.81Z" fill="#997659"/>
<path fill-rule="evenodd" clip-rule="evenodd" d="M1945.67 989.988C1898.69 1002.56 1833.46 1010.09 1755.01 986.375L1745.12 1052.05C1803.82 1084.85 1878.92 1104.3 1935 1086.95C1979.19 1073.27 1986.93 1013.04 1945.67 989.988Z" fill="#2026A2"/>
<path fill-rule="evenodd" clip-rule="evenodd" d="M2183.55 1354.65C2226.47 1336.42 2265.9 1319.68 2291.48 1317.69C2294.04 1221.74 2255.93 1172.41 2220.75 1126.87C2199.54 1099.42 2179.4 1073.35 2169.87 1039.28C2142.12 940.075 2019.84 809.563 2008.11 812.833L2004.75 813.771L1911.84 839.687L1901.21 842.654C1913.56 905.392 1911.7 977.567 1909.84 1050.21C1909.4 1067.17 1908.96 1084.16 1908.71 1101.06C1835.93 1140.37 1646.29 1127.1 1646.29 1127.1C1646.29 1127.1 1627.87 1229.35 1641.86 1266.8C1756.91 1291.24 1849.5 1290.62 1920.83 1272.39C1930.32 1315.09 1946.61 1353.7 1974.01 1385.48C2010.74 1428.06 2103.24 1388.77 2183.55 1354.65Z" fill="#1F28CF"/>
</svg>
