<svg width="89" height="89" viewBox="0 0 89 89" fill="none" xmlns="http://www.w3.org/2000/svg">
<g filter="url(#filter0_d)">
<path fill-rule="evenodd" clip-rule="evenodd" d="M84.682 40.3522C84.6793 50.0142 81.2089 59.3543 74.902 66.674C68.595 73.9936 59.8705 78.8064 50.315 80.2372C40.7595 81.6681 31.0079 79.6218 22.8336 74.4706C14.6593 69.3194 8.6053 61.4054 5.77265 52.168C2.94 42.9305 3.51682 32.9833 7.39826 24.1352C11.2797 15.2871 18.2079 8.12595 26.9229 3.95417C35.6378 -0.217621 45.5606 -1.12296 54.8867 1.4028C64.2127 3.92857 72.3224 9.71766 77.741 17.7172C78.223 18.4266 78.682 19.1522 79.118 19.8942C82.7717 26.092 84.6934 33.1576 84.682 40.3522V40.3522Z" fill="#0F4F99"/>
<path opacity="0.4" fill-rule="evenodd" clip-rule="evenodd" d="M84.469 39.9892C84.4669 46.8869 82.6974 53.669 79.3293 59.6885C75.9612 65.7079 71.1069 70.764 65.2295 74.3742C59.352 77.9844 52.6476 80.0284 45.7557 80.3111C38.8638 80.5939 32.0144 79.1059 25.861 75.9892C23.4021 68.4868 22.9451 60.4723 24.5353 52.739C26.1256 45.0057 29.708 37.8218 34.9278 31.8985C40.1476 25.9751 46.8239 21.5177 54.2957 18.9674C61.7676 16.4171 69.7759 15.8624 77.528 17.3582C82.0626 24.0333 84.4813 31.9196 84.469 39.9892V39.9892Z" fill="#063157"/>
<path opacity="0.4" fill-rule="evenodd" clip-rule="evenodd" d="M84.474 39.9892C84.4732 49.1952 81.3257 58.1245 75.5535 65.2961C69.7812 72.4677 61.7311 77.4509 52.738 79.4192C49.0495 74.32 46.4631 68.5087 45.1432 62.3553C43.8233 56.2018 43.7988 49.841 45.0714 43.6776C46.344 37.5142 48.8857 31.6832 52.5348 26.5558C56.184 21.4283 60.8605 17.1167 66.267 13.8952C70.776 15.0271 75.0541 16.9341 78.91 19.5312C82.5637 25.7291 84.4853 32.7946 84.474 39.9892Z" fill="#063157"/>
<path fill-rule="evenodd" clip-rule="evenodd" d="M79.254 13.4872H43.73C32.983 13.4872 29.9599 19.1942 26.4789 26.8762L22.592 35.4502C22.762 35.3002 22.934 35.1539 23.108 35.0112C23.4188 34.7271 23.7533 34.4702 24.108 34.2432C24.308 34.0985 24.51 33.9589 24.714 33.8242C26.7195 32.572 28.97 31.7639 31.314 31.4542C33.7594 31.0945 36.2283 30.9187 38.7 30.9282C38.911 30.9282 39.126 30.9202 39.342 30.9202H57.597C71.039 30.9072 77.397 21.6122 79.259 13.4862L79.254 13.4872Z" fill="white"/>
<path fill-rule="evenodd" clip-rule="evenodd" d="M58.883 32.5802C54.471 43.1492 50.957 47.0592 37.483 46.7942C30.942 46.6652 24.515 47.4262 20.34 51.9342C16.075 56.5392 15.963 64.3862 22.05 67.2192H11.844C8.87499 67.2192 9.02395 65.3072 10.153 62.8192L19.533 42.1192C20.9137 39.3164 23.0157 36.9318 25.623 35.2102C27.4334 34.0895 29.4623 33.3684 31.574 33.0952C34.4978 32.6918 37.4491 32.5206 40.4 32.5832L58.883 32.5802Z" fill="white"/>
<path fill-rule="evenodd" clip-rule="evenodd" d="M38.786 48.4642L31.753 63.7543C29.888 67.4133 28.67 67.2182 25.853 67.2182H25.653C24.0901 66.7281 22.6481 65.9141 21.421 64.8292C18.021 61.7292 18.545 56.3172 21.563 53.0592C25.53 48.7762 31.99 48.3422 37.463 48.4502C37.903 48.4589 38.3467 48.4639 38.794 48.4653L38.786 48.4642Z" fill="#E9E8E8"/>
</g>
<defs>
<filter id="filter0_d" x="0" y="0" width="88.6821" height="88.6821" filterUnits="userSpaceOnUse" color-interpolation-filters="sRGB">
<feFlood flood-opacity="0" result="BackgroundImageFix"/>
<feColorMatrix in="SourceAlpha" type="matrix" values="0 0 0 0 0 0 0 0 0 0 0 0 0 0 0 0 0 0 127 0"/>
<feOffset dy="4"/>
<feGaussianBlur stdDeviation="2"/>
<feColorMatrix type="matrix" values="0 0 0 0 0 0 0 0 0 0 0 0 0 0 0 0 0 0 0.25 0"/>
<feBlend mode="normal" in2="BackgroundImageFix" result="effect1_dropShadow"/>
<feBlend mode="normal" in="SourceGraphic" in2="effect1_dropShadow" result="shape"/>
</filter>
</defs>
</svg>
