<svg width="23" height="21" viewBox="0 0 23 21" fill="none" xmlns="http://www.w3.org/2000/svg">
<path d="M14.081 5.38803V3.07103C14.081 2.76667 14.021 2.4653 13.9045 2.18412C13.788 1.90294 13.6173 1.64747 13.402 1.43231C13.1868 1.21714 12.9312 1.04649 12.65 0.930113C12.3688 0.813731 12.0674 0.753897 11.763 0.754029H3.653C3.03849 0.754029 2.44915 0.99814 2.01463 1.43266C1.58011 1.86718 1.336 2.45652 1.336 3.07103V16.971C1.336 17.5855 1.58011 18.1749 2.01463 18.6094C2.44915 19.0439 3.03849 19.288 3.653 19.288H11.763C12.3775 19.288 12.9668 19.0439 13.4014 18.6094C13.8359 18.1749 14.08 17.5855 14.08 16.971V14.654" stroke="white" stroke-width="1.5" stroke-linecap="round" stroke-linejoin="round"/>
<path d="M18.715 13.499L22.191 10.023M5.97 10.023H22.191L18.715 6.547L5.97 10.023Z" stroke="white" stroke-width="1.5" stroke-linecap="round" stroke-linejoin="round"/>
</svg>
