<svg width="139" height="23" viewBox="0 0 139 23" fill="none" xmlns="http://www.w3.org/2000/svg">
<path d="M10.004 8.14123L8.04316 8.75854C7.95843 8.26227 7.7103 7.80837 7.29876 7.39683C6.88722 6.98529 6.29412 6.77952 5.51946 6.77952C4.87794 6.77952 4.34536 6.96108 3.92172 7.32421C3.51018 7.68733 3.30441 8.12308 3.30441 8.63145C3.30441 9.51504 3.80673 10.0658 4.81137 10.2837L6.66329 10.6649C7.77687 10.8828 8.63626 11.3246 9.24146 11.9903C9.84666 12.6561 10.1493 13.4489 10.1493 14.3688C10.1493 15.4339 9.73773 16.3538 8.91465 17.1285C8.10368 17.8911 6.99616 18.2723 5.59208 18.2723C4.07907 18.2723 2.89893 17.879 2.05164 17.0922C1.20436 16.2933 0.726244 15.3674 0.617308 14.3143L2.65079 13.7333C2.72342 14.4596 3.01391 15.0708 3.52229 15.5671C4.03066 16.0633 4.72059 16.3115 5.59208 16.3115C6.34253 16.3115 6.91748 16.1481 7.31691 15.8213C7.72845 15.4824 7.93422 15.0527 7.93422 14.5322C7.93422 14.1085 7.78292 13.7454 7.48032 13.4428C7.17772 13.1281 6.75407 12.9102 6.20939 12.7892L4.39378 12.4079C3.38914 12.2021 2.59027 11.7846 1.99717 11.1551C1.41618 10.5257 1.12568 9.73897 1.12568 8.79485C1.12568 7.71759 1.55537 6.79163 2.41476 6.01697C3.27415 5.24231 4.303 4.85498 5.5013 4.85498C6.86906 4.85498 7.91606 5.18784 8.64231 5.85356C9.36855 6.50718 9.82246 7.26974 10.004 8.14123ZM16.9402 9.15797H19.119L21.2069 15.2766L22.968 9.15797H25.1105L22.2781 18H20.172L17.9751 11.6454L15.8327 18H13.6721L10.8035 9.15797H13.0548L14.8523 15.2766L16.9402 9.15797ZM28.8044 18H26.7164V9.15797H28.8044V18ZM26.7891 7.01555C26.5228 6.74926 26.3896 6.4285 26.3896 6.05328C26.3896 5.67805 26.5228 5.35729 26.7891 5.091C27.0553 4.81261 27.3761 4.67341 27.7513 4.67341C28.1387 4.67341 28.4655 4.80656 28.7318 5.07285C28.9981 5.33914 29.1312 5.66595 29.1312 6.05328C29.1312 6.4285 28.9981 6.74926 28.7318 7.01555C28.4655 7.28184 28.1387 7.41499 27.7513 7.41499C27.3761 7.41499 27.0553 7.28184 26.7891 7.01555ZM35.4431 6.65243C35.0921 6.65243 34.7835 6.75532 34.5172 6.96108C34.263 7.15475 34.1359 7.49972 34.1359 7.99598V9.15797H36.1875V10.9917H34.1359V18H32.0116V10.9917H30.4684V9.15797H32.0116V7.94151C32.0116 6.96108 32.2961 6.18642 32.865 5.61753C33.4339 5.04864 34.1783 4.76419 35.0982 4.76419C35.5944 4.76419 35.9636 4.82471 36.2057 4.94576V6.74321C35.9999 6.68269 35.7457 6.65243 35.4431 6.65243ZM40.7507 6.45271V9.15797H42.5844V11.0281H40.7507V15.1313C40.7507 15.5187 40.8415 15.8031 41.023 15.9847C41.2046 16.1541 41.489 16.2389 41.8764 16.2389C42.1184 16.2389 42.3605 16.2146 42.6026 16.1662V17.9092C42.2879 18.0424 41.8582 18.1089 41.3135 18.1089C40.4904 18.1089 39.8429 17.879 39.3708 17.419C38.8988 16.9469 38.6627 16.2994 38.6627 15.4763V11.0281H37.0287V9.15797H37.4826C37.9304 9.15797 38.2693 9.03088 38.4993 8.7767C38.7293 8.52251 38.8443 8.18965 38.8443 7.77811V6.45271H40.7507ZM54.136 7.17896H49.9419V18H47.7632V7.17896H43.5873V5.12732H54.136V7.17896ZM59.6925 9.10351V11.2459C59.4504 11.2096 59.2204 11.1915 59.0025 11.1915C57.4169 11.1915 56.6241 12.0569 56.6241 13.7878V18H54.518V9.15797H56.5696V10.5742C56.7754 10.1021 57.1082 9.73292 57.5682 9.46663C58.0282 9.18823 58.5486 9.04904 59.1296 9.04904C59.3233 9.04904 59.5109 9.06719 59.6925 9.10351ZM60.9237 15.6034C60.9237 14.8529 61.1658 14.2538 61.6499 13.8059C62.1462 13.346 62.7938 13.0555 63.5926 12.9344L65.8621 12.5895C66.2979 12.529 66.5158 12.3171 66.5158 11.954C66.5158 11.5546 66.3766 11.2338 66.0982 10.9917C65.8198 10.7376 65.4022 10.6105 64.8454 10.6105C64.3128 10.6105 63.8892 10.7618 63.5745 11.0644C63.2598 11.3549 63.0782 11.7361 63.0298 12.2082L61.1052 11.7725C61.19 10.9736 61.5712 10.2958 62.2491 9.73897C62.9269 9.17008 63.7863 8.88563 64.8272 8.88563C66.1103 8.88563 67.0544 9.19429 67.6596 9.81159C68.2769 10.4289 68.5856 11.2217 68.5856 12.19V16.5838C68.5856 17.1648 68.6219 17.6369 68.6945 18H66.7336C66.6731 17.8184 66.6429 17.4432 66.6429 16.8743C66.0619 17.8063 65.1541 18.2723 63.9194 18.2723C63.0237 18.2723 62.2975 18.0121 61.7407 17.4916C61.196 16.959 60.9237 16.3296 60.9237 15.6034ZM64.3189 16.6201C64.9725 16.6201 65.499 16.4446 65.8985 16.0936C66.31 15.7305 66.5158 15.1434 66.5158 14.3325V13.933L64.2099 14.278C63.4232 14.4111 63.0298 14.8106 63.0298 15.4763C63.0298 15.791 63.1448 16.0633 63.3748 16.2933C63.6047 16.5112 63.9194 16.6201 64.3189 16.6201ZM72.53 13.5518C72.53 14.399 72.7478 15.0829 73.1836 15.6034C73.6193 16.1118 74.1943 16.3659 74.9084 16.3659C75.5984 16.3659 76.1612 16.1057 76.5969 15.5852C77.0327 15.0648 77.2506 14.3809 77.2506 13.5336C77.2506 12.6984 77.0387 12.0327 76.6151 11.5364C76.1915 11.0402 75.6286 10.792 74.9266 10.792C74.2245 10.792 73.6496 11.0462 73.2018 11.5546C72.7539 12.0508 72.53 12.7166 72.53 13.5518ZM79.284 4.85498V16.3841C79.284 16.9772 79.3143 17.5158 79.3748 18H77.3595C77.299 17.6611 77.2687 17.2798 77.2687 16.8562C77.0508 17.2556 76.7119 17.5824 76.252 17.8366C75.792 18.0908 75.2655 18.2179 74.6724 18.2179C73.4136 18.2179 72.3908 17.7761 71.604 16.8925C70.8172 16.0089 70.4239 14.8953 70.4239 13.5518C70.4239 12.2566 70.8172 11.1612 71.604 10.2655C72.4029 9.3698 73.4136 8.92194 74.6361 8.92194C75.3381 8.92194 75.901 9.04904 76.3246 9.30322C76.7603 9.55741 77.063 9.85396 77.2324 10.1929V4.85498H79.284ZM83.5065 12.6076H87.8458C87.8216 12.0508 87.6219 11.5848 87.2466 11.2096C86.8835 10.8344 86.357 10.6468 85.6671 10.6468C85.0376 10.6468 84.5293 10.8465 84.1419 11.2459C83.7546 11.6333 83.5428 12.0872 83.5065 12.6076ZM88.0818 14.9135L89.8611 15.4763C89.6069 16.2873 89.1288 16.959 88.4268 17.4916C87.7369 18.0121 86.8835 18.2723 85.8668 18.2723C84.6079 18.2723 83.5367 17.8426 82.6531 16.9833C81.7816 16.1239 81.3459 14.974 81.3459 13.5336C81.3459 12.1779 81.7695 11.0644 82.6168 10.1929C83.4762 9.32138 84.4869 8.88563 85.6489 8.88563C87.0046 8.88563 88.0637 9.30322 88.8262 10.1384C89.5888 10.9615 89.9701 12.0751 89.9701 13.4791C89.9701 13.8544 89.9519 14.0783 89.9156 14.1509H83.452C83.4762 14.8166 83.7183 15.3674 84.1783 15.8031C84.6503 16.2389 85.2132 16.4567 85.8668 16.4567C87.0046 16.4567 87.7429 15.9423 88.0818 14.9135ZM91.202 15.6034L93.0357 15.095C93.0721 15.5187 93.2476 15.8757 93.5623 16.1662C93.877 16.4567 94.3006 16.602 94.8332 16.602C95.2447 16.602 95.5655 16.5051 95.7955 16.3115C96.0376 16.1178 96.1586 15.8757 96.1586 15.5852C96.1586 15.0769 95.8136 14.7501 95.1237 14.6048L93.8165 14.3143C93.0539 14.1449 92.4669 13.8301 92.0553 13.3702C91.6438 12.9102 91.438 12.3656 91.438 11.7361C91.438 10.9615 91.7527 10.2958 92.3821 9.73897C93.0115 9.17008 93.7801 8.88563 94.6879 8.88563C95.2689 8.88563 95.7834 8.97036 96.2312 9.13982C96.6791 9.30927 97.024 9.5332 97.2661 9.81159C97.5203 10.0779 97.714 10.3381 97.8471 10.5923C97.9803 10.8465 98.065 11.1007 98.1013 11.3549L96.322 11.8632C96.2736 11.5243 96.1162 11.2217 95.8499 10.9554C95.5958 10.677 95.2084 10.5378 94.6879 10.5378C94.3248 10.5378 94.0222 10.6407 93.7801 10.8465C93.5381 11.0402 93.417 11.2762 93.417 11.5546C93.417 12.0508 93.7136 12.3595 94.3067 12.4805L95.6502 12.7529C96.4733 12.9344 97.1027 13.2613 97.5385 13.7333C97.9742 14.2054 98.1921 14.7743 98.1921 15.44C98.1921 16.1783 97.8955 16.838 97.3024 17.419C96.7214 17.9879 95.9044 18.2723 94.8514 18.2723C94.2461 18.2723 93.7015 18.1816 93.2173 18C92.7452 17.8184 92.37 17.5885 92.0916 17.3101C91.8253 17.0196 91.6135 16.7351 91.4562 16.4567C91.3109 16.1662 91.2262 15.8818 91.202 15.6034Z" fill="white"/>
<path d="M137.26 7.8515H126.424C125.66 7.8515 125.255 6.9486 125.762 6.37743C125.931 6.18835 126.171 6.08017 126.424 6.08017H137.26C137.901 6.08017 138.33 6.73986 138.069 7.32554C137.927 7.64537 137.61 7.8515 137.26 7.8515Z" fill="white"/>
<path d="M132.536 11.3942H126.432C125.498 11.3942 125.2 10.1343 126.036 9.71634C126.159 9.65485 126.295 9.62283 126.432 9.62283H132.536C133.5 9.62283 133.771 10.9432 132.885 11.3226C132.775 11.3698 132.656 11.3942 132.536 11.3942Z" fill="white"/>
<path d="M125.977 18.1868C125.977 18.1425 125.977 18.0982 125.977 18.0096C125.977 17.9654 125.977 17.9211 125.977 17.8325V17.7882V17.7439V17.6996C125.977 17.6111 125.977 17.5225 125.977 17.434V17.3454V17.2568C125.977 17.2125 125.977 17.124 125.977 17.0797C125.977 17.0354 125.977 16.9468 125.977 16.9026C125.977 16.8583 125.977 16.8583 125.977 16.814C125.977 16.7697 125.977 16.7697 125.977 16.7254C125.933 16.504 125.933 16.3269 125.889 16.1055C125.889 16.0169 125.845 15.9283 125.845 15.7955C125.845 15.7069 125.8 15.6183 125.8 15.5298C125.756 15.3526 125.712 15.1755 125.668 15.0427C125.668 14.9984 125.668 14.9541 125.623 14.9098C125.623 14.8655 125.623 14.8212 125.579 14.8212C125.579 14.7327 125.535 14.6884 125.535 14.6441C125.535 14.5998 125.49 14.5113 125.49 14.467C125.49 14.4227 125.446 14.3784 125.446 14.3341C125.446 14.2898 125.402 14.2013 125.402 14.157C125.402 14.1127 125.313 14.0684 125.269 14.0684L121.239 15.2198C121.195 15.2198 121.151 15.3084 121.151 15.3526C121.151 15.3969 121.151 15.3969 121.151 15.4412C121.151 15.4855 121.151 15.4855 121.151 15.5298C121.151 15.5741 121.151 15.6183 121.151 15.6626C121.151 15.7069 121.151 15.7512 121.151 15.7955C121.151 15.8398 121.151 15.8398 121.151 15.884C121.151 15.9283 121.151 15.9283 121.151 15.9726C121.151 16.0612 121.195 16.194 121.195 16.3269C121.195 16.3711 121.195 16.4597 121.195 16.504C121.195 16.5483 121.195 16.6369 121.195 16.6811C121.195 16.814 121.195 16.9468 121.195 17.0797V17.124V17.1682C121.195 17.2125 121.195 17.2125 121.195 17.2568C121.195 17.3011 121.195 17.3011 121.195 17.3454V17.3897V17.434C121.195 17.5225 121.195 17.6111 121.195 17.6996V17.7439C121.195 17.7439 121.195 17.6554 121.195 17.6996V17.7439C121.195 17.7882 121.195 17.8325 121.195 17.8325C121.195 17.8768 121.195 17.9211 121.195 17.9211C121.195 17.9653 121.195 18.0096 121.195 18.0096C121.195 18.0982 121.195 18.1425 121.151 18.1868C121.151 18.231 121.151 18.3196 121.106 18.3639C121.106 18.4082 121.106 18.4968 121.062 18.541C121.062 18.5853 121.062 18.6739 121.018 18.7182C121.018 18.7624 121.018 18.8067 120.973 18.8953C120.973 18.9396 120.929 18.9839 120.929 19.0281C120.929 19.0724 120.929 19.0724 120.929 19.0724V19.1167C120.929 19.1167 120.929 19.1167 120.929 19.161H125.845C125.889 19.161 125.977 19.1167 125.977 19.0281C125.977 18.9396 125.977 18.851 125.977 18.7625C125.977 18.6739 125.977 18.5853 125.977 18.4525C125.977 18.3639 125.977 18.231 125.977 18.1425C125.977 18.2753 125.977 18.231 125.977 18.1868Z" fill="white"/>
<path d="M124.693 13.0056C124.738 12.9613 124.782 12.9171 124.738 12.8285C124.738 12.7842 124.693 12.7842 124.693 12.7399C124.693 12.6956 124.649 12.6514 124.649 12.6071C124.605 12.5628 124.605 12.4742 124.561 12.43C124.516 12.3857 124.516 12.2971 124.472 12.2528C124.472 12.2085 124.428 12.2085 124.428 12.1643C124.428 12.12 124.383 12.0757 124.383 12.0757C124.339 11.9871 124.295 11.9428 124.251 11.8543C124.206 11.7657 124.162 11.7214 124.118 11.6328C124.073 11.5886 124.073 11.5443 124.029 11.5C123.985 11.4557 123.985 11.4114 123.941 11.3672C123.896 11.2786 123.852 11.19 123.808 11.1015C123.719 10.9243 123.586 10.7915 123.454 10.6143C123.409 10.5701 123.409 10.5258 123.365 10.4815L123.321 10.4372L123.276 10.3929C123.232 10.3044 123.144 10.2158 123.099 10.1272C123.055 10.0387 122.966 9.95009 122.922 9.9058C122.878 9.86152 122.878 9.81724 122.834 9.77296C122.789 9.72868 122.745 9.68439 122.745 9.6401C122.701 9.59582 122.656 9.55154 122.656 9.50726C122.612 9.46298 122.568 9.4187 122.568 9.37441C122.479 9.28585 122.435 9.24157 122.346 9.153C122.258 9.06443 122.214 9.02015 122.125 8.93158C122.081 8.8873 121.992 8.79872 121.948 8.75444C121.904 8.71016 121.815 8.62159 121.771 8.57731C121.726 8.53303 121.638 8.48875 121.594 8.40018C121.549 8.3559 121.461 8.31162 121.417 8.26733C121.372 8.22305 121.328 8.17876 121.284 8.13448C121.239 8.09019 121.195 8.04592 121.151 8.00163C121.107 7.95735 121.062 7.95734 121.018 7.91306C120.974 7.86878 120.929 7.8245 120.885 7.8245C120.841 7.78022 120.752 7.78022 120.708 7.8245L118.538 10.4372C118.494 10.4815 118.494 10.5701 118.538 10.6143L118.582 10.6586C118.627 10.7029 118.627 10.7029 118.671 10.7472C118.715 10.7915 118.715 10.7915 118.76 10.8358C118.804 10.88 118.804 10.88 118.848 10.9243C118.892 10.9686 118.937 11.0129 118.937 11.0572C118.981 11.1015 119.025 11.1457 119.069 11.19C119.114 11.2343 119.158 11.2786 119.202 11.3229C119.247 11.3672 119.291 11.4114 119.335 11.4557C119.379 11.5 119.424 11.5443 119.468 11.6328C119.512 11.6771 119.557 11.7657 119.601 11.81C119.601 11.8543 119.645 11.8543 119.645 11.8985C119.645 11.9428 119.689 11.9428 119.689 11.9871C119.689 12.0314 119.734 12.0314 119.734 12.0757C119.734 12.12 119.778 12.12 119.778 12.1643C119.822 12.2085 119.867 12.2971 119.911 12.3414C119.955 12.3857 119.999 12.4742 119.999 12.5185L120.044 12.5628L120.088 12.6071C120.088 12.6514 120.132 12.6514 120.132 12.6957C120.221 12.8285 120.265 12.9613 120.309 13.0499C120.354 13.0942 120.354 13.1828 120.398 13.227C120.398 13.2713 120.442 13.2713 120.442 13.3156C120.442 13.3599 120.487 13.3599 120.487 13.4042C120.531 13.4485 120.531 13.537 120.575 13.5813C120.575 13.6256 120.619 13.6699 120.619 13.7584C120.619 13.8027 120.619 13.8027 120.664 13.847C120.664 13.8913 120.664 13.8913 120.708 13.9356C120.708 13.9799 120.752 14.0241 120.752 14.0684C120.752 14.1127 120.797 14.157 120.797 14.157C120.797 14.2013 120.841 14.2456 120.841 14.2898C120.841 14.3341 120.885 14.3784 120.885 14.3784C120.929 14.467 120.974 14.467 121.062 14.467L124.693 13.0056Z" fill="white"/>
<path d="M113.667 8.31157C113.711 8.31157 113.756 8.31157 113.756 8.31157C113.8 8.31157 113.844 8.31158 113.888 8.35586C113.933 8.35586 113.977 8.35586 114.021 8.40015C114.066 8.40015 114.11 8.40015 114.154 8.44443L115.527 5.65458C115.438 5.65458 115.394 5.65459 115.306 5.61031C115.261 5.61031 115.217 5.61031 115.173 5.61031C115.128 5.61031 115.084 5.61031 115.04 5.61031C114.951 5.61031 114.863 5.61031 114.774 5.56602C114.686 5.56602 114.597 5.56602 114.553 5.56602C114.464 5.56602 114.42 5.56602 114.331 5.56602C114.243 5.56602 114.198 5.56602 114.154 5.56602C114.11 5.56602 114.021 5.56602 113.977 5.56602C113.933 5.56602 113.888 5.56602 113.844 5.56602C113.8 5.56602 113.711 5.56602 113.667 5.56602C113.579 5.56602 113.534 5.6103 113.534 5.69887L113.401 8.31157C113.401 8.35586 113.446 8.44443 113.49 8.44443C113.623 8.31158 113.667 8.31157 113.667 8.31157Z" fill="white"/>
<path d="M117.343 9.77296C117.387 9.81724 117.431 9.81724 117.431 9.86152C117.476 9.9058 117.476 9.9058 117.52 9.9058L117.564 9.95009L117.609 9.99438C117.653 10.0387 117.653 10.0387 117.697 10.0387C117.741 10.0829 117.83 10.0829 117.874 9.99438L119.646 7.2931C119.69 7.24882 119.646 7.16025 119.601 7.11597C119.557 7.11597 119.557 7.07168 119.513 7.07168C119.513 7.07168 119.468 7.07168 119.468 7.0274L119.424 6.98311C119.38 6.93883 119.336 6.93884 119.247 6.89455C119.203 6.85027 119.114 6.85026 119.07 6.80598C119.026 6.7617 118.937 6.76171 118.893 6.71742C118.804 6.67314 118.76 6.62885 118.671 6.62885C118.583 6.58457 118.539 6.54028 118.45 6.54028C118.361 6.496 118.273 6.45172 118.184 6.45172C118.096 6.40744 118.007 6.36315 117.919 6.36315C117.874 6.36315 117.874 6.36315 117.83 6.31886L117.077 9.6401C117.121 9.68439 117.166 9.68439 117.21 9.72867C117.254 9.68439 117.299 9.72868 117.343 9.77296Z" fill="white"/>
<path d="M111.275 8.3116C111.32 8.3116 111.364 8.3116 111.364 8.3116C111.408 8.3116 111.452 8.3116 111.452 8.3116C111.497 8.3116 111.585 8.3116 111.63 8.3116C111.674 8.3116 111.762 8.3116 111.807 8.3116C111.851 8.3116 111.851 8.3116 111.895 8.3116C111.94 8.3116 111.94 8.3116 111.984 8.3116C112.028 8.3116 112.072 8.3116 112.117 8.3116C112.161 8.3116 112.205 8.3116 112.25 8.3116C112.294 8.3116 112.338 8.3116 112.382 8.3116C112.427 8.3116 112.471 8.3116 112.515 8.3116C112.604 8.3116 112.648 8.26732 112.648 8.17876L112.471 5.74318C112.471 5.65461 112.382 5.61034 112.338 5.61034C112.294 5.61034 112.25 5.61034 112.25 5.61034C112.205 5.61034 112.161 5.61034 112.117 5.61034C112.072 5.61034 111.984 5.61033 111.94 5.65461C111.895 5.65461 111.807 5.65461 111.718 5.69889C111.674 5.69889 111.63 5.69889 111.63 5.69889C111.585 5.69889 111.541 5.69889 111.541 5.69889C111.452 5.69889 111.408 5.74318 111.32 5.74318C111.231 5.74318 111.142 5.78747 111.098 5.78747C111.054 5.78747 111.01 5.78747 110.965 5.83175C110.921 5.83175 110.877 5.83174 110.832 5.87602C110.744 5.92031 110.655 5.92031 110.567 5.9646C110.478 6.00888 110.39 6.00889 110.301 6.05317C110.257 6.05317 110.213 6.09744 110.168 6.09744C110.124 6.09744 110.08 6.14173 110.035 6.14173C109.991 6.14173 109.947 6.18601 109.903 6.18601C109.858 6.18601 109.814 6.2303 109.77 6.2303C109.681 6.27458 109.593 6.31886 109.504 6.31886C109.415 6.36314 109.327 6.40743 109.238 6.45171C109.194 6.45171 109.15 6.496 109.105 6.496C109.061 6.496 109.017 6.54027 108.973 6.54027C108.928 6.54027 108.884 6.58456 108.84 6.58456C108.795 6.58456 108.751 6.62884 108.707 6.62884C108.618 6.67313 108.53 6.71741 108.441 6.76169C108.353 6.80597 108.264 6.85026 108.22 6.89455C108.131 6.93883 108.087 6.98311 107.998 7.02739C107.91 7.07167 107.866 7.11597 107.777 7.16025C107.688 7.20453 107.644 7.24881 107.6 7.29309C107.556 7.33738 107.467 7.38165 107.423 7.42594C107.378 7.47022 107.334 7.51451 107.246 7.51451C107.201 7.55879 107.157 7.5588 107.113 7.60308C107.068 7.64736 107.024 7.64736 106.98 7.69164C106.936 7.73592 106.891 7.73593 106.847 7.78021C106.803 7.82449 106.803 7.91306 106.803 7.95734L107.821 9.46297C107.866 9.50725 107.91 9.55154 107.998 9.50725C108.043 9.50725 108.043 9.46297 108.087 9.46297C108.131 9.46297 108.131 9.41868 108.176 9.41868C108.22 9.41868 108.264 9.37441 108.308 9.37441C108.353 9.33013 108.397 9.33012 108.441 9.28584C108.485 9.24155 108.53 9.24155 108.574 9.19726C108.618 9.15298 108.663 9.15299 108.751 9.10871C108.795 9.06442 108.884 9.06442 108.928 9.02013C108.973 8.97585 109.061 8.97586 109.105 8.93158C109.15 8.88729 109.238 8.88729 109.327 8.843C109.415 8.79872 109.46 8.79872 109.548 8.75443C109.593 8.75443 109.637 8.71016 109.637 8.71016C109.681 8.71016 109.725 8.66587 109.725 8.66587C109.77 8.66587 109.814 8.62159 109.814 8.62159C109.858 8.62159 109.903 8.62159 109.947 8.5773C110.035 8.5773 110.08 8.53302 110.168 8.53302C110.257 8.53302 110.301 8.48874 110.39 8.48874C110.434 8.48874 110.478 8.48874 110.523 8.44446C110.567 8.44446 110.611 8.44446 110.655 8.40017C110.7 8.40017 110.744 8.40017 110.788 8.35589C110.833 8.35589 110.877 8.35589 110.921 8.35589C111.01 8.35589 111.054 8.3116 111.142 8.3116C111.142 8.3116 111.231 8.3116 111.275 8.3116Z" fill="white"/>
<path d="M104.323 10.2601C104.279 10.3044 104.279 10.3486 104.234 10.3929C104.19 10.4372 104.19 10.4815 104.146 10.5258C104.102 10.57 104.102 10.6143 104.057 10.6586C104.013 10.7472 103.969 10.8357 103.925 10.88C103.88 10.9686 103.836 11.0572 103.792 11.1014L103.747 11.1457L103.703 11.19C103.659 11.2343 103.659 11.2786 103.615 11.3229C103.526 11.5 103.437 11.6328 103.349 11.81C103.305 11.8985 103.26 11.9871 103.216 12.0314C103.216 12.0757 103.172 12.12 103.172 12.1642C103.172 12.2085 103.127 12.2528 103.127 12.2971C103.083 12.3857 103.083 12.4299 103.039 12.5185C102.995 12.6071 102.995 12.6514 102.95 12.7399C102.906 12.7842 102.906 12.8728 102.862 12.9171C102.817 12.9613 102.817 13.0499 102.817 13.0942C102.817 13.1385 102.773 13.1828 102.773 13.227C102.773 13.2713 102.729 13.3156 102.729 13.3599C102.729 13.4042 102.685 13.4485 102.685 13.4927C102.685 13.537 102.685 13.6256 102.773 13.6699L103.703 14.0241C103.747 14.0684 103.836 14.0241 103.88 13.9799C103.88 13.9356 103.925 13.9356 103.925 13.8913C103.925 13.847 103.969 13.8027 103.969 13.8027C103.969 13.7584 104.013 13.7142 104.013 13.6699C104.057 13.6256 104.057 13.5813 104.102 13.537C104.146 13.4927 104.146 13.4485 104.19 13.3599C104.234 13.3156 104.234 13.2713 104.279 13.1828C104.323 13.1385 104.367 13.0499 104.367 13.0056C104.367 12.9613 104.412 12.9613 104.412 12.9171C104.412 12.8728 104.456 12.8728 104.456 12.8285C104.5 12.7842 104.544 12.6956 104.589 12.6514C104.677 12.5185 104.766 12.3857 104.854 12.2528C104.899 12.2085 104.899 12.2085 104.943 12.1642L104.987 12.12L105.032 12.0757C105.076 12.0314 105.12 11.9428 105.164 11.8985C105.209 11.8543 105.253 11.7657 105.342 11.7214C105.386 11.6771 105.386 11.6771 105.43 11.6328C105.474 11.5886 105.474 11.5886 105.519 11.5443C105.563 11.5 105.563 11.5 105.607 11.4557C105.652 11.4114 105.652 11.4114 105.696 11.3671C105.74 11.3229 105.784 11.2343 105.873 11.19C105.917 11.1457 105.962 11.1014 106.05 11.0129C106.094 10.9686 106.139 10.9243 106.227 10.88C106.272 10.8357 106.316 10.7915 106.36 10.7472C106.404 10.7029 106.449 10.6586 106.493 10.6143C106.537 10.57 106.582 10.5258 106.626 10.4815C106.67 10.4372 106.714 10.4372 106.759 10.3929C106.803 10.3486 106.847 10.3486 106.847 10.3043L106.891 10.2601L106.936 10.2158C106.98 10.1715 106.98 10.1715 107.024 10.1272C107.069 10.0829 107.069 9.99437 107.024 9.95008L105.962 8.66587C105.917 8.62159 105.829 8.62159 105.784 8.66587C105.74 8.66587 105.74 8.71015 105.696 8.75443L105.652 8.79872L105.607 8.843C105.563 8.88729 105.519 8.93156 105.474 8.97585C105.43 9.02013 105.386 9.06442 105.342 9.1087C105.297 9.15299 105.253 9.19727 105.209 9.24155C105.164 9.28583 105.12 9.33011 105.076 9.41868C105.032 9.46296 104.987 9.55154 104.899 9.59582C104.854 9.64011 104.81 9.72867 104.722 9.77295C104.677 9.86152 104.633 9.9058 104.544 9.99437C104.5 10.0829 104.456 10.1272 104.367 10.2158C104.412 10.1715 104.367 10.2158 104.323 10.2601Z" fill="white"/>
<path d="M102.375 14.6884C102.375 14.7327 102.375 14.777 102.375 14.777C102.375 14.8212 102.375 14.8655 102.33 14.9098C102.33 14.9541 102.33 14.9984 102.286 15.0869C102.286 15.1312 102.286 15.2198 102.242 15.2641C102.242 15.3084 102.242 15.3084 102.242 15.3526C102.242 15.3969 102.242 15.3969 102.242 15.4412C102.242 15.5741 102.198 15.7069 102.198 15.884C102.198 15.9726 102.198 16.0612 102.153 16.1055C102.153 16.194 102.153 16.2826 102.153 16.3712C102.153 16.5483 102.153 16.7254 102.153 16.9026V16.9911V17.0797C102.153 17.124 102.153 17.1683 102.153 17.2125C102.153 17.2568 102.153 17.3011 102.153 17.3454V17.434V17.5225C102.153 17.6111 102.153 17.6997 102.153 17.7882V17.8768V17.9211C102.153 17.9653 102.153 18.0096 102.153 18.0539C102.153 18.0982 102.153 18.1425 102.153 18.1868C102.153 18.231 102.153 18.2753 102.153 18.3196C102.153 18.3639 102.153 18.4082 102.153 18.4525V18.4967V18.541C102.153 18.6296 102.153 18.7182 102.198 18.8067C102.198 18.8953 102.242 18.9839 102.242 19.0281C102.242 19.1167 102.286 19.161 102.286 19.2496C102.286 19.2938 102.33 19.3381 102.419 19.3381H102.773C102.862 19.3381 102.906 19.2939 102.906 19.2053V19.161C102.906 19.0724 102.906 19.0281 102.906 18.9396C102.906 18.851 102.906 18.8067 102.906 18.7182C102.906 18.6296 102.906 18.541 102.906 18.4967V18.4525V18.4082C102.906 18.3639 102.906 18.3196 102.906 18.2753C102.906 18.231 102.906 18.1868 102.906 18.1425C102.906 18.0982 102.906 18.0539 102.906 18.0096C102.906 17.9654 102.906 17.9211 102.906 17.8768V17.8325V17.7882C102.906 17.6997 102.906 17.6111 102.906 17.5225V17.4782V17.434C102.906 17.3897 102.906 17.3454 102.906 17.3011C102.906 17.2568 102.906 17.2125 102.906 17.1682V17.124V17.0797C102.95 16.9025 102.95 16.7697 102.995 16.5926C102.995 16.504 103.039 16.4597 103.039 16.3712C103.039 16.2826 103.083 16.2383 103.083 16.1497C103.128 16.0169 103.172 15.884 103.172 15.7512C103.172 15.7069 103.172 15.7069 103.216 15.6626C103.216 15.6183 103.216 15.6183 103.26 15.5741C103.26 15.5298 103.305 15.4855 103.305 15.4412C103.305 15.3969 103.349 15.3526 103.349 15.3084C103.349 15.2641 103.393 15.2198 103.393 15.1755C103.393 15.1312 103.438 15.0869 103.438 15.0869C103.482 14.9984 103.438 14.9541 103.349 14.9098L102.508 14.6884C102.463 14.5555 102.419 14.5998 102.375 14.6884Z" fill="white"/>
<path d="M111.851 19.0281C112.117 19.161 112.427 19.2053 112.693 19.2053C113.401 19.2053 114.11 18.8067 114.42 18.1425C114.464 18.0096 114.553 17.8768 114.553 17.7439L116.501 9.28584L117.254 6.05317L117.697 4.06042C117.741 3.83901 117.564 3.66187 117.387 3.66187C117.298 3.66187 117.165 3.70616 117.121 3.83901L116.191 5.74318L114.818 8.5773L110.966 16.4597C110.523 17.3897 110.921 18.541 111.851 19.0281ZM112.781 16.2826C113.313 16.2826 113.711 16.7254 113.711 17.2125C113.711 17.7439 113.268 18.1425 112.781 18.1425C112.25 18.1425 111.851 17.6997 111.851 17.2125C111.851 16.7254 112.25 16.2826 112.781 16.2826Z" fill="white"/>
</svg>
