<svg width="184" height="29" viewBox="0 0 184 29" fill="none" xmlns="http://www.w3.org/2000/svg">
<path d="M12.774 10.6381C12.4077 8.80666 10.8968 6.42584 6.95932 6.42584C3.89172 6.42584 1.30487 8.62352 1.30487 11.508C1.30487 13.9575 2.97602 15.6286 5.56287 16.1551L7.82923 16.613C9.08832 16.8648 9.79799 17.5974 9.79799 18.536C9.79799 19.6806 8.85939 20.5276 7.16535 20.5276C4.8761 20.5276 3.75437 19.0854 3.61701 17.4829L0.686775 18.2613C0.938592 20.5734 2.83867 23.3434 7.14246 23.3434C10.9197 23.3434 13.0029 20.8252 13.0029 18.3299C13.0029 16.0407 11.4234 14.1177 8.47022 13.5454L6.20386 13.1104C5.01345 12.8815 4.44114 12.1719 4.44114 11.279C4.44114 10.2031 5.44841 9.21872 6.98221 9.21872C9.04253 9.21872 9.77509 10.6152 9.93534 11.508L12.774 10.6381ZM21.5154 11.7369L19.0659 18.9709L16.9826 11.7369H13.7777L17.3718 23H20.4623L23.0492 15.3081L25.6818 23H28.7265L32.2519 11.7369H29.2301L27.1469 18.9938L24.7203 11.7369H21.5154ZM37.198 23V11.7369H34.1533V23H37.198ZM33.787 8.0512C33.787 9.05848 34.634 9.9055 35.6642 9.9055C36.7172 9.9055 37.5414 9.05848 37.5414 8.0512C37.5414 6.99815 36.7172 6.15113 35.6642 6.15113C34.634 6.15113 33.787 6.99815 33.787 8.0512ZM45.6771 8.94401C46.1808 8.94401 46.4784 9.01269 46.6386 9.05848V6.49452C46.3868 6.38005 45.7687 6.26559 45.1277 6.26559C42.6324 6.26559 41.03 7.91385 41.03 10.4549V11.7369H39.1528V14.3466H41.03V23H44.0975V14.3466H46.6386V11.7369H44.0975V10.5007C44.0975 9.24162 44.9904 8.94401 45.6771 8.94401ZM52.8638 8.3717H50.1167V9.95128C50.1167 10.9586 49.5672 11.7369 48.3768 11.7369H47.8045V14.4382H49.842V19.6806C49.842 21.8554 51.2155 23.1602 53.4132 23.1602C54.306 23.1602 54.8554 23 55.1301 22.8855V20.3674C54.9699 20.4131 54.5578 20.4589 54.1915 20.4589C53.3216 20.4589 52.8638 20.1384 52.8638 19.1541V14.4382H55.1301V11.7369H52.8638V8.3717ZM69.8282 9.76814V6.76923H56.3903V9.76814H61.5182V23H64.7002V9.76814H69.8282ZM77.0364 11.6911C76.8075 11.6682 76.5786 11.6453 76.3268 11.6453C75.3653 11.6453 73.8086 11.92 73.1218 13.408V11.7369H70.1687V23H73.2134V17.8492C73.2134 15.4226 74.5641 14.6671 76.1207 14.6671C76.3955 14.6671 76.6931 14.69 77.0364 14.7587V11.6911ZM78.5584 19.9324C78.5584 21.6951 80.0235 23.3205 82.4273 23.3205C84.0984 23.3205 85.1744 22.5422 85.7467 21.6493C85.7467 22.0843 85.7925 22.7024 85.8611 23H88.654C88.5853 22.6108 88.5167 21.8096 88.5167 21.2144V15.6744C88.5167 13.408 87.1889 11.3935 83.6177 11.3935C80.5959 11.3935 78.9705 13.3394 78.7874 15.1021L81.4887 15.6744C81.5802 14.69 82.3128 13.843 83.6406 13.843C84.9225 13.843 85.5406 14.5069 85.5406 15.3081C85.5406 15.6973 85.3346 16.0178 84.6936 16.1094L81.9236 16.5214C80.0464 16.7961 78.5584 17.9179 78.5584 19.9324ZM83.0682 21.0541C82.0839 21.0541 81.6031 20.4131 81.6031 19.7493C81.6031 18.8794 82.2212 18.4444 82.9996 18.3299L85.5406 17.9408V18.4444C85.5406 20.436 84.3502 21.0541 83.0682 21.0541ZM102.278 6.42584H99.2786V12.8586C98.9581 12.2634 98.0424 11.4622 96.0966 11.4622C92.9145 11.4622 90.6939 14.049 90.6939 17.3456C90.6939 20.7565 92.9832 23.2747 96.1881 23.2747C97.699 23.2747 98.8437 22.5879 99.3473 21.6951C99.3473 22.2217 99.416 22.7711 99.4618 23H102.369C102.323 22.5422 102.278 21.718 102.278 20.9626V6.42584ZM93.7615 17.3456C93.7615 15.331 94.9977 14.1864 96.5544 14.1864C98.1111 14.1864 99.3244 15.3081 99.3244 17.3227C99.3244 19.3601 98.1111 20.5505 96.5544 20.5505C94.952 20.5505 93.7615 19.3601 93.7615 17.3456ZM107.801 16.0865C107.87 15.0563 108.74 13.8659 110.319 13.8659C112.059 13.8659 112.792 14.9647 112.837 16.0865H107.801ZM113.135 19.0167C112.769 20.024 111.99 20.7336 110.571 20.7336C109.06 20.7336 107.801 19.6577 107.732 18.1697H115.791C115.791 18.1239 115.836 17.6661 115.836 17.2311C115.836 13.6141 113.753 11.3935 110.273 11.3935C107.389 11.3935 104.733 13.7285 104.733 17.3227C104.733 21.1228 107.458 23.3434 110.548 23.3434C113.318 23.3434 115.104 21.718 115.676 19.7722L113.135 19.0167ZM117.272 19.8637C117.41 21.1457 118.577 23.3434 121.965 23.3434C124.919 23.3434 126.338 21.4662 126.338 19.6348C126.338 17.9865 125.216 16.6359 122.996 16.178L121.393 15.8347C120.775 15.7202 120.363 15.3768 120.363 14.8274C120.363 14.1864 121.004 13.7057 121.805 13.7057C123.087 13.7057 123.568 14.5527 123.659 15.2166L126.201 14.6442C126.063 13.4309 124.987 11.3935 121.782 11.3935C119.356 11.3935 117.57 13.0647 117.57 15.0792C117.57 16.6588 118.554 17.9637 120.729 18.4444L122.217 18.7878C123.087 18.9709 123.431 19.383 123.431 19.8866C123.431 20.4818 122.95 21.0084 121.943 21.0084C120.615 21.0084 119.951 20.1842 119.882 19.2914L117.272 19.8637Z" fill="white"/>
<path d="M181.616 9.33516H166.277C165.195 9.33516 164.621 8.057 165.34 7.24844C165.578 6.98078 165.919 6.82764 166.277 6.82764H181.616C182.524 6.82764 183.13 7.7615 182.762 8.5906C182.561 9.04337 182.112 9.33516 181.616 9.33516Z" fill="white"/>
<path d="M174.93 14.3503H166.289C164.966 14.3503 164.545 12.5668 165.728 11.9751C165.902 11.8881 166.094 11.8428 166.289 11.8428H174.93C176.293 11.8428 176.677 13.7119 175.424 14.2489C175.268 14.3158 175.1 14.3503 174.93 14.3503Z" fill="white"/>
<path d="M165.645 23.9662C165.645 23.9035 165.645 23.8409 165.645 23.7155C165.645 23.6528 165.645 23.5901 165.645 23.4647V23.402V23.3393V23.2767C165.645 23.1513 165.645 23.0259 165.645 22.9005V22.7752V22.6498C165.645 22.5871 165.645 22.4617 165.645 22.399C165.645 22.3363 165.645 22.211 165.645 22.1483C165.645 22.0856 165.645 22.0856 165.645 22.0229C165.645 21.9602 165.645 21.9602 165.645 21.8975C165.582 21.5841 165.582 21.3333 165.519 21.0199C165.519 20.8945 165.457 20.7691 165.457 20.5811C165.457 20.4557 165.394 20.3303 165.394 20.2049C165.331 19.9542 165.269 19.7034 165.206 19.5154C165.206 19.4527 165.206 19.39 165.143 19.3273C165.143 19.2646 165.143 19.2019 165.081 19.2019C165.081 19.0766 165.018 19.0139 165.018 18.9512C165.018 18.8885 164.955 18.7631 164.955 18.7004C164.955 18.6378 164.892 18.5751 164.892 18.5124C164.892 18.4497 164.83 18.3243 164.83 18.2616C164.83 18.1989 164.704 18.1362 164.642 18.1362L158.937 19.7661C158.874 19.7661 158.812 19.8915 158.812 19.9542C158.812 20.0169 158.812 20.0169 158.812 20.0796C158.812 20.1423 158.812 20.1423 158.812 20.2049C158.812 20.2676 158.812 20.3303 158.812 20.393C158.812 20.4557 158.812 20.5184 158.812 20.5811C158.812 20.6438 158.812 20.6438 158.812 20.7064C158.812 20.7691 158.812 20.7691 158.812 20.8318C158.812 20.9572 158.874 21.1453 158.874 21.3333C158.874 21.396 158.874 21.5214 158.874 21.5841C158.874 21.6468 158.874 21.7722 158.874 21.8348C158.874 22.0229 158.874 22.2109 158.874 22.399V22.4617V22.5244C158.874 22.5871 158.874 22.5871 158.874 22.6498C158.874 22.7125 158.874 22.7125 158.874 22.7752V22.8378V22.9005C158.874 23.0259 158.874 23.1513 158.874 23.2767V23.3393C158.874 23.3393 158.874 23.214 158.874 23.2767V23.3393C158.874 23.402 158.874 23.4647 158.874 23.4647C158.874 23.5274 158.874 23.5901 158.874 23.5901C158.874 23.6528 158.874 23.7155 158.874 23.7155C158.874 23.8409 158.874 23.9035 158.812 23.9662C158.812 24.0289 158.812 24.1543 158.749 24.217C158.749 24.2797 158.749 24.4051 158.686 24.4678C158.686 24.5304 158.686 24.6558 158.624 24.7185C158.624 24.7812 158.624 24.8439 158.561 24.9692C158.561 25.0319 158.498 25.0946 158.498 25.1573C158.498 25.22 158.498 25.22 158.498 25.22V25.2827C158.498 25.2827 158.498 25.2827 158.498 25.3454H165.457C165.519 25.3454 165.645 25.2827 165.645 25.1573C165.645 25.0319 165.645 24.9066 165.645 24.7812C165.645 24.6558 165.645 24.5304 165.645 24.3424C165.645 24.217 165.645 24.0289 165.645 23.9035C165.645 24.0916 165.645 24.0289 165.645 23.9662Z" fill="white"/>
<path d="M163.827 16.631C163.89 16.5683 163.952 16.5057 163.89 16.3803C163.89 16.3176 163.827 16.3176 163.827 16.2549C163.827 16.1922 163.764 16.1295 163.764 16.0668C163.702 16.0041 163.702 15.8788 163.639 15.8161C163.576 15.7534 163.576 15.628 163.514 15.5653C163.514 15.5027 163.451 15.5026 163.451 15.44C163.451 15.3773 163.388 15.3146 163.388 15.3146C163.326 15.1892 163.263 15.1265 163.2 15.0011C163.137 14.8758 163.075 14.8131 163.012 14.6877C162.949 14.625 162.949 14.5623 162.887 14.4996C162.824 14.4369 162.824 14.3743 162.761 14.3116C162.699 14.1862 162.636 14.0608 162.573 13.9354C162.448 13.6847 162.26 13.4966 162.072 13.2459C162.009 13.1832 162.009 13.1205 161.946 13.0578L161.884 12.9951L161.821 12.9324C161.758 12.8071 161.633 12.6817 161.57 12.5563C161.508 12.4309 161.382 12.3055 161.32 12.2429C161.257 12.1802 161.257 12.1175 161.194 12.0548C161.131 11.9921 161.069 11.9294 161.069 11.8667C161.006 11.804 160.943 11.7414 160.943 11.6787C160.881 11.616 160.818 11.5533 160.818 11.4906C160.693 11.3652 160.63 11.3025 160.505 11.1772C160.379 11.0518 160.317 10.9891 160.191 10.8637C160.128 10.801 160.003 10.6757 159.94 10.613C159.878 10.5503 159.752 10.4249 159.69 10.3622C159.627 10.2995 159.502 10.2368 159.439 10.1115C159.376 10.0488 159.251 9.9861 159.188 9.92341C159.125 9.86072 159.063 9.79802 159 9.73533C158.937 9.67264 158.875 9.60996 158.812 9.54728C158.749 9.48459 158.687 9.48458 158.624 9.42189C158.561 9.3592 158.499 9.29653 158.436 9.29653C158.373 9.23384 158.248 9.23384 158.185 9.29653L155.113 12.9951C155.051 13.0578 155.051 13.1832 155.113 13.2459L155.176 13.3086C155.239 13.3713 155.239 13.3712 155.301 13.4339C155.364 13.4966 155.364 13.4966 155.427 13.5593C155.49 13.622 155.49 13.622 155.552 13.6847C155.615 13.7474 155.678 13.8101 155.678 13.8728C155.74 13.9354 155.803 13.9981 155.866 14.0608C155.928 14.1235 155.991 14.1862 156.054 14.2489C156.116 14.3116 156.179 14.3743 156.242 14.4369C156.304 14.4996 156.367 14.5623 156.43 14.6877C156.493 14.7504 156.555 14.8758 156.618 14.9385C156.618 15.0011 156.681 15.0011 156.681 15.0638C156.681 15.1265 156.743 15.1265 156.743 15.1892C156.743 15.2519 156.806 15.2519 156.806 15.3146C156.806 15.3773 156.869 15.3773 156.869 15.44C156.931 15.5026 156.994 15.628 157.057 15.6907C157.119 15.7534 157.182 15.8788 157.182 15.9415L157.245 16.0041L157.308 16.0668C157.308 16.1295 157.37 16.1295 157.37 16.1922C157.496 16.3803 157.558 16.5683 157.621 16.6937C157.684 16.7564 157.684 16.8818 157.746 16.9445C157.746 17.0072 157.809 17.0072 157.809 17.0698C157.809 17.1325 157.872 17.1325 157.872 17.1952C157.934 17.2579 157.934 17.3833 157.997 17.446C157.997 17.5087 158.06 17.5714 158.06 17.6967C158.06 17.7594 158.06 17.7594 158.122 17.8221C158.122 17.8848 158.122 17.8848 158.185 17.9475C158.185 18.0102 158.248 18.0728 158.248 18.1355C158.248 18.1982 158.311 18.2609 158.311 18.2609C158.311 18.3236 158.373 18.3863 158.373 18.449C158.373 18.5117 158.436 18.5744 158.436 18.5744C158.499 18.6997 158.561 18.6997 158.687 18.6997L163.827 16.631Z" fill="white"/>
<path d="M148.218 9.98675C148.28 9.98675 148.343 9.98675 148.343 9.98675C148.406 9.98675 148.468 9.98675 148.531 10.0494C148.594 10.0494 148.657 10.0494 148.719 10.1121C148.782 10.1121 148.845 10.1121 148.907 10.1748L150.851 6.22546C150.725 6.22546 150.663 6.22548 150.537 6.16279C150.474 6.16279 150.412 6.16279 150.349 6.16279C150.286 6.16279 150.224 6.16279 150.161 6.16279C150.036 6.16279 149.91 6.16279 149.785 6.1001C149.66 6.1001 149.534 6.1001 149.471 6.1001C149.346 6.1001 149.283 6.1001 149.158 6.1001C149.033 6.1001 148.97 6.1001 148.907 6.1001C148.845 6.1001 148.719 6.1001 148.656 6.1001C148.594 6.1001 148.531 6.1001 148.468 6.1001C148.406 6.1001 148.28 6.1001 148.218 6.1001C148.092 6.1001 148.03 6.16278 148.03 6.28815L147.842 9.98675C147.842 10.0494 147.904 10.1748 147.967 10.1748C148.155 9.98676 148.218 9.98675 148.218 9.98675Z" fill="white"/>
<path d="M153.421 12.0552C153.484 12.1179 153.547 12.1179 153.547 12.1806C153.609 12.2433 153.609 12.2433 153.672 12.2433L153.735 12.306L153.797 12.3687C153.86 12.4313 153.86 12.4313 153.923 12.4313C153.986 12.494 154.111 12.494 154.174 12.3687L156.681 8.54467C156.744 8.48199 156.681 8.35661 156.618 8.29392C156.556 8.29392 156.556 8.23123 156.493 8.23123C156.493 8.23123 156.43 8.23123 156.43 8.16854L156.368 8.10585C156.305 8.04316 156.242 8.04317 156.117 7.98048C156.054 7.9178 155.929 7.91779 155.866 7.8551C155.803 7.79241 155.678 7.79242 155.615 7.72974C155.49 7.66705 155.427 7.60435 155.302 7.60435C155.177 7.54166 155.114 7.47897 154.989 7.47897C154.863 7.41628 154.738 7.3536 154.612 7.3536C154.487 7.29092 154.362 7.22822 154.236 7.22822C154.174 7.22822 154.174 7.22822 154.111 7.16553L153.045 11.8671C153.108 11.9298 153.171 11.9298 153.233 11.9925C153.296 11.9298 153.359 11.9925 153.421 12.0552Z" fill="white"/>
<path d="M144.832 9.98656C144.895 9.98656 144.958 9.98656 144.958 9.98656C145.02 9.98656 145.083 9.98656 145.083 9.98656C145.146 9.98656 145.271 9.98656 145.334 9.98656C145.396 9.98656 145.522 9.98656 145.584 9.98656C145.647 9.98656 145.647 9.98656 145.71 9.98656C145.773 9.98656 145.773 9.98656 145.835 9.98656C145.898 9.98656 145.961 9.98656 146.023 9.98656C146.086 9.98656 146.149 9.98656 146.211 9.98656C146.274 9.98656 146.337 9.98656 146.399 9.98656C146.462 9.98656 146.525 9.98656 146.587 9.98656C146.713 9.98656 146.776 9.92388 146.776 9.7985L146.525 6.35065C146.525 6.22528 146.399 6.1626 146.337 6.1626C146.274 6.1626 146.211 6.1626 146.211 6.1626C146.149 6.1626 146.086 6.1626 146.023 6.1626C145.961 6.1626 145.835 6.16258 145.773 6.22527C145.71 6.22527 145.584 6.22527 145.459 6.28796C145.396 6.28796 145.334 6.28796 145.334 6.28796C145.271 6.28796 145.208 6.28796 145.208 6.28796C145.083 6.28796 145.02 6.35065 144.895 6.35065C144.77 6.35065 144.644 6.41335 144.581 6.41335C144.519 6.41335 144.456 6.41335 144.393 6.47604C144.331 6.47604 144.268 6.47602 144.205 6.53871C144.08 6.6014 143.955 6.60141 143.829 6.66409C143.704 6.72678 143.578 6.72679 143.453 6.78948C143.39 6.78948 143.328 6.85215 143.265 6.85215C143.202 6.85215 143.14 6.91484 143.077 6.91484C143.014 6.91484 142.952 6.97754 142.889 6.97754C142.826 6.97754 142.763 7.04023 142.701 7.04023C142.575 7.10292 142.45 7.16559 142.325 7.16559C142.199 7.22828 142.074 7.29098 141.949 7.35367C141.886 7.35367 141.823 7.41636 141.76 7.41636C141.698 7.41636 141.635 7.47903 141.572 7.47903C141.51 7.47903 141.447 7.54172 141.384 7.54172C141.322 7.54172 141.259 7.60442 141.196 7.60442C141.071 7.6671 140.946 7.72979 140.82 7.79247C140.695 7.85516 140.569 7.91786 140.507 7.98055C140.381 8.04324 140.319 8.10592 140.193 8.16861C140.068 8.23129 140.005 8.29399 139.88 8.35668C139.754 8.41937 139.692 8.48205 139.629 8.54474C139.566 8.60743 139.441 8.67011 139.378 8.7328C139.316 8.79548 139.253 8.85818 139.128 8.85818C139.065 8.92087 139.002 8.92087 138.94 8.98356C138.877 9.04625 138.814 9.04624 138.751 9.10893C138.689 9.17162 138.626 9.17162 138.563 9.23431C138.501 9.297 138.501 9.42237 138.501 9.48506L139.943 11.6165C140.005 11.6791 140.068 11.7418 140.193 11.6791C140.256 11.6791 140.256 11.6165 140.319 11.6165C140.381 11.6165 140.381 11.5538 140.444 11.5538C140.507 11.5538 140.569 11.4911 140.632 11.4911C140.695 11.4284 140.757 11.4284 140.82 11.3657C140.883 11.303 140.946 11.303 141.008 11.2403C141.071 11.1776 141.134 11.1776 141.259 11.115C141.322 11.0523 141.447 11.0523 141.51 10.9896C141.572 10.9269 141.698 10.9269 141.76 10.8642C141.823 10.8015 141.949 10.8015 142.074 10.7388C142.199 10.6761 142.262 10.6761 142.387 10.6134C142.45 10.6134 142.513 10.5508 142.513 10.5508C142.575 10.5508 142.638 10.4881 142.638 10.4881C142.701 10.4881 142.764 10.4254 142.764 10.4254C142.826 10.4254 142.889 10.4254 142.952 10.3627C143.077 10.3627 143.14 10.3 143.265 10.3C143.39 10.3 143.453 10.2373 143.578 10.2373C143.641 10.2373 143.704 10.2373 143.767 10.1746C143.829 10.1746 143.892 10.1746 143.955 10.1119C144.017 10.1119 144.08 10.1119 144.143 10.0492C144.205 10.0492 144.268 10.0492 144.331 10.0492C144.456 10.0492 144.519 9.98656 144.644 9.98656C144.644 9.98656 144.77 9.98656 144.832 9.98656Z" fill="white"/>
<path d="M134.991 12.7447C134.928 12.8074 134.928 12.8701 134.865 12.9328C134.803 12.9955 134.803 13.0581 134.74 13.1208C134.677 13.1835 134.677 13.2462 134.614 13.3089C134.552 13.4343 134.489 13.5597 134.426 13.6223C134.364 13.7477 134.301 13.8731 134.238 13.9358L134.176 13.9985L134.113 14.0611C134.05 14.1238 134.05 14.1865 133.988 14.2492C133.862 14.5 133.737 14.688 133.611 14.9388C133.549 15.0642 133.486 15.1895 133.423 15.2522C133.423 15.3149 133.361 15.3776 133.361 15.4403C133.361 15.503 133.298 15.5657 133.298 15.6283C133.235 15.7537 133.235 15.8164 133.173 15.9418C133.11 16.0672 133.11 16.1299 133.047 16.2552C132.985 16.3179 132.985 16.4433 132.922 16.506C132.859 16.5687 132.859 16.6941 132.859 16.7567C132.859 16.8194 132.797 16.8821 132.797 16.9448C132.797 17.0075 132.734 17.0702 132.734 17.1329C132.734 17.1956 132.671 17.2582 132.671 17.3209C132.671 17.3836 132.671 17.509 132.797 17.5717L134.113 18.0732C134.176 18.1359 134.301 18.0732 134.364 18.0105C134.364 17.9478 134.426 17.9478 134.426 17.8851C134.426 17.8224 134.489 17.7598 134.489 17.7598C134.489 17.6971 134.552 17.6344 134.552 17.5717C134.614 17.509 134.614 17.4463 134.677 17.3836C134.74 17.3209 134.74 17.2583 134.803 17.1329C134.865 17.0702 134.865 17.0075 134.928 16.8821C134.991 16.8194 135.053 16.694 135.053 16.6314C135.053 16.5687 135.116 16.5687 135.116 16.506C135.116 16.4433 135.179 16.4433 135.179 16.3806C135.241 16.3179 135.304 16.1926 135.367 16.1299C135.492 15.9418 135.617 15.7537 135.743 15.5657C135.806 15.503 135.806 15.503 135.868 15.4403L135.931 15.3776L135.994 15.3149C136.056 15.2522 136.119 15.1268 136.182 15.0642C136.244 15.0015 136.307 14.8761 136.432 14.8134C136.495 14.7507 136.495 14.7507 136.558 14.688C136.621 14.6253 136.621 14.6253 136.683 14.5627C136.746 14.5 136.746 14.5 136.809 14.4373C136.871 14.3746 136.871 14.3746 136.934 14.3119C136.997 14.2492 137.059 14.1238 137.185 14.0611C137.247 13.9985 137.31 13.9358 137.435 13.8104C137.498 13.7477 137.561 13.685 137.686 13.6223C137.749 13.5597 137.812 13.497 137.874 13.4343C137.937 13.3716 138 13.3089 138.062 13.2462C138.125 13.1835 138.188 13.1208 138.25 13.0581C138.313 12.9955 138.376 12.9955 138.438 12.9328C138.501 12.8701 138.564 12.8701 138.564 12.8074L138.627 12.7447L138.689 12.682C138.752 12.6193 138.752 12.6193 138.815 12.5566C138.877 12.4939 138.877 12.3686 138.815 12.3059L137.31 10.4879C137.247 10.4252 137.122 10.4252 137.059 10.4879C136.997 10.4879 136.997 10.5506 136.934 10.6133L136.871 10.676L136.809 10.7387C136.746 10.8014 136.683 10.8641 136.621 10.9267C136.558 10.9894 136.495 11.0521 136.432 11.1148C136.37 11.1775 136.307 11.2402 136.244 11.3029C136.182 11.3656 136.119 11.4282 136.056 11.5536C135.994 11.6163 135.931 11.7417 135.806 11.8044C135.743 11.8671 135.68 11.9924 135.555 12.0551C135.492 12.1805 135.429 12.2432 135.304 12.3686C135.241 12.494 135.179 12.5566 135.053 12.682C135.116 12.6193 135.053 12.682 134.991 12.7447Z" fill="white"/>
<path d="M132.232 19.0137C132.232 19.0764 132.232 19.1391 132.232 19.1391C132.232 19.2018 132.232 19.2645 132.17 19.3272C132.17 19.3898 132.17 19.4525 132.107 19.5779C132.107 19.6406 132.107 19.766 132.044 19.8287C132.044 19.8913 132.044 19.8913 132.044 19.954C132.044 20.0167 132.044 20.0167 132.044 20.0794C132.044 20.2675 131.982 20.4555 131.982 20.7063C131.982 20.8317 131.982 20.957 131.919 21.0197C131.919 21.1451 131.919 21.2705 131.919 21.3959C131.919 21.6466 131.919 21.8974 131.919 22.1481V22.2735V22.3988C131.919 22.4615 131.919 22.5243 131.919 22.5869C131.919 22.6496 131.919 22.7123 131.919 22.775V22.9004V23.0257C131.919 23.1511 131.919 23.2765 131.919 23.4019V23.5273V23.5899C131.919 23.6526 131.919 23.7153 131.919 23.778C131.919 23.8407 131.919 23.9034 131.919 23.966C131.919 24.0287 131.919 24.0915 131.919 24.1541C131.919 24.2168 131.919 24.2795 131.919 24.3422V24.4049V24.4676C131.919 24.593 131.919 24.7183 131.982 24.8437C131.982 24.9691 132.044 25.0945 132.044 25.1571C132.044 25.2825 132.107 25.3452 132.107 25.4706C132.107 25.5333 132.17 25.596 132.295 25.596H132.797C132.922 25.596 132.985 25.5333 132.985 25.4079V25.3452C132.985 25.2198 132.985 25.1571 132.985 25.0318C132.985 24.9064 132.985 24.8437 132.985 24.7183C132.985 24.5929 132.985 24.4676 132.985 24.4049V24.3422V24.2795C132.985 24.2168 132.985 24.1541 132.985 24.0914C132.985 24.0287 132.985 23.9661 132.985 23.9034C132.985 23.8407 132.985 23.778 132.985 23.7153C132.985 23.6526 132.985 23.59 132.985 23.5273V23.4646V23.4019C132.985 23.2765 132.985 23.1511 132.985 23.0257V22.9631V22.9004C132.985 22.8377 132.985 22.775 132.985 22.7123C132.985 22.6496 132.985 22.5869 132.985 22.5242V22.4616V22.3988C133.047 22.1481 133.047 21.96 133.11 21.7093C133.11 21.5839 133.173 21.5212 133.173 21.3959C133.173 21.2705 133.235 21.2078 133.235 21.0824C133.298 20.8943 133.361 20.7063 133.361 20.5182C133.361 20.4555 133.361 20.4555 133.423 20.3928C133.423 20.3302 133.423 20.3302 133.486 20.2675C133.486 20.2048 133.549 20.1421 133.549 20.0794C133.549 20.0167 133.611 19.954 133.611 19.8913C133.611 19.8287 133.674 19.766 133.674 19.7033C133.674 19.6406 133.737 19.5779 133.737 19.5779C133.8 19.4525 133.737 19.3898 133.611 19.3272L132.42 19.0137C132.358 18.8256 132.295 18.8883 132.232 19.0137Z" fill="white"/>
<path d="M145.647 25.1571C146.023 25.3451 146.462 25.4078 146.838 25.4078C147.841 25.4078 148.844 24.8436 149.283 23.9033C149.346 23.7153 149.471 23.5272 149.471 23.3391L152.23 11.3657L153.295 6.78947L153.922 3.96851C153.985 3.65506 153.734 3.4043 153.483 3.4043C153.358 3.4043 153.17 3.467 153.107 3.65506L151.791 6.35065L149.847 10.3627L144.394 21.5212C143.767 22.8376 144.331 24.4675 145.647 25.1571ZM146.964 21.2704C147.716 21.2704 148.28 21.8973 148.28 22.5869C148.28 23.3391 147.653 23.9033 146.964 23.9033C146.212 23.9033 145.647 23.2764 145.647 22.5869C145.647 21.8973 146.212 21.2704 146.964 21.2704Z" fill="white"/>
</svg>
