<svg width="179" height="29" viewBox="0 0 179 29" fill="none" xmlns="http://www.w3.org/2000/svg">
<path d="M12.4577 9.9442C12.1005 8.15816 10.627 5.8363 6.78697 5.8363C3.79534 5.8363 1.27256 7.97955 1.27256 10.7926C1.27256 13.1814 2.90232 14.8112 5.42511 15.3247L7.63534 15.7712C8.86324 16.0168 9.55534 16.7312 9.55534 17.6465C9.55534 18.7628 8.63999 19.5888 6.9879 19.5888C4.75534 19.5888 3.66139 18.1823 3.52744 16.6195L0.669767 17.3786C0.915348 19.6335 2.76837 22.3349 6.96557 22.3349C10.6493 22.3349 12.6809 19.8791 12.6809 17.4456C12.6809 15.213 11.1405 13.3377 8.26045 12.7795L6.05023 12.3554C4.8893 12.1321 4.33116 11.44 4.33116 10.5693C4.33116 9.52002 5.31348 8.56002 6.80929 8.56002C8.81859 8.56002 9.53301 9.92188 9.68929 10.7926L12.4577 9.9442ZM20.9825 11.0158L18.5937 18.0707L16.5621 11.0158H13.4365L16.9416 22H19.9556L22.4783 14.4986L25.0458 22H28.0151L31.4532 11.0158H28.5062L26.4746 18.093L24.1081 11.0158H20.9825ZM36.2768 22V11.0158H33.3075V22H36.2768ZM32.9502 7.42141C32.9502 8.40374 33.7763 9.22978 34.7809 9.22978C35.8079 9.22978 36.6116 8.40374 36.6116 7.42141C36.6116 6.39444 35.8079 5.56839 34.7809 5.56839C33.7763 5.56839 32.9502 6.39444 32.9502 7.42141ZM44.5459 8.29211C45.0371 8.29211 45.3273 8.35909 45.4836 8.40374V5.90328C45.238 5.79165 44.6352 5.68002 44.0101 5.68002C41.5766 5.68002 40.0138 7.28746 40.0138 9.7656V11.0158H38.1831V13.5609H40.0138V22H43.0055V13.5609H45.4836V11.0158H43.0055V9.81025C43.0055 8.58234 43.8762 8.29211 44.5459 8.29211ZM51.5546 7.73397H48.8755V9.27443C48.8755 10.2568 48.3397 11.0158 47.1788 11.0158H46.6206V13.6502H48.6076V18.7628C48.6076 20.8837 49.9471 22.1563 52.0904 22.1563C52.9611 22.1563 53.4969 22 53.7648 21.8884V19.4326C53.6085 19.4772 53.2067 19.5219 52.8495 19.5219C52.0011 19.5219 51.5546 19.2093 51.5546 18.2493V13.6502H53.7648V11.0158H51.5546V7.73397ZM68.0989 9.09583V6.17118H54.9938V9.09583H59.9947V22H63.0979V9.09583H68.0989ZM75.1286 10.9712C74.9054 10.9489 74.6821 10.9265 74.4365 10.9265C73.4989 10.9265 71.9807 11.1944 71.311 12.6456V11.0158H68.431V22H71.4003V16.9768C71.4003 14.6102 72.7175 13.8735 74.2356 13.8735C74.5035 13.8735 74.7937 13.8958 75.1286 13.9628V10.9712ZM76.6129 19.0084C76.6129 20.7274 78.0418 22.3126 80.3859 22.3126C82.0157 22.3126 83.065 21.5535 83.6231 20.6828C83.6231 21.107 83.6678 21.7098 83.7348 22H86.4585C86.3915 21.6205 86.3245 20.8391 86.3245 20.2586V14.8558C86.3245 12.6456 85.0297 10.6809 81.5469 10.6809C78.5999 10.6809 77.0148 12.5786 76.8362 14.2977L79.4706 14.8558C79.5599 13.8958 80.2743 13.0698 81.5692 13.0698C82.8194 13.0698 83.4222 13.7172 83.4222 14.4986C83.4222 14.8781 83.2213 15.1907 82.5962 15.28L79.8948 15.6819C78.0641 15.9498 76.6129 17.0437 76.6129 19.0084ZM81.0111 20.1023C80.0511 20.1023 79.5822 19.4772 79.5822 18.8298C79.5822 17.9814 80.185 17.5572 80.9441 17.4456L83.4222 17.0661V17.5572C83.4222 19.4995 82.2613 20.1023 81.0111 20.1023ZM99.7446 5.8363H96.82V12.1098C96.5074 11.5293 95.6144 10.7479 93.7167 10.7479C90.6135 10.7479 88.4479 13.2707 88.4479 16.4856C88.4479 19.8121 90.6805 22.2679 93.806 22.2679C95.2795 22.2679 96.3958 21.5981 96.887 20.7274C96.887 21.2409 96.9539 21.7767 96.9986 22H99.8339C99.7893 21.5535 99.7446 20.7498 99.7446 20.013V5.8363ZM91.4395 16.4856C91.4395 14.5209 92.6451 13.4047 94.1633 13.4047C95.6814 13.4047 96.8646 14.4986 96.8646 16.4633C96.8646 18.4502 95.6814 19.6112 94.1633 19.6112C92.6005 19.6112 91.4395 18.4502 91.4395 16.4856ZM105.131 15.2577C105.198 14.253 106.047 13.0921 107.587 13.0921C109.284 13.0921 109.998 14.1637 110.043 15.2577H105.131ZM110.333 18.1154C109.976 19.0977 109.217 19.7898 107.833 19.7898C106.359 19.7898 105.131 18.7405 105.064 17.2893H112.923C112.923 17.2447 112.968 16.7981 112.968 16.374C112.968 12.8465 110.936 10.6809 107.543 10.6809C104.73 10.6809 102.14 12.9582 102.14 16.4633C102.14 20.1693 104.796 22.3349 107.81 22.3349C110.512 22.3349 112.253 20.7498 112.811 18.8521L110.333 18.1154ZM114.368 18.9414C114.502 20.1916 115.641 22.3349 118.945 22.3349C121.825 22.3349 123.209 20.5042 123.209 18.7181C123.209 17.1107 122.115 15.7935 119.95 15.347L118.387 15.0121C117.784 14.9005 117.382 14.5656 117.382 14.0298C117.382 13.4047 118.007 12.9358 118.789 12.9358C120.039 12.9358 120.508 13.7619 120.597 14.4093L123.075 13.8512C122.941 12.6679 121.892 10.6809 118.766 10.6809C116.4 10.6809 114.658 12.3107 114.658 14.2754C114.658 15.8158 115.618 17.0884 117.739 17.5572L119.191 17.8921C120.039 18.0707 120.374 18.4726 120.374 18.9637C120.374 19.5442 119.905 20.0577 118.923 20.0577C117.628 20.0577 116.98 19.254 116.913 18.3833L114.368 18.9414Z" fill="white"/>
<path d="M177.118 9.1046H162.159C161.104 9.1046 160.545 7.8581 161.245 7.06957C161.477 6.80853 161.81 6.65918 162.159 6.65918H177.118C178.003 6.65918 178.595 7.56992 178.236 8.37848C178.04 8.82004 177.602 9.1046 177.118 9.1046Z" fill="white"/>
<path d="M170.597 13.9952H162.17C160.88 13.9952 160.47 12.2559 161.624 11.6789C161.793 11.594 161.981 11.5498 162.17 11.5498H170.597C171.927 11.5498 172.301 13.3726 171.079 13.8964C170.927 13.9616 170.763 13.9952 170.597 13.9952Z" fill="white"/>
<path d="M161.542 23.3731C161.542 23.312 161.542 23.2509 161.542 23.1286C161.542 23.0675 161.542 23.0063 161.542 22.884V22.8229V22.7617V22.7006C161.542 22.5784 161.542 22.4561 161.542 22.3338V22.2116V22.0893C161.542 22.0281 161.542 21.9059 161.542 21.8447C161.542 21.7836 161.542 21.6613 161.542 21.6002C161.542 21.5391 161.542 21.5391 161.542 21.4779C161.542 21.4168 161.542 21.4168 161.542 21.3556C161.481 21.05 161.481 20.8054 161.42 20.4997C161.42 20.3775 161.359 20.2552 161.359 20.0718C161.359 19.9495 161.298 19.8273 161.298 19.705C161.237 19.4604 161.175 19.2159 161.114 19.0325C161.114 18.9714 161.114 18.9102 161.053 18.8491C161.053 18.788 161.053 18.7268 160.992 18.7268C160.992 18.6045 160.931 18.5434 160.931 18.4823C160.931 18.4211 160.87 18.2989 160.87 18.2377C160.87 18.1766 160.809 18.1155 160.809 18.0543C160.809 17.9932 160.747 17.8709 160.747 17.8098C160.747 17.7486 160.625 17.6875 160.564 17.6875L155.001 19.277C154.94 19.277 154.878 19.3993 154.878 19.4604C154.878 19.5216 154.878 19.5216 154.878 19.5827C154.878 19.6438 154.878 19.6439 154.878 19.705C154.878 19.7661 154.878 19.8273 154.878 19.8884C154.878 19.9495 154.878 20.0107 154.878 20.0718C154.878 20.1329 154.878 20.1329 154.878 20.1941C154.878 20.2552 154.878 20.2552 154.878 20.3163C154.878 20.4386 154.94 20.622 154.94 20.8054C154.94 20.8666 154.94 20.9888 154.94 21.05C154.94 21.1111 154.94 21.2334 154.94 21.2945C154.94 21.4779 154.94 21.6613 154.94 21.8447V21.9059V21.967C154.94 22.0281 154.94 22.0281 154.94 22.0893C154.94 22.1504 154.94 22.1504 154.94 22.2116V22.2727V22.3338C154.94 22.4561 154.94 22.5784 154.94 22.7006V22.7617C154.94 22.7617 154.94 22.6395 154.94 22.7006V22.7617C154.94 22.8229 154.94 22.884 154.94 22.884C154.94 22.9452 154.94 23.0063 154.94 23.0063C154.94 23.0674 154.94 23.1286 154.94 23.1286C154.94 23.2509 154.94 23.312 154.878 23.3731C154.878 23.4342 154.878 23.5565 154.817 23.6177C154.817 23.6788 154.817 23.8011 154.756 23.8622C154.756 23.9234 154.756 24.0456 154.695 24.1067C154.695 24.1679 154.695 24.229 154.634 24.3513C154.634 24.4124 154.573 24.4736 154.573 24.5347C154.573 24.5958 154.573 24.5958 154.573 24.5958V24.657C154.573 24.657 154.573 24.657 154.573 24.7181H161.359C161.42 24.7181 161.542 24.657 161.542 24.5347C161.542 24.4124 161.542 24.2902 161.542 24.1679C161.542 24.0456 161.542 23.9233 161.542 23.7399C161.542 23.6177 161.542 23.4343 161.542 23.312C161.542 23.4954 161.542 23.4342 161.542 23.3731Z" fill="white"/>
<path d="M159.77 16.2192C159.831 16.1581 159.892 16.0969 159.831 15.9747C159.831 15.9135 159.77 15.9135 159.77 15.8524C159.77 15.7913 159.709 15.7301 159.709 15.669C159.647 15.6079 159.647 15.4856 159.586 15.4245C159.525 15.3633 159.525 15.2411 159.464 15.1799C159.464 15.1188 159.403 15.1188 159.403 15.0576C159.403 14.9965 159.342 14.9354 159.342 14.9354C159.281 14.8131 159.22 14.752 159.158 14.6297C159.097 14.5074 159.036 14.4463 158.975 14.324C158.914 14.2629 158.914 14.2017 158.853 14.1406C158.792 14.0795 158.792 14.0183 158.73 13.9572C158.669 13.8349 158.608 13.7127 158.547 13.5904C158.425 13.3458 158.241 13.1624 158.058 12.9179C157.997 12.8568 157.997 12.7956 157.936 12.7345L157.875 12.6734L157.813 12.6122C157.752 12.4899 157.63 12.3677 157.569 12.2454C157.508 12.1231 157.385 12.0009 157.324 11.9397C157.263 11.8786 157.263 11.8175 157.202 11.7563C157.141 11.6952 157.08 11.634 157.08 11.5729C157.019 11.5118 156.958 11.4506 156.958 11.3895C156.896 11.3284 156.835 11.2672 156.835 11.2061C156.713 11.0838 156.652 11.0227 156.53 10.9004C156.407 10.7782 156.346 10.717 156.224 10.5948C156.163 10.5336 156.04 10.4113 155.979 10.3502C155.918 10.2891 155.796 10.1668 155.735 10.1057C155.674 10.0445 155.551 9.98339 155.49 9.86112C155.429 9.79998 155.307 9.73885 155.246 9.67772C155.185 9.61658 155.123 9.55543 155.062 9.4943C155.001 9.43316 154.94 9.37203 154.879 9.3109C154.818 9.24976 154.757 9.24976 154.696 9.18862C154.634 9.12748 154.573 9.06636 154.512 9.06636C154.451 9.00522 154.329 9.00522 154.268 9.06636L151.272 12.6734C151.211 12.7345 151.211 12.8568 151.272 12.9179L151.333 12.979C151.394 13.0402 151.394 13.0402 151.455 13.1013C151.516 13.1624 151.516 13.1624 151.578 13.2236C151.639 13.2847 151.639 13.2847 151.7 13.3459C151.761 13.407 151.822 13.4681 151.822 13.5293C151.883 13.5904 151.944 13.6515 152.006 13.7127C152.067 13.7738 152.128 13.8349 152.189 13.8961C152.25 13.9572 152.311 14.0183 152.372 14.0795C152.433 14.1406 152.495 14.2017 152.556 14.324C152.617 14.3851 152.678 14.5074 152.739 14.5686C152.739 14.6297 152.8 14.6297 152.8 14.6908C152.8 14.752 152.861 14.752 152.861 14.8131C152.861 14.8742 152.923 14.8742 152.923 14.9354C152.923 14.9965 152.984 14.9965 152.984 15.0576C153.045 15.1188 153.106 15.241 153.167 15.3022C153.228 15.3633 153.289 15.4856 153.289 15.5467L153.351 15.6079L153.412 15.669C153.412 15.7301 153.473 15.7301 153.473 15.7913C153.595 15.9747 153.656 16.1581 153.717 16.2804C153.778 16.3415 153.778 16.4638 153.84 16.5249C153.84 16.586 153.901 16.586 153.901 16.6472C153.901 16.7083 153.962 16.7083 153.962 16.7694C154.023 16.8306 154.023 16.9529 154.084 17.014C154.084 17.0751 154.145 17.1363 154.145 17.2585C154.145 17.3197 154.145 17.3197 154.206 17.3808C154.206 17.4419 154.206 17.4419 154.268 17.5031C154.268 17.5642 154.329 17.6253 154.329 17.6865C154.329 17.7476 154.39 17.8087 154.39 17.8087C154.39 17.8699 154.451 17.931 154.451 17.9921C154.451 18.0533 154.512 18.1144 154.512 18.1144C154.573 18.2367 154.634 18.2367 154.757 18.2367L159.77 16.2192Z" fill="white"/>
<path d="M144.547 9.73962C144.608 9.73962 144.669 9.73962 144.669 9.73962C144.73 9.73962 144.792 9.73962 144.853 9.80076C144.914 9.80076 144.975 9.80076 145.036 9.8619C145.097 9.8619 145.158 9.8619 145.219 9.92303L147.115 6.07148C146.992 6.07148 146.931 6.07149 146.809 6.01036C146.748 6.01036 146.687 6.01036 146.626 6.01036C146.564 6.01036 146.503 6.01036 146.442 6.01036C146.32 6.01036 146.198 6.01035 146.075 5.94922C145.953 5.94922 145.831 5.94922 145.77 5.94922C145.647 5.94922 145.586 5.94922 145.464 5.94922C145.342 5.94922 145.281 5.94922 145.219 5.94922C145.158 5.94922 145.036 5.94922 144.975 5.94922C144.914 5.94922 144.853 5.94922 144.792 5.94922C144.73 5.94922 144.608 5.94922 144.547 5.94922C144.425 5.94922 144.364 6.01035 144.364 6.13262L144.18 9.73962C144.18 9.80075 144.241 9.92303 144.302 9.92303C144.486 9.73963 144.547 9.73962 144.547 9.73962Z" fill="white"/>
<path d="M149.622 11.7569C149.683 11.818 149.744 11.818 149.744 11.8791C149.805 11.9403 149.805 11.9403 149.866 11.9403L149.927 12.0014L149.989 12.0626C150.05 12.1237 150.05 12.1237 150.111 12.1237C150.172 12.1848 150.294 12.1848 150.355 12.0626L152.801 8.33327C152.862 8.27214 152.801 8.14987 152.74 8.08873C152.678 8.08873 152.678 8.02759 152.617 8.02759C152.617 8.02759 152.556 8.02759 152.556 7.96646L152.495 7.90532C152.434 7.84418 152.373 7.84419 152.251 7.78306C152.189 7.72192 152.067 7.72191 152.006 7.66078C151.945 7.59964 151.823 7.59965 151.761 7.53852C151.639 7.47738 151.578 7.41624 151.456 7.41624C151.334 7.3551 151.272 7.29396 151.15 7.29396C151.028 7.23282 150.906 7.1717 150.783 7.1717C150.661 7.11056 150.539 7.04942 150.416 7.04942C150.355 7.04942 150.355 7.04942 150.294 6.98828L149.255 11.5735C149.316 11.6346 149.377 11.6346 149.438 11.6957C149.499 11.6346 149.561 11.6957 149.622 11.7569Z" fill="white"/>
<path d="M141.245 9.73902C141.306 9.73902 141.368 9.73902 141.368 9.73902C141.429 9.73902 141.49 9.73902 141.49 9.73902C141.551 9.73902 141.673 9.73902 141.734 9.73902C141.795 9.73902 141.918 9.73902 141.979 9.73902C142.04 9.73902 142.04 9.73902 142.101 9.73902C142.162 9.73902 142.162 9.73902 142.223 9.73902C142.285 9.73902 142.346 9.73902 142.407 9.73902C142.468 9.73902 142.529 9.73902 142.59 9.73902C142.651 9.73902 142.712 9.73902 142.774 9.73902C142.835 9.73902 142.896 9.73902 142.957 9.73902C143.079 9.73902 143.14 9.6779 143.14 9.55562L142.896 6.19317C142.896 6.07089 142.774 6.00977 142.713 6.00977C142.651 6.00977 142.59 6.00977 142.59 6.00977C142.529 6.00977 142.468 6.00977 142.407 6.00977C142.346 6.00977 142.223 6.00975 142.162 6.07089C142.101 6.07089 141.979 6.07089 141.857 6.13203C141.795 6.13203 141.734 6.13203 141.734 6.13203C141.673 6.13203 141.612 6.13203 141.612 6.13203C141.49 6.13203 141.429 6.19317 141.306 6.19317C141.184 6.19317 141.062 6.2543 141.001 6.2543C140.94 6.2543 140.878 6.25431 140.817 6.31544C140.756 6.31544 140.695 6.31543 140.634 6.37656C140.512 6.4377 140.389 6.43771 140.267 6.49884C140.145 6.55998 140.023 6.55999 139.9 6.62112C139.839 6.62112 139.778 6.68224 139.717 6.68224C139.656 6.68224 139.595 6.74338 139.533 6.74338C139.472 6.74338 139.411 6.80452 139.35 6.80452C139.289 6.80452 139.228 6.86566 139.167 6.86566C139.044 6.9268 138.922 6.98792 138.8 6.98792C138.678 7.04906 138.555 7.1102 138.433 7.17134C138.372 7.17134 138.311 7.23248 138.25 7.23248C138.188 7.23248 138.127 7.2936 138.066 7.2936C138.005 7.2936 137.944 7.35474 137.883 7.35474C137.822 7.35474 137.761 7.41588 137.699 7.41588C137.577 7.47701 137.455 7.53814 137.333 7.59928C137.21 7.66041 137.088 7.72156 137.027 7.7827C136.905 7.84383 136.843 7.90496 136.721 7.96609C136.599 8.02723 136.538 8.08838 136.416 8.14951C136.293 8.21065 136.232 8.27178 136.171 8.33291C136.11 8.39405 135.988 8.45518 135.926 8.51631C135.865 8.57745 135.804 8.63859 135.682 8.63859C135.621 8.69973 135.56 8.69973 135.498 8.76087C135.437 8.822 135.376 8.82199 135.315 8.88313C135.254 8.94426 135.193 8.94427 135.132 9.00541C135.071 9.06654 135.071 9.18881 135.071 9.24995L136.477 11.3286C136.538 11.3897 136.599 11.4508 136.721 11.3897C136.782 11.3897 136.782 11.3286 136.843 11.3286C136.905 11.3286 136.905 11.2674 136.966 11.2674C137.027 11.2674 137.088 11.2063 137.149 11.2063C137.21 11.1452 137.271 11.1452 137.333 11.084C137.394 11.0229 137.455 11.0229 137.516 10.9617C137.577 10.9006 137.638 10.9006 137.761 10.8395C137.822 10.7783 137.944 10.7783 138.005 10.7172C138.066 10.6561 138.188 10.6561 138.25 10.5949C138.311 10.5338 138.433 10.5338 138.555 10.4727C138.678 10.4115 138.739 10.4115 138.861 10.3504C138.922 10.3504 138.983 10.2893 138.983 10.2893C139.044 10.2893 139.105 10.2281 139.105 10.2281C139.167 10.2281 139.228 10.167 139.228 10.167C139.289 10.167 139.35 10.167 139.411 10.1058C139.533 10.1058 139.595 10.0447 139.717 10.0447C139.839 10.0447 139.9 9.98358 140.023 9.98358C140.084 9.98358 140.145 9.98358 140.206 9.92244C140.267 9.92244 140.328 9.92244 140.389 9.8613C140.45 9.8613 140.512 9.8613 140.573 9.80016C140.634 9.80016 140.695 9.80016 140.756 9.80016C140.878 9.80016 140.94 9.73902 141.062 9.73902C141.062 9.73902 141.184 9.73902 141.245 9.73902Z" fill="white"/>
<path d="M131.647 12.4294C131.586 12.4905 131.586 12.5516 131.525 12.6128C131.464 12.6739 131.464 12.735 131.403 12.7962C131.342 12.8573 131.342 12.9184 131.28 12.9796C131.219 13.1018 131.158 13.2241 131.097 13.2852C131.036 13.4075 130.975 13.5298 130.914 13.5909L130.853 13.6521L130.791 13.7132C130.73 13.7743 130.73 13.8355 130.669 13.8966C130.547 14.1411 130.425 14.3246 130.302 14.5691C130.241 14.6914 130.18 14.8136 130.119 14.8748C130.119 14.9359 130.058 14.997 130.058 15.0582C130.058 15.1193 129.997 15.1804 129.997 15.2416C129.935 15.3638 129.936 15.425 129.874 15.5473C129.813 15.6695 129.813 15.7307 129.752 15.8529C129.691 15.9141 129.691 16.0364 129.63 16.0975C129.569 16.1586 129.569 16.2809 129.569 16.342C129.569 16.4032 129.508 16.4643 129.508 16.5254C129.508 16.5866 129.446 16.6477 129.446 16.7088C129.446 16.77 129.385 16.8311 129.385 16.8922C129.385 16.9534 129.385 17.0757 129.508 17.1368L130.791 17.6259C130.853 17.687 130.975 17.6259 131.036 17.5647C131.036 17.5036 131.097 17.5036 131.097 17.4425C131.097 17.3813 131.158 17.3202 131.158 17.3202C131.158 17.2591 131.219 17.1979 131.219 17.1368C131.28 17.0757 131.28 17.0145 131.342 16.9534C131.403 16.8923 131.403 16.8311 131.464 16.7088C131.525 16.6477 131.525 16.5866 131.586 16.4643C131.647 16.4032 131.708 16.2809 131.708 16.2198C131.708 16.1586 131.77 16.1586 131.77 16.0975C131.77 16.0364 131.831 16.0363 131.831 15.9752C131.892 15.9141 131.953 15.7918 132.014 15.7307C132.136 15.5473 132.259 15.3639 132.381 15.1805C132.442 15.1193 132.442 15.1193 132.503 15.0582L132.564 14.997L132.625 14.9359C132.687 14.8748 132.748 14.7525 132.809 14.6914C132.87 14.6302 132.931 14.508 133.053 14.4468C133.115 14.3857 133.115 14.3857 133.176 14.3245C133.237 14.2634 133.237 14.2634 133.298 14.2023C133.359 14.1411 133.359 14.1411 133.42 14.08C133.481 14.0189 133.481 14.0189 133.543 13.9577C133.604 13.8966 133.665 13.7743 133.787 13.7132C133.848 13.6521 133.909 13.5909 134.032 13.4686C134.093 13.4075 134.154 13.3464 134.276 13.2852C134.337 13.2241 134.398 13.163 134.46 13.1018C134.521 13.0407 134.582 12.9796 134.643 12.9184C134.704 12.8573 134.765 12.7962 134.826 12.735C134.887 12.6739 134.949 12.6739 135.01 12.6128C135.071 12.5516 135.132 12.5516 135.132 12.4905L135.193 12.4294L135.254 12.3682C135.315 12.3071 135.315 12.3071 135.377 12.2459C135.438 12.1848 135.438 12.0625 135.377 12.0014L133.909 10.2285C133.848 10.1673 133.726 10.1673 133.665 10.2285C133.604 10.2285 133.604 10.2896 133.543 10.3507L133.481 10.4119L133.42 10.473C133.359 10.5341 133.298 10.5953 133.237 10.6564C133.176 10.7175 133.115 10.7787 133.053 10.8398C132.992 10.901 132.931 10.9621 132.87 11.0232C132.809 11.0844 132.748 11.1455 132.687 11.2678C132.625 11.3289 132.564 11.4512 132.442 11.5123C132.381 11.5735 132.32 11.6957 132.198 11.7569C132.136 11.8791 132.075 11.9403 131.953 12.0625C131.892 12.1848 131.831 12.2459 131.708 12.3682C131.77 12.3071 131.708 12.3682 131.647 12.4294Z" fill="white"/>
<path d="M128.958 18.5435C128.958 18.6046 128.958 18.6657 128.958 18.6657C128.958 18.7269 128.958 18.788 128.896 18.8492C128.896 18.9103 128.896 18.9714 128.835 19.0937C128.835 19.1548 128.835 19.2771 128.774 19.3382C128.774 19.3994 128.774 19.3994 128.774 19.4605C128.774 19.5217 128.774 19.5216 128.774 19.5828C128.774 19.7662 128.713 19.9496 128.713 20.1941C128.713 20.3164 128.713 20.4387 128.652 20.4998C128.652 20.6221 128.652 20.7444 128.652 20.8666C128.652 21.1112 128.652 21.3557 128.652 21.6003V21.7225V21.8448C128.652 21.9059 128.652 21.9671 128.652 22.0282C128.652 22.0894 128.652 22.1505 128.652 22.2116V22.3339V22.4561C128.652 22.5784 128.652 22.7007 128.652 22.823V22.9453V23.0064C128.652 23.0675 128.652 23.1286 128.652 23.1898C128.652 23.2509 128.652 23.312 128.652 23.3732C128.652 23.4343 128.652 23.4955 128.652 23.5566C128.652 23.6178 128.652 23.6789 128.652 23.74V23.8011V23.8623C128.652 23.9846 128.652 24.1068 128.713 24.2291C128.713 24.3514 128.774 24.4736 128.774 24.5348C128.774 24.657 128.835 24.7182 128.835 24.8405C128.835 24.9016 128.896 24.9627 129.019 24.9627H129.508C129.63 24.9627 129.691 24.9016 129.691 24.7793V24.7182C129.691 24.5959 129.691 24.5348 129.691 24.4125C129.691 24.2902 129.691 24.2291 129.691 24.1068C129.691 23.9845 129.691 23.8623 129.691 23.8011V23.74V23.6789C129.691 23.6177 129.691 23.5566 129.691 23.4955C129.691 23.4343 129.691 23.3732 129.691 23.3121C129.691 23.2509 129.691 23.1898 129.691 23.1287C129.691 23.0675 129.691 23.0064 129.691 22.9453V22.8841V22.823C129.691 22.7007 129.691 22.5784 129.691 22.4561V22.395V22.3339C129.691 22.2728 129.691 22.2116 129.691 22.1505C129.691 22.0893 129.691 22.0282 129.691 21.9671V21.9059V21.8448C129.752 21.6002 129.752 21.4169 129.813 21.1723C129.813 21.05 129.875 20.9889 129.875 20.8666C129.875 20.7444 129.936 20.6832 129.936 20.561C129.997 20.3775 130.058 20.1941 130.058 20.0107C130.058 19.9496 130.058 19.9496 130.119 19.8885C130.119 19.8273 130.119 19.8273 130.18 19.7662C130.18 19.7051 130.241 19.6439 130.241 19.5828C130.241 19.5216 130.302 19.4605 130.302 19.3994C130.302 19.3382 130.364 19.2771 130.364 19.216C130.364 19.1548 130.425 19.0937 130.425 19.0937C130.486 18.9714 130.425 18.9103 130.302 18.8492L129.141 18.5435C129.08 18.3601 129.019 18.4212 128.958 18.5435Z" fill="white"/>
<path d="M142.04 24.5344C142.407 24.7178 142.835 24.7789 143.202 24.7789C144.18 24.7789 145.158 24.2287 145.586 23.3117C145.647 23.1283 145.769 22.9448 145.769 22.7614L148.459 11.0845L149.499 6.62165L150.11 3.87055C150.171 3.56487 149.927 3.32031 149.682 3.32031C149.56 3.32031 149.376 3.38146 149.315 3.56487L148.031 6.19369L146.136 10.1064L140.817 20.9885C140.206 22.2724 140.756 23.8619 142.04 24.5344ZM143.324 20.744C144.058 20.744 144.608 21.3553 144.608 22.0278C144.608 22.7615 143.996 23.3117 143.324 23.3117C142.59 23.3117 142.04 22.7003 142.04 22.0278C142.04 21.3553 142.59 20.744 143.324 20.744Z" fill="white"/>
</svg>
