<svg width="20" height="20" viewBox="0 0 20 20" fill="none" xmlns="http://www.w3.org/2000/svg">
<path d="M9.99 0C4.47 0 0 4.48 0 10C0 15.52 4.47 20 9.99 20C15.52 20 20 15.52 20 10C20 4.48 15.52 0 9.99 0ZM13.22 15.39L10 13.45L6.78 15.39C6.4 15.62 5.93 15.28 6.03 14.85L6.88 11.19L4.05 8.74C3.72 8.45 3.9 7.9 4.34 7.86L8.08 7.54L9.54 4.09C9.71 3.68 10.29 3.68 10.46 4.09L11.92 7.53L15.66 7.85C16.1 7.89 16.28 8.44 15.94 8.73L13.11 11.18L13.96 14.85C14.06 15.28 13.6 15.62 13.22 15.39Z" fill="#0066F5"/>
</svg>
