<svg width="25" height="25" viewBox="0 0 25 25" fill="none" xmlns="http://www.w3.org/2000/svg">
<circle cx="12.0928" cy="12.8379" r="12" fill="#0066F5"/>
<path d="M9.32477 17.8379V14.2399H8.23277V13.3439H9.32477V12.1959H8.23277V11.2999H9.32477V7.84189H10.7808L12.1108 11.2999H13.7628V7.84189H14.8688V11.2999H15.9608V12.1959H14.8688V13.3439H15.9608V14.2399H14.8688V17.8379H13.3988L12.0688 14.2399H10.4168V17.8379H9.32477ZM10.3888 11.2999H10.9768L10.3888 9.56389H10.3328L10.3888 11.2999ZM10.4168 13.3439H11.7328L11.3128 12.1959H10.3888L10.4168 13.3439ZM12.8528 13.3439H13.7908L13.7628 12.1959H12.4328L12.8528 13.3439ZM13.7628 15.8639H13.8188L13.7768 14.2399H13.1888L13.7628 15.8639Z" fill="white"/>
</svg>
