<svg width="24" height="24" viewBox="0 0 24 24" fill="none" xmlns="http://www.w3.org/2000/svg">
<circle cx="12" cy="12" r="12" fill="#6FD26E"/>
<path d="M9.232 17V13.402H8.14V12.506H9.232V11.358H8.14V10.462H9.232V7.004H10.688L12.018 10.462H13.67V7.004H14.776V10.462H15.868V11.358H14.776V12.506H15.868V13.402H14.776V17H13.306L11.976 13.402H10.324V17H9.232ZM10.296 10.462H10.884L10.296 8.726H10.24L10.296 10.462ZM10.324 12.506H11.64L11.22 11.358H10.296L10.324 12.506ZM12.76 12.506H13.698L13.67 11.358H12.34L12.76 12.506ZM13.67 15.026H13.726L13.684 13.402H13.096L13.67 15.026Z" fill="white"/>
</svg>
