<svg xmlns="http://www.w3.org/2000/svg" width="29.334" height="31.567" viewBox="0 0 29.334 31.567"><defs><style>.a{fill:#353190;}</style></defs><path class="a" d="M47.2,31.567a.762.762,0,0,1-.705-.456l-.373-.884c-1.276-3.019-2.778-4.307-5.021-4.307H38.247a4.317,4.317,0,0,0-2.277.591.78.78,0,0,1-1.048-.235.714.714,0,0,1,.244-1.006,5.92,5.92,0,0,1,3.08-.811H41.1c3.787,0,5.484,2.978,6.431,5.219l.373.884a.721.721,0,0,1-.419.952A.789.789,0,0,1,47.2,31.567Zm-12.759,0a.762.762,0,0,1-.705-.456l-.373-.884c-1.276-3.019-2.778-4.307-5.021-4.307H25.489c-2.243,0-3.745,1.288-5.021,4.307l-.373.883a.772.772,0,0,1-.991.4.721.721,0,0,1-.419-.952l.373-.884c.947-2.24,2.644-5.219,6.431-5.219h2.854c3.787,0,5.484,2.978,6.431,5.219l.373.884a.721.721,0,0,1-.419.952A.789.789,0,0,1,34.442,31.567Zm5.232-8.516a4.194,4.194,0,0,1-4.272-4.1,4.136,4.136,0,0,1,3.073-3.937L38.5,15a4.446,4.446,0,0,1,1.171-.156,4.2,4.2,0,0,1,4.242,3.613,3.956,3.956,0,0,1,.03.489A4.2,4.2,0,0,1,39.674,23.051Zm-1.5-6.314a2.617,2.617,0,0,0-1.25,2.212,2.7,2.7,0,0,0,2.75,2.641,2.729,2.729,0,0,0,2.7-2.12q-.083,0-.165,0A4.248,4.248,0,0,1,38.174,16.737Zm1.458-.428a2.738,2.738,0,0,0,2.573,1.7h.04A2.761,2.761,0,0,0,39.632,16.309ZM26.915,23.051a4.105,4.105,0,1,1-.015-8.2h.032a4.194,4.194,0,0,1,4.251,3.695.705.705,0,0,1,0,.171c0,.078.007.157.007.236A4.2,4.2,0,0,1,26.915,23.051Zm-1.486-6.323a2.617,2.617,0,0,0-1.264,2.221,2.7,2.7,0,0,0,2.75,2.641,2.729,2.729,0,0,0,2.7-2.12l-.148,0A4.247,4.247,0,0,1,25.429,16.728Zm1.461-.419a2.738,2.738,0,0,0,2.573,1.7h.022a2.754,2.754,0,0,0-2.571-1.7Zm12.353-2.743a.769.769,0,0,1-.634-.326,4.457,4.457,0,0,0-3.887-2.166H31.868a4.457,4.457,0,0,0-3.887,2.166.781.781,0,0,1-1.055.2.713.713,0,0,1-.212-1.013,6.023,6.023,0,0,1,5.154-2.818h2.854a6.023,6.023,0,0,1,5.154,2.818.713.713,0,0,1-.212,1.013A.78.78,0,0,1,39.243,13.566ZM33.295,8.2a4.194,4.194,0,0,1-4.272-4.1A4.194,4.194,0,0,1,33.295,0h.017a4.2,4.2,0,0,1,4.251,3.694.706.706,0,0,1,0,.171c0,.078.007.157.007.236A4.194,4.194,0,0,1,33.295,8.2ZM31.809,1.881A2.618,2.618,0,0,0,30.545,4.1a2.7,2.7,0,0,0,2.75,2.641,2.729,2.729,0,0,0,2.7-2.12l-.148,0A4.247,4.247,0,0,1,31.809,1.881Zm1.461-.419a2.738,2.738,0,0,0,2.573,1.7h.023a2.753,2.753,0,0,0-2.562-1.7Z" transform="translate(-18.628)"/></svg>