<svg xmlns="http://www.w3.org/2000/svg" width="20" height="20" viewBox="0 0 20 20"><defs><style>.a{fill:#a3abb7;}</style></defs><g transform="translate(0 -4.659)"><g transform="translate(0 4.659)"><path class="a" d="M19.65,11.519a1.569,1.569,0,0,0-1.17-.573H17.261L12.556,5.012a.864.864,0,0,0-1.195-.175.911.911,0,0,0-.171,1.222c0,.025.024.025.024.05l3.876,4.837H4.657L8.509,6.109A.88.88,0,0,0,8.46,4.887a.834.834,0,0,0-1.195.05l-.073.075L2.487,10.971H1.512A1.537,1.537,0,0,0,0,12.517a1.241,1.241,0,0,0,.024.3l1.95,10.048a2.184,2.184,0,0,0,2.145,1.8H15.871a2.184,2.184,0,0,0,2.145-1.8l1.95-10.048A1.571,1.571,0,0,0,19.65,11.519ZM7.46,19.672a.854.854,0,1,1-1.707,0v-3.54a.854.854,0,1,1,1.707,0Zm3.389,0a.854.854,0,1,1-1.707,0v-3.54a.854.854,0,1,1,1.707,0Zm3.364,0a.854.854,0,1,1-1.707,0v-3.54a.854.854,0,1,1,1.707,0Z" transform="translate(0 -4.659)"/></g></g></svg>