<svg width="18" height="18" viewBox="0 0 18 18" fill="none" xmlns="http://www.w3.org/2000/svg">
<path d="M8.99976 2.25C8.58726 2.25 8.24976 2.5875 8.24976 3V9C8.24976 9.4125 8.58726 9.75 8.99976 9.75C9.41226 9.75 9.74976 9.4125 9.74976 9V3C9.74976 2.5875 9.41226 2.25 8.99976 2.25ZM12.8548 4.395C12.5623 4.6875 12.5698 5.145 12.8473 5.4375C13.6948 6.3375 14.2198 7.5375 14.2498 8.865C14.3173 11.7375 11.9398 14.2125 9.06726 14.2425C6.13476 14.2875 3.74976 11.925 3.74976 9C3.74976 7.62 4.28226 6.3675 5.15226 5.43C5.42976 5.1375 5.42976 4.68 5.14476 4.395C4.84476 4.095 4.35726 4.1025 4.07226 4.41C2.98476 5.565 2.30226 7.1025 2.24976 8.805C2.14476 12.465 5.12226 15.63 8.78226 15.7425C12.6073 15.8625 15.7498 12.795 15.7498 8.9925C15.7498 7.215 15.0598 5.61 13.9348 4.41C13.6498 4.1025 13.1548 4.095 12.8548 4.395Z" fill="#E82127"/>
</svg>
