<svg width="17" height="10" viewBox="0 0 17 10" fill="none" xmlns="http://www.w3.org/2000/svg">
<path d="M12.3398 1.42292L13.4798 2.56292L9.61646 6.42625L7.01187 3.82167C6.70312 3.51292 6.20437 3.51292 5.89562 3.82167L1.14562 8.57958C0.836875 8.88833 0.836875 9.38708 1.14562 9.69583C1.45437 10.0046 1.95312 10.0046 2.26187 9.69583L6.44979 5.5L9.05437 8.10458C9.36312 8.41333 9.86187 8.41333 10.1706 8.10458L14.596 3.68708L15.736 4.82708C15.9815 5.0725 16.409 4.89833 16.409 4.55V1.14583C16.4169 0.924167 16.2427 0.75 16.021 0.75H12.6248C12.2685 0.75 12.0944 1.1775 12.3398 1.42292Z" fill="white"/>
</svg>
