<svg width="24" height="24" viewBox="0 0 24 24" fill="none" xmlns="http://www.w3.org/2000/svg">
<path d="M10.053 2.86099C10.1592 2.42239 10.4098 2.03223 10.7644 1.75319C11.1191 1.47416 11.5572 1.32245 12.0085 1.32245C12.4598 1.32245 12.8979 1.47416 13.2526 1.75319C13.6073 2.03223 13.8578 2.42239 13.964 2.86099C14.0389 3.16831 14.1853 3.45364 14.3911 3.69384C14.5969 3.93405 14.8564 4.12237 15.1486 4.24354C15.4408 4.3647 15.7575 4.4153 16.0729 4.39123C16.3883 4.36716 16.6936 4.26909 16.964 4.10499C17.3494 3.86972 17.8028 3.77087 18.2512 3.82433C18.6995 3.87779 19.1169 4.08046 19.4362 4.39977C19.7555 4.71907 19.9582 5.13645 20.0117 5.58484C20.0651 6.03322 19.9663 6.48656 19.731 6.87199C19.5669 7.14235 19.4688 7.44757 19.4447 7.76292C19.4205 8.07827 19.471 8.39486 19.5921 8.68705C19.7132 8.97923 19.9014 9.23878 20.1415 9.44465C20.3816 9.65052 20.6668 9.79692 20.974 9.87199C21.4126 9.97818 21.8028 10.2287 22.0818 10.5834C22.3608 10.9381 22.5125 11.3762 22.5125 11.8275C22.5125 12.2788 22.3608 12.7169 22.0818 13.0716C21.8028 13.4262 21.4126 13.6768 20.974 13.783C20.6667 13.8579 20.3814 14.0042 20.1411 14.2101C19.9009 14.4159 19.7126 14.6754 19.5915 14.9676C19.4703 15.2598 19.4197 15.5765 19.4438 15.8919C19.4678 16.2073 19.5659 16.5126 19.73 16.783C19.9653 17.1684 20.0641 17.6218 20.0107 18.0701C19.9572 18.5185 19.7545 18.9359 19.4352 19.2552C19.1159 19.5745 18.6985 19.7772 18.2502 19.8306C17.8018 19.8841 17.3484 19.7853 16.963 19.55C16.6926 19.3859 16.3874 19.2878 16.0721 19.2637C15.7567 19.2395 15.4401 19.29 15.1479 19.4111C14.8558 19.5322 14.5962 19.7204 14.3903 19.9604C14.1845 20.2005 14.0381 20.4858 13.963 20.793C13.8568 21.2316 13.6063 21.6218 13.2516 21.9008C12.8969 22.1798 12.4588 22.3315 12.0075 22.3315C11.5562 22.3315 11.1181 22.1798 10.7634 21.9008C10.4088 21.6218 10.1582 21.2316 10.052 20.793C9.97706 20.4857 9.83075 20.2003 9.62493 19.9601C9.41911 19.7199 9.15958 19.5316 8.86738 19.4104C8.57518 19.2893 8.25854 19.2387 7.94313 19.2628C7.62773 19.2868 7.32243 19.3849 7.052 19.549C6.66658 19.7843 6.21324 19.8831 5.76485 19.8296C5.31647 19.7762 4.89908 19.5735 4.57978 19.2542C4.26048 18.9349 4.05781 18.5175 4.00435 18.0691C3.95088 17.6208 4.04973 17.1674 4.285 16.782C4.44911 16.5116 4.54721 16.2064 4.57134 15.8911C4.59547 15.5757 4.54496 15.2591 4.4239 14.9669C4.30284 14.6748 4.11464 14.4152 3.87455 14.2093C3.63446 14.0035 3.34924 13.8571 3.042 13.782C2.60341 13.6758 2.21324 13.4252 1.93421 13.0706C1.65517 12.7159 1.50346 12.2778 1.50346 11.8265C1.50346 11.3752 1.65517 10.9371 1.93421 10.5824C2.21324 10.2277 2.60341 9.97718 3.042 9.87099C3.34932 9.79604 3.63465 9.64973 3.87486 9.44391C4.11507 9.23809 4.30339 8.97856 4.42455 8.68636C4.54572 8.39416 4.59631 8.07752 4.57224 7.76212C4.54817 7.44671 4.45011 7.14142 4.286 6.87099C4.05192 6.48574 3.95392 6.03307 4.00771 5.5855C4.06151 5.13792 4.26397 4.72136 4.58267 4.40255C4.90137 4.08373 5.31786 3.88112 5.76541 3.82717C6.21296 3.77321 6.66567 3.87105 7.051 4.10499C7.32132 4.26932 7.62657 4.3676 7.94198 4.39184C8.25739 4.41608 8.57408 4.36561 8.86633 4.24452C9.15858 4.12344 9.41816 3.93514 9.62399 3.69493C9.82983 3.45471 9.97613 3.16934 10.051 2.86199L10.053 2.86099Z" stroke="white" stroke-width="1.5" stroke-linecap="round" stroke-linejoin="round"/>
<path d="M12.278 15.519C14.1779 15.519 15.718 13.9789 15.718 12.079C15.718 10.1792 14.1779 8.63904 12.278 8.63904C10.3781 8.63904 8.838 10.1792 8.838 12.079C8.838 13.9789 10.3781 15.519 12.278 15.519Z" stroke="white" stroke-width="1.5" stroke-linecap="round" stroke-linejoin="round"/>
</svg>
