<svg xmlns="http://www.w3.org/2000/svg" width="20" height="20" viewBox="0 0 20 20"><defs><style>.a{fill:#a3abb7;}</style></defs><path class="a" d="M2.857,40a2.857,2.857,0,1,0,2.857,2.857A2.86,2.86,0,0,0,2.857,40Z" transform="translate(0 -25.714)"/><path class="a" d="M22.857,40a2.857,2.857,0,1,0,2.857,2.857A2.86,2.86,0,0,0,22.857,40Z" transform="translate(-12.857 -25.714)"/><path class="a" d="M42.857,40a2.857,2.857,0,1,0,2.857,2.857A2.86,2.86,0,0,0,42.857,40Z" transform="translate(-25.714 -25.714)"/><path class="a" d="M2.857,20a2.857,2.857,0,1,0,2.857,2.857A2.86,2.86,0,0,0,2.857,20Z" transform="translate(0 -12.857)"/><path class="a" d="M22.857,20a2.857,2.857,0,1,0,2.857,2.857A2.86,2.86,0,0,0,22.857,20Z" transform="translate(-12.857 -12.857)"/><path class="a" d="M42.857,20a2.857,2.857,0,1,0,2.857,2.857A2.86,2.86,0,0,0,42.857,20Z" transform="translate(-25.714 -12.857)"/><path class="a" d="M2.857,0A2.857,2.857,0,1,0,5.714,2.857,2.86,2.86,0,0,0,2.857,0Z"/><path class="a" d="M22.857,0a2.857,2.857,0,1,0,2.857,2.857A2.86,2.86,0,0,0,22.857,0Z" transform="translate(-12.857)"/><path class="a" d="M42.857,5.714A2.857,2.857,0,1,0,40,2.857,2.86,2.86,0,0,0,42.857,5.714Z" transform="translate(-25.714)"/></svg>