<svg xmlns="http://www.w3.org/2000/svg" width="27.251" height="28.174" viewBox="0 0 27.251 28.174"><defs><style>.a{fill:#353190;}</style></defs><path class="a" d="M14.626,27.356a2.273,2.273,0,1,0-2.2-2.272A2.238,2.238,0,0,0,14.626,27.356Zm0-3.635a1.364,1.364,0,1,1-1.319,1.363A1.343,1.343,0,0,1,14.626,23.721Zm0-19.994V2.818a1.343,1.343,0,0,1,1.319,1.363h-.879A.448.448,0,0,0,14.626,3.726ZM25.614,16.9V16a1.343,1.343,0,0,1,1.319,1.363h-.879A.448.448,0,0,0,25.614,16.9ZM3.637,20.085a2.581,2.581,0,0,0,1.821-.759l2.2,1.625-2,1.184a1.308,1.308,0,0,0-1.138-.687,1.364,1.364,0,1,0,1.29,1.644l2.639-1.559,2.566,1.895a4.177,4.177,0,0,0-.342,1.655,3.958,3.958,0,1,0,7.912,0,4.181,4.181,0,0,0-.342-1.656l2.566-1.895,2.639,1.559a1.324,1.324,0,1,0,1.29-1.644,1.308,1.308,0,0,0-1.138.687l-2-1.184,2.2-1.625a2.583,2.583,0,0,0,1.821.758,2.728,2.728,0,1,0-2.637-2.726,2.784,2.784,0,0,0,.291,1.239L21.1,20.2l-.283-1.752a1.826,1.826,0,0,0,.844-1.545A1.759,1.759,0,1,0,19.9,18.722c.023,0,.044-.006.066-.007l.334,2.074-2.509,1.853a3.925,3.925,0,0,0-2.726-1.621v-7.5l3.8-2.356a2.115,2.115,0,0,0,1.037.281,2.273,2.273,0,1,0-2.2-2.272,2.3,2.3,0,0,0,.455,1.369l-3.093,1.919V7.325A3.151,3.151,0,0,0,17.7,4.181a3.078,3.078,0,1,0-6.154,0,3.151,3.151,0,0,0,2.637,3.145v3.324L10.919,8.622a1.847,1.847,0,0,0,.19-.806A1.759,1.759,0,1,0,9.351,9.634a1.71,1.71,0,0,0,.985-.313l3.85,2.388v9.312a3.928,3.928,0,0,0-2.726,1.621L8.951,20.789l.334-2.074c.022,0,.043.007.066.007A1.819,1.819,0,1,0,7.593,16.9a1.826,1.826,0,0,0,.844,1.545L8.155,20.2,5.984,18.6a2.789,2.789,0,0,0,.291-1.239,2.686,2.686,0,0,0-2.637-2.726,2.728,2.728,0,0,0,0,5.453Zm.879,3.181a.455.455,0,1,1,.44-.454A.448.448,0,0,1,4.516,23.266Zm20.219-.909a.455.455,0,1,1-.44.454A.448.448,0,0,1,24.735,22.357ZM19.021,16.9a.88.88,0,1,1,.879.909A.9.9,0,0,1,19.021,16.9Zm6.593-1.363a1.819,1.819,0,1,1-1.758,1.818A1.79,1.79,0,0,1,25.614,15.541ZM19.9,7.816a1.364,1.364,0,1,1-1.319,1.363A1.343,1.343,0,0,1,19.9,7.816ZM9.351,8.725a.909.909,0,1,1,.879-.909A.9.9,0,0,1,9.351,8.725Zm3.077-4.544a2.2,2.2,0,1,1,4.4,0,2.2,2.2,0,1,1-4.4,0Zm2.2,17.722a3.183,3.183,0,1,1-3.077,3.181A3.134,3.134,0,0,1,14.626,21.9ZM9.351,16a.909.909,0,1,1-.879.909A.9.9,0,0,1,9.351,16Zm-5.714-.454a1.819,1.819,0,0,1,0,3.635,1.819,1.819,0,0,1,0-3.635ZM3.2,17.359H2.319A1.343,1.343,0,0,1,3.637,16V16.9A.448.448,0,0,0,3.2,17.359Z" transform="translate(-1 -1)"/></svg>