<svg xmlns="http://www.w3.org/2000/svg" width="16.29" height="20" viewBox="0 0 16.29 20"><defs><style>.a{fill:#a3abb7;}</style></defs><path class="a" d="M61.627,18.71H60.355V2.9a.645.645,0,0,0-.645-.645H54.871V.645A.645.645,0,0,0,54.226,0H49.75A.645.645,0,0,0,49.1.645V2.258h-.524a.645.645,0,0,0-.645.645V18.71H46.663a.657.657,0,0,0-.663.614.645.645,0,0,0,.644.676h4.6a.323.323,0,0,0,.323-.323v-3.71H51.3a.657.657,0,0,1-.663-.614.645.645,0,0,1,.644-.676H56.99a.657.657,0,0,1,.663.614.645.645,0,0,1-.644.676h-.282v3.71a.323.323,0,0,0,.323.323h4.6a.645.645,0,0,0,.644-.676A.657.657,0,0,0,61.627,18.71Zm-9.054-5.363h-.726a.645.645,0,1,1,0-1.29h.726a.645.645,0,0,1,0,1.29Zm0-2.419h-.726a.645.645,0,1,1,0-1.29h.726a.645.645,0,0,1,0,1.29Zm0-2.419h-.726a.645.645,0,1,1,0-1.29h.726a.645.645,0,0,1,0,1.29Zm0-2.419h-.726a.645.645,0,1,1,0-1.29h.726a.645.645,0,0,1,0,1.29ZM56.4,13.347h-.726a.645.645,0,1,1,0-1.29H56.4a.645.645,0,0,1,0,1.29Zm0-2.419h-.726a.645.645,0,0,1,0-1.29H56.4a.645.645,0,1,1,0,1.29Zm0-2.419h-.726a.645.645,0,0,1,0-1.29H56.4a.645.645,0,0,1,0,1.29Zm0-2.419h-.726a.645.645,0,0,1,0-1.29H56.4a.645.645,0,0,1,0,1.29ZM52.855,19.677V16.29a.323.323,0,0,1,.323-.323h1.935a.323.323,0,0,1,.323.323v3.387a.323.323,0,0,1-.323.323H53.178A.323.323,0,0,1,52.855,19.677Z" transform="translate(-46)"/></svg>