<svg width="19" height="19" viewBox="0 0 19 19" fill="none" xmlns="http://www.w3.org/2000/svg">
<path d="M11.0833 7.12501H7.91667C7.48125 7.12501 7.125 6.76876 7.125 6.33334C7.125 5.89792 7.48125 5.54167 7.91667 5.54167H11.0833C11.5188 5.54167 11.875 5.89792 11.875 6.33334C11.875 6.76876 11.5188 7.12501 11.0833 7.12501Z" fill="white"/>
<path d="M11.0833 9.50001H7.91667C7.48125 9.50001 7.125 9.14376 7.125 8.70834C7.125 8.27292 7.48125 7.91667 7.91667 7.91667H11.0833C11.5188 7.91667 11.875 8.27292 11.875 8.70834C11.875 9.14376 11.5188 9.50001 11.0833 9.50001Z" fill="white"/>
<path d="M15.4375 2.77084L14.25 1.58334L13.0625 2.77084L11.875 1.58334L10.6875 2.77084L9.5 1.58334L8.3125 2.77084L7.125 1.58334L5.9375 2.77084L4.75 1.58334V12.6667H3.16667C2.73125 12.6667 2.375 13.0229 2.375 13.4583V15.0417C2.375 16.3558 3.43583 17.4167 4.75 17.4167H14.25C15.5642 17.4167 16.625 16.3558 16.625 15.0417V1.58334L15.4375 2.77084ZM11.875 15.8333H4.75C4.31458 15.8333 3.95833 15.4771 3.95833 15.0417V14.25H6.33333H9.5H11.875V15.8333ZM15.0417 15.0417C15.0417 15.4771 14.6854 15.8333 14.25 15.8333C13.8146 15.8333 13.4583 15.4771 13.4583 15.0417V13.4583C13.4583 13.0229 13.1021 12.6667 12.6667 12.6667H11.0833H9.5H6.33333V3.95834H15.0417V15.0417Z" fill="white"/>
<path d="M13.4582 7.12501C13.8954 7.12501 14.2498 6.77056 14.2498 6.33334C14.2498 5.89611 13.8954 5.54167 13.4582 5.54167C13.0209 5.54167 12.6665 5.89611 12.6665 6.33334C12.6665 6.77056 13.0209 7.12501 13.4582 7.12501Z" fill="white"/>
<path d="M13.4582 9.50001C13.8954 9.50001 14.2498 9.14556 14.2498 8.70834C14.2498 8.27111 13.8954 7.91667 13.4582 7.91667C13.0209 7.91667 12.6665 8.27111 12.6665 8.70834C12.6665 9.14556 13.0209 9.50001 13.4582 9.50001Z" fill="white"/>
</svg>
