<svg xmlns="http://www.w3.org/2000/svg" width="27.807" height="28.175" viewBox="0 0 27.807 28.175"><defs><style>.a{fill:#2170ff;}</style></defs><g transform="translate(-5 -22.198)"><path class="a" d="M32.807,71.492c0-.85-.62-1.625-1.841-2.3a15.765,15.765,0,0,0-4.235-1.44,8.868,8.868,0,0,0-2.11-4.008,7.7,7.7,0,0,0-11.433,0,8.868,8.868,0,0,0-2.11,4.008A15.762,15.762,0,0,0,6.84,69.189C5.619,69.868,5,70.643,5,71.492c0,1.333,1.521,2.375,3.75,3.119L5.174,82.42a.9.9,0,0,0,.268,1.1.743.743,0,0,0,1.032-.155l6.2-7.836a38.45,38.45,0,0,0,3.869.4l1.367,10.2a1,1,0,0,0,.958.9.992.992,0,0,0,.957-.895l1.428-10.206a38.411,38.411,0,0,0,3.875-.4l6.2,7.836a.743.743,0,0,0,1.032.155.9.9,0,0,0,.268-1.1L29.057,74.61C31.286,73.867,32.807,72.825,32.807,71.492ZM13.653,64.253a7.1,7.1,0,0,1,5.25-2.33c4.017-.032,7.318,3.442,7.423,7.81a22.8,22.8,0,0,1-6.2,1.21V69.627L21.2,68.392a3.645,3.645,0,0,0,.78-3.156,3.2,3.2,0,0,0-1.862-2.354,3.236,3.236,0,0,0-2.433,0,3.2,3.2,0,0,0-1.861,2.354,3.644,3.644,0,0,0,.777,3.156l1.081,1.235v1.316a22.8,22.8,0,0,1-6.2-1.21,8.361,8.361,0,0,1,2.171-5.48Zm5.315,5.631a.084.084,0,0,1-.128,0l-1.75-1.991a2.881,2.881,0,0,1-.615-2.494,2.458,2.458,0,0,1,1.445-1.838,2.618,2.618,0,0,1,1.969,0A2.458,2.458,0,0,1,21.333,65.4a2.881,2.881,0,0,1-.615,2.494Zm.49.5v.586c-.166,0-.372.007-.554.007s-.388,0-.554-.007v-.586h0a.746.746,0,0,0,.547.265.9.9,0,0,0,.546-.241h.005ZM5.971,82.888a.115.115,0,0,1-.161.025.14.14,0,0,1-.041-.171L9.4,74.813a25.015,25.015,0,0,0,2.5.58Zm13.2,3.133a.311.311,0,0,1-.3.281.315.315,0,0,1-.3-.283L17.091,74.983a2.651,2.651,0,0,1,3.624,0Zm12.868-3.279a.14.14,0,0,1-.041.171.115.115,0,0,1-.161-.025L25.9,75.393a25.022,25.022,0,0,0,2.5-.58Zm-2.97-8.891a29.2,29.2,0,0,1-7.71,1.344l.042-.3a.381.381,0,0,0-.1-.317,3.287,3.287,0,0,0-4.791,0,.381.381,0,0,0-.1.315l.04.3a29.214,29.214,0,0,1-7.7-1.343c-2.778-.977-3.078-1.976-3.078-2.36,0-1.1,2.048-2.251,5.263-2.975A9.912,9.912,0,0,0,10.817,70a.36.36,0,0,0,.229.343,23.365,23.365,0,0,0,15.714,0A.36.36,0,0,0,26.989,70a9.912,9.912,0,0,0-.111-1.478c3.216.723,5.264,1.871,5.264,2.974C32.142,72.3,31.022,73.163,29.068,73.851Z" transform="translate(0 -36.652)"/><path class="a" d="M71.231,226.348a.941.941,0,0,0-.9.977.334.334,0,1,0,.665,0,.234.234,0,1,1,.466,0,.334.334,0,1,0,.665,0A.941.941,0,0,0,71.231,226.348Z" transform="translate(-61.714 -191.849)"/><path class="a" d="M110.023,226.348a.941.941,0,0,0-.9.977.334.334,0,1,0,.665,0,.234.234,0,1,1,.466,0,.334.334,0,1,0,.665,0A.941.941,0,0,0,110.023,226.348Z" transform="translate(-98.357 -191.849)"/><path class="a" d="M350.576,41.947a1.537,1.537,0,0,1,.9,1.024.338.338,0,0,0,.309.256h.009a.335.335,0,0,0,.312-.238,1.524,1.524,0,0,1,.946-.973.358.358,0,0,0,.236-.336.362.362,0,0,0-.219-.349,1.537,1.537,0,0,1-.9-1.024.338.338,0,0,0-.309-.256.334.334,0,0,0-.321.238,1.524,1.524,0,0,1-.946.973.358.358,0,0,0-.236.336.362.362,0,0,0,.219.349Zm1.256-.769a2.256,2.256,0,0,0,.413.473,2.23,2.23,0,0,0-.437.45,2.26,2.26,0,0,0-.413-.473A2.233,2.233,0,0,0,351.832,41.178Z" transform="translate(-326.226 -16.777)"/><path class="a" d="M332.771,412.877a1.477,1.477,0,0,1-1.041-.845.327.327,0,0,0-.344-.2.347.347,0,0,0-.28.293,1.585,1.585,0,0,1-.782,1.133.37.37,0,0,0-.18.375.349.349,0,0,0,.27.3,1.477,1.477,0,0,1,1.041.845.327.327,0,0,0,.344.2.347.347,0,0,0,.28-.293,1.585,1.585,0,0,1,.782-1.133.37.37,0,0,0,.18-.375.349.349,0,0,0-.27-.3Zm-1.118.989a2.158,2.158,0,0,0-.481-.391,2.33,2.33,0,0,0,.361-.523,2.165,2.165,0,0,0,.481.391A2.325,2.325,0,0,0,331.653,413.866Z" transform="translate(-307.13 -366.158)"/><path class="a" d="M42.3,76.988a.358.358,0,0,0-.236.336.362.362,0,0,0,.219.349,1.537,1.537,0,0,1,.9,1.024.338.338,0,0,0,.309.256H43.5a.335.335,0,0,0,.312-.238,1.524,1.524,0,0,1,.946-.973.358.358,0,0,0,.236-.336.362.362,0,0,0-.219-.349,1.537,1.537,0,0,1-.9-1.024.338.338,0,0,0-.309-.256.334.334,0,0,0-.321.237A1.524,1.524,0,0,1,42.3,76.988Zm1.239-.083a2.259,2.259,0,0,0,.413.473,2.231,2.231,0,0,0-.437.45,2.257,2.257,0,0,0-.413-.473A2.232,2.232,0,0,0,43.539,76.9Z" transform="translate(-35.01 -50.351)"/><path class="a" d="M35.223,28.632a.671.671,0,1,0-.615-.669A.644.644,0,0,0,35.223,28.632Zm0-.723a.054.054,0,1,1-.05.054A.052.052,0,0,1,35.223,27.909Z" transform="translate(-27.968 -4.789)"/><path class="a" d="M29.889,59.777a.425.425,0,1,0-.389-.423A.407.407,0,0,0,29.889,59.777Z" transform="translate(-23.143 -34.52)"/><path class="a" d="M118.191,401.238a.593.593,0,0,0-.857.2.705.705,0,0,0,.179.925.608.608,0,0,0,.344.108.688.688,0,0,0,.528-.3A.729.729,0,0,0,118.191,401.238Zm-.305.59a.047.047,0,0,1-.066.011.057.057,0,0,1-.017-.07l.083.059Z" transform="translate(-106.018 -356.1)"/><path class="a" d="M140.359,372.4a.37.37,0,0,0-.538.124.446.446,0,0,0,.114.585.37.37,0,0,0,.538-.124.446.446,0,0,0-.114-.585Z" transform="translate(-127.294 -329.033)"/><path class="a" d="M369.375,391.866a.47.47,0,0,0-.582.028.576.576,0,0,0-.166.607.507.507,0,0,0,.474.369.469.469,0,0,0,.106-.012.527.527,0,0,0,.389-.435.567.567,0,0,0-.22-.557Z" transform="translate(-343.459 -347.312)"/><path class="a" d="M381.269,373.416a.37.37,0,0,0-.538.125.446.446,0,0,0,.115.585.371.371,0,0,0,.538-.125.452.452,0,0,0,.055-.319A.422.422,0,0,0,381.269,373.416Z" transform="translate(-354.859 -329.992)"/><path class="a" d="M475.376,23.475a.6.6,0,0,0,.815-.33.7.7,0,0,0-.3-.887.6.6,0,0,0-.815.33A.694.694,0,0,0,475.376,23.475Zm.277-.657a.053.053,0,0,1,.033.044.056.056,0,0,1-.022.052.046.046,0,0,1-.053,0Z" transform="translate(-443.982)"/><path class="a" d="M468.684,71.991a.37.37,0,0,0,.477-.137.452.452,0,0,0-.03-.536.366.366,0,0,0-.489-.072.442.442,0,0,0-.16.508A.41.41,0,0,0,468.684,71.991Z" transform="translate(-437.785 -46.034)"/><path class="a" d="M438.068,156.221c.322.092.633.19.922.29.377.131.728.27,1.044.414a.323.323,0,0,0,.435-.194.374.374,0,0,0-.178-.473c-.334-.152-.7-.3-1.1-.436-.3-.1-.622-.206-.956-.3a.331.331,0,0,0-.406.258.366.366,0,0,0,.237.441Z" transform="translate(-408.844 -125.279)"/><path class="a" d="M412.337,150.343l.253.056a.334.334,0,0,0,.393-.28.362.362,0,0,0-.257-.428l-.259-.057a.335.335,0,0,0-.391.284A.362.362,0,0,0,412.337,150.343Z" transform="translate(-384.521 -119.751)"/><path class="a" d="M150.454,126.9a.314.314,0,0,0-.469.031,7.041,7.041,0,0,0-1.02,1.7.375.375,0,0,0,.162.48.322.322,0,0,0,.441-.177,6.311,6.311,0,0,1,.914-1.521A.384.384,0,0,0,150.454,126.9Z" transform="translate(-135.961 -98.308)"/><path class="a" d="M179.09,111.753c-.082.067-.164.136-.243.207a.384.384,0,0,0-.046.509.314.314,0,0,0,.468.05c.071-.063.144-.126.217-.185a.383.383,0,0,0,.068-.506.315.315,0,0,0-.465-.074Z" transform="translate(-164.102 -84.092)"/><path class="a" d="M261.16,128.754a.349.349,0,0,0-.28-.313,1.6,1.6,0,0,0-1.406.466,2.451,2.451,0,0,0-.369,1.634.349.349,0,0,0,.28.313,1.654,1.654,0,0,0,.252.017,1.472,1.472,0,0,0,1.155-.483A2.45,2.45,0,0,0,261.16,128.754Zm-.865,1.152a.779.779,0,0,1-.538.238,1.357,1.357,0,0,1,.212-.756.779.779,0,0,1,.538-.238A1.359,1.359,0,0,1,260.3,129.906Z" transform="translate(-240.015 -99.825)"/><path class="a" d="M216.321,130.537a2.45,2.45,0,0,0-.369-1.634,1.6,1.6,0,0,0-1.406-.466.349.349,0,0,0-.28.313,2.45,2.45,0,0,0,.369,1.634,1.471,1.471,0,0,0,1.155.483,1.658,1.658,0,0,0,.252-.017A.349.349,0,0,0,216.321,130.537Zm-1.19-.634a1.349,1.349,0,0,1-.213-.755.77.77,0,0,1,.538.237,1.348,1.348,0,0,1,.213.755A.77.77,0,0,1,215.131,129.9Z" transform="translate(-197.66 -99.821)"/><path class="a" d="M247.658,183h-.333a.363.363,0,0,0,0,.723h.333a.363.363,0,0,0,0-.723Z" transform="translate(-228.588 -151.113)"/></g></svg>