<svg width="15" height="17" viewBox="0 0 15 17" fill="none" xmlns="http://www.w3.org/2000/svg">
<path d="M0.5 1.69189C0.5 2.24189 0.95 2.69189 1.5 2.69189H13.5C14.05 2.69189 14.5 2.24189 14.5 1.69189C14.5 1.14189 14.05 0.691895 13.5 0.691895H1.5C0.95 0.691895 0.5 1.14189 0.5 1.69189ZM2.91 10.6919H4.5V15.6919C4.5 16.2419 4.95 16.6919 5.5 16.6919H9.5C10.05 16.6919 10.5 16.2419 10.5 15.6919V10.6919H12.09C12.98 10.6919 13.43 9.61189 12.8 8.98189L8.21 4.39189C7.82 4.00189 7.19 4.00189 6.8 4.39189L2.21 8.98189C1.58 9.61189 2.02 10.6919 2.91 10.6919Z" fill="#CFD0D7"/>
</svg>
