<svg width="24" height="25" viewBox="0 0 24 25" fill="none" xmlns="http://www.w3.org/2000/svg">
<circle cx="12" cy="12.6919" r="12" fill="white"/>
<g clip-path="url(#clip2)">
<path d="M20 8.69189H4V17.1129H20V8.69189Z" fill="#B22234"/>
<path d="M4 9.66357H20H4ZM20 10.9591H4H20ZM4 12.2547H20H4ZM20 13.5502H4H20ZM4 14.8458H20H4ZM20 16.1413H4H20Z" fill="black"/>
<path d="M20 16.1413H4M4 9.66357H20H4ZM20 10.9591H4H20ZM4 12.2547H20H4ZM20 13.5502H4H20ZM4 14.8458H20H4Z" stroke="white" stroke-width="0.647773"/>
<path d="M10.4 8.69189H4V13.2263H10.4V8.69189Z" fill="#3C3B6E"/>
<path d="M4.53354 8.88574L4.68584 9.35448L4.28711 9.06478H4.77996L4.38124 9.35448L4.53354 8.88574Z" fill="white"/>
<path d="M4.53354 9.66357L4.68584 10.1323L4.28711 9.84261H4.77996L4.38124 10.1323L4.53354 9.66357Z" fill="white"/>
<path d="M5.25717 9.66357L5.40947 10.1323L5.01074 9.84261H5.5036L5.10487 10.1323L5.25717 9.66357Z" fill="white"/>
<path d="M5.9808 9.66357L6.1331 10.1323L5.73438 9.84261H6.22723L5.8285 10.1323L5.9808 9.66357Z" fill="white"/>
<path d="M6.70444 9.66357L6.85674 10.1323L6.45801 9.84261H6.95086L6.55213 10.1323L6.70444 9.66357Z" fill="white"/>
<path d="M7.42807 9.66357L7.58037 10.1323L7.18164 9.84261H7.6745L7.27577 10.1323L7.42807 9.66357Z" fill="white"/>
<path d="M8.1517 9.66357L8.304 10.1323L7.90527 9.84261H8.39813L7.9994 10.1323L8.1517 9.66357Z" fill="white"/>
<path d="M8.87533 9.66357L9.02763 10.1323L8.62891 9.84261H9.12176L8.72303 10.1323L8.87533 9.66357Z" fill="white"/>
<path d="M9.59799 9.66357L9.75029 10.1323L9.35156 9.84261H9.84442L9.44569 10.1323L9.59799 9.66357Z" fill="white"/>
<path d="M4.53354 10.4404L4.68584 10.9092L4.28711 10.6195H4.77996L4.38124 10.9092L4.53354 10.4404Z" fill="white"/>
<path d="M5.25717 10.4404L5.40947 10.9092L5.01074 10.6195H5.5036L5.10487 10.9092L5.25717 10.4404Z" fill="white"/>
<path d="M5.9808 10.4404L6.1331 10.9092L5.73438 10.6195H6.22723L5.8285 10.9092L5.9808 10.4404Z" fill="white"/>
<path d="M6.70444 10.4404L6.85674 10.9092L6.45801 10.6195H6.95086L6.55213 10.9092L6.70444 10.4404Z" fill="white"/>
<path d="M7.42807 10.4404L7.58037 10.9092L7.18164 10.6195H7.6745L7.27577 10.9092L7.42807 10.4404Z" fill="white"/>
<path d="M8.1517 10.4404L8.304 10.9092L7.90527 10.6195H8.39813L7.9994 10.9092L8.1517 10.4404Z" fill="white"/>
<path d="M8.87533 10.4404L9.02763 10.9092L8.62891 10.6195H9.12176L8.72303 10.9092L8.87533 10.4404Z" fill="white"/>
<path d="M9.59799 10.4404L9.75029 10.9092L9.35156 10.6195H9.84442L9.44569 10.9092L9.59799 10.4404Z" fill="white"/>
<path d="M4.53354 11.2183L4.68584 11.687L4.28711 11.3973H4.77996L4.38124 11.687L4.53354 11.2183Z" fill="white"/>
<path d="M5.25717 11.2183L5.40947 11.687L5.01074 11.3973H5.5036L5.10487 11.687L5.25717 11.2183Z" fill="white"/>
<path d="M5.9808 11.2183L6.1331 11.687L5.73438 11.3973H6.22723L5.8285 11.687L5.9808 11.2183Z" fill="white"/>
<path d="M6.70444 11.2183L6.85674 11.687L6.45801 11.3973H6.95086L6.55213 11.687L6.70444 11.2183Z" fill="white"/>
<path d="M7.42807 11.2183L7.58037 11.687L7.18164 11.3973H7.6745L7.27577 11.687L7.42807 11.2183Z" fill="white"/>
<path d="M8.1517 11.2183L8.304 11.687L7.90527 11.3973H8.39813L7.9994 11.687L8.1517 11.2183Z" fill="white"/>
<path d="M8.87533 11.2183L9.02763 11.687L8.62891 11.3973H9.12176L8.72303 11.687L8.87533 11.2183Z" fill="white"/>
<path d="M9.59799 11.2183L9.75029 11.687L9.35156 11.3973H9.84442L9.44569 11.687L9.59799 11.2183Z" fill="white"/>
<path d="M4.53354 11.9951L4.68584 12.4639L4.28711 12.1742H4.77996L4.38124 12.4639L4.53354 11.9951Z" fill="white"/>
<path d="M5.25717 11.9951L5.40947 12.4639L5.01074 12.1742H5.5036L5.10487 12.4639L5.25717 11.9951Z" fill="white"/>
<path d="M5.9808 11.9951L6.1331 12.4639L5.73438 12.1742H6.22723L5.8285 12.4639L5.9808 11.9951Z" fill="white"/>
<path d="M6.70444 11.9951L6.85674 12.4639L6.45801 12.1742H6.95086L6.55213 12.4639L6.70444 11.9951Z" fill="white"/>
<path d="M7.42807 11.9951L7.58037 12.4639L7.18164 12.1742H7.6745L7.27577 12.4639L7.42807 11.9951Z" fill="white"/>
<path d="M8.1517 11.9951L8.304 12.4639L7.90527 12.1742H8.39813L7.9994 12.4639L8.1517 11.9951Z" fill="white"/>
<path d="M8.87533 11.9951L9.02763 12.4639L8.62891 12.1742H9.12176L8.72303 12.4639L8.87533 11.9951Z" fill="white"/>
<path d="M9.59799 11.9951L9.75029 12.4639L9.35156 12.1742H9.84442L9.44569 12.4639L9.59799 11.9951Z" fill="white"/>
<path d="M5.25717 8.88574L5.40947 9.35448L5.01074 9.06478H5.5036L5.10487 9.35448L5.25717 8.88574Z" fill="white"/>
<path d="M5.9808 8.88574L6.1331 9.35448L5.73438 9.06478H6.22723L5.8285 9.35448L5.9808 8.88574Z" fill="white"/>
<path d="M6.70444 8.88574L6.85674 9.35448L6.45801 9.06478H6.95086L6.55213 9.35448L6.70444 8.88574Z" fill="white"/>
<path d="M7.42807 8.88574L7.58037 9.35448L7.18164 9.06478H7.6745L7.27577 9.35448L7.42807 8.88574Z" fill="white"/>
<path d="M8.1517 8.88574L8.304 9.35448L7.90527 9.06478H8.39813L7.9994 9.35448L8.1517 8.88574Z" fill="white"/>
<path d="M8.87533 8.88574L9.02763 9.35448L8.62891 9.06478H9.12176L8.72303 9.35448L8.87533 8.88574Z" fill="white"/>
<path d="M9.59799 8.88574L9.75029 9.35448L9.35156 9.06478H9.84442L9.44569 9.35448L9.59799 8.88574Z" fill="white"/>
</g>
<defs>
<clipPath id="clip2">
<rect width="16" height="8.42105" fill="white" transform="translate(4 8.69189)"/>
</clipPath>
</defs>
</svg>
