<svg xmlns="http://www.w3.org/2000/svg" width="27.111" height="25.829" viewBox="0 0 27.111 25.829"><defs><style>.a{fill:#fd6100;}</style></defs><g transform="translate(0.125 -6.924)"><path class="a" d="M25.685,34.263H41.3a.36.36,0,0,0,.277-.134.415.415,0,0,0,.09-.311l-.754-6.449a1.25,1.25,0,0,0-1.207-1.14H27.278a1.249,1.249,0,0,0-1.206,1.14l-.754,6.449a.415.415,0,0,0,.09.311.36.36,0,0,0,.277.134Zm1.12-6.8a.489.489,0,0,1,.473-.446h12.43a.489.489,0,0,1,.473.446l.7,6H26.1Z" transform="translate(-20.062 -14.937)"/><path class="a" d="M21.867,67.7H20.691a1.042,1.042,0,0,0-1,1.075V69.8a1.043,1.043,0,0,0,1,1.075h1.176a1.043,1.043,0,0,0,1-1.075V68.775A1.042,1.042,0,0,0,21.867,67.7Zm.264,2.1a.274.274,0,0,1-.264.283H20.691a.274.274,0,0,1-.264-.283V68.775a.274.274,0,0,1,.264-.283h1.176a.274.274,0,0,1,.264.283Z" transform="translate(-15.624 -47.024)"/><path class="a" d="M95.43,67.7H94.254a1.042,1.042,0,0,0-1,1.075V69.8a1.043,1.043,0,0,0,1,1.075H95.43a1.042,1.042,0,0,0,1-1.075V68.775a1.042,1.042,0,0,0-1-1.075Zm.264,2.1a.274.274,0,0,1-.264.283H94.254a.274.274,0,0,1-.264-.283V68.775a.293.293,0,0,1,.077-.2.256.256,0,0,1,.187-.083H95.43a.274.274,0,0,1,.264.283Z" transform="translate(-73.636 -47.024)"/><path class="a" d="M52.872,67.7H47.465a1.042,1.042,0,0,0-1,1.075V69.8a1.043,1.043,0,0,0,1,1.075h5.407a1.043,1.043,0,0,0,1-1.075V68.775A1.042,1.042,0,0,0,52.872,67.7Zm.264,2.1a.274.274,0,0,1-.264.283H47.465A.274.274,0,0,1,47.2,69.8V68.775a.274.274,0,0,1,.264-.283h5.407a.274.274,0,0,1,.264.283Z" transform="translate(-36.738 -47.024)"/><path class="a" d="M26.986,16.951v-1.16a1.262,1.262,0,0,0-1.216-1.3h-.716a3.366,3.366,0,0,0-1.941.621l-.225.158-.358-3.061a2.987,2.987,0,0,0-2.885-2.726H17.923V8.225a1.262,1.262,0,0,0-1.216-1.3H10.154a1.262,1.262,0,0,0-1.216,1.3V9.482H7.216a2.987,2.987,0,0,0-2.885,2.725l-.358,3.061-.225-.158a3.366,3.366,0,0,0-1.941-.621H1.091a1.262,1.262,0,0,0-1.216,1.3v1.16a1.262,1.262,0,0,0,1.216,1.3H3.624l-.06.512L2.229,20.437A3.956,3.956,0,0,0,1.381,22.9v1.975a1.6,1.6,0,0,0,0,3.2v3.157a1.481,1.481,0,0,0,1.427,1.527H5.493A1.481,1.481,0,0,0,6.92,31.226V28.07H19.941v3.156a1.481,1.481,0,0,0,1.427,1.527h2.685a1.481,1.481,0,0,0,1.427-1.527V28.069a1.6,1.6,0,0,0,0-3.2V22.9a3.956,3.956,0,0,0-.847-2.46L23.3,18.764l-.06-.512h2.534A1.262,1.262,0,0,0,26.986,16.951Zm-26.371,0v-1.16a.494.494,0,0,1,.476-.509h.716a2.663,2.663,0,0,1,1.536.491l.528.371L3.717,17.46H1.091a.494.494,0,0,1-.476-.509ZM9.678,8.225a.494.494,0,0,1,.476-.509h6.553a.494.494,0,0,1,.476.509V9.482h-7.5Zm-3.5,23a.713.713,0,0,1-.687.735H2.808a.713.713,0,0,1-.687-.735V28.07H6.18Zm18.56,0a.713.713,0,0,1-.687.735H21.368a.713.713,0,0,1-.687-.735V28.07H24.74Zm1.48-4.754a.782.782,0,0,1-.753.806H1.395a.808.808,0,0,1,0-1.613H25.466a.782.782,0,0,1,.753.806Zm-2.15-5.518a3.13,3.13,0,0,1,.67,1.946v1.974H2.121V22.9a3.129,3.129,0,0,1,.67-1.946L4.2,19.188a.409.409,0,0,0,.086-.208l.78-6.675a2.227,2.227,0,0,1,2.151-2.031h12.43a2.227,2.227,0,0,1,2.15,2.031L22.227,16h0L22.45,17.9h0l.126,1.074a.409.409,0,0,0,.086.208ZM23.137,17.4l-.148-1.257.528-.371a2.663,2.663,0,0,1,1.536-.491h.716a.494.494,0,0,1,.476.509v1.16a.494.494,0,0,1-.476.509H23.144Z" transform="translate(0)"/></g></svg>