<svg xmlns="http://www.w3.org/2000/svg" width="25.062" height="21.509" viewBox="0 0 25.062 21.509"><defs><style>.a{fill:#03aa92;}</style></defs><path class="a" d="M25.062,38.566,19.09,41.659V38.566H17.543A4.915,4.915,0,0,0,19.09,35a5.075,5.075,0,0,0-5.14-5,5.173,5.173,0,0,0-4.405,2.426A5.173,5.173,0,0,0,5.14,30,5.075,5.075,0,0,0,0,35a4.915,4.915,0,0,0,1.547,3.569H0V51.509H19.09V48.416l5.972,3.093ZM13.95,31.428A3.57,3.57,0,1,1,10.279,35,3.625,3.625,0,0,1,13.95,31.428Zm-3.593,7.138H8.733a5.057,5.057,0,0,0,.812-1,5.058,5.058,0,0,0,.812,1ZM1.468,35A3.625,3.625,0,0,1,5.14,31.428a3.57,3.57,0,1,1,0,7.138A3.625,3.625,0,0,1,1.468,35ZM17.621,50.082H1.468V39.993H17.621Zm5.972-.951L19.09,46.8V43.277l4.5-2.333Z" transform="translate(0 -30)"/><path class="a" d="M60,277.233H73.216V270H60Zm1.468-5.806H71.748v4.378H61.468Z" transform="translate(-57.063 -258.579)"/></svg>