<svg width="19" height="19" viewBox="0 0 19 19" fill="none" xmlns="http://www.w3.org/2000/svg">
<path d="M7.91667 12.6667V6.33333C7.91667 5.4625 8.62125 4.75 9.5 4.75H16.625V3.95833C16.625 3.0875 15.9125 2.375 15.0417 2.375H3.95833C3.07958 2.375 2.375 3.0875 2.375 3.95833V15.0417C2.375 15.9125 3.07958 16.625 3.95833 16.625H15.0417C15.9125 16.625 16.625 15.9125 16.625 15.0417V14.25H9.5C8.62125 14.25 7.91667 13.5375 7.91667 12.6667ZM10.2917 6.33333C9.85625 6.33333 9.5 6.68958 9.5 7.125V11.875C9.5 12.3104 9.85625 12.6667 10.2917 12.6667H17.4167V6.33333H10.2917ZM12.6667 10.6875C12.0096 10.6875 11.4792 10.1571 11.4792 9.5C11.4792 8.84292 12.0096 8.3125 12.6667 8.3125C13.3238 8.3125 13.8542 8.84292 13.8542 9.5C13.8542 10.1571 13.3238 10.6875 12.6667 10.6875Z" fill="white"/>
</svg>
