<svg width="20" height="18" viewBox="0 0 20 18" fill="none" xmlns="http://www.w3.org/2000/svg">
<path d="M2.47207 17.9998H17.5321C19.0721 17.9998 20.0321 16.3298 19.2621 14.9998L11.7321 1.98981C10.9621 0.65981 9.04208 0.65981 8.27208 1.98981L0.742074 14.9998C-0.0279258 16.3298 0.932074 17.9998 2.47207 17.9998ZM10.0021 10.9998C9.45208 10.9998 9.00208 10.5498 9.00208 9.99981V7.99981C9.00208 7.44981 9.45208 6.99981 10.0021 6.99981C10.5521 6.99981 11.0021 7.44981 11.0021 7.99981V9.99981C11.0021 10.5498 10.5521 10.9998 10.0021 10.9998ZM11.0021 14.9998H9.00208V12.9998H11.0021V14.9998Z" fill="#D97917"/>
</svg>
