<svg width="21" height="19" viewBox="0 0 21 19" fill="none" xmlns="http://www.w3.org/2000/svg">
<path d="M8.98555 5.53789C8.59555 5.92789 8.59555 6.54789 8.98555 6.93789L10.8855 8.83789H1.68555C1.13555 8.83789 0.685547 9.28789 0.685547 9.83789C0.685547 10.3879 1.13555 10.8379 1.68555 10.8379H10.8855L8.98555 12.7379C8.59555 13.1279 8.59555 13.7479 8.98555 14.1379C9.37555 14.5279 9.99555 14.5279 10.3855 14.1379L13.9755 10.5479C14.3655 10.1579 14.3655 9.52789 13.9755 9.13789L10.3855 5.53789C9.99555 5.14789 9.37555 5.14789 8.98555 5.53789ZM18.6855 16.8379H11.6855C11.1355 16.8379 10.6855 17.2879 10.6855 17.8379C10.6855 18.3879 11.1355 18.8379 11.6855 18.8379H18.6855C19.7855 18.8379 20.6855 17.9379 20.6855 16.8379V2.83789C20.6855 1.73789 19.7855 0.837891 18.6855 0.837891H11.6855C11.1355 0.837891 10.6855 1.28789 10.6855 1.83789C10.6855 2.38789 11.1355 2.83789 11.6855 2.83789H18.6855V16.8379Z" fill="#0066F5"/>
</svg>
